solid v3d.csg
  facet normal 0.7071071725564559 0.7071063898131928 -2.1372147619497773E-6
    outer loop
      vertex 201.28846740722656 -201.85415649414062 947.7158813476562
      vertex 180.52720642089844 -181.0928955078125 940.1121826171875
      vertex 200.3121337890625 -200.8778076171875 952.40673828125
    endloop
  endfacet
  facet normal 0.7071072560147851 0.7071063063559512 -1.698568467025046E-6
    outer loop
      vertex 179.39828491210938 -179.96397399902344 945.8939208984375
      vertex 178.5443878173828 -179.1100616455078 951.7686767578125
      vertex 199.61009216308594 -200.17578125 957.1942138671875
    endloop
  endfacet
  facet normal 0.7071068028894915 0.7071067594812606 1.820127247965491E-6
    outer loop
      vertex 178.5443878173828 -179.1100616455078 951.7686767578125
      vertex 177.96922302246094 -178.534912109375 957.7103271484375
      vertex 199.61009216308594 -200.17578125 957.1942138671875
    endloop
  endfacet
  facet normal 0.7071061989050224 0.7071073634645253 2.0829417670530382E-6
    outer loop
      vertex 200.3121337890625 -200.8778076171875 952.40673828125
      vertex 179.39828491210938 -179.96397399902344 945.8939208984375
      vertex 199.61009216308594 -200.17578125 957.1942138671875
    endloop
  endfacet
  facet normal 0.7071067811865476 0.7071067811865476 0.0
    outer loop
      vertex 177.96922302246094 -178.534912109375 957.7103271484375
      vertex 177.7179412841797 -178.28363037109375 962.3145751953125
      vertex 199.18699645996094 -199.752685546875 962.0463256835938
    endloop
  endfacet
  facet normal 0.7071067811865475 0.7071067811865475 0.0
    outer loop
      vertex 199.61009216308594 -200.17578125 957.1942138671875
      vertex 177.96922302246094 -178.534912109375 957.7103271484375
      vertex 199.18699645996094 -199.752685546875 962.0463256835938
    endloop
  endfacet
  facet normal 0.7071070331418711 0.7071065292273019 -2.3280515316251186E-6
    outer loop
      vertex 177.7179412841797 -178.28363037109375 962.3145751953125
      vertex 177.6341094970703 -178.1997833251953 966.9310302734375
      vertex 199.045654296875 -199.61134338378906 966.9310302734375
    endloop
  endfacet
  facet normal 0.7071067811865476 0.7071067811865476 0.0
    outer loop
      vertex 199.18699645996094 -199.752685546875 962.0463256835938
      vertex 177.7179412841797 -178.28363037109375 962.3145751953125
      vertex 199.045654296875 -199.61134338378906 966.9310302734375
    endloop
  endfacet
  facet normal 0.7071070331437872 0.707106529229218 -0.0
    outer loop
      vertex 177.6341094970703 -178.1997833251953 966.9310302734375
      vertex 177.6341094970703 -178.1997833251953 1773.77001953125
      vertex 199.045654296875 -199.61134338378906 1773.77001953125
    endloop
  endfacet
  facet normal 0.7071070331437872 0.707106529229218 -0.0
    outer loop
      vertex 199.045654296875 -199.61134338378906 966.9310302734375
      vertex 177.6341094970703 -178.1997833251953 966.9310302734375
      vertex 199.045654296875 -199.61134338378906 1773.77001953125
    endloop
  endfacet
  facet normal 0.7071068844161612 0.707106677954887 1.6950796450445648E-6
    outer loop
      vertex 177.6341094970703 -178.1997833251953 1773.77001953125
      vertex 177.77548217773438 -178.34117126464844 1780.1180419921875
      vertex 199.17581176757812 -199.7415008544922 1777.511474609375
    endloop
  endfacet
  facet normal 0.7071070331437872 0.7071065292292179 -1.7530143864132016E-8
    outer loop
      vertex 199.045654296875 -199.61134338378906 1773.77001953125
      vertex 177.6341094970703 -178.1997833251953 1773.77001953125
      vertex 199.17581176757812 -199.7415008544922 1777.511474609375
    endloop
  endfacet
  facet normal 0.7071068243603937 0.7071067380106256 -1.7122220428452538E-6
    outer loop
      vertex 177.77548217773438 -178.34117126464844 1780.1180419921875
      vertex 178.1990509033203 -178.7647247314453 1786.44091796875
      vertex 199.5650177001953 -200.13070678710938 1781.2169189453125
    endloop
  endfacet
  facet normal 0.7071067811865476 0.7071067811865476 0.0
    outer loop
      vertex 199.17581176757812 -199.7415008544922 1777.511474609375
      vertex 177.77548217773438 -178.34117126464844 1780.1180419921875
      vertex 199.5650177001953 -200.13070678710938 1781.2169189453125
    endloop
  endfacet
  facet normal 0.7071070241442853 0.7071065382287242 -5.454009528091095E-8
    outer loop
      vertex 178.1990509033203 -178.7647247314453 1786.44091796875
      vertex 178.9031524658203 -179.4688262939453 1792.7139892578125
      vertex 200.24215698242188 -200.80784606933594 1785.0015869140625
    endloop
  endfacet
  facet normal 0.7071070230987597 0.7071065392742473 -8.656415458070818E-8
    outer loop
      vertex 199.5650177001953 -200.13070678710938 1781.2169189453125
      vertex 178.1990509033203 -178.7647247314453 1786.44091796875
      vertex 200.24215698242188 -200.80784606933594 1785.0015869140625
    endloop
  endfacet
  facet normal 0.707106526191847 0.7071070361755727 -2.81003780291061E-6
    outer loop
      vertex 200.24215698242188 -200.80784606933594 1785.0015869140625
      vertex 178.9031524658203 -179.4688262939453 1792.7139892578125
      vertex 201.18954467773438 -201.75521850585938 1788.6693115234375
    endloop
  endfacet
  facet normal 0.7071067811865475 0.7071067811865475 0.0
    outer loop
      vertex 178.9031524658203 -179.4688262939453 1792.7139892578125
      vertex 179.88502502441406 -180.45069885253906 1798.912353515625
      vertex 201.18954467773438 -201.75521850585938 1788.6693115234375
    endloop
  endfacet
  facet normal 0.7071072699877199 0.7071062923832994 1.5677210261579673E-6
    outer loop
      vertex 179.88502502441406 -180.45069885253906 1798.912353515625
      vertex 181.1408233642578 -181.70651245117188 1805.0115966796875
      vertex 202.26527404785156 -202.83096313476562 1791.8387451171875
    endloop
  endfacet
  facet normal 0.7071056911428879 0.7071078712251837 2.17430058232763E-6
    outer loop
      vertex 191.5164031982422 -192.0820770263672 910.6831665039062
      vertex 189.8313751220703 -190.39706420898438 913.9559936523438
      vertex 207.2872772216797 -207.85296630859375 931.4583129882812
    endloop
  endfacet
  facet normal 0.7071062059565196 0.7071073564137007 -1.844913826748566E-6
    outer loop
      vertex 181.1408233642578 -181.70651245117188 1805.0115966796875
      vertex 182.4111328125 -182.976806640625 1810.0677490234375
      vertex 202.26527404785156 -202.83096313476562 1791.8387451171875
    endloop
  endfacet
  facet normal 0.7071074847439678 0.7071060776223705 2.926674492287452E-6
    outer loop
      vertex 201.18954467773438 -201.75521850585938 1788.6693115234375
      vertex 179.88502502441406 -180.45069885253906 1798.912353515625
      vertex 202.26527404785156 -202.83096313476562 1791.8387451171875
    endloop
  endfacet
  facet normal 0.707106976192686 0.7071065861803355 -1.671089637370654E-7
    outer loop
      vertex 202.26527404785156 -202.83096313476562 1791.8387451171875
      vertex 182.4111328125 -182.976806640625 1810.0677490234375
      vertex 203.6968231201172 -204.26251220703125 1795.1798095703125
    endloop
  endfacet
  facet normal 0.7071076229681712 0.7071059394019205 1.6823207489252326E-6
    outer loop
      vertex 182.4111328125 -182.976806640625 1810.0677490234375
      vertex 183.8697052001953 -184.43539428710938 1815.0216064453125
      vertex 203.6968231201172 -204.26251220703125 1795.1798095703125
    endloop
  endfacet
  facet normal 0.7071069787285995 0.7071065836444064 2.1943369543044643E-7
    outer loop
      vertex 208.91709899902344 -209.4827880859375 928.5238647460938
      vertex 191.5164031982422 -192.0820770263672 910.6831665039062
      vertex 207.2872772216797 -207.85296630859375 931.4583129882812
    endloop
  endfacet
  facet normal 0.7071067811865476 0.7071067811865476 0.0
    outer loop
      vertex 203.6968231201172 -204.26251220703125 1795.1798095703125
      vertex 183.8697052001953 -184.43539428710938 1815.0216064453125
      vertex 205.18655395507812 -205.7522430419922 1798.2862548828125
    endloop
  endfacet
  facet normal 0.7071067811865476 0.7071067811865476 0.0
    outer loop
      vertex 189.8313751220703 -190.39706420898438 913.9559936523438
      vertex 187.4485626220703 -188.01425170898438 918.9238891601562
      vertex 205.7899627685547 -206.35565185546875 934.5301513671875
    endloop
  endfacet
  facet normal 0.7071067811865476 0.7071067811865476 0.0
    outer loop
      vertex 187.4485626220703 -188.01425170898438 918.9238891601562
      vertex 185.5084991455078 -186.07418823242188 923.5774536132812
      vertex 205.7899627685547 -206.35565185546875 934.5301513671875
    endloop
  endfacet
  facet normal 0.7071067811865476 0.7071067811865476 0.0
    outer loop
      vertex 207.2872772216797 -207.85296630859375 931.4583129882812
      vertex 189.8313751220703 -190.39706420898438 913.9559936523438
      vertex 205.7899627685547 -206.35565185546875 934.5301513671875
    endloop
  endfacet
  facet normal 0.7071067811865476 0.7071067811865476 0.0
    outer loop
      vertex 185.5084991455078 -186.07418823242188 923.5774536132812
      vertex 183.5890350341797 -184.15472412109375 928.9291381835938
      vertex 204.03648376464844 -204.6021728515625 938.7477416992188
    endloop
  endfacet
  facet normal 0.7071067811865476 0.7071067811865476 0.0
    outer loop
      vertex 205.7899627685547 -206.35565185546875 934.5301513671875
      vertex 185.5084991455078 -186.07418823242188 923.5774536132812
      vertex 204.03648376464844 -204.6021728515625 938.7477416992188
    endloop
  endfacet
  facet normal 0.7071073796573603 0.7071061827134311 -1.594147244273717E-6
    outer loop
      vertex 183.5890350341797 -184.15472412109375 928.9291381835938
      vertex 181.92617797851562 -182.49185180664062 934.4488525390625
      vertex 202.5326690673828 -203.09835815429688 943.1527099609375
    endloop
  endfacet
  facet normal 0.7071067811865476 0.7071067811865476 0.0
    outer loop
      vertex 204.03648376464844 -204.6021728515625 938.7477416992188
      vertex 183.5890350341797 -184.15472412109375 928.9291381835938
      vertex 202.5326690673828 -203.09835815429688 943.1527099609375
    endloop
  endfacet
  facet normal 0.7071064612512818 0.7071071011195101 1.7471064748248095E-6
    outer loop
      vertex 181.92617797851562 -182.49185180664062 934.4488525390625
      vertex 180.52720642089844 -181.0928955078125 940.1121826171875
      vertex 201.28846740722656 -201.85415649414062 947.7158813476562
    endloop
  endfacet
  facet normal 0.707107015950015 0.7071065464229904 1.2802199477396933E-7
    outer loop
      vertex 202.5326690673828 -203.09835815429688 943.1527099609375
      vertex 181.92617797851562 -182.49185180664062 934.4488525390625
      vertex 201.28846740722656 -201.85415649414062 947.7158813476562
    endloop
  endfacet
  facet normal 0.7071065380189372 0.7071070243540679 -9.496005575524851E-8
    outer loop
      vertex 180.52720642089844 -181.0928955078125 940.1121826171875
      vertex 179.39828491210938 -179.96397399902344 945.8939208984375
      vertex 200.3121337890625 -200.8778076171875 952.40673828125
    endloop
  endfacet
  facet normal -0.6593458940043572 0.7518397382817663 0.0
    outer loop
      vertex 177.6341094970703 -178.1997833251953 966.9310302734375
      vertex 153.48936462402344 -199.37416076660156 966.9310302734375
      vertex 153.48936462402344 -199.37416076660156 1773.77001953125
    endloop
  endfacet
  facet normal -0.6593458940043572 0.7518397382817663 0.0
    outer loop
      vertex 177.6341094970703 -178.1997833251953 1773.77001953125
      vertex 177.6341094970703 -178.1997833251953 966.9310302734375
      vertex 153.48936462402344 -199.37416076660156 1773.77001953125
    endloop
  endfacet
  facet normal -0.7933533477533229 -0.6087614192839077 -1.9414729519688808E-7
    outer loop
      vertex 153.48936462402344 -199.37416076660156 1773.77001953125
      vertex 171.9229736328125 -223.39730834960938 1773.77001953125
      vertex 153.58673095703125 -199.5010528564453 1779.448486328125
    endloop
  endfacet
  facet normal -0.7933536801106259 -0.6087609861404245 -2.874823693711368E-6
    outer loop
      vertex 172.04461669921875 -223.5558319091797 1777.66796875
      vertex 172.4082794189453 -224.02978515625 1781.5252685546875
      vertex 153.8785400390625 -199.88134765625 1785.10888671875
    endloop
  endfacet
  facet normal -0.7933535945300731 -0.608761097677816 5.593138722920311E-7
    outer loop
      vertex 165.44088745117188 -214.94969177246094 910.6831665039062
      vertex 180.42147827148438 -234.4727783203125 928.5238647460938
      vertex 178.60372924804688 -232.1038360595703 932.40234375
    endloop
  endfacet
  facet normal -0.7933532745037519 -0.6087615147445947 -2.0274522801150076E-7
    outer loop
      vertex 153.58673095703125 -199.5010528564453 1779.448486328125
      vertex 172.04461669921875 -223.5558319091797 1777.66796875
      vertex 153.8785400390625 -199.88134765625 1785.10888671875
    endloop
  endfacet
  facet normal -0.7933523479135878 -0.6087627222964701 -1.4793433881583749E-6
    outer loop
      vertex 165.44088745117188 -214.94969177246094 910.6831665039062
      vertex 178.60372924804688 -232.1038360595703 932.40234375
      vertex 163.99021911621094 -213.0591583251953 913.9559936523438
    endloop
  endfacet
  facet normal -0.793353347831748 -0.6087614191791847 1.7613427951234513E-6
    outer loop
      vertex 153.8785400390625 -199.88134765625 1785.10888671875
      vertex 172.4082794189453 -224.02978515625 1781.5252685546875
      vertex 154.43389892578125 -200.60508728027344 1791.3946533203125
    endloop
  endfacet
  facet normal -0.793353384769462 -0.6087613710415124 1.5798175026283967E-6
    outer loop
      vertex 172.4082794189453 -224.02978515625 1781.5252685546875
      vertex 173.0102081298828 -224.81422424316406 1785.3017578125
      vertex 154.43389892578125 -200.60508728027344 1791.3946533203125
    endloop
  endfacet
  facet normal -0.7933530296863943 -0.6087618337959109 -9.267961018319296E-7
    outer loop
      vertex 178.60372924804688 -232.1038360595703 932.40234375
      vertex 177.13763427734375 -230.1931915283203 936.090576171875
      vertex 162.49246215820312 -211.1072235107422 917.5113525390625
    endloop
  endfacet
  facet normal -0.7933541871082589 -0.6087603254087606 2.4523310934270696E-6
    outer loop
      vertex 163.99021911621094 -213.0591583251953 913.9559936523438
      vertex 178.60372924804688 -232.1038360595703 932.40234375
      vertex 162.49246215820312 -211.1072235107422 917.5113525390625
    endloop
  endfacet
  facet normal -0.7933532640493272 -0.6087615283689647 4.009832747445708E-7
    outer loop
      vertex 173.0102081298828 -224.81422424316406 1785.3017578125
      vertex 173.84414672851562 -225.90103149414062 1788.9580078125
      vertex 155.22897338867188 -201.64126586914062 1797.611083984375
    endloop
  endfacet
  facet normal -0.793353765773167 -0.6087608745074847 -1.554702511355355E-6
    outer loop
      vertex 154.43389892578125 -200.60508728027344 1791.3946533203125
      vertex 173.0102081298828 -224.81422424316406 1785.3017578125
      vertex 155.22897338867188 -201.64126586914062 1797.611083984375
    endloop
  endfacet
  facet normal -0.7933535080680911 -0.6087612103567555 -1.0155480268888404E-6
    outer loop
      vertex 155.22897338867188 -201.64126586914062 1797.611083984375
      vertex 173.84414672851562 -225.90103149414062 1788.9580078125
      vertex 156.26068115234375 -202.98582458496094 1803.7335205078125
    endloop
  endfacet
  facet normal -0.7933530680580854 -0.6087617837888469 -1.021778329524036E-6
    outer loop
      vertex 177.13763427734375 -230.1931915283203 936.090576171875
      vertex 175.7075653076172 -228.32949829101562 940.3822021484375
      vertex 161.10035705566406 -209.29299926757812 921.1802368164062
    endloop
  endfacet
  facet normal -0.7933528671921546 -0.6087620455620578 1.0424328304120799E-6
    outer loop
      vertex 173.84414672851562 -225.90103149414062 1788.9580078125
      vertex 174.79736328125 -227.14328002929688 1792.1484375
      vertex 156.26068115234375 -202.98582458496094 1803.7335205078125
    endloop
  endfacet
  facet normal -0.7933532958358099 -0.6087614869440477 -3.606902314024013E-7
    outer loop
      vertex 162.49246215820312 -211.1072235107422 917.5113525390625
      vertex 177.13763427734375 -230.1931915283203 936.090576171875
      vertex 161.10035705566406 -209.29299926757812 921.1802368164062
    endloop
  endfacet
  facet normal -0.7933530790606604 -0.6087617694507166 4.4942475828854846E-7
    outer loop
      vertex 174.79736328125 -227.14328002929688 1792.1484375
      vertex 175.92724609375 -228.6157684326172 1795.1798095703125
      vertex 157.38827514648438 -204.455322265625 1809.1436767578125
    endloop
  endfacet
  facet normal -0.7933528719447401 -0.6087620393684123 1.0219133502133503E-6
    outer loop
      vertex 156.26068115234375 -202.98582458496094 1803.7335205078125
      vertex 174.79736328125 -227.14328002929688 1792.1484375
      vertex 157.38827514648438 -204.455322265625 1809.1436767578125
    endloop
  endfacet
  facet normal -0.7933544965461544 -0.6087599221394486 -2.6020092828122197E-6
    outer loop
      vertex 175.92724609375 -228.6157684326172 1795.1798095703125
      vertex 177.20977783203125 -230.28721618652344 1798.2862548828125
      vertex 158.8577117919922 -206.3703155517578 1815.0216064453125
    endloop
  endfacet
  facet normal -0.7933528894663168 -0.6087620165336964 1.1286434113163519E-6
    outer loop
      vertex 157.38827514648438 -204.455322265625 1809.1436767578125
      vertex 175.92724609375 -228.6157684326172 1795.1798095703125
      vertex 158.8577117919922 -206.3703155517578 1815.0216064453125
    endloop
  endfacet
  facet normal -0.7933539512818526 -0.6087606327489038 7.912238112767315E-7
    outer loop
      vertex 161.10035705566406 -209.29299926757812 921.1802368164062
      vertex 175.7075653076172 -228.32949829101562 940.3822021484375
      vertex 159.3488006591797 -207.01031494140625 926.4464111328125
    endloop
  endfacet
  facet normal -0.7933539564499711 -0.608760626010913 1.9946505423619974E-6
    outer loop
      vertex 175.7075653076172 -228.32949829101562 940.3822021484375
      vertex 174.49588012695312 -226.75038146972656 944.8504638671875
      vertex 157.81488037109375 -205.0112762451172 931.8916015625
    endloop
  endfacet
  facet normal -0.7933534851961515 -0.6087612401645252 -6.851323761988322E-7
    outer loop
      vertex 159.3488006591797 -207.01031494140625 926.4464111328125
      vertex 175.7075653076172 -228.32949829101562 940.3822021484375
      vertex 157.81488037109375 -205.0112762451172 931.8916015625
    endloop
  endfacet
  facet normal -0.7933530287257411 -0.6087618350446613 -2.1794861560904744E-6
    outer loop
      vertex 174.49588012695312 -226.75038146972656 944.8504638671875
      vertex 173.5105743408203 -225.46632385253906 949.4654541015625
      vertex 156.50535583496094 -203.30467224121094 937.4916381835938
    endloop
  endfacet
  facet normal -0.7933533334317872 -0.6087614379481037 -1.6937848554378097E-7
    outer loop
      vertex 157.81488037109375 -205.0112762451172 931.8916015625
      vertex 174.49588012695312 -226.75038146972656 944.8504638671875
      vertex 156.50535583496094 -203.30467224121094 937.4916381835938
    endloop
  endfacet
  facet normal -0.7933535310464765 -0.6087611804114185 4.288001117603154E-7
    outer loop
      vertex 173.5105743408203 -225.46632385253906 949.4654541015625
      vertex 172.7581787109375 -224.48577880859375 954.196533203125
      vertex 155.4259796142578 -201.89801025390625 943.2218627929688
    endloop
  endfacet
  facet normal -0.7933533595286998 -0.608761403937285 -9.117676459058898E-7
    outer loop
      vertex 156.50535583496094 -203.30467224121094 937.4916381835938
      vertex 173.5105743408203 -225.46632385253906 949.4654541015625
      vertex 155.4259796142578 -201.89801025390625 943.2218627929688
    endloop
  endfacet
  facet normal -0.7933533970248687 -0.6087613550718385 4.4740479521359045E-7
    outer loop
      vertex 172.7581787109375 -224.48577880859375 954.196533203125
      vertex 172.24365234375 -223.8152313232422 959.01220703125
      vertex 154.58151245117188 -200.7974853515625 949.0568237304688
    endloop
  endfacet
  facet normal -0.7933532853595879 -0.6087615005967162 -6.182076833552999E-7
    outer loop
      vertex 155.4259796142578 -201.89801025390625 943.2218627929688
      vertex 172.7581787109375 -224.48577880859375 954.196533203125
      vertex 154.58151245117188 -200.7974853515625 949.0568237304688
    endloop
  endfacet
  facet normal -0.7933533469344601 -0.6087614203510658 2.076064466102544E-7
    outer loop
      vertex 154.58151245117188 -200.7974853515625 949.0568237304688
      vertex 172.24365234375 -223.8152313232422 959.01220703125
      vertex 153.97564697265625 -200.00790405273438 954.9708251953125
    endloop
  endfacet
  facet normal -0.793353302251356 -0.6087614785825848 9.021248239973662E-7
    outer loop
      vertex 172.24365234375 -223.8152313232422 959.01220703125
      vertex 172.00323486328125 -223.5019073486328 962.962890625
      vertex 153.61106872558594 -199.53277587890625 960.9376220703125
    endloop
  endfacet
  facet normal -0.7933533346067762 -0.608761436416849 5.724066115914608E-8
    outer loop
      vertex 153.97564697265625 -200.00790405273438 954.9708251953125
      vertex 172.24365234375 -223.8152313232422 959.01220703125
      vertex 153.61106872558594 -199.53277587890625 960.9376220703125
    endloop
  endfacet
  facet normal -0.7933533477533352 -0.6087614192839172 8.044424550651325E-8
    outer loop
      vertex 172.00323486328125 -223.5019073486328 962.962890625
      vertex 171.9229736328125 -223.39730834960938 966.9310302734375
      vertex 153.48936462402344 -199.37416076660156 966.9310302734375
    endloop
  endfacet
  facet normal -0.7933532955435789 -0.6087614873245502 7.377476758575532E-7
    outer loop
      vertex 153.61106872558594 -199.53277587890625 960.9376220703125
      vertex 172.00323486328125 -223.5019073486328 962.962890625
      vertex 153.48936462402344 -199.37416076660156 966.9310302734375
    endloop
  endfacet
  facet normal -0.7933533477533377 -0.6087614192839191 0.0
    outer loop
      vertex 153.48936462402344 -199.37416076660156 966.9310302734375
      vertex 171.9229736328125 -223.39730834960938 966.9310302734375
      vertex 171.9229736328125 -223.39730834960938 1773.77001953125
    endloop
  endfacet
  facet normal -0.7933533477533377 -0.6087614192839191 0.0
    outer loop
      vertex 153.48936462402344 -199.37416076660156 966.9310302734375
      vertex 171.9229736328125 -223.39730834960938 1773.77001953125
      vertex 153.48936462402344 -199.37416076660156 1773.77001953125
    endloop
  endfacet
  facet normal -0.7933532409182198 -0.608761558513688 7.367421448066878E-7
    outer loop
      vertex 171.9229736328125 -223.39730834960938 1773.77001953125
      vertex 172.04461669921875 -223.5558319091797 1777.66796875
      vertex 153.58673095703125 -199.5010528564453 1779.448486328125
    endloop
  endfacet
  facet normal -0.542560086836164 0.6186709742969732 -0.5682207121662922
    outer loop
      vertex 189.8313751220703 -190.39706420898438 913.9559936523438
      vertex 163.99021911621094 -213.0591583251953 913.9559936523438
      vertex 162.49246215820312 -211.1072235107422 917.5113525390625
    endloop
  endfacet
  facet normal -0.5604426180168781 0.6379623924813124 -0.5281174658065264
    outer loop
      vertex 187.4485626220703 -188.01425170898438 918.9238891601562
      vertex 162.49246215820312 -211.1072235107422 917.5113525390625
      vertex 161.10035705566406 -209.29299926757812 921.1802368164062
    endloop
  endfacet
  facet normal -0.5451527976574372 0.6234195474987377 -0.5604966503046548
    outer loop
      vertex 187.4485626220703 -188.01425170898438 918.9238891601562
      vertex 189.8313751220703 -190.39706420898438 913.9559936523438
      vertex 162.49246215820312 -211.1072235107422 917.5113525390625
    endloop
  endfacet
  facet normal -0.5800240525886494 0.6591510123882899 -0.47863560386387055
    outer loop
      vertex 185.5084991455078 -186.07418823242188 923.5774536132812
      vertex 161.10035705566406 -209.29299926757812 921.1802368164062
      vertex 159.3488006591797 -207.01031494140625 926.4464111328125
    endloop
  endfacet
  facet normal -0.5674036414957352 0.6488167831269285 -0.5070403233966737
    outer loop
      vertex 185.5084991455078 -186.07418823242188 923.5774536132812
      vertex 187.4485626220703 -188.01425170898438 918.9238891601562
      vertex 161.10035705566406 -209.29299926757812 921.1802368164062
    endloop
  endfacet
  facet normal -0.5997433561665187 0.6816115306359553 -0.41918209412882923
    outer loop
      vertex 183.5890350341797 -184.15472412109375 928.9291381835938
      vertex 159.3488006591797 -207.01031494140625 926.4464111328125
      vertex 157.81488037109375 -205.0112762451172 931.8916015625
    endloop
  endfacet
  facet normal -0.587179665654185 0.6718031089169118 -0.45155356613785197
    outer loop
      vertex 183.5890350341797 -184.15472412109375 928.9291381835938
      vertex 185.5084991455078 -186.07418823242188 923.5774536132812
      vertex 159.3488006591797 -207.01031494140625 926.4464111328125
    endloop
  endfacet
  facet normal -0.6168079371280689 0.7010493398739164 -0.35787957717388996
    outer loop
      vertex 181.92617797851562 -182.49185180664062 934.4488525390625
      vertex 157.81488037109375 -205.0112762451172 931.8916015625
      vertex 156.50535583496094 -203.30467224121094 937.4916381835938
    endloop
  endfacet
  facet normal -0.6056690017539899 0.6929077338708063 -0.3912082982968908
    outer loop
      vertex 181.92617797851562 -182.49185180664062 934.4488525390625
      vertex 183.5890350341797 -184.15472412109375 928.9291381835938
      vertex 157.81488037109375 -205.0112762451172 931.8916015625
    endloop
  endfacet
  facet normal -0.6311456183322368 0.717381568317199 -0.29498965049434245
    outer loop
      vertex 180.52720642089844 -181.0928955078125 940.1121826171875
      vertex 156.50535583496094 -203.30467224121094 937.4916381835938
      vertex 155.4259796142578 -201.89801025390625 943.2218627929688
    endloop
  endfacet
  facet normal -0.6214702852267828 0.7109462827142639 -0.3291353333735404
    outer loop
      vertex 180.52720642089844 -181.0928955078125 940.1121826171875
      vertex 181.92617797851562 -182.49185180664062 934.4488525390625
      vertex 156.50535583496094 -203.30467224121094 937.4916381835938
    endloop
  endfacet
  facet normal -0.6426926197268547 0.730532741463759 -0.23079885224601326
    outer loop
      vertex 179.39828491210938 -179.96397399902344 945.8939208984375
      vertex 155.4259796142578 -201.89801025390625 943.2218627929688
      vertex 154.58151245117188 -200.7974853515625 949.0568237304688
    endloop
  endfacet
  facet normal -0.6345146543722454 0.7258364882407672 -0.26561729184144006
    outer loop
      vertex 179.39828491210938 -179.96397399902344 945.8939208984375
      vertex 180.52720642089844 -181.0928955078125 940.1121826171875
      vertex 155.4259796142578 -201.89801025390625 943.2218627929688
    endloop
  endfacet
  facet normal -0.6513966679242787 0.7404472892980026 -0.1655904368868772
    outer loop
      vertex 178.5443878173828 -179.1100616455078 951.7686767578125
      vertex 154.58151245117188 -200.7974853515625 949.0568237304688
      vertex 153.97564697265625 -200.00790405273438 954.9708251953125
    endloop
  endfacet
  facet normal -0.6447481412976847 0.7375182298975297 -0.20091464571303788
    outer loop
      vertex 178.5443878173828 -179.1100616455078 951.7686767578125
      vertex 179.39828491210938 -179.96397399902344 945.8939208984375
      vertex 154.58151245117188 -200.7974853515625 949.0568237304688
    endloop
  endfacet
  facet normal -0.6572214350795196 0.747081413952154 -0.09964610478722671
    outer loop
      vertex 177.96922302246094 -178.534912109375 957.7103271484375
      vertex 153.97564697265625 -200.00790405273438 954.9708251953125
      vertex 153.61106872558594 -199.53277587890625 960.9376220703125
    endloop
  endfacet
  facet normal -0.6521222757871975 0.7459366245962049 -0.135333253519403
    outer loop
      vertex 177.96922302246094 -178.534912109375 957.7103271484375
      vertex 178.5443878173828 -179.1100616455078 951.7686767578125
      vertex 153.97564697265625 -200.00790405273438 954.9708251953125
    endloop
  endfacet
  facet normal -0.6598072799323251 0.7506981844951592 -0.033265434672917954
    outer loop
      vertex 177.7179412841797 -178.28363037109375 962.3145751953125
      vertex 153.61106872558594 -199.53277587890625 960.9376220703125
      vertex 153.48936462402344 -199.37416076660156 966.9310302734375
    endloop
  endfacet
  facet normal -0.6568191739330851 0.7501283459468334 -0.07678565856282975
    outer loop
      vertex 177.7179412841797 -178.28363037109375 962.3145751953125
      vertex 177.96922302246094 -178.534912109375 957.7103271484375
      vertex 153.61106872558594 -199.53277587890625 960.9376220703125
    endloop
  endfacet
  facet normal -0.6591294616563742 0.7515929445406618 -0.025620275042939396
    outer loop
      vertex 177.6341094970703 -178.1997833251953 966.9310302734375
      vertex 177.7179412841797 -178.28363037109375 962.3145751953125
      vertex 153.48936462402344 -199.37416076660156 966.9310302734375
    endloop
  endfacet
  facet normal -0.5334198292043916 0.6082487093934726 -0.5877897526605346
    outer loop
      vertex 189.8313751220703 -190.39706420898438 913.9559936523438
      vertex 191.5164031982422 -192.0820770263672 910.6831665039062
      vertex 165.44088745117188 -214.94969177246094 910.6831665039062
    endloop
  endfacet
  facet normal -0.533420357773837 0.6082491146338835 -0.5877888536366853
    outer loop
      vertex 189.8313751220703 -190.39706420898438 913.9559936523438
      vertex 165.44088745117188 -214.94969177246094 910.6831665039062
      vertex 163.99021911621094 -213.0591583251953 913.9559936523438
    endloop
  endfacet
  facet normal 0.3875536672443892 -0.4419202380865792 -0.8090170938706588
    outer loop
      vertex 191.5164031982422 -192.0820770263672 910.6831665039062
      vertex 208.91709899902344 -209.4827880859375 928.5238647460938
      vertex 165.44088745117188 -214.94969177246094 910.6831665039062
    endloop
  endfacet
  facet normal 0.38755366760783694 -0.4419202336673447 -0.8090170961105295
    outer loop
      vertex 208.91709899902344 -209.4827880859375 928.5238647460938
      vertex 180.42147827148438 -234.4727783203125 928.5238647460938
      vertex 165.44088745117188 -214.94969177246094 910.6831665039062
    endloop
  endfacet
  facet normal 0.5189413451982287 -0.5917391569151802 0.6168830119375672
    outer loop
      vertex 180.42147827148438 -234.4727783203125 928.5238647460938
      vertex 208.91709899902344 -209.4827880859375 928.5238647460938
      vertex 207.2872772216797 -207.85296630859375 931.4583129882812
    endloop
  endfacet
  facet normal 0.5236030912425474 -0.5955953519856361 0.6091846842578652
    outer loop
      vertex 178.60372924804688 -232.1038360595703 932.40234375
      vertex 180.42147827148438 -234.4727783203125 928.5238647460938
      vertex 207.2872772216797 -207.85296630859375 931.4583129882812
    endloop
  endfacet
  facet normal 0.5532319111715968 -0.6292415882726446 0.5458841232803371
    outer loop
      vertex 177.13763427734375 -230.1931915283203 936.090576171875
      vertex 178.60372924804688 -232.1038360595703 932.40234375
      vertex 205.7899627685547 -206.35565185546875 934.5301513671875
    endloop
  endfacet
  facet normal 0.5427473780742694 -0.6198924087996659 0.5667086421663728
    outer loop
      vertex 178.60372924804688 -232.1038360595703 932.40234375
      vertex 207.2872772216797 -207.85296630859375 931.4583129882812
      vertex 205.7899627685547 -206.35565185546875 934.5301513671875
    endloop
  endfacet
  facet normal 0.5796174388290469 -0.6590080354904148 0.4793245599427599
    outer loop
      vertex 175.7075653076172 -228.32949829101562 940.3822021484375
      vertex 177.13763427734375 -230.1931915283203 936.090576171875
      vertex 204.03648376464844 -204.6021728515625 938.7477416992188
    endloop
  endfacet
  facet normal 0.5677598657768359 -0.6493145827925253 0.5060032681574678
    outer loop
      vertex 177.13763427734375 -230.1931915283203 936.090576171875
      vertex 205.7899627685547 -206.35565185546875 934.5301513671875
      vertex 204.03648376464844 -204.6021728515625 938.7477416992188
    endloop
  endfacet
  facet normal 0.6034718405185835 -0.686193509956672 0.40615293251982787
    outer loop
      vertex 174.49588012695312 -226.75038146972656 944.8504638671875
      vertex 175.7075653076172 -228.32949829101562 940.3822021484375
      vertex 202.5326690673828 -203.09835815429688 943.1527099609375
    endloop
  endfacet
  facet normal 0.5930612190203082 -0.6781819027194916 0.4339904345926488
    outer loop
      vertex 175.7075653076172 -228.32949829101562 940.3822021484375
      vertex 204.03648376464844 -204.6021728515625 938.7477416992188
      vertex 202.5326690673828 -203.09835815429688 943.1527099609375
    endloop
  endfacet
  facet normal 0.6233070439370092 -0.7087993645607861 0.33029046273959084
    outer loop
      vertex 173.5105743408203 -225.46632385253906 949.4654541015625
      vertex 174.49588012695312 -226.75038146972656 944.8504638671875
      vertex 201.28846740722656 -201.85415649414062 947.7158813476562
    endloop
  endfacet
  facet normal 0.6144102984581346 -0.7025386269819993 0.3590814152066815
    outer loop
      vertex 174.49588012695312 -226.75038146972656 944.8504638671875
      vertex 202.5326690673828 -203.09835815429688 943.1527099609375
      vertex 201.28846740722656 -201.85415649414062 947.7158813476562
    endloop
  endfacet
  facet normal 0.6389963743771023 -0.7266798639731594 0.25223007122242347
    outer loop
      vertex 172.7581787109375 -224.48577880859375 954.196533203125
      vertex 173.5105743408203 -225.46632385253906 949.4654541015625
      vertex 200.3121337890625 -200.8778076171875 952.40673828125
    endloop
  endfacet
  facet normal 0.6316592312172365 -0.7222185983294012 0.28179232041552255
    outer loop
      vertex 173.5105743408203 -225.46632385253906 949.4654541015625
      vertex 201.28846740722656 -201.85415649414062 947.7158813476562
      vertex 200.3121337890625 -200.8778076171875 952.40673828125
    endloop
  endfacet
  facet normal 0.6504346578482533 -0.7397162689749814 0.17249520945104138
    outer loop
      vertex 172.24365234375 -223.8152313232422 959.01220703125
      vertex 172.7581787109375 -224.48577880859375 954.196533203125
      vertex 199.61009216308594 -200.17578125 957.1942138671875
    endloop
  endfacet
  facet normal 0.6446973786993635 -0.7370944569731512 0.20262539672416355
    outer loop
      vertex 172.7581787109375 -224.48577880859375 954.196533203125
      vertex 200.3121337890625 -200.8778076171875 952.40673828125
      vertex 199.61009216308594 -200.17578125 957.1942138671875
    endloop
  endfacet
  facet normal 0.6565776470665795 -0.747699304754517 0.09925493963590053
    outer loop
      vertex 172.00323486328125 -223.5019073486328 962.962890625
      vertex 172.24365234375 -223.8152313232422 959.01220703125
      vertex 199.18699645996094 -199.752685546875 962.0463256835938
    endloop
  endfacet
  facet normal 0.6534366403985405 -0.747065547477439 0.12212135258382442
    outer loop
      vertex 172.24365234375 -223.8152313232422 959.01220703125
      vertex 199.61009216308594 -200.17578125 957.1942138671875
      vertex 199.18699645996094 -199.752685546875 962.0463256835938
    endloop
  endfacet
  facet normal 0.6589839250875271 -0.7514267589556705 0.03313627018258188
    outer loop
      vertex 171.9229736328125 -223.39730834960938 966.9310302734375
      vertex 172.00323486328125 -223.5019073486328 962.962890625
      vertex 199.045654296875 -199.61134338378906 966.9310302734375
    endloop
  endfacet
  facet normal 0.6581626369886229 -0.7517695934941612 0.04079732307156611
    outer loop
      vertex 172.00323486328125 -223.5019073486328 962.962890625
      vertex 199.18699645996094 -199.752685546875 962.0463256835938
      vertex 199.045654296875 -199.61134338378906 966.9310302734375
    endloop
  endfacet
  facet normal 0.6593460095558583 -0.7518396369457825 0.0
    outer loop
      vertex 199.045654296875 -199.61134338378906 966.9310302734375
      vertex 199.045654296875 -199.61134338378906 1773.77001953125
      vertex 171.9229736328125 -223.39730834960938 966.9310302734375
    endloop
  endfacet
  facet normal 0.6593460095558583 -0.7518396369457825 0.0
    outer loop
      vertex 199.045654296875 -199.61134338378906 1773.77001953125
      vertex 171.9229736328125 -223.39730834960938 1773.77001953125
      vertex 171.9229736328125 -223.39730834960938 966.9310302734375
    endloop
  endfacet
  facet normal 0.6585529155245629 -0.7509352869991518 -0.04903317441895304
    outer loop
      vertex 171.9229736328125 -223.39730834960938 1773.77001953125
      vertex 199.045654296875 -199.61134338378906 1773.77001953125
      vertex 199.17581176757812 -199.7415008544922 1777.511474609375
    endloop
  endfacet
  facet normal 0.6586454168632434 -0.7507173608965972 -0.051084820578058555
    outer loop
      vertex 172.04461669921875 -223.5558319091797 1777.66796875
      vertex 171.9229736328125 -223.39730834960938 1773.77001953125
      vertex 199.17581176757812 -199.7415008544922 1777.511474609375
    endloop
  endfacet
  facet normal 0.6519177255704981 -0.7427504759345189 -0.15272527487627685
    outer loop
      vertex 172.4082794189453 -224.02978515625 1781.5252685546875
      vertex 172.04461669921875 -223.5558319091797 1777.66796875
      vertex 199.5650177001953 -200.13070678710938 1781.2169189453125
    endloop
  endfacet
  facet normal 0.6520660377051467 -0.7438494183994144 -0.14662170786879855
    outer loop
      vertex 172.04461669921875 -223.5558319091797 1777.66796875
      vertex 199.17581176757812 -199.7415008544922 1777.511474609375
      vertex 199.5650177001953 -200.13070678710938 1781.2169189453125
    endloop
  endfacet
  facet normal 0.6382400807555725 -0.7271565687812693 -0.25277049629134246
    outer loop
      vertex 173.0102081298828 -224.81422424316406 1785.3017578125
      vertex 172.4082794189453 -224.02978515625 1781.5252685546875
      vertex 200.24215698242188 -200.80784606933594 1785.0015869140625
    endloop
  endfacet
  facet normal 0.6389775767215014 -0.7292343736604452 -0.24479559783455215
    outer loop
      vertex 172.4082794189453 -224.02978515625 1781.5252685546875
      vertex 199.5650177001953 -200.13070678710938 1781.2169189453125
      vertex 200.24215698242188 -200.80784606933594 1785.0015869140625
    endloop
  endfacet
  facet normal 0.6179007344358822 -0.7039663081827342 -0.35018583541766624
    outer loop
      vertex 173.84414672851562 -225.90103149414062 1788.9580078125
      vertex 173.0102081298828 -224.81422424316406 1785.3017578125
      vertex 201.18954467773438 -201.75521850585938 1788.6693115234375
    endloop
  endfacet
  facet normal 0.6191703991153926 -0.7066460940376367 -0.3424606760500202
    outer loop
      vertex 173.0102081298828 -224.81422424316406 1785.3017578125
      vertex 200.24215698242188 -200.80784606933594 1785.0015869140625
      vertex 201.18954467773438 -201.75521850585938 1788.6693115234375
    endloop
  endfacet
  facet normal 0.5924538507073022 -0.6749532223364723 -0.4398142590227179
    outer loop
      vertex 174.79736328125 -227.14328002929688 1792.1484375
      vertex 173.84414672851562 -225.90103149414062 1788.9580078125
      vertex 202.26527404785156 -202.83096313476562 1791.8387451171875
    endloop
  endfacet
  facet normal 0.5943862264106768 -0.6783136770507981 -0.43196709293544705
    outer loop
      vertex 173.84414672851562 -225.90103149414062 1788.9580078125
      vertex 201.18954467773438 -201.75521850585938 1788.6693115234375
      vertex 202.26527404785156 -202.83096313476562 1791.8387451171875
    endloop
  endfacet
  facet normal 0.5626445343485514 -0.6415733727895222 -0.5213585477338784
    outer loop
      vertex 175.92724609375 -228.6157684326172 1795.1798095703125
      vertex 174.79736328125 -227.14328002929688 1792.1484375
      vertex 203.6968231201172 -204.26251220703125 1795.1798095703125
    endloop
  endfacet
  facet normal 0.5638925863478044 -0.6436732576283348 -0.5174068887018334
    outer loop
      vertex 174.79736328125 -227.14328002929688 1792.1484375
      vertex 202.26527404785156 -202.83096313476562 1791.8387451171875
      vertex 203.6968231201172 -204.26251220703125 1795.1798095703125
    endloop
  endfacet
  facet normal 0.5460543811868357 -0.622655712051519 -0.5604680874378822
    outer loop
      vertex 203.6968231201172 -204.26251220703125 1795.1798095703125
      vertex 205.18655395507812 -205.7522430419922 1798.2862548828125
      vertex 177.20977783203125 -230.28721618652344 1798.2862548828125
    endloop
  endfacet
  facet normal 0.546053772686609 -0.6226552277320505 -0.5604692183453693
    outer loop
      vertex 203.6968231201172 -204.26251220703125 1795.1798095703125
      vertex 177.20977783203125 -230.28721618652344 1798.2862548828125
      vertex 175.92724609375 -228.6157684326172 1795.1798095703125
    endloop
  endfacet
  facet normal 0.3205448534453923 -0.3655113681767164 0.873872093995029
    outer loop
      vertex 205.18655395507812 -205.7522430419922 1798.2862548828125
      vertex 183.8697052001953 -184.43539428710938 1815.0216064453125
      vertex 177.20977783203125 -230.28721618652344 1798.2862548828125
    endloop
  endfacet
  facet normal 0.32054474539749916 -0.36551136711111865 0.8738721340737521
    outer loop
      vertex 183.8697052001953 -184.43539428710938 1815.0216064453125
      vertex 158.8577117919922 -206.3703155517578 1815.0216064453125
      vertex 177.20977783203125 -230.28721618652344 1798.2862548828125
    endloop
  endfacet
  facet normal -0.659085618680985 0.7515429512193386 0.028095190343370807
    outer loop
      vertex 177.6341094970703 -178.1997833251953 1773.77001953125
      vertex 153.48936462402344 -199.37416076660156 1773.77001953125
      vertex 153.58673095703125 -199.5010528564453 1779.448486328125
    endloop
  endfacet
  facet normal -0.6573928101809446 0.7488290563735374 0.08420057869823716
    outer loop
      vertex 177.77548217773438 -178.34117126464844 1780.1180419921875
      vertex 153.58673095703125 -199.5010528564453 1779.448486328125
      vertex 153.8785400390625 -199.88134765625 1785.10888671875
    endloop
  endfacet
  facet normal -0.6585791366789471 0.7518555474312063 0.03141268100837452
    outer loop
      vertex 177.77548217773438 -178.34117126464844 1780.1180419921875
      vertex 177.6341094970703 -178.1997833251953 1773.77001953125
      vertex 153.58673095703125 -199.5010528564453 1779.448486328125
    endloop
  endfacet
  facet normal -0.653314868963711 0.7433977533586367 0.14331595267889985
    outer loop
      vertex 178.1990509033203 -178.7647247314453 1786.44091796875
      vertex 153.8785400390625 -199.88134765625 1785.10888671875
      vertex 154.43389892578125 -200.60508728027344 1791.3946533203125
    endloop
  endfacet
  facet normal -0.6556432043097783 0.7491834172688131 0.09410736385549079
    outer loop
      vertex 178.1990509033203 -178.7647247314453 1786.44091796875
      vertex 177.77548217773438 -178.34117126464844 1780.1180419921875
      vertex 153.8785400390625 -199.88134765625 1785.10888671875
    endloop
  endfacet
  facet normal -0.6460910147257471 0.7351664761622858 0.20517468902811026
    outer loop
      vertex 178.9031524658203 -179.4688262939453 1792.7139892578125
      vertex 154.43389892578125 -200.60508728027344 1791.3946533203125
      vertex 155.22897338867188 -201.64126586914062 1797.611083984375
    endloop
  endfacet
  facet normal -0.6504549553732094 0.7432610280317908 0.15643335718305554
    outer loop
      vertex 178.9031524658203 -179.4688262939453 1792.7139892578125
      vertex 178.1990509033203 -178.7647247314453 1786.44091796875
      vertex 154.43389892578125 -200.60508728027344 1791.3946533203125
    endloop
  endfacet
  facet normal -0.6363169934163921 0.7240308217722226 0.2662330802386573
    outer loop
      vertex 179.88502502441406 -180.45069885253906 1798.912353515625
      vertex 155.22897338867188 -201.64126586914062 1797.611083984375
      vertex 156.26068115234375 -202.98582458496094 1803.7335205078125
    endloop
  endfacet
  facet normal -0.6426968281260469 0.7344070162141436 0.218144726390892
    outer loop
      vertex 179.88502502441406 -180.45069885253906 1798.912353515625
      vertex 178.9031524658203 -179.4688262939453 1792.7139892578125
      vertex 155.22897338867188 -201.64126586914062 1797.611083984375
    endloop
  endfacet
  facet normal -0.62460833491283 0.7108866181653958 0.32327178050487015
    outer loop
      vertex 181.1408233642578 -181.70651245117188 1805.0115966796875
      vertex 156.26068115234375 -202.98582458496094 1803.7335205078125
      vertex 157.38827514648438 -204.455322265625 1809.1436767578125
    endloop
  endfacet
  facet normal -0.6323993312743396 0.7226550617000034 0.27899954767549817
    outer loop
      vertex 181.1408233642578 -181.70651245117188 1805.0115966796875
      vertex 179.88502502441406 -180.45069885253906 1798.912353515625
      vertex 156.26068115234375 -202.98582458496094 1803.7335205078125
    endloop
  endfacet
  facet normal -0.6107113144584291 0.6951771538011576 0.37915750714627705
    outer loop
      vertex 182.4111328125 -182.976806640625 1810.0677490234375
      vertex 157.38827514648438 -204.455322265625 1809.1436767578125
      vertex 158.8577117919922 -206.3703155517578 1815.0216064453125
    endloop
  endfacet
  facet normal -0.6209585006870482 0.7090516696593573 0.33415007134186064
    outer loop
      vertex 182.4111328125 -182.976806640625 1810.0677490234375
      vertex 181.1408233642578 -181.70651245117188 1805.0115966796875
      vertex 157.38827514648438 -204.455322265625 1809.1436767578125
    endloop
  endfacet
  facet normal -0.6088786710927084 0.6942933199541799 0.38369721103414367
    outer loop
      vertex 183.8697052001953 -184.43539428710938 1815.0216064453125
      vertex 182.4111328125 -182.976806640625 1810.0677490234375
      vertex 158.8577117919922 -206.3703155517578 1815.0216064453125
    endloop
  endfacet
endsolid v3d.csg
