solid v3d.csg
  facet normal 0.7933533820435751 0.6087613745951473 -1.0236124300596119E-6
    outer loop
      vertex 173.2191619873047 -226.4006805419922 947.7158813476562
      vertex 155.34539794921875 -203.10714721679688 940.1121826171875
      vertex 172.3786163330078 -225.3052520751953 952.40673828125
    endloop
  endfacet
  facet normal 0.7933531326586606 0.608761699598397 1.6616425556303693E-6
    outer loop
      vertex 154.37350463867188 -201.8405303955078 945.8939208984375
      vertex 153.6383514404297 -200.88247680664062 951.7686767578125
      vertex 171.7742156982422 -224.51759338378906 957.1942138671875
    endloop
  endfacet
  facet normal 0.7933533231017015 0.6087614514105537 -5.612244322660411E-8
    outer loop
      vertex 153.6383514404297 -200.88247680664062 951.7686767578125
      vertex 153.1431884765625 -200.23716735839844 957.7103271484375
      vertex 171.7742156982422 -224.51759338378906 957.1942138671875
    endloop
  endfacet
  facet normal 0.7933531912827998 0.6087616231985935 1.4180537504236543E-6
    outer loop
      vertex 172.3786163330078 -225.3052520751953 952.40673828125
      vertex 154.37350463867188 -201.8405303955078 945.8939208984375
      vertex 171.7742156982422 -224.51759338378906 957.1942138671875
    endloop
  endfacet
  facet normal 0.7933531690442253 0.6087616521820569 2.392204688757416E-7
    outer loop
      vertex 153.1431884765625 -200.23716735839844 957.7103271484375
      vertex 152.92684936523438 -199.95523071289062 962.3145751953125
      vertex 171.40997314453125 -224.0428924560547 962.0463256835938
    endloop
  endfacet
  facet normal 0.7933533097160941 0.6087614688534992 -1.3599249011923702E-6
    outer loop
      vertex 171.7742156982422 -224.51759338378906 957.1942138671875
      vertex 153.1431884765625 -200.23716735839844 957.7103271484375
      vertex 171.40997314453125 -224.0428924560547 962.0463256835938
    endloop
  endfacet
  facet normal 0.79335316100723 0.6087616626559021 5.075722976384338E-7
    outer loop
      vertex 152.92684936523438 -199.95523071289062 962.3145751953125
      vertex 152.85467529296875 -199.86117553710938 966.9310302734375
      vertex 171.2882843017578 -223.88430786132812 966.9310302734375
    endloop
  endfacet
  facet normal 0.7933531699701228 0.6087616509753123 4.113778576708234E-7
    outer loop
      vertex 171.40997314453125 -224.0428924560547 962.0463256835938
      vertex 152.92684936523438 -199.95523071289062 962.3145751953125
      vertex 171.2882843017578 -223.88430786132812 966.9310302734375
    endloop
  endfacet
  facet normal 0.7933531610073323 0.6087616626559808 -0.0
    outer loop
      vertex 152.85467529296875 -199.86117553710938 966.9310302734375
      vertex 152.85467529296875 -199.86117553710938 1773.77001953125
      vertex 171.2882843017578 -223.88430786132812 1773.77001953125
    endloop
  endfacet
  facet normal 0.7933531610073323 0.6087616626559808 -0.0
    outer loop
      vertex 171.2882843017578 -223.88430786132812 966.9310302734375
      vertex 152.85467529296875 -199.86117553710938 966.9310302734375
      vertex 171.2882843017578 -223.88430786132812 1773.77001953125
    endloop
  endfacet
  facet normal 0.7933532520448019 0.6087615440124954 -1.2082032562907575E-6
    outer loop
      vertex 152.85467529296875 -199.86117553710938 1773.77001953125
      vertex 152.9763946533203 -200.01979064941406 1780.1180419921875
      vertex 171.37362670898438 -223.9955291748047 1777.0361328125
    endloop
  endfacet
  facet normal 0.7933531610073188 0.6087616626559703 1.8467626622893087E-7
    outer loop
      vertex 171.2882843017578 -223.88430786132812 1773.77001953125
      vertex 152.85467529296875 -199.86117553710938 1773.77001953125
      vertex 171.37362670898438 -223.9955291748047 1777.0361328125
    endloop
  endfacet
  facet normal 0.7933533141358696 0.6087614630946515 -7.010410814971372E-7
    outer loop
      vertex 152.9763946533203 -200.01979064941406 1780.1180419921875
      vertex 153.34104919433594 -200.49501037597656 1786.44091796875
      vertex 171.62901306152344 -224.32835388183594 1780.2783203125
    endloop
  endfacet
  facet normal 0.7933533126427658 0.6087614650408615 -2.3210763695599345E-7
    outer loop
      vertex 171.37362670898438 -223.9955291748047 1777.0361328125
      vertex 152.9763946533203 -200.01979064941406 1780.1180419921875
      vertex 171.62901306152344 -224.32835388183594 1780.2783203125
    endloop
  endfacet
  facet normal 0.7933534196858884 0.6087613255375762 1.5619992005362927E-6
    outer loop
      vertex 153.34104919433594 -200.49501037597656 1786.44091796875
      vertex 153.9472198486328 -201.28500366210938 1792.7139892578125
      vertex 172.15408325195312 -225.01263427734375 1784.0855712890625
    endloop
  endfacet
  facet normal 0.7933533150148919 0.6087614619490954 -6.940021732896828E-7
    outer loop
      vertex 171.62901306152344 -224.32835388183594 1780.2783203125
      vertex 153.34104919433594 -200.49501037597656 1786.44091796875
      vertex 172.15408325195312 -225.01263427734375 1784.0855712890625
    endloop
  endfacet
  facet normal 0.7933530477218558 0.6087618102915374 -1.0063880170350768E-6
    outer loop
      vertex 153.9472198486328 -201.28500366210938 1792.7139892578125
      vertex 154.63565063476562 -202.1821746826172 1797.888671875
      vertex 172.82728576660156 -225.8899688720703 1787.421630859375
    endloop
  endfacet
  facet normal 0.7933531622728205 0.6087616610067578 9.631065436166677E-8
    outer loop
      vertex 172.15408325195312 -225.01263427734375 1784.0855712890625
      vertex 153.9472198486328 -201.28500366210938 1792.7139892578125
      vertex 172.82728576660156 -225.8899688720703 1787.421630859375
    endloop
  endfacet
  facet normal 0.7933535121131053 0.6087612050849073 1.1715102414990753E-6
    outer loop
      vertex 172.82728576660156 -225.8899688720703 1787.421630859375
      vertex 154.63565063476562 -202.1821746826172 1797.888671875
      vertex 173.7909698486328 -227.1458740234375 1790.99169921875
    endloop
  endfacet
  facet normal 0.7933534534843374 0.608761281492129 7.321204064786087E-7
    outer loop
      vertex 154.63565063476562 -202.1821746826172 1797.888671875
      vertex 155.4884796142578 -203.29360961914062 1802.997314453125
      vertex 173.7909698486328 -227.1458740234375 1790.99169921875
    endloop
  endfacet
  facet normal 0.7933537533154058 0.6087608907445257 -5.385558614715227E-7
    outer loop
      vertex 164.8061981201172 -215.4366912841797 910.6831665039062
      vertex 163.3555450439453 -213.54615783691406 913.9559936523438
      vertex 178.38365173339844 -233.1311798095703 931.4583129882812
    endloop
  endfacet
  facet normal 0.7933529957117613 0.6087618780726483 7.974922138619768E-7
    outer loop
      vertex 179.7867889404297 -234.95977783203125 928.5238647460938
      vertex 164.8061981201172 -215.4366912841797 910.6831665039062
      vertex 178.38365173339844 -233.1311798095703 931.4583129882812
    endloop
  endfacet
  facet normal 0.7933534315461157 0.6087613100830247 -4.3508198319700296E-8
    outer loop
      vertex 163.3555450439453 -213.54615783691406 913.9559936523438
      vertex 161.30413818359375 -210.87271118164062 918.9238891601562
      vertex 177.09458923339844 -231.45123291015625 934.5301513671875
    endloop
  endfacet
  facet normal 0.7933532056353094 0.6087616044954296 5.73283027491075E-7
    outer loop
      vertex 161.30413818359375 -210.87271118164062 918.9238891601562
      vertex 159.63389587402344 -208.69601440429688 923.5774536132812
      vertex 177.09458923339844 -231.45123291015625 934.5301513671875
    endloop
  endfacet
  facet normal 0.793353917901157 0.6087606762513805 -9.198919038255326E-7
    outer loop
      vertex 178.38365173339844 -233.1311798095703 931.4583129882812
      vertex 163.3555450439453 -213.54615783691406 913.9559936523438
      vertex 177.09458923339844 -231.45123291015625 934.5301513671875
    endloop
  endfacet
  facet normal 0.7933533127861908 0.6087614648537499 -5.41151390301016E-7
    outer loop
      vertex 159.63389587402344 -208.69601440429688 923.5774536132812
      vertex 157.9813995361328 -206.5424346923828 928.9291381835938
      vertex 175.58499145507812 -229.48387145996094 938.7477416992188
    endloop
  endfacet
  facet normal 0.7933537590166375 0.6087608833120808 -1.807236087452058E-6
    outer loop
      vertex 177.09458923339844 -231.45123291015625 934.5301513671875
      vertex 159.63389587402344 -208.69601440429688 923.5774536132812
      vertex 175.58499145507812 -229.48387145996094 938.7477416992188
    endloop
  endfacet
  facet normal 0.7933536142663866 0.6087610719571842 3.642362398687204E-8
    outer loop
      vertex 157.9813995361328 -206.5424346923828 928.9291381835938
      vertex 156.5498046875 -204.67674255371094 934.4488525390625
      vertex 174.29031372070312 -227.79664611816406 943.1527099609375
    endloop
  endfacet
  facet normal 0.7933524466932043 0.6087625935556422 3.6488936117687694E-6
    outer loop
      vertex 175.58499145507812 -229.48387145996094 938.7477416992188
      vertex 157.9813995361328 -206.5424346923828 928.9291381835938
      vertex 174.29031372070312 -227.79664611816406 943.1527099609375
    endloop
  endfacet
  facet normal 0.7933529495627527 0.6087619382132259 1.7196204889779267E-6
    outer loop
      vertex 156.5498046875 -204.67674255371094 934.4488525390625
      vertex 155.34539794921875 -203.10714721679688 940.1121826171875
      vertex 173.2191619873047 -226.4006805419922 947.7158813476562
    endloop
  endfacet
  facet normal 0.7933538846572944 0.6087607195746747 -1.450724125847118E-6
    outer loop
      vertex 174.29031372070312 -227.79664611816406 943.1527099609375
      vertex 156.5498046875 -204.67674255371094 934.4488525390625
      vertex 173.2191619873047 -226.4006805419922 947.7158813476562
    endloop
  endfacet
  facet normal 0.7933536557554807 0.6087610178840499 -2.0468706388609356E-6
    outer loop
      vertex 155.34539794921875 -203.10714721679688 940.1121826171875
      vertex 154.37350463867188 -201.8405303955078 945.8939208984375
      vertex 172.3786163330078 -225.3052520751953 952.40673828125
    endloop
  endfacet
  facet normal -0.8660255240891346 -0.49999979162558944 -7.119519332441355E-7
    outer loop
      vertex 126.23078155517578 -217.83811950683594 1779.381103515625
      vertex 141.39285278320312 -244.099609375 1777.66796875
      vertex 126.46480560302734 -218.24346923828125 1784.9749755859375
    endloop
  endfacet
  facet normal -0.8660255316335534 -0.4999997785576655 -1.0519279119536574E-6
    outer loop
      vertex 141.69155883789062 -244.61697387695312 1781.5252685546875
      vertex 142.18594360351562 -245.47328186035156 1785.3017578125
      vertex 126.91673278808594 -219.02622985839844 1791.2618408203125
    endloop
  endfacet
  facet normal -0.8660253575616222 -0.5000000800602578 4.661397097247613E-9
    outer loop
      vertex 126.46480560302734 -218.24346923828125 1784.9749755859375
      vertex 141.69155883789062 -244.61697387695312 1781.5252685546875
      vertex 126.91673278808594 -219.02622985839844 1791.2618408203125
    endloop
  endfacet
  facet normal -0.8660265047020774 -0.49999809314271976 2.673353946323912E-6
    outer loop
      vertex 135.9689483642578 -234.70513916015625 910.6831665039062
      vertex 148.27310180664062 -256.0165710449219 928.5238647460938
      vertex 146.78012084960938 -253.4306182861328 932.40234375
    endloop
  endfacet
  facet normal -0.8660258627515407 -0.4999992050399335 -2.210067813449819E-6
    outer loop
      vertex 142.18594360351562 -245.47328186035156 1785.3017578125
      vertex 142.7097930908203 -246.38063049316406 1788.1934814453125
      vertex 127.49195098876953 -220.0225372314453 1796.8621826171875
    endloop
  endfacet
  facet normal -0.8660258137169118 -0.49999928997377324 1.2975378008660583E-6
    outer loop
      vertex 135.9689483642578 -234.70513916015625 910.6831665039062
      vertex 146.78012084960938 -253.4306182861328 932.40234375
      vertex 134.7774658203125 -232.64141845703125 913.9559936523438
    endloop
  endfacet
  facet normal -0.8660254298886205 -0.49999995478622805 -9.276193662584618E-9
    outer loop
      vertex 126.91673278808594 -219.02622985839844 1791.2618408203125
      vertex 142.18594360351562 -245.47328186035156 1785.3017578125
      vertex 127.49195098876953 -220.0225372314453 1796.8621826171875
    endloop
  endfacet
  facet normal -0.86602481389315 -0.5000010217130759 2.686094551225473E-6
    outer loop
      vertex 142.7097930908203 -246.38063049316406 1788.1934814453125
      vertex 143.34849548339844 -247.48687744140625 1790.99169921875
      vertex 128.31593322753906 -221.44972229003906 1802.997314453125
    endloop
  endfacet
  facet normal -0.8660256019862304 -0.4999996567041256 -3.7896394885539774E-7
    outer loop
      vertex 127.49195098876953 -220.0225372314453 1796.8621826171875
      vertex 142.7097930908203 -246.38063049316406 1788.1934814453125
      vertex 128.31593322753906 -221.44972229003906 1802.997314453125
    endloop
  endfacet
  facet normal -0.8660250526270498 -0.5000006082215609 -6.202329383538661E-7
    outer loop
      vertex 146.78012084960938 -253.4306182861328 932.40234375
      vertex 145.57595825195312 -251.34495544433594 936.090576171875
      vertex 133.5472869873047 -230.5106964111328 917.5113525390625
    endloop
  endfacet
  facet normal -0.8660249863031725 -0.5000007230973345 -8.559859890212039E-7
    outer loop
      vertex 134.7774658203125 -232.64141845703125 913.9559936523438
      vertex 146.78012084960938 -253.4306182861328 932.40234375
      vertex 133.5472869873047 -230.5106964111328 917.5113525390625
    endloop
  endfacet
  facet normal -0.866024939214551 -0.5000008046558186 -1.4025072253185204E-6
    outer loop
      vertex 145.57595825195312 -251.34495544433594 936.090576171875
      vertex 144.40138244628906 -249.310546875 940.3822021484375
      vertex 132.40390014648438 -228.53028869628906 921.1802368164062
    endloop
  endfacet
  facet normal -0.866025456788493 -0.4999999081940916 4.264242926492509E-7
    outer loop
      vertex 133.5472869873047 -230.5106964111328 917.5113525390625
      vertex 145.57595825195312 -251.34495544433594 936.090576171875
      vertex 132.40390014648438 -228.53028869628906 921.1802368164062
    endloop
  endfacet
  facet normal -0.8660253845936223 -0.5000000332393838 -2.89409694171093E-7
    outer loop
      vertex 132.40390014648438 -228.53028869628906 921.1802368164062
      vertex 144.40138244628906 -249.310546875 940.3822021484375
      vertex 130.96527099609375 -226.03851318359375 926.4464111328125
    endloop
  endfacet
  facet normal -0.8660254613586171 -0.4999999002785167 2.598552472112818E-7
    outer loop
      vertex 144.40138244628906 -249.310546875 940.3822021484375
      vertex 143.4061737060547 -247.5867919921875 944.8504638671875
      vertex 129.7053985595703 -223.85635375976562 931.8916015625
    endloop
  endfacet
  facet normal -0.8660253787931288 -0.5000000432861187 -3.1177972187935297E-7
    outer loop
      vertex 130.96527099609375 -226.03851318359375 926.4464111328125
      vertex 144.40138244628906 -249.310546875 940.3822021484375
      vertex 129.7053985595703 -223.85635375976562 931.8916015625
    endloop
  endfacet
  facet normal -0.8660254157164637 -0.49999997933311857 -8.545739685944271E-8
    outer loop
      vertex 143.4061737060547 -247.5867919921875 944.8504638671875
      vertex 142.59690856933594 -246.1851043701172 949.4654541015625
      vertex 128.6298370361328 -221.99342346191406 937.4916381835938
    endloop
  endfacet
  facet normal -0.8660254557626704 -0.499999909970995 2.361899317122128E-7
    outer loop
      vertex 129.7053985595703 -223.85635375976562 931.8916015625
      vertex 143.4061737060547 -247.5867919921875 944.8504638671875
      vertex 128.6298370361328 -221.99342346191406 937.4916381835938
    endloop
  endfacet
  facet normal -0.8660257703306492 -0.4999993651165097 2.5085519130782666E-6
    outer loop
      vertex 142.59690856933594 -246.1851043701172 949.4654541015625
      vertex 141.97894287109375 -245.11473083496094 954.196533203125
      vertex 127.74331665039062 -220.45791625976562 943.2218627929688
    endloop
  endfacet
  facet normal -0.8660255766478501 -0.4999997005912267 6.654289663206314E-7
    outer loop
      vertex 128.6298370361328 -221.99342346191406 937.4916381835938
      vertex 142.59690856933594 -246.1851043701172 949.4654541015625
      vertex 127.74331665039062 -220.45791625976562 943.2218627929688
    endloop
  endfacet
  facet normal -0.8660251666029243 -0.5000004108084933 -1.3095936348751095E-6
    outer loop
      vertex 141.97894287109375 -245.11473083496094 954.196533203125
      vertex 141.55633544921875 -244.3827667236328 959.01220703125
      vertex 127.04971313476562 -219.25656127929688 949.0568237304688
    endloop
  endfacet
  facet normal -0.8660252732367794 -0.5000002261151056 -7.065312903693323E-8
    outer loop
      vertex 127.74331665039062 -220.45791625976562 943.2218627929688
      vertex 141.97894287109375 -245.11473083496094 954.196533203125
      vertex 127.04971313476562 -219.25656127929688 949.0568237304688
    endloop
  endfacet
  facet normal -0.866025439067314 -0.4999999388881847 2.785023876463036E-7
    outer loop
      vertex 127.04971313476562 -219.25656127929688 949.0568237304688
      vertex 141.55633544921875 -244.3827667236328 959.01220703125
      vertex 126.5521011352539 -218.39466857910156 954.9708251953125
    endloop
  endfacet
  facet normal -0.866025433936674 -0.49999994777375567 1.0184494122908113E-6
    outer loop
      vertex 141.55633544921875 -244.3827667236328 959.01220703125
      vertex 141.35887145996094 -244.04074096679688 962.962890625
      vertex 126.25265502929688 -217.87600708007812 960.9376220703125
    endloop
  endfacet
  facet normal -0.8660254514342588 -0.49999991746786765 4.6215982681892634E-7
    outer loop
      vertex 126.5521011352539 -218.39466857910156 954.9708251953125
      vertex 141.55633544921875 -244.3827667236328 959.01220703125
      vertex 126.25265502929688 -217.87600708007812 960.9376220703125
    endloop
  endfacet
  facet normal -0.8660252648394761 -0.5000002406585582 1.0484539539721303E-6
    outer loop
      vertex 141.35887145996094 -244.04074096679688 962.962890625
      vertex 141.29295349121094 -243.9265594482422 966.9310302734375
      vertex 126.1526870727539 -217.70286560058594 966.9310302734375
    endloop
  endfacet
  facet normal -0.8660253772108554 -0.5000000460263392 -6.740003056350425E-7
    outer loop
      vertex 126.25265502929688 -217.87600708007812 960.9376220703125
      vertex 141.35887145996094 -244.04074096679688 962.962890625
      vertex 126.1526870727539 -217.70286560058594 966.9310302734375
    endloop
  endfacet
  facet normal -0.866025264839952 -0.500000240658833 0.0
    outer loop
      vertex 141.29295349121094 -243.9265594482422 966.9310302734375
      vertex 141.29295349121094 -243.9265594482422 1773.77001953125
      vertex 126.1526870727539 -217.70286560058594 1773.77001953125
    endloop
  endfacet
  facet normal -0.866025264839952 -0.500000240658833 0.0
    outer loop
      vertex 126.1526870727539 -217.70286560058594 966.9310302734375
      vertex 141.29295349121094 -243.9265594482422 966.9310302734375
      vertex 126.1526870727539 -217.70286560058594 1773.77001953125
    endloop
  endfacet
  facet normal -0.8660255733333115 -0.49999970632659385 -2.455377194939943E-6
    outer loop
      vertex 141.29295349121094 -243.9265594482422 1773.77001953125
      vertex 141.39285278320312 -244.099609375 1777.66796875
      vertex 126.23078155517578 -217.83811950683594 1779.381103515625
    endloop
  endfacet
  facet normal -0.866025264839634 -0.5000002406586493 8.570798279678184E-7
    outer loop
      vertex 126.1526870727539 -217.70286560058594 1773.77001953125
      vertex 141.29295349121094 -243.9265594482422 1773.77001953125
      vertex 126.23078155517578 -217.83811950683594 1779.381103515625
    endloop
  endfacet
  facet normal -0.8660252896307438 -0.5000001977184976 1.20401740586622E-6
    outer loop
      vertex 141.39285278320312 -244.099609375 1777.66796875
      vertex 141.69155883789062 -244.61697387695312 1781.5252685546875
      vertex 126.46480560302734 -218.24346923828125 1784.9749755859375
    endloop
  endfacet
  facet normal -0.5555700596095285 0.831469728171426 0.0
    outer loop
      vertex 152.85467529296875 -199.86117553710938 966.9310302734375
      vertex 126.1526870727539 -217.70286560058594 966.9310302734375
      vertex 152.85467529296875 -199.86117553710938 1773.77001953125
    endloop
  endfacet
  facet normal -0.5555700596095285 0.831469728171426 0.0
    outer loop
      vertex 126.1526870727539 -217.70286560058594 966.9310302734375
      vertex 126.1526870727539 -217.70286560058594 1773.77001953125
      vertex 152.85467529296875 -199.86117553710938 1773.77001953125
    endloop
  endfacet
  facet normal -0.44946490975442693 0.6726718244249947 -0.587787301261429
    outer loop
      vertex 163.3555450439453 -213.54615783691406 913.9559936523438
      vertex 164.8061981201172 -215.4366912841797 910.6831665039062
      vertex 134.7774658203125 -232.64141845703125 913.9559936523438
    endloop
  endfacet
  facet normal -0.44946433871039554 0.6726704441982432 -0.5877893174682277
    outer loop
      vertex 164.8061981201172 -215.4366912841797 910.6831665039062
      vertex 135.9689483642578 -234.70513916015625 910.6831665039062
      vertex 134.7774658203125 -232.64141845703125 913.9559936523438
    endloop
  endfacet
  facet normal 0.32655612625557423 -0.48872530068540115 -0.8090171054278874
    outer loop
      vertex 164.8061981201172 -215.4366912841797 910.6831665039062
      vertex 179.7867889404297 -234.95977783203125 928.5238647460938
      vertex 148.27310180664062 -256.0165710449219 928.5238647460938
    endloop
  endfacet
  facet normal 0.3265560240216772 -0.4887252821092238 -0.8090171579159576
    outer loop
      vertex 164.8061981201172 -215.4366912841797 910.6831665039062
      vertex 148.27310180664062 -256.0165710449219 928.5238647460938
      vertex 135.9689483642578 -234.70513916015625 910.6831665039062
    endloop
  endfacet
  facet normal 0.4372657082095197 -0.6544137363904824 0.6168803466211865
    outer loop
      vertex 148.27310180664062 -256.0165710449219 928.5238647460938
      vertex 179.7867889404297 -234.95977783203125 928.5238647460938
      vertex 178.38365173339844 -233.1311798095703 931.4583129882812
    endloop
  endfacet
  facet normal 0.4413823475327154 -0.6588433853470087 0.609185535671196
    outer loop
      vertex 146.78012084960938 -253.4306182861328 932.40234375
      vertex 148.27310180664062 -256.0165710449219 928.5238647460938
      vertex 178.38365173339844 -233.1311798095703 931.4583129882812
    endloop
  endfacet
  facet normal 0.4663663198458292 -0.6960696666397564 0.5458841222251076
    outer loop
      vertex 145.57595825195312 -251.34495544433594 936.090576171875
      vertex 146.78012084960938 -253.4306182861328 932.40234375
      vertex 177.09458923339844 -231.45123291015625 934.5301513671875
    endloop
  endfacet
  facet normal 0.4571917233058428 -0.6854318762183649 0.5667088063586149
    outer loop
      vertex 146.78012084960938 -253.4306182861328 932.40234375
      vertex 178.38365173339844 -233.1311798095703 931.4583129882812
      vertex 177.09458923339844 -231.45123291015625 934.5301513671875
    endloop
  endfacet
  facet normal 0.48864092610371174 -0.7290254353272229 0.47932448297834734
    outer loop
      vertex 144.40138244628906 -249.310546875 940.3822021484375
      vertex 145.57595825195312 -251.34495544433594 936.090576171875
      vertex 175.58499145507812 -229.48387145996094 938.7477416992188
    endloop
  endfacet
  facet normal 0.4781497405688928 -0.7178668590653428 0.5060039508240622
    outer loop
      vertex 145.57595825195312 -251.34495544433594 936.090576171875
      vertex 177.09458923339844 -231.45123291015625 934.5301513671875
      vertex 175.58499145507812 -229.48387145996094 938.7477416992188
    endloop
  endfacet
  facet normal 0.5087430352784138 -0.7590921633598278 0.4061522024825215
    outer loop
      vertex 143.4061737060547 -247.5867919921875 944.8504638671875
      vertex 144.40138244628906 -249.310546875 940.3822021484375
      vertex 174.29031372070312 -227.79664611816406 943.1527099609375
    endloop
  endfacet
  facet normal 0.4994670073119219 -0.7497900453139283 0.4339903185037767
    outer loop
      vertex 144.40138244628906 -249.310546875 940.3822021484375
      vertex 175.58499145507812 -229.48387145996094 938.7477416992188
      vertex 174.29031372070312 -227.79664611816406 943.1527099609375
    endloop
  endfacet
  facet normal 0.5254577520410626 -0.7840932313870014 0.33029071333151855
    outer loop
      vertex 142.59690856933594 -246.1851043701172 949.4654541015625
      vertex 143.4061737060547 -247.5867919921875 944.8504638671875
      vertex 173.2191619873047 -226.4006805419922 947.7158813476562
    endloop
  endfacet
  facet normal 0.5174541962768833 -0.7767246897287143 0.3590820395414914
    outer loop
      vertex 143.4061737060547 -247.5867919921875 944.8504638671875
      vertex 174.29031372070312 -227.79664611816406 943.1527099609375
      vertex 173.2191619873047 -226.4006805419922 947.7158813476562
    endloop
  endfacet
  facet normal 0.5386787903499543 -0.8038685828686687 0.25223097015201823
    outer loop
      vertex 141.97894287109375 -245.11473083496094 954.196533203125
      vertex 142.59690856933594 -246.1851043701172 949.4654541015625
      vertex 172.3786163330078 -225.3052520751953 952.40673828125
    endloop
  endfacet
  facet normal 0.5319870039250298 -0.7984880133749178 0.2817919802823484
    outer loop
      vertex 142.59690856933594 -246.1851043701172 949.4654541015625
      vertex 173.2191619873047 -226.4006805419922 947.7158813476562
      vertex 172.3786163330078 -225.3052520751953 952.40673828125
    endloop
  endfacet
  facet normal 0.5483177896365733 -0.8182866719355001 0.1724949973210408
    outer loop
      vertex 141.55633544921875 -244.3827667236328 959.01220703125
      vertex 141.97894287109375 -245.11473083496094 954.196533203125
      vertex 171.7742156982422 -224.51759338378906 957.1942138671875
    endloop
  endfacet
  facet normal 0.5429717103927166 -0.8149383630845992 0.20262572908246804
    outer loop
      vertex 141.97894287109375 -245.11473083496094 954.196533203125
      vertex 172.3786163330078 -225.3052520751953 952.40673828125
      vertex 171.7742156982422 -224.51759338378906 957.1942138671875
    endloop
  endfacet
  facet normal 0.5533660615135875 -0.8270032571903423 0.09925529991645368
    outer loop
      vertex 141.35887145996094 -244.04074096679688 962.962890625
      vertex 141.55633544921875 -244.3827667236328 959.01220703125
      vertex 171.40997314453125 -224.0428924560547 962.0463256835938
    endloop
  endfacet
  facet normal 0.5503348301451957 -0.8259650044493857 0.12212037567083146
    outer loop
      vertex 141.55633544921875 -244.3827667236328 959.01220703125
      vertex 171.7742156982422 -224.51759338378906 957.1942138671875
      vertex 171.40997314453125 -224.0428924560547 962.0463256835938
    endloop
  endfacet
  facet normal 0.5552653783452022 -0.8310128549619841 0.033136000046650724
    outer loop
      vertex 141.29295349121094 -243.9265594482422 966.9310302734375
      vertex 141.35887145996094 -244.04074096679688 962.962890625
      vertex 171.2882843017578 -223.88430786132812 966.9310302734375
    endloop
  endfacet
  facet normal 0.5544062226403313 -0.8312455933377773 0.0407983315125269
    outer loop
      vertex 141.35887145996094 -244.04074096679688 962.962890625
      vertex 171.40997314453125 -224.0428924560547 962.0463256835938
      vertex 171.2882843017578 -223.88430786132812 966.9310302734375
    endloop
  endfacet
  facet normal 0.5555704687743925 -0.8314694547761822 0.0
    outer loop
      vertex 171.2882843017578 -223.88430786132812 966.9310302734375
      vertex 171.2882843017578 -223.88430786132812 1773.77001953125
      vertex 141.29295349121094 -243.9265594482422 966.9310302734375
    endloop
  endfacet
  facet normal 0.5555704687743925 -0.8314694547761822 0.0
    outer loop
      vertex 171.2882843017578 -223.88430786132812 1773.77001953125
      vertex 141.29295349121094 -243.9265594482422 1773.77001953125
      vertex 141.29295349121094 -243.9265594482422 966.9310302734375
    endloop
  endfacet
  facet normal 0.5550615737172421 -0.8307078399685401 -0.042791751510554754
    outer loop
      vertex 141.29295349121094 -243.9265594482422 1773.77001953125
      vertex 171.2882843017578 -223.88430786132812 1773.77001953125
      vertex 171.37362670898438 -223.9955291748047 1777.0361328125
    endloop
  endfacet
  facet normal 0.5554701868569237 -0.8299659386647948 -0.05108240567357869
    outer loop
      vertex 141.39285278320312 -244.099609375 1777.66796875
      vertex 141.29295349121094 -243.9265594482422 1773.77001953125
      vertex 171.37362670898438 -223.9955291748047 1777.0361328125
    endloop
  endfacet
  facet normal 0.5500597694410084 -0.8210426513686083 -0.15271939849315333
    outer loop
      vertex 141.69155883789062 -244.61697387695312 1781.5252685546875
      vertex 141.39285278320312 -244.099609375 1777.66796875
      vertex 171.62901306152344 -224.32835388183594 1780.2783203125
    endloop
  endfacet
  facet normal 0.5504924601778559 -0.8249616600185498 -0.1280480799808047
    outer loop
      vertex 141.39285278320312 -244.099609375 1777.66796875
      vertex 171.37362670898438 -223.9955291748047 1777.0361328125
      vertex 171.62901306152344 -224.32835388183594 1780.2783203125
    endloop
  endfacet
  facet normal 0.5385339113664129 -0.8037996810190388 -0.2527593699590265
    outer loop
      vertex 142.18594360351562 -245.47328186035156 1785.3017578125
      vertex 141.69155883789062 -244.61697387695312 1781.5252685546875
      vertex 172.15408325195312 -225.01263427734375 1784.0855712890625
    endloop
  endfacet
  facet normal 0.5408922263488357 -0.8116798239766189 -0.22048007353201954
    outer loop
      vertex 141.69155883789062 -244.61697387695312 1781.5252685546875
      vertex 171.62901306152344 -224.32835388183594 1780.2783203125
      vertex 172.15408325195312 -225.01263427734375 1784.0855712890625
    endloop
  endfacet
  facet normal 0.5230320022841792 -0.7815672712014025 -0.33998547788603545
    outer loop
      vertex 142.7097930908203 -246.38063049316406 1788.1934814453125
      vertex 142.18594360351562 -245.47328186035156 1785.3017578125
      vertex 172.82728576660156 -225.8899688720703 1787.421630859375
    endloop
  endfacet
  facet normal 0.5266128320479434 -0.7899806466695496 -0.314021500872161
    outer loop
      vertex 142.18594360351562 -245.47328186035156 1785.3017578125
      vertex 172.15408325195312 -225.01263427734375 1784.0855712890625
      vertex 172.82728576660156 -225.8899688720703 1787.421630859375
    endloop
  endfacet
  facet normal 0.5055858838893721 -0.7566630314869464 -0.4145406744733099
    outer loop
      vertex 143.34849548339844 -247.48687744140625 1790.99169921875
      vertex 142.7097930908203 -246.38063049316406 1788.1934814453125
      vertex 173.7909698486328 -227.1458740234375 1790.99169921875
    endloop
  endfacet
  facet normal 0.5073014507010137 -0.7608804238015859 -0.4046062515485466
    outer loop
      vertex 142.7097930908203 -246.38063049316406 1788.1934814453125
      vertex 172.82728576660156 -225.8899688720703 1787.421630859375
      vertex 173.7909698486328 -227.1458740234375 1790.99169921875
    endloop
  endfacet
  facet normal 0.20641235360718874 -0.30891795809204936 0.9284199671735737
    outer loop
      vertex 173.7909698486328 -227.1458740234375 1790.99169921875
      vertex 155.4884796142578 -203.29360961914062 1802.997314453125
      vertex 128.31593322753906 -221.44972229003906 1802.997314453125
    endloop
  endfacet
  facet normal 0.20641234188118168 -0.3089180163469712 0.9284199503971134
    outer loop
      vertex 173.7909698486328 -227.1458740234375 1790.99169921875
      vertex 128.31593322753906 -221.44972229003906 1802.997314453125
      vertex 143.34849548339844 -247.48687744140625 1790.99169921875
    endloop
  endfacet
  facet normal -0.4571655324813409 0.6841966216371997 -0.5682206075559867
    outer loop
      vertex 163.3555450439453 -213.54615783691406 913.9559936523438
      vertex 134.7774658203125 -232.64141845703125 913.9559936523438
      vertex 133.5472869873047 -230.5106964111328 917.5113525390625
    endloop
  endfacet
  facet normal -0.47237726942619224 0.7056574135112078 -0.5281167769405994
    outer loop
      vertex 161.30413818359375 -210.87271118164062 918.9238891601562
      vertex 133.5472869873047 -230.5106964111328 917.5113525390625
      vertex 132.40390014648438 -228.53028869628906 921.1802368164062
    endloop
  endfacet
  facet normal -0.4591162372952727 0.6892429584044698 -0.5604965878055683
    outer loop
      vertex 161.30413818359375 -210.87271118164062 918.9238891601562
      vertex 163.3555450439453 -213.54615783691406 913.9559936523438
      vertex 133.5472869873047 -230.5106964111328 917.5113525390625
    endloop
  endfacet
  facet normal -0.4890253795998822 0.7292201545379358 -0.4786357114997379
    outer loop
      vertex 159.63389587402344 -208.69601440429688 923.5774536132812
      vertex 132.40390014648438 -228.53028869628906 921.1802368164062
      vertex 130.96527099609375 -226.03851318359375 926.4464111328125
    endloop
  endfacet
  facet normal -0.4778616185508344 0.7173268185251025 -0.507040934186414
    outer loop
      vertex 159.63389587402344 -208.69601440429688 923.5774536132812
      vertex 161.30413818359375 -210.87271118164062 918.9238891601562
      vertex 132.40390014648438 -228.53028869628906 921.1802368164062
    endloop
  endfacet
  facet normal -0.505643896652809 0.7540622760548192 -0.41918293573186993
    outer loop
      vertex 157.9813995361328 -206.5424346923828 928.9291381835938
      vertex 130.96527099609375 -226.03851318359375 926.4464111328125
      vertex 129.7053985595703 -223.85635375976562 931.8916015625
    endloop
  endfacet
  facet normal -0.49446852920526396 0.7426984624974292 -0.4515527294010497
    outer loop
      vertex 157.9813995361328 -206.5424346923828 928.9291381835938
      vertex 159.63389587402344 -208.69601440429688 923.5774536132812
      vertex 130.96527099609375 -226.03851318359375 926.4464111328125
    endloop
  endfacet
  facet normal -0.5200257276960509 0.7755615410985591 -0.3578792233463974
    outer loop
      vertex 156.5498046875 -204.67674255371094 934.4488525390625
      vertex 129.7053985595703 -223.85635375976562 931.8916015625
      vertex 128.6298370361328 -221.99342346191406 937.4916381835938
    endloop
  endfacet
  facet normal -0.51004440325061 0.7660352978736108 -0.39120918844579494
    outer loop
      vertex 156.5498046875 -204.67674255371094 934.4488525390625
      vertex 157.9813995361328 -206.5424346923828 928.9291381835938
      vertex 129.7053985595703 -223.85635375976562 931.8916015625
    endloop
  endfacet
  facet normal -0.5321096224038968 0.7936257213994401 -0.2949873964738162
    outer loop
      vertex 155.34539794921875 -203.10714721679688 940.1121826171875
      vertex 128.6298370361328 -221.99342346191406 937.4916381835938
      vertex 127.74331665039062 -220.45791625976562 943.2218627929688
    endloop
  endfacet
  facet normal -0.5233562339557822 0.7859819144907744 -0.3291362673316897
    outer loop
      vertex 155.34539794921875 -203.10714721679688 940.1121826171875
      vertex 156.5498046875 -204.67674255371094 934.4488525390625
      vertex 128.6298370361328 -221.99342346191406 937.4916381835938
    endloop
  endfacet
  facet normal -0.5418401609611154 0.8081705125516095 -0.23080221535267204
    outer loop
      vertex 154.37350463867188 -201.8405303955078 945.8939208984375
      vertex 127.74331665039062 -220.45791625976562 943.2218627929688
      vertex 127.04971313476562 -219.25656127929688 949.0568237304688
    endloop
  endfacet
  facet normal -0.5343461574332766 0.8024477602978873 -0.2656158429559435
    outer loop
      vertex 154.37350463867188 -201.8405303955078 945.8939208984375
      vertex 155.34539794921875 -203.10714721679688 940.1121826171875
      vertex 127.74331665039062 -220.45791625976562 943.2218627929688
    endloop
  endfacet
  facet normal -0.5491763311825696 0.8191374152166102 -0.16558759694223282
    outer loop
      vertex 153.6383514404297 -200.88247680664062 951.7686767578125
      vertex 127.04971313476562 -219.25656127929688 949.0568237304688
      vertex 126.5521011352539 -218.39466857910156 954.9708251953125
    endloop
  endfacet
  facet normal -0.542966448550806 0.8153652911960825 -0.20091510062922774
    outer loop
      vertex 153.6383514404297 -200.88247680664062 951.7686767578125
      vertex 154.37350463867188 -201.8405303955078 945.8939208984375
      vertex 127.04971313476562 -219.25656127929688 949.0568237304688
    endloop
  endfacet
  facet normal -0.5540850862002601 0.8264744416639566 -0.09964795294787375
    outer loop
      vertex 153.1431884765625 -200.23716735839844 957.7103271484375
      vertex 126.5521011352539 -218.39466857910156 954.9708251953125
      vertex 126.25265502929688 -217.87600708007812 960.9376220703125
    endloop
  endfacet
  facet normal -0.5491792049466085 0.8246739367195047 -0.13533328840224496
    outer loop
      vertex 153.1431884765625 -200.23716735839844 957.7103271484375
      vertex 153.6383514404297 -200.88247680664062 951.7686767578125
      vertex 126.5521011352539 -218.39466857910156 954.9708251953125
    endloop
  endfacet
  facet normal -0.5561768571610682 0.8303979062478407 -0.03326591134538318
    outer loop
      vertex 152.92684936523438 -199.95523071289062 962.3145751953125
      vertex 126.25265502929688 -217.87600708007812 960.9376220703125
      vertex 126.1526870727539 -217.70286560058594 966.9310302734375
    endloop
  endfacet
  facet normal -0.5532885810348768 0.8294428487648847 -0.07678741257006355
    outer loop
      vertex 152.92684936523438 -199.95523071289062 962.3145751953125
      vertex 153.1431884765625 -200.23716735839844 957.7103271484375
      vertex 126.25265502929688 -217.87600708007812 960.9376220703125
    endloop
  endfacet
  facet normal -0.5553877286701577 0.8311968505136516 -0.025617699716986603
    outer loop
      vertex 152.85467529296875 -199.86117553710938 966.9310302734375
      vertex 152.92684936523438 -199.95523071289062 962.3145751953125
      vertex 126.1526870727539 -217.70286560058594 966.9310302734375
    endloop
  endfacet
  facet normal -0.5553558898557238 0.83114920033898 0.027764048307679354
    outer loop
      vertex 152.85467529296875 -199.86117553710938 1773.77001953125
      vertex 126.1526870727539 -217.70286560058594 1773.77001953125
      vertex 126.23078155517578 -217.83811950683594 1779.381103515625
    endloop
  endfacet
  facet normal -0.5541043358472187 0.8282789143776432 0.08320111172758016
    outer loop
      vertex 152.9763946533203 -200.01979064941406 1780.1180419921875
      vertex 126.23078155517578 -217.83811950683594 1779.381103515625
      vertex 126.46480560302734 -218.24346923828125 1784.9749755859375
    endloop
  endfacet
  facet normal -0.5547656469883872 0.8314134945823525 0.03141143021126165
    outer loop
      vertex 152.9763946533203 -200.01979064941406 1780.1180419921875
      vertex 152.85467529296875 -199.86117553710938 1773.77001953125
      vertex 126.23078155517578 -217.83811950683594 1779.381103515625
    endloop
  endfacet
  facet normal -0.550859140519766 0.8224300256915044 0.14199669061952122
    outer loop
      vertex 153.34104919433594 -200.49501037597656 1786.44091796875
      vertex 126.46480560302734 -218.24346923828125 1784.9749755859375
      vertex 126.91673278808594 -219.02622985839844 1791.2618408203125
    endloop
  endfacet
  facet normal -0.5521850742411876 0.8283933564205387 0.0941068054051807
    outer loop
      vertex 153.34104919433594 -200.49501037597656 1786.44091796875
      vertex 152.9763946533203 -200.01979064941406 1780.1180419921875
      vertex 126.46480560302734 -218.24346923828125 1784.9749755859375
    endloop
  endfacet
  facet normal -0.5450510111176551 0.8140029364820756 0.20079495680464615
    outer loop
      vertex 153.9472198486328 -201.28500366210938 1792.7139892578125
      vertex 126.91673278808594 -219.02622985839844 1791.2618408203125
      vertex 127.49195098876953 -220.0225372314453 1796.8621826171875
    endloop
  endfacet
  facet normal -0.5478143605125387 0.8218442018137869 0.15643380185016809
    outer loop
      vertex 153.9472198486328 -201.28500366210938 1792.7139892578125
      vertex 153.34104919433594 -200.49501037597656 1786.44091796875
      vertex 126.91673278808594 -219.02622985839844 1791.2618408203125
    endloop
  endfacet
  facet normal -0.5373371507248171 0.8026505403763615 0.2588839440453385
    outer loop
      vertex 154.63565063476562 -202.1821746826172 1797.888671875
      vertex 127.49195098876953 -220.0225372314453 1796.8621826171875
      vertex 128.31593322753906 -221.44972229003906 1802.997314453125
    endloop
  endfacet
  facet normal -0.5422473791098403 0.8127583209055697 0.21305326011884435
    outer loop
      vertex 154.63565063476562 -202.1821746826172 1797.888671875
      vertex 153.9472198486328 -201.28500366210938 1792.7139892578125
      vertex 127.49195098876953 -220.0225372314453 1796.8621826171875
    endloop
  endfacet
  facet normal -0.5358696142132671 0.8019856570279009 0.26393704265307344
    outer loop
      vertex 155.4884796142578 -203.29360961914062 1802.997314453125
      vertex 154.63565063476562 -202.1821746826172 1797.888671875
      vertex 128.31593322753906 -221.44972229003906 1802.997314453125
    endloop
  endfacet
endsolid v3d.csg
