solid v3d.csg
  facet normal 0.9659258171352899 0.2588190792645647 4.0712386479526647E-7
    outer loop
      vertex 73.39385223388672 -275.455078125 947.7158813476562
      vertex 65.7947006225586 -247.0946502685547 940.1121826171875
      vertex 73.03648376464844 -274.1213684082031 952.40673828125
    endloop
  endfacet
  facet normal 0.9659259094943657 0.25881873457443716 -8.772814324758587E-7
    outer loop
      vertex 65.38148498535156 -245.55252075195312 945.8939208984375
      vertex 65.06893920898438 -244.3860626220703 951.7686767578125
      vertex 72.7795181274414 -273.162353515625 957.1942138671875
    endloop
  endfacet
  facet normal 0.9659258333482965 0.2588190187560682 7.381943041817686E-7
    outer loop
      vertex 65.06893920898438 -244.3860626220703 951.7686767578125
      vertex 64.85841369628906 -243.6003875732422 957.7103271484375
      vertex 72.7795181274414 -273.162353515625 957.1942138671875
    endloop
  endfacet
  facet normal 0.9659258513046619 0.25881895174285263 -3.085817528800506E-7
    outer loop
      vertex 73.03648376464844 -274.1213684082031 952.40673828125
      vertex 65.38148498535156 -245.55252075195312 945.8939208984375
      vertex 72.7795181274414 -273.162353515625 957.1942138671875
    endloop
  endfacet
  facet normal 0.9659258835700771 0.258818831325242 -8.953492828489602E-7
    outer loop
      vertex 64.85841369628906 -243.6003875732422 957.7103271484375
      vertex 64.76644134521484 -243.2571258544922 962.3145751953125
      vertex 72.6246566772461 -272.58441162109375 962.0463256835938
    endloop
  endfacet
  facet normal 0.9659258322122076 0.25881902299662146 4.778674090277646E-7
    outer loop
      vertex 72.7795181274414 -273.162353515625 957.1942138671875
      vertex 64.85841369628906 -243.6003875732422 957.7103271484375
      vertex 72.6246566772461 -272.58441162109375 962.0463256835938
    endloop
  endfacet
  facet normal 0.9659258980670677 0.2588187772222397 -7.164604727184152E-7
    outer loop
      vertex 64.76644134521484 -243.2571258544922 962.3145751953125
      vertex 64.73575592041016 -243.14259338378906 966.9310302734375
      vertex 72.57292175292969 -272.3913269042969 966.9310302734375
    endloop
  endfacet
  facet normal 0.9659258847482899 0.25881882692935776 -3.8023929794874806E-7
    outer loop
      vertex 72.6246566772461 -272.58441162109375 962.0463256835938
      vertex 64.76644134521484 -243.2571258544922 962.3145751953125
      vertex 72.57292175292969 -272.3913269042969 966.9310302734375
    endloop
  endfacet
  facet normal 0.9659258980673157 0.2588187772223062 -0.0
    outer loop
      vertex 64.73575592041016 -243.14259338378906 966.9310302734375
      vertex 64.73575592041016 -243.14259338378906 1773.77001953125
      vertex 72.57292175292969 -272.3913269042969 1773.77001953125
    endloop
  endfacet
  facet normal 0.9659258980673157 0.2588187772223062 -0.0
    outer loop
      vertex 72.57292175292969 -272.3913269042969 966.9310302734375
      vertex 64.73575592041016 -243.14259338378906 966.9310302734375
      vertex 72.57292175292969 -272.3913269042969 1773.77001953125
    endloop
  endfacet
  facet normal 0.9659258210834983 0.2588190645280171 1.005808407614899E-6
    outer loop
      vertex 64.73575592041016 -243.14259338378906 1773.77001953125
      vertex 64.7874984741211 -243.33572387695312 1780.1180419921875
      vertex 72.62056732177734 -272.5691223144531 1777.511474609375
    endloop
  endfacet
  facet normal 0.9659258980663472 0.25881877722204666 -1.4160869530241873E-6
    outer loop
      vertex 72.57292175292969 -272.3913269042969 1773.77001953125
      vertex 64.73575592041016 -243.14259338378906 1773.77001953125
      vertex 72.62056732177734 -272.5691223144531 1777.511474609375
    endloop
  endfacet
  facet normal 0.965925787780227 0.2588191888192569 -2.9959723437909074E-7
    outer loop
      vertex 64.7874984741211 -243.33572387695312 1780.1180419921875
      vertex 64.94253540039062 -243.91432189941406 1786.44091796875
      vertex 72.76302337646484 -273.10076904296875 1781.2169189453125
    endloop
  endfacet
  facet normal 0.9659257890114241 0.2588191842241805 -4.3299897776060416E-7
    outer loop
      vertex 72.62056732177734 -272.5691223144531 1777.511474609375
      vertex 64.7874984741211 -243.33572387695312 1780.1180419921875
      vertex 72.76302337646484 -273.10076904296875 1781.2169189453125
    endloop
  endfacet
  facet normal 0.9659258744331427 0.2588188654262088 -2.424057194503486E-7
    outer loop
      vertex 64.94253540039062 -243.91432189941406 1786.44091796875
      vertex 65.20025634765625 -244.8761444091797 1792.7139892578125
      vertex 73.01087188720703 -274.0257873535156 1785.0015869140625
    endloop
  endfacet
  facet normal 0.9659259050714528 0.25881875107206664 2.321681941102016E-6
    outer loop
      vertex 72.76302337646484 -273.10076904296875 1781.2169189453125
      vertex 64.94253540039062 -243.91432189941406 1786.44091796875
      vertex 73.01087188720703 -274.0257873535156 1785.0015869140625
    endloop
  endfacet
  facet normal 0.9659258380445775 0.25881900122914586 -7.925357606907936E-7
    outer loop
      vertex 73.01087188720703 -274.0257873535156 1785.0015869140625
      vertex 65.20025634765625 -244.8761444091797 1792.7139892578125
      vertex 73.35763549804688 -275.3199157714844 1788.6693115234375
    endloop
  endfacet
  facet normal 0.9659258634550385 0.25881890639719063 -2.749950043147029E-8
    outer loop
      vertex 65.20025634765625 -244.8761444091797 1792.7139892578125
      vertex 65.55964660644531 -246.2174072265625 1798.912353515625
      vertex 73.35763549804688 -275.3199157714844 1788.6693115234375
    endloop
  endfacet
  facet normal 0.9659258035337861 0.25881913002632106 -1.6769631905406165E-7
    outer loop
      vertex 65.55964660644531 -246.2174072265625 1798.912353515625
      vertex 66.01930236816406 -247.932861328125 1805.0115966796875
      vertex 73.75138854980469 -276.7893981933594 1791.8387451171875
    endloop
  endfacet
  facet normal 0.9659259065546273 0.25881874554690393 -3.852094868658476E-7
    outer loop
      vertex 69.81702423095703 -262.1061706542969 910.6831665039062
      vertex 69.20026397705078 -259.80438232421875 913.9559936523438
      vertex 75.58956909179688 -283.64959716796875 931.4583129882812
    endloop
  endfacet
  facet normal 0.9659259629445572 0.2588185350938356 1.2291363205922321E-6
    outer loop
      vertex 66.01930236816406 -247.932861328125 1805.0115966796875
      vertex 66.48426055908203 -249.6681365966797 1810.0677490234375
      vertex 73.75138854980469 -276.7893981933594 1791.8387451171875
    endloop
  endfacet
  facet normal 0.9659257122298666 0.2588194707709915 -1.7461242592598362E-6
    outer loop
      vertex 73.35763549804688 -275.3199157714844 1788.6693115234375
      vertex 65.55964660644531 -246.2174072265625 1798.912353515625
      vertex 73.75138854980469 -276.7893981933594 1791.8387451171875
    endloop
  endfacet
  facet normal 0.9659259530776327 0.25881857191804636 1.1704154348474653E-6
    outer loop
      vertex 73.75138854980469 -276.7893981933594 1791.8387451171875
      vertex 66.48426055908203 -249.6681365966797 1810.0677490234375
      vertex 74.2753677368164 -278.74493408203125 1795.1798095703125
    endloop
  endfacet
  facet normal 0.9659256498234033 0.2588197036776744 -1.1986586616725299E-6
    outer loop
      vertex 66.48426055908203 -249.6681365966797 1810.0677490234375
      vertex 67.01814270019531 -251.66058349609375 1815.0216064453125
      vertex 74.2753677368164 -278.74493408203125 1795.1798095703125
    endloop
  endfacet
  facet normal 0.9659257706001144 0.25881925293637487 1.787196924136004E-7
    outer loop
      vertex 76.18612670898438 -285.8759765625 928.5238647460938
      vertex 69.81702423095703 -262.1061706542969 910.6831665039062
      vertex 75.58956909179688 -283.64959716796875 931.4583129882812
    endloop
  endfacet
  facet normal 0.9659257450002545 0.25881934847542193 -6.789909004381966E-7
    outer loop
      vertex 74.2753677368164 -278.74493408203125 1795.1798095703125
      vertex 67.01814270019531 -251.66058349609375 1815.0216064453125
      vertex 74.82064819335938 -280.7799377441406 1798.2862548828125
    endloop
  endfacet
  facet normal 0.9659257815592327 0.2588192120363878 2.2149075859705063E-7
    outer loop
      vertex 69.20026397705078 -259.80438232421875 913.9559936523438
      vertex 68.32809448242188 -256.5494079589844 918.9238891601562
      vertex 75.04151153564453 -281.6042175292969 934.5301513671875
    endloop
  endfacet
  facet normal 0.9659258986744939 0.25881877495573963 -5.305929782466665E-7
    outer loop
      vertex 68.32809448242188 -256.5494079589844 918.9238891601562
      vertex 67.61798095703125 -253.8992156982422 923.5774536132812
      vertex 75.04151153564453 -281.6042175292969 934.5301513671875
    endloop
  endfacet
  facet normal 0.9659258430432538 0.2588189825750381 -3.909648258449793E-8
    outer loop
      vertex 75.58956909179688 -283.64959716796875 931.4583129882812
      vertex 69.20026397705078 -259.80438232421875 913.9559936523438
      vertex 75.04151153564453 -281.6042175292969 934.5301513671875
    endloop
  endfacet
  facet normal 0.9659258559607254 0.25881893436630266 -1.7699121451581533E-7
    outer loop
      vertex 67.61798095703125 -253.8992156982422 923.5774536132812
      vertex 66.91541290283203 -251.27719116210938 928.9291381835938
      vertex 74.39969635009766 -279.20892333984375 938.7477416992188
    endloop
  endfacet
  facet normal 0.9659258787734666 0.258818849227791 -3.292322492728061E-7
    outer loop
      vertex 75.04151153564453 -281.6042175292969 934.5301513671875
      vertex 67.61798095703125 -253.8992156982422 923.5774536132812
      vertex 74.39969635009766 -279.20892333984375 938.7477416992188
    endloop
  endfacet
  facet normal 0.9659257006176829 0.25881951411187804 1.0628743293878534E-6
    outer loop
      vertex 66.91541290283203 -251.27719116210938 928.9291381835938
      vertex 66.30675506591797 -249.00567626953125 934.4488525390625
      vertex 73.84925842285156 -277.1546630859375 943.1527099609375
    endloop
  endfacet
  facet normal 0.9659258292929591 0.25881903389181626 1.2646427275972417E-7
    outer loop
      vertex 74.39969635009766 -279.20892333984375 938.7477416992188
      vertex 66.91541290283203 -251.27719116210938 928.9291381835938
      vertex 73.84925842285156 -277.1546630859375 943.1527099609375
    endloop
  endfacet
  facet normal 0.9659258788811698 0.2588188488255356 -5.140811974839459E-7
    outer loop
      vertex 66.30675506591797 -249.00567626953125 934.4488525390625
      vertex 65.7947006225586 -247.0946502685547 940.1121826171875
      vertex 73.39385223388672 -275.455078125 947.7158813476562
    endloop
  endfacet
  facet normal 0.9659257319373536 0.25881939722682107 6.577178017524965E-7
    outer loop
      vertex 73.84925842285156 -277.1546630859375 943.1527099609375
      vertex 66.30675506591797 -249.00567626953125 934.4488525390625
      vertex 73.39385223388672 -275.455078125 947.7158813476562
    endloop
  endfacet
  facet normal 0.965925803864315 0.2588191287922941 5.238159635581879E-7
    outer loop
      vertex 65.7947006225586 -247.0946502685547 940.1121826171875
      vertex 65.38148498535156 -245.55252075195312 945.8939208984375
      vertex 73.03648376464844 -274.1213684082031 952.40673828125
    endloop
  endfacet
  facet normal -0.1950906137392684 0.9807852223758449 0.0
    outer loop
      vertex 64.73575592041016 -243.14259338378906 966.9310302734375
      vertex 33.23860549926758 -249.40777587890625 966.9310302734375
      vertex 33.23860549926758 -249.40777587890625 1773.77001953125
    endloop
  endfacet
  facet normal -0.1950906137392684 0.9807852223758449 0.0
    outer loop
      vertex 64.73575592041016 -243.14259338378906 1773.77001953125
      vertex 64.73575592041016 -243.14259338378906 966.9310302734375
      vertex 33.23860549926758 -249.40777587890625 1773.77001953125
    endloop
  endfacet
  facet normal -0.9914448578437568 -0.13052621903309614 3.115959219689194E-7
    outer loop
      vertex 33.23860549926758 -249.40777587890625 1773.77001953125
      vertex 37.19100570678711 -279.4292297363281 1773.77001953125
      vertex 33.259483337402344 -249.56634521484375 1779.448486328125
    endloop
  endfacet
  facet normal -0.9914448574897075 -0.13052622172270154 9.992641537081385E-8
    outer loop
      vertex 37.21709060668945 -279.6273498535156 1777.66796875
      vertex 37.295066833496094 -280.2196350097656 1781.5252685546875
      vertex 33.322052001953125 -250.04159545898438 1785.10888671875
    endloop
  endfacet
  facet normal -0.9914448386395605 -0.13052636490362443 -1.4804681400046999E-7
    outer loop
      vertex 35.80116653442383 -268.8723449707031 910.6831665039062
      vertex 39.0131950378418 -293.2701110839844 928.5238647460938
      vertex 38.62344741821289 -290.3096923828125 932.40234375
    endloop
  endfacet
  facet normal -0.9914448709393604 -0.13052611956242804 9.830798612161494E-8
    outer loop
      vertex 35.80116653442383 -268.8723449707031 910.6831665039062
      vertex 38.62344741821289 -290.3096923828125 932.40234375
      vertex 35.49012756347656 -266.509765625 913.9559936523438
    endloop
  endfacet
  facet normal -0.9914448563840795 -0.13052623012074602 1.338965445405905E-7
    outer loop
      vertex 33.259483337402344 -249.56634521484375 1779.448486328125
      vertex 37.21709060668945 -279.6273498535156 1777.66796875
      vertex 33.322052001953125 -250.04159545898438 1785.10888671875
    endloop
  endfacet
  facet normal -0.9914448573118222 -0.13052622307386358 1.1150191256352645E-7
    outer loop
      vertex 33.322052001953125 -250.04159545898438 1785.10888671875
      vertex 37.295066833496094 -280.2196350097656 1781.5252685546875
      vertex 33.44112777709961 -250.94606018066406 1791.3946533203125
    endloop
  endfacet
  facet normal -0.9914448856334648 -0.13052600794844207 -5.376408821308889E-7
    outer loop
      vertex 37.295066833496094 -280.2196350097656 1781.5252685546875
      vertex 37.42412567138672 -281.199951171875 1785.3017578125
      vertex 33.44112777709961 -250.94606018066406 1791.3946533203125
    endloop
  endfacet
  facet normal -0.9914448600455082 -0.13052620230950845 -9.23916074918323E-9
    outer loop
      vertex 38.62344741821289 -290.3096923828125 932.40234375
      vertex 38.30909729003906 -287.9219665527344 936.090576171875
      vertex 35.168983459472656 -264.0704345703125 917.5113525390625
    endloop
  endfacet
  facet normal -0.9914448597532718 -0.13052620452926336 -1.3218361379164125E-8
    outer loop
      vertex 35.49012756347656 -266.509765625 913.9559936523438
      vertex 38.62344741821289 -290.3096923828125 932.40234375
      vertex 35.168983459472656 -264.0704345703125 917.5113525390625
    endloop
  endfacet
  facet normal -0.9914448435652228 -0.13052632748880807 4.639964958231098E-7
    outer loop
      vertex 37.42412567138672 -281.199951171875 1785.3017578125
      vertex 37.60293197631836 -282.55810546875 1788.9580078125
      vertex 33.611602783203125 -252.24095153808594 1797.611083984375
    endloop
  endfacet
  facet normal -0.9914448739025497 -0.1305260970547644 -8.75203820721466E-8
    outer loop
      vertex 33.44112777709961 -250.94606018066406 1791.3946533203125
      vertex 37.42412567138672 -281.199951171875 1785.3017578125
      vertex 33.611602783203125 -252.24095153808594 1797.611083984375
    endloop
  endfacet
  facet normal -0.9914448658074515 -0.13052615854312638 -1.3818568665896785E-7
    outer loop
      vertex 33.611602783203125 -252.24095153808594 1797.611083984375
      vertex 37.60293197631836 -282.55810546875 1788.9580078125
      vertex 33.83281326293945 -253.9212188720703 1803.7335205078125
    endloop
  endfacet
  facet normal -0.9914448399731091 -0.13052635477422012 -2.2531765282443328E-7
    outer loop
      vertex 38.30909729003906 -287.9219665527344 936.090576171875
      vertex 38.002471923828125 -285.5929260253906 940.3822021484375
      vertex 34.87050247192383 -261.8032531738281 921.1802368164062
    endloop
  endfacet
  facet normal -0.9914448446622177 -0.13052631915703902 -1.6184499356813258E-7
    outer loop
      vertex 35.168983459472656 -264.0704345703125 917.5113525390625
      vertex 38.30909729003906 -287.9219665527344 936.090576171875
      vertex 34.87050247192383 -261.8032531738281 921.1802368164062
    endloop
  endfacet
  facet normal -0.9914448765494283 -0.13052607694939578 -2.9906598822594323E-7
    outer loop
      vertex 37.60293197631836 -282.55810546875 1788.9580078125
      vertex 37.80731201171875 -284.11053466796875 1792.1484375
      vertex 33.83281326293945 -253.9212188720703 1803.7335205078125
    endloop
  endfacet
  facet normal -0.9914448003086551 -0.1305266560520945 8.883403240208067E-7
    outer loop
      vertex 37.80731201171875 -284.11053466796875 1792.1484375
      vertex 38.04957580566406 -285.95068359375 1795.1798095703125
      vertex 34.0745849609375 -255.7576446533203 1809.1436767578125
    endloop
  endfacet
  facet normal -0.9914448483163734 -0.13052629140081504 2.694542248605346E-7
    outer loop
      vertex 33.83281326293945 -253.9212188720703 1803.7335205078125
      vertex 37.80731201171875 -284.11053466796875 1792.1484375
      vertex 34.0745849609375 -255.7576446533203 1809.1436767578125
    endloop
  endfacet
  facet normal -0.9914449051488508 -0.1305258597140029 -5.536627807544775E-7
    outer loop
      vertex 38.04957580566406 -285.95068359375 1795.1798095703125
      vertex 38.32456588745117 -288.0394592285156 1798.2862548828125
      vertex 34.3896484375 -258.1507873535156 1815.0216064453125
    endloop
  endfacet
  facet normal -0.991444852493569 -0.13052625967216344 1.642217382795482E-8
    outer loop
      vertex 34.0745849609375 -255.7576446533203 1809.1436767578125
      vertex 38.04957580566406 -285.95068359375 1795.1798095703125
      vertex 34.3896484375 -258.1507873535156 1815.0216064453125
    endloop
  endfacet
  facet normal -0.9914449041408333 -0.13052586737127098 3.890011346356407E-7
    outer loop
      vertex 34.87050247192383 -261.8032531738281 921.1802368164062
      vertex 38.002471923828125 -285.5929260253906 940.3822021484375
      vertex 34.49494552612305 -258.9505920410156 926.4464111328125
    endloop
  endfacet
  facet normal -0.9914448803371917 -0.1305260481784715 2.8810029044575954E-7
    outer loop
      vertex 38.002471923828125 -285.5929260253906 940.3822021484375
      vertex 37.742671966552734 -283.6195373535156 944.8504638671875
      vertex 34.166053771972656 -256.4524230957031 931.8916015625
    endloop
  endfacet
  facet normal -0.9914448589925514 -0.13052621030721231 -2.77984518689248E-7
    outer loop
      vertex 34.49494552612305 -258.9505920410156 926.4464111328125
      vertex 38.002471923828125 -285.5929260253906 940.3822021484375
      vertex 34.166053771972656 -256.4524230957031 931.8916015625
    endloop
  endfacet
  facet normal -0.991444845004095 -0.13052631655959296 -4.370523855758383E-7
    outer loop
      vertex 37.742671966552734 -283.6195373535156 944.8504638671875
      vertex 37.531410217285156 -282.0148620605469 949.4654541015625
      vertex 33.88527297973633 -254.31968688964844 937.4916381835938
    endloop
  endfacet
  facet normal -0.9914448554907366 -0.1305262369063764 -1.1440871974459752E-7
    outer loop
      vertex 34.166053771972656 -256.4524230957031 931.8916015625
      vertex 37.742671966552734 -283.6195373535156 944.8504638671875
      vertex 33.88527297973633 -254.31968688964844 937.4916381835938
    endloop
  endfacet
  facet normal -0.9914448909027425 -0.1305259679232719 7.363924996576764E-7
    outer loop
      vertex 37.531410217285156 -282.0148620605469 949.4654541015625
      vertex 37.370086669921875 -280.7894592285156 954.196533203125
      vertex 33.65384292602539 -252.56179809570312 943.2218627929688
    endloop
  endfacet
  facet normal -0.9914448718991662 -0.13052611227200547 4.3650147359901E-8
    outer loop
      vertex 33.88527297973633 -254.31968688964844 937.4916381835938
      vertex 37.531410217285156 -282.0148620605469 949.4654541015625
      vertex 33.65384292602539 -252.56179809570312 943.2218627929688
    endloop
  endfacet
  facet normal -0.991444841675374 -0.1305263418434397 -5.120932782633217E-7
    outer loop
      vertex 37.370086669921875 -280.7894592285156 954.196533203125
      vertex 37.259765625 -279.9515075683594 959.01220703125
      vertex 33.4727783203125 -251.1864776611328 949.0568237304688
    endloop
  endfacet
  facet normal -0.9914448526396483 -0.13052625856257888 -2.410987004626022E-8
    outer loop
      vertex 33.65384292602539 -252.56179809570312 943.2218627929688
      vertex 37.370086669921875 -280.7894592285156 954.196533203125
      vertex 33.4727783203125 -251.1864776611328 949.0568237304688
    endloop
  endfacet
  facet normal -0.9914448579797306 -0.1305262180005619 -1.480602355619047E-7
    outer loop
      vertex 33.4727783203125 -251.1864776611328 949.0568237304688
      vertex 37.259765625 -279.9515075683594 959.01220703125
      vertex 33.342872619628906 -250.1997528076172 954.9708251953125
    endloop
  endfacet
  facet normal -0.991444861243355 -0.13052619321089626 -1.2859014898831224E-7
    outer loop
      vertex 37.259765625 -279.9515075683594 959.01220703125
      vertex 37.208213806152344 -279.5599365234375 962.962890625
      vertex 33.26470184326172 -249.60598754882812 960.9376220703125
    endloop
  endfacet
  facet normal -0.9914448603132455 -0.1305262002758405 -1.5313141815754017E-8
    outer loop
      vertex 33.342872619628906 -250.1997528076172 954.9708251953125
      vertex 37.259765625 -279.9515075683594 959.01220703125
      vertex 33.26470184326172 -249.60598754882812 960.9376220703125
    endloop
  endfacet
  facet normal -0.9914448578438034 -0.13052621903310227 -5.5165794272138385E-8
    outer loop
      vertex 37.208213806152344 -279.5599365234375 962.962890625
      vertex 37.19100570678711 -279.4292297363281 966.9310302734375
      vertex 33.23860549926758 -249.40777587890625 966.9310302734375
    endloop
  endfacet
  facet normal -0.9914448605139567 -0.130526198751117 -2.1195088645291397E-7
    outer loop
      vertex 33.26470184326172 -249.60598754882812 960.9376220703125
      vertex 37.208213806152344 -279.5599365234375 962.962890625
      vertex 33.23860549926758 -249.40777587890625 966.9310302734375
    endloop
  endfacet
  facet normal -0.991444857843805 -0.13052621903310246 0.0
    outer loop
      vertex 37.19100570678711 -279.4292297363281 966.9310302734375
      vertex 37.19100570678711 -279.4292297363281 1773.77001953125
      vertex 33.23860549926758 -249.40777587890625 1773.77001953125
    endloop
  endfacet
  facet normal -0.991444857843805 -0.13052621903310246 0.0
    outer loop
      vertex 33.23860549926758 -249.40777587890625 966.9310302734375
      vertex 37.19100570678711 -279.4292297363281 966.9310302734375
      vertex 33.23860549926758 -249.40777587890625 1773.77001953125
    endloop
  endfacet
  facet normal -0.9914448537453184 -0.1305262501633121 4.781463624952324E-7
    outer loop
      vertex 37.19100570678711 -279.4292297363281 1773.77001953125
      vertex 37.21709060668945 -279.6273498535156 1777.66796875
      vertex 33.259483337402344 -249.56634521484375 1779.448486328125
    endloop
  endfacet
  facet normal -0.1605350148072912 0.8070615810550945 -0.5682254072158988
    outer loop
      vertex 69.20026397705078 -259.80438232421875 913.9559936523438
      vertex 35.49012756347656 -266.509765625 913.9559936523438
      vertex 35.168983459472656 -264.0704345703125 917.5113525390625
    endloop
  endfacet
  facet normal -0.16637681125109888 0.8327166376914567 -0.5281115014745952
    outer loop
      vertex 68.32809448242188 -256.5494079589844 918.9238891601562
      vertex 35.168983459472656 -264.0704345703125 917.5113525390625
      vertex 34.87050247192383 -261.8032531738281 921.1802368164062
    endloop
  endfacet
  facet normal -0.16040598864979635 0.8124742852065043 -0.5604957222704391
    outer loop
      vertex 68.32809448242188 -256.5494079589844 918.9238891601562
      vertex 69.20026397705078 -259.80438232421875 913.9559936523438
      vertex 35.168983459472656 -264.0704345703125 917.5113525390625
    endloop
  endfacet
  facet normal -0.1727402210029721 0.8608520036160419 -0.47863832265928163
    outer loop
      vertex 67.61798095703125 -253.8992156982422 923.5774536132812
      vertex 34.87050247192383 -261.8032531738281 921.1802368164062
      vertex 34.49494552612305 -258.9505920410156 926.4464111328125
    endloop
  endfacet
  facet normal -0.16697779974464105 0.8455922517942179 -0.507042560440465
    outer loop
      vertex 67.61798095703125 -253.8992156982422 923.5774536132812
      vertex 68.32809448242188 -256.5494079589844 918.9238891601562
      vertex 34.87050247192383 -261.8032531738281 921.1802368164062
    endloop
  endfacet
  facet normal -0.17858728038361452 0.8901652041116671 -0.41918073986529764
    outer loop
      vertex 66.91541290283203 -251.27719116210938 928.9291381835938
      vertex 34.49494552612305 -258.9505920410156 926.4464111328125
      vertex 34.166053771972656 -256.4524230957031 931.8916015625
    endloop
  endfacet
  facet normal -0.1726111009745423 0.8753892426564296 -0.45155185932709746
    outer loop
      vertex 66.91541290283203 -251.27719116210938 928.9291381835938
      vertex 67.61798095703125 -253.8992156982422 923.5774536132812
      vertex 34.49494552612305 -258.9505920410156 926.4464111328125
    endloop
  endfacet
  facet normal -0.183646493095081 0.9155298857769156 -0.3578812565966342
    outer loop
      vertex 66.30675506591797 -249.00567626953125 934.4488525390625
      vertex 34.166053771972656 -256.4524230957031 931.8916015625
      vertex 33.88527297973633 -254.31968688964844 937.4916381835938
    endloop
  endfacet
  facet normal -0.17807096214789242 0.9029101733204129 -0.39120832219448737
    outer loop
      vertex 66.30675506591797 -249.00567626953125 934.4488525390625
      vertex 66.91541290283203 -251.27719116210938 928.9291381835938
      vertex 34.166053771972656 -256.4524230957031 931.8916015625
    endloop
  endfacet
  facet normal -0.18789741260097773 0.9368437218447155 -0.2949888187338617
    outer loop
      vertex 65.7947006225586 -247.0946502685547 940.1121826171875
      vertex 33.88527297973633 -254.31968688964844 937.4916381835938
      vertex 33.65384292602539 -252.56179809570312 943.2218627929688
    endloop
  endfacet
  facet normal -0.1827357123564434 0.9264324088012783 -0.3291362200552292
    outer loop
      vertex 65.7947006225586 -247.0946502685547 940.1121826171875
      vertex 66.30675506591797 -249.00567626953125 934.4488525390625
      vertex 33.88527297973633 -254.31968688964844 937.4916381835938
    endloop
  endfacet
  facet normal -0.19132162143273598 0.9540061106521934 -0.23079943243132936
    outer loop
      vertex 65.38148498535156 -245.55252075195312 945.8939208984375
      vertex 33.65384292602539 -252.56179809570312 943.2218627929688
      vertex 33.4727783203125 -251.1864776611328 949.0568237304688
    endloop
  endfacet
  facet normal -0.18658761871360935 0.9458503940612565 -0.26561643886806113
    outer loop
      vertex 65.38148498535156 -245.55252075195312 945.8939208984375
      vertex 65.7947006225586 -247.0946502685547 940.1121826171875
      vertex 33.65384292602539 -252.56179809570312 943.2218627929688
    endloop
  endfacet
  facet normal -0.19390235995798633 0.9669446457959189 -0.16558963364090307
    outer loop
      vertex 65.06893920898438 -244.3860626220703 951.7686767578125
      vertex 33.4727783203125 -251.1864776611328 949.0568237304688
      vertex 33.342872619628906 -250.1997528076172 954.9708251953125
    endloop
  endfacet
  facet normal -0.18960898560705602 0.9610835992866095 -0.20091477735437754
    outer loop
      vertex 65.06893920898438 -244.3860626220703 951.7686767578125
      vertex 65.38148498535156 -245.55252075195312 945.8939208984375
      vertex 33.4727783203125 -251.1864776611328 949.0568237304688
    endloop
  endfacet
  facet normal -0.19562960800041326 0.9756021759538208 -0.09964662938491496
    outer loop
      vertex 64.85841369628906 -243.6003875732422 957.7103271484375
      vertex 33.342872619628906 -250.1997528076172 954.9708251953125
      vertex 33.26470184326172 -249.60598754882812 960.9376220703125
    endloop
  endfacet
  facet normal -0.19178610689808956 0.9720612756393229 -0.13533279574193016
    outer loop
      vertex 64.85841369628906 -243.6003875732422 957.7103271484375
      vertex 65.06893920898438 -244.3860626220703 951.7686767578125
      vertex 33.342872619628906 -250.1997528076172 954.9708251953125
    endloop
  endfacet
  facet normal -0.1960607348395375 0.9800273687530972 -0.03326476738324894
    outer loop
      vertex 64.76644134521484 -243.2571258544922 962.3145751953125
      vertex 33.26470184326172 -249.60598754882812 960.9376220703125
      vertex 33.23860549926758 -249.40777587890625 966.9310302734375
    endloop
  endfacet
  facet normal -0.1937577996640379 0.9780397500674034 -0.07678647248989638
    outer loop
      vertex 64.76644134521484 -243.2571258544922 962.3145751953125
      vertex 64.85841369628906 -243.6003875732422 957.7103271484375
      vertex 33.26470184326172 -249.60598754882812 960.9376220703125
    endloop
  endfacet
  facet normal -0.19502656975915778 0.9804632520459009 -0.025621250468170573
    outer loop
      vertex 64.73575592041016 -243.14259338378906 966.9310302734375
      vertex 64.76644134521484 -243.2571258544922 962.3145751953125
      vertex 33.23860549926758 -249.40777587890625 966.9310302734375
    endloop
  endfacet
  facet normal -0.15783055090595996 0.7934678163352579 -0.5877910697185509
    outer loop
      vertex 69.20026397705078 -259.80438232421875 913.9559936523438
      vertex 69.81702423095703 -262.1061706542969 910.6831665039062
      vertex 35.80116653442383 -268.8723449707031 910.6831665039062
    endloop
  endfacet
  facet normal -0.1578314883868158 0.7934700769838343 -0.5877877662939835
    outer loop
      vertex 69.20026397705078 -259.80438232421875 913.9559936523438
      vertex 35.80116653442383 -268.8723449707031 910.6831665039062
      vertex 35.49012756347656 -266.509765625 913.9559936523438
    endloop
  endfacet
  facet normal 0.11467117146605817 -0.5764909486629894 -0.8090171250006073
    outer loop
      vertex 69.81702423095703 -262.1061706542969 910.6831665039062
      vertex 76.18612670898438 -285.8759765625 928.5238647460938
      vertex 35.80116653442383 -268.8723449707031 910.6831665039062
    endloop
  endfacet
  facet normal 0.11467092075497527 -0.576491310714749 -0.8090169025450562
    outer loop
      vertex 76.18612670898438 -285.8759765625 928.5238647460938
      vertex 39.0131950378418 -293.2701110839844 928.5238647460938
      vertex 35.80116653442383 -268.8723449707031 910.6831665039062
    endloop
  endfacet
  facet normal 0.15354631895137122 -0.771931698855399 0.6168832792665896
    outer loop
      vertex 39.0131950378418 -293.2701110839844 928.5238647460938
      vertex 76.18612670898438 -285.8759765625 928.5238647460938
      vertex 75.58956909179688 -283.64959716796875 931.4583129882812
    endloop
  endfacet
  facet normal 0.15565615386455806 -0.7776041339094701 0.6091822163285758
    outer loop
      vertex 38.62344741821289 -290.3096923828125 932.40234375
      vertex 39.0131950378418 -293.2701110839844 928.5238647460938
      vertex 75.58956909179688 -283.64959716796875 931.4583129882812
    endloop
  endfacet
  facet normal 0.1644919396588454 -0.8215540432629794 0.5458858450129672
    outer loop
      vertex 38.30909729003906 -287.9219665527344 936.090576171875
      vertex 38.62344741821289 -290.3096923828125 932.40234375
      vertex 75.04151153564453 -281.6042175292969 934.5301513671875
    endloop
  endfacet
  facet normal 0.16008660477412281 -0.8082149830109483 0.566710525937631
    outer loop
      vertex 38.62344741821289 -290.3096923828125 932.40234375
      vertex 75.58956909179688 -283.64959716796875 931.4583129882812
      vertex 75.04151153564453 -281.6042175292969 934.5301513671875
    endloop
  endfacet
  facet normal 0.17245931147324278 -0.8605264770122426 0.47932449159945206
    outer loop
      vertex 38.002471923828125 -285.5929260253906 940.3822021484375
      vertex 38.30909729003906 -287.9219665527344 936.090576171875
      vertex 74.39969635009766 -279.20892333984375 938.7477416992188
    endloop
  endfacet
  facet normal 0.16703716658938567 -0.8462031454278712 0.506002788179835
    outer loop
      vertex 38.30909729003906 -287.9219665527344 936.090576171875
      vertex 75.04151153564453 -281.6042175292969 934.5301513671875
      vertex 74.39969635009766 -279.20892333984375 938.7477416992188
    endloop
  endfacet
  facet normal 0.17952559130851617 -0.8959974279898162 0.4061516602218459
    outer loop
      vertex 37.742671966552734 -283.6195373535156 944.8504638671875
      vertex 38.002471923828125 -285.5929260253906 940.3822021484375
      vertex 73.84925842285156 -277.1546630859375 943.1527099609375
    endloop
  endfacet
  facet normal 0.1745149496210762 -0.8838524517380856 0.43399236849895
    outer loop
      vertex 38.002471923828125 -285.5929260253906 940.3822021484375
      vertex 74.39969635009766 -279.20892333984375 938.7477416992188
      vertex 73.84925842285156 -277.1546630859375 943.1527099609375
    endloop
  endfacet
  facet normal 0.18539992573428804 -0.9254921827213629 0.3302893992536967
    outer loop
      vertex 37.531410217285156 -282.0148620605469 949.4654541015625
      vertex 37.742671966552734 -283.6195373535156 944.8504638671875
      vertex 73.39385223388672 -275.455078125 947.7158813476562
    endloop
  endfacet
  facet normal 0.1808260863124313 -0.9156231864664787 0.3590767423739682
    outer loop
      vertex 37.742671966552734 -283.6195373535156 944.8504638671875
      vertex 73.84925842285156 -277.1546630859375 943.1527099609375
      vertex 73.39385223388672 -275.455078125 947.7158813476562
    endloop
  endfacet
  facet normal 0.1900463506370249 -0.9488201435975457 0.2522354449974896
    outer loop
      vertex 37.370086669921875 -280.7894592285156 954.196533203125
      vertex 37.531410217285156 -282.0148620605469 949.4654541015625
      vertex 73.03648376464844 -274.1213684082031 952.40673828125
    endloop
  endfacet
  facet normal 0.1859234928417653 -0.9412891560583029 0.28179279532409274
    outer loop
      vertex 37.531410217285156 -282.0148620605469 949.4654541015625
      vertex 73.39385223388672 -275.455078125 947.7158813476562
      vertex 73.03648376464844 -274.1213684082031 952.40673828125
    endloop
  endfacet
  facet normal 0.19343500890509757 -0.96583114337883 0.17249086877115236
    outer loop
      vertex 37.259765625 -279.9515075683594 959.01220703125
      vertex 37.370086669921875 -280.7894592285156 954.196533203125
      vertex 72.7795181274414 -273.162353515625 957.1942138671875
    endloop
  endfacet
  facet normal 0.1897762945020497 -0.9606905584879367 0.20262923993641027
    outer loop
      vertex 37.370086669921875 -280.7894592285156 954.196533203125
      vertex 73.03648376464844 -274.1213684082031 952.40673828125
      vertex 72.7795181274414 -273.162353515625 957.1942138671875
    endloop
  endfacet
  facet normal 0.19476264426223897 -0.9758151170578734 0.09925910397192529
    outer loop
      vertex 37.208213806152344 -279.5599365234375 962.962890625
      vertex 37.259765625 -279.9515075683594 959.01220703125
      vertex 72.6246566772461 -272.58441162109375 962.0463256835938
    endloop
  endfacet
  facet normal 0.19236014263257584 -0.973696473106227 0.12211778652952143
    outer loop
      vertex 37.259765625 -279.9515075683594 959.01220703125
      vertex 72.7795181274414 -273.162353515625 957.1942138671875
      vertex 72.6246566772461 -272.58441162109375 962.0463256835938
    endloop
  endfacet
  facet normal 0.19498325899172794 -0.9802467389362162 0.03313396320813805
    outer loop
      vertex 37.19100570678711 -279.4292297363281 966.9310302734375
      vertex 37.208213806152344 -279.5599365234375 962.962890625
      vertex 72.57292175292969 -272.3913269042969 966.9310302734375
    endloop
  endfacet
  facet normal 0.1941001415002851 -0.9801329435007862 0.040798874176305636
    outer loop
      vertex 37.208213806152344 -279.5599365234375 962.962890625
      vertex 72.6246566772461 -272.58441162109375 962.0463256835938
      vertex 72.57292175292969 -272.3913269042969 966.9310302734375
    endloop
  endfacet
  facet normal 0.19509037931545758 -0.9807852690056834 0.0
    outer loop
      vertex 72.57292175292969 -272.3913269042969 966.9310302734375
      vertex 72.57292175292969 -272.3913269042969 1773.77001953125
      vertex 37.19100570678711 -279.4292297363281 966.9310302734375
    endloop
  endfacet
  facet normal 0.19509037931545758 -0.9807852690056834 0.0
    outer loop
      vertex 72.57292175292969 -272.3913269042969 1773.77001953125
      vertex 37.19100570678711 -279.4292297363281 1773.77001953125
      vertex 37.19100570678711 -279.4292297363281 966.9310302734375
    endloop
  endfacet
  facet normal 0.19485572015752192 -0.9796055581140027 -0.04903263029908737
    outer loop
      vertex 37.19100570678711 -279.4292297363281 1773.77001953125
      vertex 72.57292175292969 -272.3913269042969 1773.77001953125
      vertex 72.62056732177734 -272.5691223144531 1777.511474609375
    endloop
  endfacet
  facet normal 0.19504514823365776 -0.9794628073337572 -0.051088151271948753
    outer loop
      vertex 37.21709060668945 -279.6273498535156 1777.66796875
      vertex 37.19100570678711 -279.4292297363281 1773.77001953125
      vertex 72.62056732177734 -272.5691223144531 1777.511474609375
    endloop
  endfacet
  facet normal 0.19320279572482757 -0.9691994785517605 -0.15272540881957472
    outer loop
      vertex 37.295066833496094 -280.2196350097656 1781.5252685546875
      vertex 37.21709060668945 -279.6273498535156 1777.66796875
      vertex 72.76302337646484 -273.10076904296875 1781.2169189453125
    endloop
  endfacet
  facet normal 0.1927814180934794 -0.9702261766718306 -0.14661681669791074
    outer loop
      vertex 37.21709060668945 -279.6273498535156 1777.66796875
      vertex 72.62056732177734 -272.5691223144531 1777.511474609375
      vertex 72.76302337646484 -273.10076904296875 1781.2169189453125
    endloop
  endfacet
  facet normal 0.18915388982137638 -0.9488557034946112 -0.25277195238235767
    outer loop
      vertex 37.42412567138672 -281.199951171875 1785.3017578125
      vertex 37.295066833496094 -280.2196350097656 1781.5252685546875
      vertex 73.01087188720703 -274.0257873535156 1785.0015869140625
    endloop
  endfacet
  facet normal 0.18875394908475965 -0.9510224806111428 -0.24480234491756084
    outer loop
      vertex 37.295066833496094 -280.2196350097656 1781.5252685546875
      vertex 72.76302337646484 -273.10076904296875 1781.2169189453125
      vertex 73.01087188720703 -274.0257873535156 1785.0015869140625
    endloop
  endfacet
  facet normal 0.1831349969795799 -0.9186045126892202 -0.35018184154563164
    outer loop
      vertex 37.60293197631836 -282.55810546875 1788.9580078125
      vertex 37.42412567138672 -281.199951171875 1785.3017578125
      vertex 73.35763549804688 -275.3199157714844 1788.6693115234375
    endloop
  endfacet
  facet normal 0.18289467275640922 -0.9215599348913011 -0.34245704121899256
    outer loop
      vertex 37.42412567138672 -281.199951171875 1785.3017578125
      vertex 73.01087188720703 -274.0257873535156 1785.0015869140625
      vertex 73.35763549804688 -275.3199157714844 1788.6693115234375
    endloop
  endfacet
  facet normal 0.175603588525933 -0.8807534247841844 -0.43981448865145967
    outer loop
      vertex 37.80731201171875 -284.11053466796875 1792.1484375
      vertex 37.60293197631836 -282.55810546875 1788.9580078125
      vertex 73.75138854980469 -276.7893981933594 1791.8387451171875
    endloop
  endfacet
  facet normal 0.17559684776656306 -0.8846300965957662 -0.4319668265635824
    outer loop
      vertex 37.60293197631836 -282.55810546875 1788.9580078125
      vertex 73.35763549804688 -275.3199157714844 1788.6693115234375
      vertex 73.75138854980469 -276.7893981933594 1791.8387451171875
    endloop
  endfacet
  facet normal 0.16647785351200453 -0.836941677290173 -0.5213576057800899
    outer loop
      vertex 38.04957580566406 -285.95068359375 1795.1798095703125
      vertex 37.80731201171875 -284.11053466796875 1792.1484375
      vertex 74.2753677368164 -278.74493408203125 1795.1798095703125
    endloop
  endfacet
  facet normal 0.16650874466760962 -0.8393833675042799 -0.5174073833125999
    outer loop
      vertex 37.80731201171875 -284.11053466796875 1792.1484375
      vertex 73.75138854980469 -276.7893981933594 1791.8387451171875
      vertex 74.2753677368164 -278.74493408203125 1795.1798095703125
    endloop
  endfacet
  facet normal 0.1615690923283362 -0.8122636391499226 -0.5604669561349017
    outer loop
      vertex 74.2753677368164 -278.74493408203125 1795.1798095703125
      vertex 74.82064819335938 -280.7799377441406 1798.2862548828125
      vertex 38.04957580566406 -285.95068359375 1795.1798095703125
    endloop
  endfacet
  facet normal 0.1615690750153515 -0.8122626639429787 -0.5604683744538485
    outer loop
      vertex 74.82064819335938 -280.7799377441406 1798.2862548828125
      vertex 38.32456588745117 -288.0394592285156 1798.2862548828125
      vertex 38.04957580566406 -285.95068359375 1795.1798095703125
    endloop
  endfacet
  facet normal 0.09484421948670752 -0.4768146177462504 0.8738720697753503
    outer loop
      vertex 74.82064819335938 -280.7799377441406 1798.2862548828125
      vertex 67.01814270019531 -251.66058349609375 1815.0216064453125
      vertex 34.3896484375 -258.1507873535156 1815.0216064453125
    endloop
  endfacet
  facet normal 0.09484429577640725 -0.47681451626693133 0.8738721168659689
    outer loop
      vertex 74.82064819335938 -280.7799377441406 1798.2862548828125
      vertex 34.3896484375 -258.1507873535156 1815.0216064453125
      vertex 38.32456588745117 -288.0394592285156 1798.2862548828125
    endloop
  endfacet
  facet normal -0.1950136070494161 0.9803980842045941 0.028094297527031218
    outer loop
      vertex 64.73575592041016 -243.14259338378906 1773.77001953125
      vertex 33.23860549926758 -249.40777587890625 1773.77001953125
      vertex 33.259483337402344 -249.56634521484375 1779.448486328125
    endloop
  endfacet
  facet normal -0.1949043968755128 0.9772013639568236 0.0842007741028339
    outer loop
      vertex 64.7874984741211 -243.33572387695312 1780.1180419921875
      vertex 33.259483337402344 -249.56634521484375 1779.448486328125
      vertex 33.322052001953125 -250.04159545898438 1785.10888671875
    endloop
  endfacet
  facet normal -0.19441853841574847 0.9804155653844538 0.03141259416485308
    outer loop
      vertex 64.7874984741211 -243.33572387695312 1780.1180419921875
      vertex 64.73575592041016 -243.14259338378906 1773.77001953125
      vertex 33.259483337402344 -249.56634521484375 1779.448486328125
    endloop
  endfacet
  facet normal -0.19408837262130096 0.9704586333026317 0.14331693780430585
    outer loop
      vertex 64.94253540039062 -243.91432189941406 1786.44091796875
      vertex 33.322052001953125 -250.04159545898438 1785.10888671875
      vertex 33.44112777709961 -250.94606018066406 1791.3946533203125
    endloop
  endfacet
  facet normal -0.19321193877414017 0.9766334178839358 0.09410799002996219
    outer loop
      vertex 64.94253540039062 -243.91432189941406 1786.44091796875
      vertex 64.7874984741211 -243.33572387695312 1780.1180419921875
      vertex 33.322052001953125 -250.04159545898438 1785.10888671875
    endloop
  endfacet
  facet normal -0.19194808123846552 0.9597183639278386 0.2051745501970071
    outer loop
      vertex 65.20025634765625 -244.8761444091797 1792.7139892578125
      vertex 33.44112777709961 -250.94606018066406 1791.3946533203125
      vertex 33.611602783203125 -252.24095153808594 1797.611083984375
    endloop
  endfacet
  facet normal -0.19168009343528092 0.9689103361833603 0.15643369911144367
    outer loop
      vertex 65.20025634765625 -244.8761444091797 1792.7139892578125
      vertex 64.94253540039062 -243.91432189941406 1786.44091796875
      vertex 33.44112777709961 -250.94606018066406 1791.3946533203125
    endloop
  endfacet
  facet normal -0.18905134385852773 0.9451878743647273 0.2662319881967104
    outer loop
      vertex 65.55964660644531 -246.2174072265625 1798.912353515625
      vertex 33.611602783203125 -252.24095153808594 1797.611083984375
      vertex 33.83281326293945 -253.9212188720703 1803.7335205078125
    endloop
  endfacet
  facet normal -0.18938833293429677 0.9573635362079259 0.21814472005488308
    outer loop
      vertex 65.55964660644531 -246.2174072265625 1798.912353515625
      vertex 65.20025634765625 -244.8761444091797 1792.7139892578125
      vertex 33.611602783203125 -252.24095153808594 1797.611083984375
    endloop
  endfacet
  facet normal -0.18548347251671246 0.9279497223100531 0.3232726315168623
    outer loop
      vertex 66.01930236816406 -247.932861328125 1805.0115966796875
      vertex 33.83281326293945 -253.9212188720703 1803.7335205078125
      vertex 34.0745849609375 -255.7576446533203 1809.1436767578125
    endloop
  endfacet
  facet normal -0.18634649432229308 0.9420376889434955 0.2789981660581114
    outer loop
      vertex 66.01930236816406 -247.932861328125 1805.0115966796875
      vertex 65.55964660644531 -246.2174072265625 1798.912353515625
      vertex 33.83281326293945 -253.9212188720703 1803.7335205078125
    endloop
  endfacet
  facet normal -0.18130298113834592 0.907397293044851 0.3791561440953124
    outer loop
      vertex 66.48426055908203 -249.6681365966797 1810.0677490234375
      vertex 34.0745849609375 -255.7576446533203 1809.1436767578125
      vertex 34.3896484375 -258.1507873535156 1815.0216064453125
    endloop
  endfacet
  facet normal -0.18323991511478285 0.9245354069646429 0.33415178404050033
    outer loop
      vertex 66.48426055908203 -249.6681365966797 1810.0677490234375
      vertex 66.01930236816406 -247.932861328125 1805.0115966796875
      vertex 34.0745849609375 -255.7576446533203 1809.1436767578125
    endloop
  endfacet
  facet normal -0.1801578433160008 0.9057156425515949 0.3836956167707404
    outer loop
      vertex 67.01814270019531 -251.66058349609375 1815.0216064453125
      vertex 66.48426055908203 -249.6681365966797 1810.0677490234375
      vertex 34.3896484375 -258.1507873535156 1815.0216064453125
    endloop
  endfacet
endsolid v3d.csg
