solid v3d.csg
  facet normal 0.9659258171352899 -0.2588190792645647 -4.0712386479526647E-7
    outer loop
      vertex -74.16659545898438 -275.2480163574219 947.7158813476562
      vertex -66.56744384765625 -246.88758850097656 940.1121826171875
      vertex -73.8092269897461 -273.914306640625 952.40673828125
    endloop
  endfacet
  facet normal 0.9659257907873618 -0.25881917759650214 -2.8286224785279577E-7
    outer loop
      vertex -66.15422821044922 -245.345458984375 945.8939208984375
      vertex -65.8416748046875 -244.1790008544922 951.7686767578125
      vertex -73.55226135253906 -272.9552917480469 957.1942138671875
    endloop
  endfacet
  facet normal 0.9659258279224059 -0.2588190390063288 5.049757170039366E-7
    outer loop
      vertex -65.8416748046875 -244.1790008544922 951.7686767578125
      vertex -65.63115692138672 -243.39332580566406 957.7103271484375
      vertex -73.55226135253906 -272.9552917480469 957.1942138671875
    endloop
  endfacet
  facet normal 0.9659258513046619 -0.25881895174285263 3.085817528800506E-7
    outer loop
      vertex -73.8092269897461 -273.914306640625 952.40673828125
      vertex -66.15422821044922 -245.345458984375 945.8939208984375
      vertex -73.55226135253906 -272.9552917480469 957.1942138671875
    endloop
  endfacet
  facet normal 0.9659258243693086 -0.25881905226624824 -6.875679936343142E-7
    outer loop
      vertex -65.63115692138672 -243.39332580566406 957.7103271484375
      vertex -65.53917694091797 -243.05006408691406 962.3145751953125
      vertex -73.39739990234375 -272.3773498535156 962.0463256835938
    endloop
  endfacet
  facet normal 0.9659258322122076 -0.25881902299662146 -4.778674090277646E-7
    outer loop
      vertex -73.55226135253906 -272.9552917480469 957.1942138671875
      vertex -65.63115692138672 -243.39332580566406 957.7103271484375
      vertex -73.39739990234375 -272.3773498535156 962.0463256835938
    endloop
  endfacet
  facet normal 0.9659258013221556 -0.2588191382802573 -1.2941478106855715E-7
    outer loop
      vertex -65.53917694091797 -243.05006408691406 962.3145751953125
      vertex -65.50849151611328 -242.935546875 966.9310302734375
      vertex -73.34566497802734 -272.18426513671875 966.9310302734375
    endloop
  endfacet
  facet normal 0.9659258219049988 -0.2588190614637961 3.9017566311027136E-7
    outer loop
      vertex -73.39739990234375 -272.3773498535156 962.0463256835938
      vertex -65.53917694091797 -243.05006408691406 962.3145751953125
      vertex -73.34566497802734 -272.18426513671875 966.9310302734375
    endloop
  endfacet
  facet normal 0.9659258013221637 -0.2588191382802595 0.0
    outer loop
      vertex -65.50849151611328 -242.935546875 966.9310302734375
      vertex -65.50849151611328 -242.935546875 1773.77001953125
      vertex -73.34566497802734 -272.18426513671875 1773.77001953125
    endloop
  endfacet
  facet normal 0.9659258013221637 -0.2588191382802595 0.0
    outer loop
      vertex -73.34566497802734 -272.18426513671875 966.9310302734375
      vertex -65.50849151611328 -242.935546875 966.9310302734375
      vertex -73.34566497802734 -272.18426513671875 1773.77001953125
    endloop
  endfacet
  facet normal 0.965925844297606 -0.2588189778925585 7.800432838268862E-7
    outer loop
      vertex -65.50849151611328 -242.935546875 1773.77001953125
      vertex -65.56024169921875 -243.128662109375 1780.1180419921875
      vertex -73.39330291748047 -272.362060546875 1777.511474609375
    endloop
  endfacet
  facet normal 0.9659258013220057 -0.25881913828021713 -5.719719159407549E-7
    outer loop
      vertex -73.34566497802734 -272.18426513671875 1773.77001953125
      vertex -65.50849151611328 -242.935546875 1773.77001953125
      vertex -73.39330291748047 -272.362060546875 1777.511474609375
    endloop
  endfacet
  facet normal 0.9659258543457323 -0.2588189403933996 3.2396254245907334E-7
    outer loop
      vertex -65.56024169921875 -243.128662109375 1780.1180419921875
      vertex -65.71527862548828 -243.70726013183594 1786.44091796875
      vertex -73.5357666015625 -272.89373779296875 1781.2169189453125
    endloop
  endfacet
  facet normal 0.9659258543804621 -0.25881894026378155 3.2772554760608445E-7
    outer loop
      vertex -73.39330291748047 -272.362060546875 1777.511474609375
      vertex -65.56024169921875 -243.128662109375 1780.1180419921875
      vertex -73.5357666015625 -272.89373779296875 1781.2169189453125
    endloop
  endfacet
  facet normal 0.9659258883691656 -0.25881881341468305 -9.238192271450158E-7
    outer loop
      vertex -65.71527862548828 -243.70726013183594 1786.44091796875
      vertex -65.97299194335938 -244.66908264160156 1792.7139892578125
      vertex -73.78361511230469 -273.8187255859375 1785.0015869140625
    endloop
  endfacet
  facet normal 0.9659258804225899 -0.25881884307325387 -2.588028823781275E-7
    outer loop
      vertex -73.5357666015625 -272.89373779296875 1781.2169189453125
      vertex -65.71527862548828 -243.70726013183594 1786.44091796875
      vertex -73.78361511230469 -273.8187255859375 1785.0015869140625
    endloop
  endfacet
  facet normal 0.9659257802377528 -0.25881921696733245 7.109488769306168E-7
    outer loop
      vertex -73.78361511230469 -273.8187255859375 1785.0015869140625
      vertex -65.97299194335938 -244.66908264160156 1792.7139892578125
      vertex -74.13037872314453 -275.11285400390625 1788.6693115234375
    endloop
  endfacet
  facet normal 0.9659258046294941 -0.2588191259371372 -2.3417496655820077E-8
    outer loop
      vertex -65.97299194335938 -244.66908264160156 1792.7139892578125
      vertex -66.33238220214844 -246.01034545898438 1798.912353515625
      vertex -74.13037872314453 -275.11285400390625 1788.6693115234375
    endloop
  endfacet
  facet normal 0.9659258035337861 -0.25881913002632106 1.6769631905406165E-7
    outer loop
      vertex -66.33238220214844 -246.01034545898438 1798.912353515625
      vertex -66.79203796386719 -247.72579956054688 1805.0115966796875
      vertex -74.52412414550781 -276.58233642578125 1791.8387451171875
    endloop
  endfacet
  facet normal 0.9659259065546273 -0.25881874554690393 3.852094868658476E-7
    outer loop
      vertex -70.58976745605469 -261.89910888671875 910.6831665039062
      vertex -69.97300720214844 -259.5973205566406 913.9559936523438
      vertex -76.36231231689453 -283.4425354003906 931.4583129882812
    endloop
  endfacet
  facet normal 0.9659258191383766 -0.2588190717892621 3.096238036746605E-8
    outer loop
      vertex -66.79203796386719 -247.72579956054688 1805.0115966796875
      vertex -67.25700378417969 -249.46107482910156 1810.0677490234375
      vertex -74.52412414550781 -276.58233642578125 1791.8387451171875
    endloop
  endfacet
  facet normal 0.9659258336971135 -0.2588190174550761 -3.537655815738209E-7
    outer loop
      vertex -74.13037872314453 -275.11285400390625 1788.6693115234375
      vertex -66.33238220214844 -246.01034545898438 1798.912353515625
      vertex -74.52412414550781 -276.58233642578125 1791.8387451171875
    endloop
  endfacet
  facet normal 0.9659257358391011 -0.25881938266562166 5.26694619991879E-7
    outer loop
      vertex -74.52412414550781 -276.58233642578125 1791.8387451171875
      vertex -67.25700378417969 -249.46107482910156 1810.0677490234375
      vertex -75.04811096191406 -278.5378723144531 1795.1798095703125
    endloop
  endfacet
  facet normal 0.9659258077287081 -0.25881911437071586 -3.491810694009632E-8
    outer loop
      vertex -67.25700378417969 -249.46107482910156 1810.0677490234375
      vertex -67.79087829589844 -251.45352172851562 1815.0216064453125
      vertex -75.04811096191406 -278.5378723144531 1795.1798095703125
    endloop
  endfacet
  facet normal 0.9659261202356625 -0.25881794807328107 1.2715472927111386E-6
    outer loop
      vertex -76.9588623046875 -285.6689147949219 928.5238647460938
      vertex -70.58976745605469 -261.89910888671875 910.6831665039062
      vertex -76.36231231689453 -283.4425354003906 931.4583129882812
    endloop
  endfacet
  facet normal 0.9659256990361688 -0.2588195200157375 5.585482560522241E-7
    outer loop
      vertex -75.04811096191406 -278.5378723144531 1795.1798095703125
      vertex -67.79087829589844 -251.45352172851562 1815.0216064453125
      vertex -75.59339141845703 -280.5728759765625 1798.2862548828125
    endloop
  endfacet
  facet normal 0.9659257815592327 -0.2588192120363878 -2.2149075859705063E-7
    outer loop
      vertex -69.97300720214844 -259.5973205566406 913.9559936523438
      vertex -69.10083770751953 -256.34234619140625 918.9238891601562
      vertex -75.81425476074219 -281.39715576171875 934.5301513671875
    endloop
  endfacet
  facet normal 0.9659258011250769 -0.2588191390157792 -9.58443296041103E-8
    outer loop
      vertex -69.10083770751953 -256.34234619140625 918.9238891601562
      vertex -68.3907241821289 -253.69216918945312 923.5774536132812
      vertex -75.81425476074219 -281.39715576171875 934.5301513671875
    endloop
  endfacet
  facet normal 0.9659258430432538 -0.2588189825750381 3.909648258449793E-8
    outer loop
      vertex -76.36231231689453 -283.4425354003906 931.4583129882812
      vertex -69.97300720214844 -259.5973205566406 913.9559936523438
      vertex -75.81425476074219 -281.39715576171875 934.5301513671875
    endloop
  endfacet
  facet normal 0.9659258080494966 -0.258819113173258 -3.6819519600557143E-7
    outer loop
      vertex -68.3907241821289 -253.69216918945312 923.5774536132812
      vertex -67.68814849853516 -251.07012939453125 928.9291381835938
      vertex -75.17243194580078 -279.0018615722656 938.7477416992188
    endloop
  endfacet
  facet normal 0.9659257086420464 -0.25881948416472866 -1.0315861756641015E-6
    outer loop
      vertex -75.81425476074219 -281.39715576171875 934.5301513671875
      vertex -68.3907241821289 -253.69216918945312 923.5774536132812
      vertex -75.17243194580078 -279.0018615722656 938.7477416992188
    endloop
  endfacet
  facet normal 0.9659257921743771 -0.2588191724202196 1.215247436617663E-7
    outer loop
      vertex -67.68814849853516 -251.07012939453125 928.9291381835938
      vertex -67.07949829101562 -248.79861450195312 934.4488525390625
      vertex -74.62200164794922 -276.9476013183594 943.1527099609375
    endloop
  endfacet
  facet normal 0.9659259556071162 -0.2588185624771932 1.310888598139611E-6
    outer loop
      vertex -75.17243194580078 -279.0018615722656 938.7477416992188
      vertex -67.68814849853516 -251.07012939453125 928.9291381835938
      vertex -74.62200164794922 -276.9476013183594 943.1527099609375
    endloop
  endfacet
  facet normal 0.9659258788811698 -0.2588188488255356 5.140811974839459E-7
    outer loop
      vertex -67.07949829101562 -248.79861450195312 934.4488525390625
      vertex -66.56744384765625 -246.88758850097656 940.1121826171875
      vertex -74.16659545898438 -275.2480163574219 947.7158813476562
    endloop
  endfacet
  facet normal 0.9659257319373536 -0.25881939722682107 -6.577178017524965E-7
    outer loop
      vertex -74.62200164794922 -276.9476013183594 943.1527099609375
      vertex -67.07949829101562 -248.79861450195312 934.4488525390625
      vertex -74.16659545898438 -275.2480163574219 947.7158813476562
    endloop
  endfacet
  facet normal 0.965925803864315 -0.2588191287922941 -5.238159635581879E-7
    outer loop
      vertex -66.56744384765625 -246.88758850097656 940.1121826171875
      vertex -66.15422821044922 -245.345458984375 945.8939208984375
      vertex -73.8092269897461 -273.914306640625 952.40673828125
    endloop
  endfacet
  facet normal 0.3214397514046025 0.9469300323767049 0.0
    outer loop
      vertex -65.50849151611328 -242.935546875 966.9310302734375
      vertex -95.91840362548828 -232.61276245117188 966.9310302734375
      vertex -95.91840362548828 -232.61276245117188 1773.77001953125
    endloop
  endfacet
  facet normal 0.3214397514046025 0.9469300323767049 0.0
    outer loop
      vertex -65.50849151611328 -242.935546875 1773.77001953125
      vertex -65.50849151611328 -242.935546875 966.9310302734375
      vertex -95.91840362548828 -232.61276245117188 1773.77001953125
    endloop
  endfacet
  facet normal -0.9238795557676258 0.3826833762191157 3.9140956270863987E-7
    outer loop
      vertex -95.91840362548828 -232.61276245117188 1773.77001953125
      vertex -107.50625610351562 -260.58831787109375 1773.77001953125
      vertex -95.9796142578125 -232.7605438232422 1779.448486328125
    endloop
  endfacet
  facet normal -0.9238796618171123 0.38268312019000383 1.5300734909900368E-6
    outer loop
      vertex -107.58272552490234 -260.7729187011719 1777.66796875
      vertex -107.81134033203125 -261.3248596191406 1781.5252685546875
      vertex -96.16305541992188 -233.20339965820312 1785.10888671875
    endloop
  endfacet
  facet normal -0.9238792012595968 0.3826842320746847 1.1568946456150974E-6
    outer loop
      vertex -103.43144989013672 -250.7508544921875 910.6831665039062
      vertex -112.84864044189453 -273.4859619140625 928.5238647460938
      vertex -111.7059555053711 -270.727294921875 932.40234375
    endloop
  endfacet
  facet normal -0.9238794510443573 0.3826836290429944 -6.787652049715968E-7
    outer loop
      vertex -95.9796142578125 -232.7605438232422 1779.448486328125
      vertex -107.58272552490234 -260.7729187011719 1777.66796875
      vertex -96.16305541992188 -233.20339965820312 1785.10888671875
    endloop
  endfacet
  facet normal -0.9238795745346806 0.3826833309115815 1.8583125832224177E-7
    outer loop
      vertex -103.43144989013672 -250.7508544921875 910.6831665039062
      vertex -111.7059555053711 -270.727294921875 932.40234375
      vertex -102.51952362060547 -248.5492706298828 913.9559936523438
    endloop
  endfacet
  facet normal -0.9238796004228047 0.3826832684121043 1.6738359881818069E-7
    outer loop
      vertex -96.16305541992188 -233.20339965820312 1785.10888671875
      vertex -107.81134033203125 -261.3248596191406 1781.5252685546875
      vertex -96.51216125488281 -234.0462188720703 1791.3946533203125
    endloop
  endfacet
  facet normal -0.9238792719241158 0.3826840614700359 -2.4006901487422393E-6
    outer loop
      vertex -107.81134033203125 -261.3248596191406 1781.5252685546875
      vertex -108.18972778320312 -262.23834228515625 1785.3017578125
      vertex -96.51216125488281 -234.0462188720703 1791.3946533203125
    endloop
  endfacet
  facet normal -0.9238797829585713 0.38268282773067097 -6.934832558942108E-7
    outer loop
      vertex -111.7059555053711 -270.727294921875 932.40234375
      vertex -110.78433227539062 -268.5022888183594 936.090576171875
      vertex -101.57798767089844 -246.2761993408203 917.5113525390625
    endloop
  endfacet
  facet normal -0.9238796458304187 0.3826831587883858 -5.6618106085885473E-8
    outer loop
      vertex -102.51952362060547 -248.5492706298828 913.9559936523438
      vertex -111.7059555053711 -270.727294921875 932.40234375
      vertex -101.57798767089844 -246.2761993408203 917.5113525390625
    endloop
  endfacet
  facet normal -0.9238797323295045 0.38268294995642627 1.8467768152674817E-6
    outer loop
      vertex -108.18972778320312 -262.23834228515625 1785.3017578125
      vertex -108.71395874023438 -263.50396728515625 1788.9580078125
      vertex -97.01197052001953 -235.25286865234375 1797.611083984375
    endloop
  endfacet
  facet normal -0.9238794741521675 0.38268357325635743 2.4588597978390566E-7
    outer loop
      vertex -96.51216125488281 -234.0462188720703 1791.3946533203125
      vertex -108.18972778320312 -262.23834228515625 1785.3017578125
      vertex -97.01197052001953 -235.25286865234375 1797.611083984375
    endloop
  endfacet
  facet normal -0.9238795579038362 0.38268337106197386 2.3604079535182476E-7
    outer loop
      vertex -97.01197052001953 -235.25286865234375 1797.611083984375
      vertex -108.71395874023438 -263.50396728515625 1788.9580078125
      vertex -97.66053009033203 -236.81863403320312 1803.7335205078125
    endloop
  endfacet
  facet normal -0.9238793930305784 0.3826837691006386 6.15687604223778E-7
    outer loop
      vertex -110.78433227539062 -268.5022888183594 936.090576171875
      vertex -109.8853530883789 -266.33197021484375 940.3822021484375
      vertex -100.702880859375 -244.16351318359375 921.1802368164062
    endloop
  endfacet
  facet normal -0.9238794681625274 0.38268358771663596 -2.2238329822632266E-7
    outer loop
      vertex -108.71395874023438 -263.50396728515625 1788.9580078125
      vertex -109.31317138671875 -264.9505920410156 1792.1484375
      vertex -97.66053009033203 -236.81863403320312 1803.7335205078125
    endloop
  endfacet
  facet normal -0.9238793847648236 0.38268378905585143 6.538501329748816E-7
    outer loop
      vertex -101.57798767089844 -246.2761993408203 917.5113525390625
      vertex -110.78433227539062 -268.5022888183594 936.090576171875
      vertex -100.702880859375 -244.16351318359375 921.1802368164062
    endloop
  endfacet
  facet normal -0.9238795632266691 0.38268335821157884 -8.768451154938249E-8
    outer loop
      vertex -109.31317138671875 -264.9505920410156 1792.1484375
      vertex -110.02344512939453 -266.66534423828125 1795.1798095703125
      vertex -98.36936950683594 -238.5299072265625 1809.1436767578125
    endloop
  endfacet
  facet normal -0.9238793535196644 0.3826838644874735 -1.0097749579736997E-6
    outer loop
      vertex -97.66053009033203 -236.81863403320312 1803.7335205078125
      vertex -109.31317138671875 -264.9505920410156 1792.1484375
      vertex -98.36936950683594 -238.5299072265625 1809.1436767578125
    endloop
  endfacet
  facet normal -0.9238799204395125 0.38268249582035896 1.1751199204706029E-6
    outer loop
      vertex -110.02344512939453 -266.66534423828125 1795.1798095703125
      vertex -110.82968139648438 -268.6117858886719 1798.2862548828125
      vertex -99.2930908203125 -240.7599639892578 1815.0216064453125
    endloop
  endfacet
  facet normal -0.9238795351580218 0.3826834259752258 -2.476454972990419E-7
    outer loop
      vertex -98.36936950683594 -238.5299072265625 1809.1436767578125
      vertex -110.02344512939453 -266.66534423828125 1795.1798095703125
      vertex -99.2930908203125 -240.7599639892578 1815.0216064453125
    endloop
  endfacet
  facet normal -0.923879600257558 0.38268326881107695 -6.098811155695431E-8
    outer loop
      vertex -100.702880859375 -244.16351318359375 921.1802368164062
      vertex -109.8853530883789 -266.33197021484375 940.3822021484375
      vertex -99.60179901123047 -241.50526428222656 926.4464111328125
    endloop
  endfacet
  facet normal -0.92387953317369 0.38268343076589295 -1.041504684489927E-7
    outer loop
      vertex -109.8853530883789 -266.33197021484375 940.3822021484375
      vertex -109.1236572265625 -264.4930725097656 944.8504638671875
      vertex -98.63753509521484 -239.17733764648438 931.8916015625
    endloop
  endfacet
  facet normal -0.9238794380429766 0.3826836604309382 7.563873456874864E-7
    outer loop
      vertex -99.60179901123047 -241.50526428222656 926.4464111328125
      vertex -109.8853530883789 -266.33197021484375 940.3822021484375
      vertex -98.63753509521484 -239.17733764648438 931.8916015625
    endloop
  endfacet
  facet normal -0.9238796547021993 0.38268313736994825 -1.9557844162320139E-7
    outer loop
      vertex -109.1236572265625 -264.4930725097656 944.8504638671875
      vertex -108.5042724609375 -262.99774169921875 949.4654541015625
      vertex -97.81433868408203 -237.18994140625 937.4916381835938
    endloop
  endfacet
  facet normal -0.9238797714460885 0.3826828555223043 -1.4207218804663772E-6
    outer loop
      vertex -98.63753509521484 -239.17733764648438 931.8916015625
      vertex -109.1236572265625 -264.4930725097656 944.8504638671875
      vertex -97.81433868408203 -237.18994140625 937.4916381835938
    endloop
  endfacet
  facet normal -0.9238796684176992 0.38268310425722507 -6.751749418110044E-7
    outer loop
      vertex -108.5042724609375 -262.99774169921875 949.4654541015625
      vertex -108.03129577636719 -261.8558654785156 954.196533203125
      vertex -97.13581848144531 -235.55184936523438 943.2218627929688
    endloop
  endfacet
  facet normal -0.92387960593146 0.3826832551130501 1.0174084724657543E-7
    outer loop
      vertex -97.81433868408203 -237.18994140625 937.4916381835938
      vertex -108.5042724609375 -262.99774169921875 949.4654541015625
      vertex -97.13581848144531 -235.55184936523438 943.2218627929688
    endloop
  endfacet
  facet normal -0.9238795703845374 0.3826833409300369 -8.411350105799948E-7
    outer loop
      vertex -108.03129577636719 -261.8558654785156 954.196533203125
      vertex -107.70784759521484 -261.0749816894531 959.01220703125
      vertex -96.6049575805664 -234.27024841308594 949.0568237304688
    endloop
  endfacet
  facet normal -0.9238794715277422 0.38268357959178867 6.595729393153898E-7
    outer loop
      vertex -97.13581848144531 -235.55184936523438 943.2218627929688
      vertex -108.03129577636719 -261.8558654785156 954.196533203125
      vertex -96.6049575805664 -234.27024841308594 949.0568237304688
    endloop
  endfacet
  facet normal -0.9238793694506412 0.382683826027454 6.890776760438662E-7
    outer loop
      vertex -96.6049575805664 -234.27024841308594 949.0568237304688
      vertex -107.70784759521484 -261.0749816894531 959.01220703125
      vertex -96.2240982055664 -233.3507843017578 954.9708251953125
    endloop
  endfacet
  facet normal -0.9238794724270323 0.3826835774195662 1.1450652464432195E-6
    outer loop
      vertex -107.70784759521484 -261.0749816894531 959.01220703125
      vertex -107.55670928955078 -260.7101135253906 962.962890625
      vertex -95.99491119384766 -232.79747009277344 960.9376220703125
    endloop
  endfacet
  facet normal -0.923879432159088 0.38268367463627506 -5.276663029463121E-7
    outer loop
      vertex -96.2240982055664 -233.3507843017578 954.9708251953125
      vertex -107.70784759521484 -261.0749816894531 959.01220703125
      vertex -95.99491119384766 -232.79747009277344 960.9376220703125
    endloop
  endfacet
  facet normal -0.9238795557673383 0.3826833762189966 8.807417043757127E-7
    outer loop
      vertex -107.55670928955078 -260.7101135253906 962.962890625
      vertex -107.50625610351562 -260.58831787109375 966.9310302734375
      vertex -95.91840362548828 -232.61276245117188 966.9310302734375
    endloop
  endfacet
  facet normal -0.9238795051920397 0.38268349831955734 -1.3215437837265178E-7
    outer loop
      vertex -95.99491119384766 -232.79747009277344 960.9376220703125
      vertex -107.55670928955078 -260.7101135253906 962.962890625
      vertex -95.91840362548828 -232.61276245117188 966.9310302734375
    endloop
  endfacet
  facet normal -0.9238795557676965 0.382683376219145 0.0
    outer loop
      vertex -95.91840362548828 -232.61276245117188 966.9310302734375
      vertex -107.50625610351562 -260.58831787109375 966.9310302734375
      vertex -107.50625610351562 -260.58831787109375 1773.77001953125
    endloop
  endfacet
  facet normal -0.9238795557676965 0.382683376219145 0.0
    outer loop
      vertex -95.91840362548828 -232.61276245117188 966.9310302734375
      vertex -107.50625610351562 -260.58831787109375 1773.77001953125
      vertex -95.91840362548828 -232.61276245117188 1773.77001953125
    endloop
  endfacet
  facet normal -0.9238794385957243 0.3826836590952503 -1.2326928634813056E-6
    outer loop
      vertex -107.50625610351562 -260.58831787109375 1773.77001953125
      vertex -107.58272552490234 -260.7729187011719 1777.66796875
      vertex -95.9796142578125 -232.7605438232422 1779.448486328125
    endloop
  endfacet
  facet normal 0.26450464871384344 0.779205828104874 -0.5682214077770777
    outer loop
      vertex -69.97300720214844 -259.5973205566406 913.9559936523438
      vertex -102.51952362060547 -248.5492706298828 913.9559936523438
      vertex -101.57798767089844 -246.2761993408203 917.5113525390625
    endloop
  endfacet
  facet normal 0.2722712817421738 0.8043411158539666 -0.5281133576092065
    outer loop
      vertex -69.10083770751953 -256.34234619140625 918.9238891601562
      vertex -101.57798767089844 -246.2761993408203 917.5113525390625
      vertex -100.702880859375 -244.16351318359375 921.1802368164062
    endloop
  endfacet
  facet normal 0.26732125868516665 0.7838264177774265 -0.5604957550679447
    outer loop
      vertex -69.10083770751953 -256.34234619140625 918.9238891601562
      vertex -69.97300720214844 -259.5973205566406 913.9559936523438
      vertex -101.57798767089844 -246.2761993408203 917.5113525390625
    endloop
  endfacet
  facet normal 0.2808290851844653 0.8318902627339254 -0.4786372485326824
    outer loop
      vertex -68.3907241821289 -253.69216918945312 923.5774536132812
      vertex -100.702880859375 -244.16351318359375 921.1802368164062
      vertex -99.60179901123047 -241.50526428222656 926.4464111328125
    endloop
  endfacet
  facet normal 0.2781897152621506 0.8157943408389607 -0.5070405070381353
    outer loop
      vertex -68.3907241821289 -253.69216918945312 923.5774536132812
      vertex -69.10083770751953 -256.34234619140625 918.9238891601562
      vertex -100.702880859375 -244.16351318359375 921.1802368164062
    endloop
  endfacet
  facet normal 0.2904212127958937 0.8601990506718646 -0.41918147905338676
    outer loop
      vertex -67.68814849853516 -251.07012939453125 928.9291381835938
      vertex -99.60179901123047 -241.50526428222656 926.4464111328125
      vertex -98.63753509521484 -239.17733764648438 931.8916015625
    endloop
  endfacet
  facet normal 0.2882086389552955 0.8444138156656955 -0.45155408130636676
    outer loop
      vertex -67.68814849853516 -251.07012939453125 928.9291381835938
      vertex -68.3907241821289 -253.69216918945312 923.5774536132812
      vertex -99.60179901123047 -241.50526428222656 926.4464111328125
    endloop
  endfacet
  facet normal 0.29872237467930096 0.8846954398505393 -0.3578811556559246
    outer loop
      vertex -67.07949829101562 -248.79861450195312 934.4488525390625
      vertex -98.63753509521484 -239.17733764648438 931.8916015625
      vertex -97.81433868408203 -237.18994140625 937.4916381835938
    endloop
  endfacet
  facet normal 0.29724107760158364 0.8709787354756593 -0.3912081084735729
    outer loop
      vertex -67.07949829101562 -248.79861450195312 934.4488525390625
      vertex -67.68814849853516 -251.07012939453125 928.9291381835938
      vertex -98.63753509521484 -239.17733764648438 931.8916015625
    endloop
  endfacet
  facet normal 0.3056978743297516 0.9052791544458225 -0.29498891870056415
    outer loop
      vertex -66.56744384765625 -246.88758850097656 940.1121826171875
      vertex -97.81433868408203 -237.18994140625 937.4916381835938
      vertex -97.13581848144531 -235.55184936523438 943.2218627929688
    endloop
  endfacet
  facet normal 0.30496238526956604 0.8936818980156556 -0.32913615530632956
    outer loop
      vertex -66.56744384765625 -246.88758850097656 940.1121826171875
      vertex -67.07949829101562 -248.79861450195312 934.4488525390625
      vertex -97.81433868408203 -237.18994140625 937.4916381835938
    endloop
  endfacet
  facet normal 0.31131363277796464 0.9218540263528909 -0.23080072821278097
    outer loop
      vertex -66.15422821044922 -245.345458984375 945.8939208984375
      vertex -97.13581848144531 -235.55184936523438 943.2218627929688
      vertex -96.6049575805664 -234.27024841308594 949.0568237304688
    endloop
  endfacet
  facet normal 0.31133553224857746 0.9124242754544529 -0.26561650536235826
    outer loop
      vertex -66.15422821044922 -245.345458984375 945.8939208984375
      vertex -66.56744384765625 -246.88758850097656 940.1121826171875
      vertex -97.13581848144531 -235.55184936523438 943.2218627929688
    endloop
  endfacet
  facet normal 0.31554801548995454 0.9343502768204476 -0.16558686580132048
    outer loop
      vertex -65.8416748046875 -244.1790008544922 951.7686767578125
      vertex -96.6049575805664 -234.27024841308594 949.0568237304688
      vertex -96.2240982055664 -233.3507843017578 954.9708251953125
    endloop
  endfacet
  facet normal 0.316335744605232 0.9271271968513926 -0.2009150505649908
    outer loop
      vertex -65.8416748046875 -244.1790008544922 951.7686767578125
      vertex -66.15422821044922 -245.345458984375 945.8939208984375
      vertex -96.6049575805664 -234.27024841308594 949.0568237304688
    endloop
  endfacet
  facet normal 0.3183806813122678 0.9427109108402747 -0.09964878498926019
    outer loop
      vertex -65.63115692138672 -243.39332580566406 957.7103271484375
      vertex -96.2240982055664 -233.3507843017578 954.9708251953125
      vertex -95.99491119384766 -232.79747009277344 960.9376220703125
    endloop
  endfacet
  facet normal 0.3199386847273525 0.9377229627343905 -0.13533249120432542
    outer loop
      vertex -65.63115692138672 -243.39332580566406 957.7103271484375
      vertex -65.8416748046875 -244.1790008544922 951.7686767578125
      vertex -96.2240982055664 -233.3507843017578 954.9708251953125
    endloop
  endfacet
  facet normal 0.3202201490561247 0.9467589302692205 -0.03326535876786306
    outer loop
      vertex -65.53917694091797 -243.05006408691406 962.3145751953125
      vertex -95.99491119384766 -232.79747009277344 960.9376220703125
      vertex -95.91840362548828 -232.61276245117188 966.9310302734375
    endloop
  endfacet
  facet normal 0.3212207290007203 0.9438861255772036 -0.07678688171231612
    outer loop
      vertex -65.53917694091797 -243.05006408691406 962.3145751953125
      vertex -65.63115692138672 -243.39332580566406 957.7103271484375
      vertex -95.99491119384766 -232.79747009277344 960.9376220703125
    endloop
  endfacet
  facet normal 0.32133425631249035 0.9466192541653828 -0.025618028094940293
    outer loop
      vertex -65.50849151611328 -242.935546875 966.9310302734375
      vertex -65.53917694091797 -243.05006408691406 962.3145751953125
      vertex -95.91840362548828 -232.61276245117188 966.9310302734375
    endloop
  endfacet
  facet normal 0.26004875561294544 0.7660785578599689 -0.5877910239969208
    outer loop
      vertex -69.97300720214844 -259.5973205566406 913.9559936523438
      vertex -70.58976745605469 -261.89910888671875 910.6831665039062
      vertex -103.43144989013672 -250.7508544921875 910.6831665039062
    endloop
  endfacet
  facet normal 0.26004888998996467 0.7660795818057716 -0.5877896300167953
    outer loop
      vertex -69.97300720214844 -259.5973205566406 913.9559936523438
      vertex -103.43144989013672 -250.7508544921875 910.6831665039062
      vertex -102.51952362060547 -248.5492706298828 913.9559936523438
    endloop
  endfacet
  facet normal -0.18893741390121713 -0.556591402354825 -0.809017097750727
    outer loop
      vertex -70.58976745605469 -261.89910888671875 910.6831665039062
      vertex -76.9588623046875 -285.6689147949219 928.5238647460938
      vertex -103.43144989013672 -250.7508544921875 910.6831665039062
    endloop
  endfacet
  facet normal -0.1889375785819126 -0.5565914801935639 -0.8090170057393979
    outer loop
      vertex -76.9588623046875 -285.6689147949219 928.5238647460938
      vertex -112.84864044189453 -273.4859619140625 928.5238647460938
      vertex -103.43144989013672 -250.7508544921875 910.6831665039062
    endloop
  endfacet
  facet normal -0.2529907976841197 -0.7452859490167876 0.6168828985190781
    outer loop
      vertex -112.84864044189453 -273.4859619140625 928.5238647460938
      vertex -76.9588623046875 -285.6689147949219 928.5238647460938
      vertex -76.36231231689453 -283.4425354003906 931.4583129882812
    endloop
  endfacet
  facet normal -0.25399982951259636 -0.751253257557187 0.6091819347430512
    outer loop
      vertex -111.7059555053711 -270.727294921875 932.40234375
      vertex -112.84864044189453 -273.4859619140625 928.5238647460938
      vertex -76.36231231689453 -283.4425354003906 931.4583129882812
    endloop
  endfacet
  facet normal -0.26832271654050804 -0.7937328585532583 0.5458855823716134
    outer loop
      vertex -110.78433227539062 -268.5022888183594 936.090576171875
      vertex -111.7059555053711 -270.727294921875 932.40234375
      vertex -75.81425476074219 -281.39715576171875 934.5301513671875
    endloop
  endfacet
  facet normal -0.265468286706205 -0.7799780576594082 0.5667105242741916
    outer loop
      vertex -111.7059555053711 -270.727294921875 932.40234375
      vertex -76.36231231689453 -283.4425354003906 931.4583129882812
      vertex -75.81425476074219 -281.39715576171875 934.5301513671875
    endloop
  endfacet
  facet normal -0.2809088711280061 -0.8314676020218554 0.47932435042423494
    outer loop
      vertex -109.8853530883789 -266.33197021484375 940.3822021484375
      vertex -110.78433227539062 -268.5022888183594 936.090576171875
      vertex -75.17243194580078 -279.0018615722656 938.7477416992188
    endloop
  endfacet
  facet normal -0.27844287892323316 -0.8163518818609115 0.5060031305823022
    outer loop
      vertex -110.78433227539062 -268.5022888183594 936.090576171875
      vertex -75.81425476074219 -281.39715576171875 934.5301513671875
      vertex -75.17243194580078 -279.0018615722656 938.7477416992188
    endloop
  endfacet
  facet normal -0.29252486153373236 -0.8657200399701747 0.40615024040213243
    outer loop
      vertex -109.1236572265625 -264.4930725097656 944.8504638671875
      vertex -109.8853530883789 -266.33197021484375 940.3822021484375
      vertex -74.62200164794922 -276.9476013183594 943.1527099609375
    endloop
  endfacet
  facet normal -0.2907916659421599 -0.8526964113278535 0.4339919781829883
    outer loop
      vertex -109.8853530883789 -266.33197021484375 940.3822021484375
      vertex -75.17243194580078 -279.0018615722656 938.7477416992188
      vertex -74.62200164794922 -276.9476013183594 943.1527099609375
    endloop
  endfacet
  facet normal -0.3021845535916485 -0.8941991003102515 0.3302914842604224
    outer loop
      vertex -108.5042724609375 -262.99774169921875 949.4654541015625
      vertex -109.1236572265625 -264.4930725097656 944.8504638671875
      vertex -74.16659545898438 -275.2480163574219 947.7158813476562
    endloop
  endfacet
  facet normal -0.30121117794213437 -0.8833660905894232 0.3590768389627365
    outer loop
      vertex -109.1236572265625 -264.4930725097656 944.8504638671875
      vertex -74.62200164794922 -276.9476013183594 943.1527099609375
      vertex -74.16659545898438 -275.2480163574219 947.7158813476562
    endloop
  endfacet
  facet normal -0.3098249475172494 -0.9167265976950181 0.25223173268732474
    outer loop
      vertex -108.03129577636719 -261.8558654785156 954.196533203125
      vertex -108.5042724609375 -262.99774169921875 949.4654541015625
      vertex -73.8092269897461 -273.914306640625 952.40673828125
    endloop
  endfacet
  facet normal -0.30962994814637096 -0.9081421068753553 0.2817928475509381
    outer loop
      vertex -108.5042724609375 -262.99774169921875 949.4654541015625
      vertex -74.16659545898438 -275.2480163574219 947.7158813476562
      vertex -73.8092269897461 -273.914306640625 952.40673828125
    endloop
  endfacet
  facet normal -0.31539546794522827 -0.9331505696062546 0.172498444175978
    outer loop
      vertex -107.70784759521484 -261.0749816894531 959.01220703125
      vertex -108.03129577636719 -261.8558654785156 954.196533203125
      vertex -73.55226135253906 -272.9552917480469 957.1942138671875
    endloop
  endfacet
  facet normal -0.3159935311774344 -0.9268708067071006 0.20262920798380524
    outer loop
      vertex -108.03129577636719 -261.8558654785156 954.196533203125
      vertex -73.8092269897461 -273.914306640625 952.40673828125
      vertex -73.55226135253906 -272.9552917480469 957.1942138671875
    endloop
  endfacet
  facet normal -0.3192382652735437 -0.9424624378838065 0.09925463799365047
    outer loop
      vertex -107.55670928955078 -260.7101135253906 962.962890625
      vertex -107.70784759521484 -261.0749816894531 959.01220703125
      vertex -73.39739990234375 -272.3773498535156 962.0463256835938
    endloop
  endfacet
  facet normal -0.32025978753050244 -0.9394258354158774 0.1221178457232941
    outer loop
      vertex -107.70784759521484 -261.0749816894531 959.01220703125
      vertex -73.55226135253906 -272.9552917480469 957.1942138671875
      vertex -73.39739990234375 -272.3773498535156 962.0463256835938
    endloop
  endfacet
  facet normal -0.3212627064758445 -0.9464103025306034 0.03313325658228095
    outer loop
      vertex -107.50625610351562 -260.58831787109375 966.9310302734375
      vertex -107.55670928955078 -260.7101135253906 962.962890625
      vertex -73.34566497802734 -272.18426513671875 966.9310302734375
    endloop
  endfacet
  facet normal -0.32197067244949057 -0.94587015076826 0.040798823120920515
    outer loop
      vertex -107.55670928955078 -260.7101135253906 962.962890625
      vertex -73.39739990234375 -272.3773498535156 962.0463256835938
      vertex -73.34566497802734 -272.18426513671875 966.9310302734375
    endloop
  endfacet
  facet normal -0.32143919494088047 -0.9469302212706904 0.0
    outer loop
      vertex -73.34566497802734 -272.18426513671875 966.9310302734375
      vertex -73.34566497802734 -272.18426513671875 1773.77001953125
      vertex -107.50625610351562 -260.58831787109375 966.9310302734375
    endloop
  endfacet
  facet normal -0.32143919494088047 -0.9469302212706904 0.0
    outer loop
      vertex -73.34566497802734 -272.18426513671875 1773.77001953125
      vertex -107.50625610351562 -260.58831787109375 1773.77001953125
      vertex -107.50625610351562 -260.58831787109375 966.9310302734375
    endloop
  endfacet
  facet normal -0.32105256795572845 -0.9457912538318671 -0.04903216071291477
    outer loop
      vertex -107.50625610351562 -260.58831787109375 1773.77001953125
      vertex -73.34566497802734 -272.18426513671875 1773.77001953125
      vertex -73.39330291748047 -272.362060546875 1777.511474609375
    endloop
  endfacet
  facet normal -0.3208176127038617 -0.9457624044254921 -0.0510835957456666
    outer loop
      vertex -107.58272552490234 -260.7729187011719 1777.66796875
      vertex -107.50625610351562 -260.58831787109375 1773.77001953125
      vertex -73.39330291748047 -272.362060546875 1777.511474609375
    endloop
  endfacet
  facet normal -0.31728156608861535 -0.935951897160843 -0.15273000367109993
    outer loop
      vertex -107.81134033203125 -261.3248596191406 1781.5252685546875
      vertex -107.58272552490234 -260.7729187011719 1777.66796875
      vertex -73.5357666015625 -272.89373779296875 1781.2169189453125
    endloop
  endfacet
  facet normal -0.3181593286117671 -0.9366299872745194 -0.14662506114386886
    outer loop
      vertex -107.58272552490234 -260.7729187011719 1777.66796875
      vertex -73.39330291748047 -272.362060546875 1777.511474609375
      vertex -73.5357666015625 -272.89373779296875 1781.2169189453125
    endloop
  endfacet
  facet normal -0.31061662918821 -0.9163114441572079 -0.2527659925272515
    outer loop
      vertex -108.18972778320312 -262.23834228515625 1785.3017578125
      vertex -107.81134033203125 -261.3248596191406 1781.5252685546875
      vertex -73.78361511230469 -273.8187255859375 1785.0015869140625
    endloop
  endfacet
  facet normal -0.312046588117747 -0.9179881755353058 -0.24479509068082667
    outer loop
      vertex -107.81134033203125 -261.3248596191406 1781.5252685546875
      vertex -73.5357666015625 -272.89373779296875 1781.2169189453125
      vertex -73.78361511230469 -273.8187255859375 1785.0015869140625
    endloop
  endfacet
  facet normal -0.30070181668952384 -0.8871003494452173 -0.3501876460610701
    outer loop
      vertex -108.71395874023438 -263.50396728515625 1788.9580078125
      vertex -108.18972778320312 -262.23834228515625 1785.3017578125
      vertex -74.13037872314453 -275.11285400390625 1788.6693115234375
    endloop
  endfacet
  facet normal -0.3023889156843618 -0.8895414923116602 -0.3424571172091189
    outer loop
      vertex -108.18972778320312 -262.23834228515625 1785.3017578125
      vertex -73.78361511230469 -273.8187255859375 1785.0015869140625
      vertex -74.13037872314453 -275.11285400390625 1788.6693115234375
    endloop
  endfacet
  facet normal -0.28829979997733407 -0.8505576187215383 -0.43981241747792355
    outer loop
      vertex -109.31317138671875 -264.9505920410156 1792.1484375
      vertex -108.71395874023438 -263.50396728515625 1788.9580078125
      vertex -74.52412414550781 -276.58233642578125 1791.8387451171875
    endloop
  endfacet
  facet normal -0.2902435472035408 -0.8539108070577955 -0.43196645343893325
    outer loop
      vertex -108.71395874023438 -263.50396728515625 1788.9580078125
      vertex -74.13037872314453 -275.11285400390625 1788.6693115234375
      vertex -74.52412414550781 -276.58233642578125 1791.8387451171875
    endloop
  endfacet
  facet normal -0.2742963956770143 -0.8080509928625361 -0.5213588785591632
    outer loop
      vertex -110.02344512939453 -266.66534423828125 1795.1798095703125
      vertex -109.31317138671875 -264.9505920410156 1792.1484375
      vertex -75.04811096191406 -278.5378723144531 1795.1798095703125
    endloop
  endfacet
  facet normal -0.27549077191151733 -0.8101815115481987 -0.5174077240794464
    outer loop
      vertex -109.31317138671875 -264.9505920410156 1792.1484375
      vertex -74.52412414550781 -276.58233642578125 1791.8387451171875
      vertex -75.04811096191406 -278.5378723144531 1795.1798095703125
    endloop
  endfacet
  facet normal -0.2662087272736361 -0.7842254939267499 -0.560467026861256
    outer loop
      vertex -75.04811096191406 -278.5378723144531 1795.1798095703125
      vertex -75.59339141845703 -280.5728759765625 1798.2862548828125
      vertex -110.02344512939453 -266.66534423828125 1795.1798095703125
    endloop
  endfacet
  facet normal -0.26620754519090317 -0.7842233598910803 -0.5604705743253415
    outer loop
      vertex -75.59339141845703 -280.5728759765625 1798.2862548828125
      vertex -110.82968139648438 -268.6117858886719 1798.2862548828125
      vertex -110.02344512939453 -266.66534423828125 1795.1798095703125
    endloop
  endfacet
  facet normal -0.15626966468249653 -0.46035569339793914 0.8738720887270188
    outer loop
      vertex -75.59339141845703 -280.5728759765625 1798.2862548828125
      vertex -67.79087829589844 -251.45352172851562 1815.0216064453125
      vertex -99.2930908203125 -240.7599639892578 1815.0216064453125
    endloop
  endfacet
  facet normal -0.15626942256003343 -0.46035559029848333 0.8738721863371604
    outer loop
      vertex -75.59339141845703 -280.5728759765625 1798.2862548828125
      vertex -99.2930908203125 -240.7599639892578 1815.0216064453125
      vertex -110.82968139648438 -268.6117858886719 1798.2862548828125
    endloop
  endfacet
  facet normal 0.3213128422571317 0.9465561704551526 0.028097572384809744
    outer loop
      vertex -65.50849151611328 -242.935546875 1773.77001953125
      vertex -95.91840362548828 -232.61276245117188 1773.77001953125
      vertex -95.9796142578125 -232.7605438232422 1779.448486328125
    endloop
  endfacet
  facet normal 0.3198082162179402 0.9437336054419274 0.08419968407945098
    outer loop
      vertex -65.56024169921875 -243.128662109375 1780.1180419921875
      vertex -95.9796142578125 -232.7605438232422 1779.448486328125
      vertex -96.16305541992188 -233.20339965820312 1785.10888671875
    endloop
  endfacet
  facet normal 0.3218360909078565 0.9462742236124323 0.03141057649643515
    outer loop
      vertex -65.56024169921875 -243.128662109375 1780.1180419921875
      vertex -65.50849151611328 -242.935546875 1773.77001953125
      vertex -95.9796142578125 -232.7605438232422 1779.448486328125
    endloop
  endfacet
  facet normal 0.3171438080613182 0.9374862424363725 0.14331556178900026
    outer loop
      vertex -65.71527862548828 -243.70726013183594 1786.44091796875
      vertex -96.16305541992188 -233.20339965820312 1785.10888671875
      vertex -96.51216125488281 -234.0462188720703 1791.3946533203125
    endloop
  endfacet
  facet normal 0.32099009185181154 0.9423953730760914 0.09410803227004615
    outer loop
      vertex -65.71527862548828 -243.70726013183594 1786.44091796875
      vertex -65.56024169921875 -243.128662109375 1780.1180419921875
      vertex -96.16305541992188 -233.20339965820312 1785.10888671875
    endloop
  endfacet
  facet normal 0.3136272446535309 0.9271144301132528 0.20517501038579933
    outer loop
      vertex -65.97299194335938 -244.66908264160156 1792.7139892578125
      vertex -96.51216125488281 -234.0462188720703 1791.3946533203125
      vertex -97.01197052001953 -235.25286865234375 1797.611083984375
    endloop
  endfacet
  facet normal 0.3184553965857204 0.9349410505429426 0.15643334809141637
    outer loop
      vertex -65.97299194335938 -244.66908264160156 1792.7139892578125
      vertex -65.71527862548828 -243.70726013183594 1786.44091796875
      vertex -96.51216125488281 -234.0462188720703 1791.3946533203125
    endloop
  endfacet
  facet normal 0.3088705060985625 0.9130822012523737 0.26623280079385
    outer loop
      vertex -66.33238220214844 -246.01034545898438 1798.912353515625
      vertex -97.01197052001953 -235.25286865234375 1797.611083984375
      vertex -97.66053009033203 -236.81863403320312 1803.7335205078125
    endloop
  endfacet
  facet normal 0.31466660039707467 0.923795329910869 0.21814472037942276
    outer loop
      vertex -66.33238220214844 -246.01034545898438 1798.912353515625
      vertex -65.97299194335938 -244.66908264160156 1792.7139892578125
      vertex -97.01197052001953 -235.25286865234375 1797.611083984375
    endloop
  endfacet
  facet normal 0.3033412938373579 0.8963699175030633 0.3232723781095896
    outer loop
      vertex -66.79203796386719 -247.72579956054688 1805.0115966796875
      vertex -97.66053009033203 -236.81863403320312 1803.7335205078125
      vertex -98.36936950683594 -238.5299072265625 1809.1436767578125
    endloop
  endfacet
  facet normal 0.3096378340241047 0.9090018812812941 0.2789981927682136
    outer loop
      vertex -66.79203796386719 -247.72579956054688 1805.0115966796875
      vertex -66.33238220214844 -246.01034545898438 1798.912353515625
      vertex -97.66053009033203 -236.81863403320312 1803.7335205078125
    endloop
  endfacet
  facet normal 0.29668546643700067 0.8764804629272277 0.3791566063145044
    outer loop
      vertex -67.25700378417969 -249.46107482910156 1810.0677490234375
      vertex -98.36936950683594 -238.5299072265625 1809.1436767578125
      vertex -99.2930908203125 -240.7599639892578 1815.0216064453125
    endloop
  endfacet
  facet normal 0.30357712551605764 0.8922910652020769 0.33415203698907864
    outer loop
      vertex -67.25700378417969 -249.46107482910156 1810.0677490234375
      vertex -66.79203796386719 -247.72579956054688 1805.0115966796875
      vertex -98.36936950683594 -238.5299072265625 1809.1436767578125
    endloop
  endfacet
  facet normal 0.29683633665016745 0.8744518513041761 0.3836953856834972
    outer loop
      vertex -67.79087829589844 -251.45352172851562 1815.0216064453125
      vertex -67.25700378417969 -249.46107482910156 1810.0677490234375
      vertex -99.2930908203125 -240.7599639892578 1815.0216064453125
    endloop
  endfacet
endsolid v3d.csg
