solid v3d.csg
  facet normal 0.9238797603867868 -0.3826828822212647 1.5745133964047198E-6
    outer loop
      vertex -109.45915985107422 -263.2125549316406 947.7158813476562
      vertex -98.2232437133789 -236.08663940429688 940.1121826171875
      vertex -108.93077087402344 -261.9368896484375 952.40673828125
    endloop
  endfacet
  facet normal 0.9238794073756506 -0.3826837344677794 -1.0053256088544274E-6
    outer loop
      vertex -97.6122817993164 -234.61163330078125 945.8939208984375
      vertex -97.150146484375 -233.49595642089844 951.7686767578125
      vertex -108.55082702636719 -261.0196228027344 957.1942138671875
    endloop
  endfacet
  facet normal 0.9238794955159187 -0.3826835216797088 2.593541392632822E-7
    outer loop
      vertex -97.150146484375 -233.49595642089844 951.7686767578125
      vertex -96.83887481689453 -232.74447631835938 957.7103271484375
      vertex -108.55082702636719 -261.0196228027344 957.1942138671875
    endloop
  endfacet
  facet normal 0.9238795714640601 -0.38268333832475426 7.926833672371713E-8
    outer loop
      vertex -108.93077087402344 -261.9368896484375 952.40673828125
      vertex -97.6122817993164 -234.61163330078125 945.8939208984375
      vertex -108.55082702636719 -261.0196228027344 957.1942138671875
    endloop
  endfacet
  facet normal 0.9238794962643013 -0.38268351987281657 4.1520841444846486E-7
    outer loop
      vertex -96.83887481689453 -232.74447631835938 957.7103271484375
      vertex -96.702880859375 -232.41615295410156 962.3145751953125
      vertex -108.32185363769531 -260.4668273925781 962.0463256835938
    endloop
  endfacet
  facet normal 0.9238794946934045 -0.38268352366532576 3.868006912060149E-7
    outer loop
      vertex -108.55082702636719 -261.0196228027344 957.1942138671875
      vertex -96.83887481689453 -232.74447631835938 957.7103271484375
      vertex -108.32185363769531 -260.4668273925781 962.0463256835938
    endloop
  endfacet
  facet normal 0.9238794819707985 -0.3826835543796852 -8.365272581473737E-7
    outer loop
      vertex -96.702880859375 -232.41615295410156 962.3145751953125
      vertex -96.65750885009766 -232.30662536621094 966.9310302734375
      vertex -108.245361328125 -260.28216552734375 966.9310302734375
    endloop
  endfacet
  facet normal 0.9238794994854052 -0.38268351209623397 -5.37502754284875E-7
    outer loop
      vertex -108.32185363769531 -260.4668273925781 962.0463256835938
      vertex -96.702880859375 -232.41615295410156 962.3145751953125
      vertex -108.245361328125 -260.28216552734375 966.9310302734375
    endloop
  endfacet
  facet normal 0.9238794819711216 -0.382683554379819 0.0
    outer loop
      vertex -96.65750885009766 -232.30662536621094 966.9310302734375
      vertex -96.65750885009766 -232.30662536621094 1773.77001953125
      vertex -108.245361328125 -260.28216552734375 1773.77001953125
    endloop
  endfacet
  facet normal 0.9238794819711216 -0.382683554379819 0.0
    outer loop
      vertex -108.245361328125 -260.28216552734375 966.9310302734375
      vertex -96.65750885009766 -232.30662536621094 966.9310302734375
      vertex -108.245361328125 -260.28216552734375 1773.77001953125
    endloop
  endfacet
  facet normal 0.9238795840974041 -0.38268330782387566 9.9208999581341E-7
    outer loop
      vertex -96.65750885009766 -232.30662536621094 1773.77001953125
      vertex -96.73402404785156 -232.4913330078125 1780.1180419921875
      vertex -108.29900360107422 -260.41168212890625 1777.0361328125
    endloop
  endfacet
  facet normal 0.9238794819700913 -0.3826835543793922 -1.4935468045748973E-6
    outer loop
      vertex -108.245361328125 -260.28216552734375 1773.77001953125
      vertex -96.65750885009766 -232.30662536621094 1773.77001953125
      vertex -108.29900360107422 -260.41168212890625 1777.0361328125
    endloop
  endfacet
  facet normal 0.9238795373591622 -0.38268342066120276 -2.4782857711086474E-7
    outer loop
      vertex -96.73402404785156 -232.4913330078125 1780.1180419921875
      vertex -96.9632568359375 -233.0447540283203 1786.44091796875
      vertex -108.45954895019531 -260.79925537109375 1780.2783203125
    endloop
  endfacet
  facet normal 0.9238795419986275 -0.38268340945501955 2.0707877497315773E-6
    outer loop
      vertex -108.29900360107422 -260.41168212890625 1777.0361328125
      vertex -96.73402404785156 -232.4913330078125 1780.1180419921875
      vertex -108.45954895019531 -260.79925537109375 1780.2783203125
    endloop
  endfacet
  facet normal 0.9238796138049207 -0.3826832361036696 -9.453602591500163E-7
    outer loop
      vertex -96.9632568359375 -233.0447540283203 1786.44091796875
      vertex -97.34430694580078 -233.96470642089844 1792.7139892578125
      vertex -108.78961944580078 -261.59613037109375 1784.0855712890625
    endloop
  endfacet
  facet normal 0.9238796266257786 -0.38268320515002185 -1.3849530251472154E-6
    outer loop
      vertex -108.45954895019531 -260.79925537109375 1780.2783203125
      vertex -96.9632568359375 -233.0447540283203 1786.44091796875
      vertex -108.78961944580078 -261.59613037109375 1784.0855712890625
    endloop
  endfacet
  facet normal 0.9238794593059657 -0.38268360909700927 1.0020592651610007E-6
    outer loop
      vertex -97.34430694580078 -233.96470642089844 1792.7139892578125
      vertex -97.7770767211914 -235.00949096679688 1797.888671875
      vertex -109.21280670166016 -262.6177978515625 1787.421630859375
    endloop
  endfacet
  facet normal 0.9238795469112161 -0.3826833976004326 -3.3945487804955974E-7
    outer loop
      vertex -108.78961944580078 -261.59613037109375 1784.0855712890625
      vertex -97.34430694580078 -233.96470642089844 1792.7139892578125
      vertex -109.21280670166016 -262.6177978515625 1787.421630859375
    endloop
  endfacet
  facet normal 0.923879375362001 -0.38268381175334215 1.6283068104531265E-6
    outer loop
      vertex -109.21280670166016 -262.6177978515625 1787.421630859375
      vertex -97.7770767211914 -235.00949096679688 1797.888671875
      vertex -109.81861114501953 -264.080322265625 1790.99169921875
    endloop
  endfacet
  facet normal 0.9238795866919575 -0.3826833015603162 -8.911279035885771E-7
    outer loop
      vertex -97.7770767211914 -235.00949096679688 1797.888671875
      vertex -98.31318664550781 -236.3037872314453 1802.997314453125
      vertex -109.81861114501953 -264.080322265625 1790.99169921875
    endloop
  endfacet
  facet normal 0.9238791260372745 -0.3826844136770594 -1.1166794328077295E-6
    outer loop
      vertex -104.1705551147461 -250.4447021484375 910.6831665039062
      vertex -103.25862884521484 -248.24313354492188 913.9559936523438
      vertex -112.70569610595703 -271.05035400390625 931.4583129882812
    endloop
  endfacet
  facet normal 0.9238795156935301 -0.3826834729667426 -2.355980631420514E-8
    outer loop
      vertex -113.5877456665039 -273.1798095703125 928.5238647460938
      vertex -104.1705551147461 -250.4447021484375 910.6831665039062
      vertex -112.70569610595703 -271.05035400390625 931.4583129882812
    endloop
  endfacet
  facet normal 0.9238793273937854 -0.38268392756197306 -3.8621840256396057E-7
    outer loop
      vertex -103.25862884521484 -248.24313354492188 913.9559936523438
      vertex -101.96905517578125 -245.1298370361328 918.9238891601562
      vertex -111.89535522460938 -269.0940246582031 934.5301513671875
    endloop
  endfacet
  facet normal 0.9238794392308697 -0.3826836575638471 9.951060172213784E-8
    outer loop
      vertex -101.96905517578125 -245.1298370361328 918.9238891601562
      vertex -100.91909790039062 -242.5950164794922 923.5774536132812
      vertex -111.89535522460938 -269.0940246582031 934.5301513671875
    endloop
  endfacet
  facet normal 0.9238793131385813 -0.382683961976983 -4.270804361050975E-7
    outer loop
      vertex -112.70569610595703 -271.05035400390625 931.4583129882812
      vertex -103.25862884521484 -248.24313354492188 913.9559936523438
      vertex -111.89535522460938 -269.0940246582031 934.5301513671875
    endloop
  endfacet
  facet normal 0.9238797126692622 -0.38268299742452566 5.848745736990427E-7
    outer loop
      vertex -100.91909790039062 -242.5950164794922 923.5774536132812
      vertex -99.88029479980469 -240.0871124267578 928.9291381835938
      vertex -110.94637298583984 -266.8030090332031 938.7477416992188
    endloop
  endfacet
  facet normal 0.9238791178100444 -0.38268443353515724 -2.0999902264113778E-6
    outer loop
      vertex -111.89535522460938 -269.0940246582031 934.5301513671875
      vertex -100.91909790039062 -242.5950164794922 923.5774536132812
      vertex -110.94637298583984 -266.8030090332031 938.7477416992188
    endloop
  endfacet
  facet normal 0.9238796398103035 -0.38268317332201207 4.2273427303202046E-7
    outer loop
      vertex -99.88029479980469 -240.0871124267578 928.9291381835938
      vertex -98.98036193847656 -237.9144744873047 934.4488525390625
      vertex -110.13251495361328 -264.8381652832031 943.1527099609375
    endloop
  endfacet
  facet normal 0.923879783488265 -0.38268282645083473 1.129901579198689E-6
    outer loop
      vertex -110.94637298583984 -266.8030090332031 938.7477416992188
      vertex -99.88029479980469 -240.0871124267578 928.9291381835938
      vertex -110.13251495361328 -264.8381652832031 943.1527099609375
    endloop
  endfacet
  facet normal 0.9238795369478787 -0.38268342165360514 -6.80065268709828E-7
    outer loop
      vertex -98.98036193847656 -237.9144744873047 934.4488525390625
      vertex -98.2232437133789 -236.08663940429688 940.1121826171875
      vertex -109.45915985107422 -263.2125549316406 947.7158813476562
    endloop
  endfacet
  facet normal 0.92387947650438 -0.38268356757637306 -1.0060569576747988E-6
    outer loop
      vertex -110.13251495361328 -264.8381652832031 943.1527099609375
      vertex -98.98036193847656 -237.9144744873047 934.4488525390625
      vertex -109.45915985107422 -263.2125549316406 947.7158813476562
    endloop
  endfacet
  facet normal 0.9238796342537009 -0.3826831867361934 8.24395961827972E-7
    outer loop
      vertex -98.2232437133789 -236.08663940429688 940.1121826171875
      vertex -97.6122817993164 -234.61163330078125 945.8939208984375
      vertex -108.93077087402344 -261.9368896484375 952.40673828125
    endloop
  endfacet
  facet normal -0.8660252356740488 0.5000002911724378 -1.7848266396246601E-6
    outer loop
      vertex -125.53795623779297 -218.23812866210938 1779.381103515625
      vertex -140.70004272460938 -244.49961853027344 1777.66796875
      vertex -125.77198791503906 -218.64346313476562 1784.9749755859375
    endloop
  endfacet
  facet normal -0.8660256345536888 0.49999960029472484 9.980339082133996E-7
    outer loop
      vertex -140.9987335205078 -245.0169677734375 1781.5252685546875
      vertex -141.4931182861328 -245.87327575683594 1785.3017578125
      vertex -126.22391510009766 -219.4262237548828 1791.2618408203125
    endloop
  endfacet
  facet normal -0.8660254643041867 0.4999998951767056 -3.5353868364286124E-8
    outer loop
      vertex -125.77198791503906 -218.64346313476562 1784.9749755859375
      vertex -140.9987335205078 -245.0169677734375 1781.5252685546875
      vertex -126.22391510009766 -219.4262237548828 1791.2618408203125
    endloop
  endfacet
  facet normal -0.8660252544309134 0.5000002586872033 7.757477181486452E-7
    outer loop
      vertex -135.27613830566406 -235.10513305664062 910.6831665039062
      vertex -147.58029174804688 -256.41656494140625 928.5238647460938
      vertex -146.08729553222656 -253.83062744140625 932.40234375
    endloop
  endfacet
  facet normal -0.8660250760649473 0.5000005676231773 -1.7896403243752188E-6
    outer loop
      vertex -141.4931182861328 -245.87327575683594 1785.3017578125
      vertex -142.01698303222656 -246.78062438964844 1788.1934814453125
      vertex -126.79912567138672 -220.4225311279297 1796.8621826171875
    endloop
  endfacet
  facet normal -0.8660242446360755 0.5000020076907203 2.7863214060797022E-6
    outer loop
      vertex -135.27613830566406 -235.10513305664062 910.6831665039062
      vertex -146.08729553222656 -253.83062744140625 932.40234375
      vertex -134.0846405029297 -233.0414276123047 913.9559936523438
    endloop
  endfacet
  facet normal -0.8660256445879049 0.499999582914718 1.1008620780929676E-6
    outer loop
      vertex -126.22391510009766 -219.4262237548828 1791.2618408203125
      vertex -141.4931182861328 -245.87327575683594 1785.3017578125
      vertex -126.79912567138672 -220.4225311279297 1796.8621826171875
    endloop
  endfacet
  facet normal -0.8660252743401132 0.500000224203937 -3.7995977308502643E-7
    outer loop
      vertex -142.01698303222656 -246.78062438964844 1788.1934814453125
      vertex -142.6556854248047 -247.8868865966797 1790.99169921875
      vertex -127.62312316894531 -221.8497314453125 1802.997314453125
    endloop
  endfacet
  facet normal -0.86602527989672 0.5000002145796334 -3.5834891728201424E-7
    outer loop
      vertex -126.79912567138672 -220.4225311279297 1796.8621826171875
      vertex -142.01698303222656 -246.78062438964844 1788.1934814453125
      vertex -127.62312316894531 -221.8497314453125 1802.997314453125
    endloop
  endfacet
  facet normal -0.8660255836235591 0.49999968850880716 -7.548899787268076E-7
    outer loop
      vertex -146.08729553222656 -253.83062744140625 932.40234375
      vertex -144.8831329345703 -251.7449493408203 936.090576171875
      vertex -132.85446166992188 -230.9106903076172 917.5113525390625
    endloop
  endfacet
  facet normal -0.8660255245594105 0.49999979081125717 -5.449407723210814E-7
    outer loop
      vertex -134.0846405029297 -233.0414276123047 913.9559936523438
      vertex -146.08729553222656 -253.83062744140625 932.40234375
      vertex -132.85446166992188 -230.9106903076172 917.5113525390625
    endloop
  endfacet
  facet normal -0.8660257959651276 0.49999932072196024 -7.386995659836057E-7
    outer loop
      vertex -144.8831329345703 -251.7449493408203 936.090576171875
      vertex -143.7085723876953 -249.71054077148438 940.3822021484375
      vertex -131.71109008789062 -228.93028259277344 921.1802368164062
    endloop
  endfacet
  facet normal -0.8660263956560211 0.49999828201592206 -2.8578254625445107E-6
    outer loop
      vertex -132.85446166992188 -230.9106903076172 917.5113525390625
      vertex -144.8831329345703 -251.7449493408203 936.090576171875
      vertex -131.71109008789062 -228.93028259277344 921.1802368164062
    endloop
  endfacet
  facet normal -0.8660253845936223 0.5000000332393838 2.89409694171093E-7
    outer loop
      vertex -131.71109008789062 -228.93028259277344 921.1802368164062
      vertex -143.7085723876953 -249.71054077148438 940.3822021484375
      vertex -130.2724609375 -226.43850708007812 926.4464111328125
    endloop
  endfacet
  facet normal -0.8660254613586171 0.4999999002785167 -2.598552472112818E-7
    outer loop
      vertex -143.7085723876953 -249.71054077148438 940.3822021484375
      vertex -142.71336364746094 -247.98678588867188 944.8504638671875
      vertex -129.01258850097656 -224.25634765625 931.8916015625
    endloop
  endfacet
  facet normal -0.8660253787931288 0.5000000432861187 3.1177972187935297E-7
    outer loop
      vertex -130.2724609375 -226.43850708007812 926.4464111328125
      vertex -143.7085723876953 -249.71054077148438 940.3822021484375
      vertex -129.01258850097656 -224.25634765625 931.8916015625
    endloop
  endfacet
  facet normal -0.8660253129070972 0.5000001574041396 1.3344572081195563E-8
    outer loop
      vertex -142.71336364746094 -247.98678588867188 944.8504638671875
      vertex -141.9040985107422 -246.58509826660156 949.4654541015625
      vertex -127.93701934814453 -222.39341735839844 937.4916381835938
    endloop
  endfacet
  facet normal -0.8660252196613869 0.5000003189097637 7.622825024408012E-7
    outer loop
      vertex -129.01258850097656 -224.25634765625 931.8916015625
      vertex -142.71336364746094 -247.98678588867188 944.8504638671875
      vertex -127.93701934814453 -222.39341735839844 937.4916381835938
    endloop
  endfacet
  facet normal -0.8660251206138297 0.5000004904631346 1.5577197106421885E-6
    outer loop
      vertex -141.9040985107422 -246.58509826660156 949.4654541015625
      vertex -141.28611755371094 -245.51473999023438 954.196533203125
      vertex -127.05049133300781 -220.85791015625 943.2218627929688
    endloop
  endfacet
  facet normal -0.8660252540457523 0.50000025935484 2.8798382652484816E-7
    outer loop
      vertex -127.93701934814453 -222.39341735839844 937.4916381835938
      vertex -141.9040985107422 -246.58509826660156 949.4654541015625
      vertex -127.05049133300781 -220.85791015625 943.2218627929688
    endloop
  endfacet
  facet normal -0.8660254063592475 0.49999999554026364 -1.9053085002445073E-7
    outer loop
      vertex -141.28611755371094 -245.51473999023438 954.196533203125
      vertex -140.86351013183594 -244.7827606201172 959.01220703125
      vertex -126.35689544677734 -219.6565704345703 949.0568237304688
    endloop
  endfacet
  facet normal -0.8660253650454545 0.5000000670977993 2.8948260150451853E-7
    outer loop
      vertex -127.05049133300781 -220.85791015625 943.2218627929688
      vertex -141.28611755371094 -245.51473999023438 954.196533203125
      vertex -126.35689544677734 -219.6565704345703 949.0568237304688
    endloop
  endfacet
  facet normal -0.8660256316601057 0.49999960530529786 -1.5037370130454103E-6
    outer loop
      vertex -126.35689544677734 -219.6565704345703 949.0568237304688
      vertex -140.86351013183594 -244.7827606201172 959.01220703125
      vertex -125.85928344726562 -218.79466247558594 954.9708251953125
    endloop
  endfacet
  facet normal -0.8660253085145692 0.5000001650111291 -1.0435253577194169E-6
    outer loop
      vertex -140.86351013183594 -244.7827606201172 959.01220703125
      vertex -140.66604614257812 -244.44073486328125 962.962890625
      vertex -125.55982971191406 -218.27601623535156 960.9376220703125
    endloop
  endfacet
  facet normal -0.8660254015316333 0.5000000038983107 1.913800518424199E-6
    outer loop
      vertex -125.85928344726562 -218.79466247558594 954.9708251953125
      vertex -140.86351013183594 -244.7827606201172 959.01220703125
      vertex -125.55982971191406 -218.27601623535156 960.9376220703125
    endloop
  endfacet
  facet normal -0.8660253739403108 0.5000000516907652 8.814588851506992E-7
    outer loop
      vertex -140.66604614257812 -244.44073486328125 962.962890625
      vertex -140.60012817382812 -244.32656860351562 966.9310302734375
      vertex -125.45986938476562 -218.10287475585938 966.9310302734375
    endloop
  endfacet
  facet normal -0.8660252880976058 0.5000002003752301 -4.3436425699797894E-7
    outer loop
      vertex -125.55982971191406 -218.27601623535156 960.9376220703125
      vertex -140.66604614257812 -244.44073486328125 962.962890625
      vertex -125.45986938476562 -218.10287475585938 966.9310302734375
    endloop
  endfacet
  facet normal -0.8660253739406472 0.5000000516909595 0.0
    outer loop
      vertex -140.60012817382812 -244.32656860351562 966.9310302734375
      vertex -140.60012817382812 -244.32656860351562 1773.77001953125
      vertex -125.45986938476562 -218.10287475585938 1773.77001953125
    endloop
  endfacet
  facet normal -0.8660253739406472 0.5000000516909595 0.0
    outer loop
      vertex -125.45986938476562 -218.10287475585938 966.9310302734375
      vertex -140.60012817382812 -244.32656860351562 966.9310302734375
      vertex -125.45986938476562 -218.10287475585938 1773.77001953125
    endloop
  endfacet
  facet normal -0.8660252605932612 0.5000002480134977 -9.026746038335784E-7
    outer loop
      vertex -140.60012817382812 -244.32656860351562 1773.77001953125
      vertex -140.70004272460938 -244.49961853027344 1777.66796875
      vertex -125.53795623779297 -218.23812866210938 1779.381103515625
    endloop
  endfacet
  facet normal -0.8660253739406045 0.5000000516909349 3.1438195460519147E-7
    outer loop
      vertex -125.45986938476562 -218.10287475585938 1773.77001953125
      vertex -140.60012817382812 -244.32656860351562 1773.77001953125
      vertex -125.53795623779297 -218.23812866210938 1779.381103515625
    endloop
  endfacet
  facet normal -0.8660254768372827 0.4999998734687064 1.8592703361079483E-7
    outer loop
      vertex -140.70004272460938 -244.49961853027344 1777.66796875
      vertex -140.9987335205078 -245.0169677734375 1781.5252685546875
      vertex -125.77198791503906 -218.64346313476562 1784.9749755859375
    endloop
  endfacet
  facet normal 0.442288646480441 0.8968727631021578 -0.0
    outer loop
      vertex -96.65750885009766 -232.30662536621094 966.9310302734375
      vertex -125.45986938476562 -218.10287475585938 966.9310302734375
      vertex -96.65750885009766 -232.30662536621094 1773.77001953125
    endloop
  endfacet
  facet normal 0.442288646480441 0.8968727631021578 -0.0
    outer loop
      vertex -125.45986938476562 -218.10287475585938 966.9310302734375
      vertex -125.45986938476562 -218.10287475585938 1773.77001953125
      vertex -96.65750885009766 -232.30662536621094 1773.77001953125
    endloop
  endfacet
  facet normal 0.35781835459505323 0.7255838797950268 -0.5877874262830779
    outer loop
      vertex -103.25862884521484 -248.24313354492188 913.9559936523438
      vertex -104.1705551147461 -250.4447021484375 910.6831665039062
      vertex -134.0846405029297 -233.0414276123047 913.9559936523438
    endloop
  endfacet
  facet normal 0.3578179467425651 0.7255833487236851 -0.587788330135822
    outer loop
      vertex -104.1705551147461 -250.4447021484375 910.6831665039062
      vertex -135.27613830566406 -235.10513305664062 910.6831665039062
      vertex -134.0846405029297 -233.0414276123047 913.9559936523438
    endloop
  endfacet
  facet normal -0.25997046038261395 -0.5271686985440441 -0.8090170103303332
    outer loop
      vertex -104.1705551147461 -250.4447021484375 910.6831665039062
      vertex -113.5877456665039 -273.1798095703125 928.5238647460938
      vertex -147.58029174804688 -256.41656494140625 928.5238647460938
    endloop
  endfacet
  facet normal -0.2599705671089852 -0.5271684004945805 -0.809017170248579
    outer loop
      vertex -104.1705551147461 -250.4447021484375 910.6831665039062
      vertex -147.58029174804688 -256.41656494140625 928.5238647460938
      vertex -135.27613830566406 -235.10513305664062 910.6831665039062
    endloop
  endfacet
  facet normal -0.34810562497125574 -0.7058893883631042 0.6168813867022848
    outer loop
      vertex -147.58029174804688 -256.41656494140625 928.5238647460938
      vertex -113.5877456665039 -273.1798095703125 928.5238647460938
      vertex -112.70569610595703 -271.05035400390625 931.4583129882812
    endloop
  endfacet
  facet normal -0.3498838754747063 -0.7116705737163701 0.6091849211766595
    outer loop
      vertex -146.08729553222656 -253.83062744140625 932.40234375
      vertex -147.58029174804688 -256.41656494140625 928.5238647460938
      vertex -112.70569610595703 -271.05035400390625 931.4583129882812
    endloop
  endfacet
  facet normal -0.36963022636961185 -0.7519186990018137 0.5458862206040461
    outer loop
      vertex -144.8831329345703 -251.7449493408203 936.090576171875
      vertex -146.08729553222656 -253.83062744140625 932.40234375
      vertex -111.89535522460938 -269.0940246582031 934.5301513671875
    endloop
  endfacet
  facet normal -0.3650056506595539 -0.7386564364468439 0.5667076352778788
    outer loop
      vertex -146.08729553222656 -253.83062744140625 932.40234375
      vertex -112.70569610595703 -271.05035400390625 931.4583129882812
      vertex -111.89535522460938 -269.0940246582031 934.5301513671875
    endloop
  endfacet
  facet normal -0.38703469303245824 -0.7876886177951598 0.479323260217175
    outer loop
      vertex -143.7085723876953 -249.71054077148438 940.3822021484375
      vertex -144.8831329345703 -251.7449493408203 936.090576171875
      vertex -110.94637298583984 -266.8030090332031 938.7477416992188
    endloop
  endfacet
  facet normal -0.3826168805880466 -0.7730243738971181 0.5060016206002119
    outer loop
      vertex -144.8831329345703 -251.7449493408203 936.090576171875
      vertex -111.89535522460938 -269.0940246582031 934.5301513671875
      vertex -110.94637298583984 -266.8030090332031 938.7477416992188
    endloop
  endfacet
  facet normal -0.4030215276024299 -0.820130484727209 0.40615223292518926
    outer loop
      vertex -142.71336364746094 -247.98678588867188 944.8504638671875
      vertex -143.7085723876953 -249.71054077148438 940.3822021484375
      vertex -110.13251495361328 -264.8381652832031 943.1527099609375
    endloop
  endfacet
  facet normal -0.39960337184150524 -0.8074450654907026 0.43399263983115505
    outer loop
      vertex -143.7085723876953 -249.71054077148438 940.3822021484375
      vertex -110.94637298583984 -266.8030090332031 938.7477416992188
      vertex -110.13251495361328 -264.8381652832031 943.1527099609375
    endloop
  endfacet
  facet normal -0.41631619873771597 -0.847106172012366 0.3302907143822457
    outer loop
      vertex -141.9040985107422 -246.58509826660156 949.4654541015625
      vertex -142.71336364746094 -247.98678588867188 944.8504638671875
      vertex -109.45915985107422 -263.2125549316406 947.7158813476562
    endloop
  endfacet
  facet normal -0.41393694797325753 -0.8364919936703674 0.3590784700145063
    outer loop
      vertex -142.71336364746094 -247.98678588867188 944.8504638671875
      vertex -110.13251495361328 -264.8381652832031 943.1527099609375
      vertex -109.45915985107422 -263.2125549316406 947.7158813476562
    endloop
  endfacet
  facet normal -0.4268313925291627 -0.8684440152287501 0.2522299640506303
    outer loop
      vertex -141.28611755371094 -245.51473999023438 954.196533203125
      vertex -141.9040985107422 -246.58509826660156 949.4654541015625
      vertex -108.93077087402344 -261.9368896484375 952.40673828125
    endloop
  endfacet
  facet normal -0.42551741892976847 -0.8599575050320072 0.2817942790875524
    outer loop
      vertex -141.9040985107422 -246.58509826660156 949.4654541015625
      vertex -109.45915985107422 -263.2125549316406 947.7158813476562
      vertex -108.93077087402344 -261.9368896484375 952.40673828125
    endloop
  endfacet
  facet normal -0.43449778797123156 -0.8840001541706359 0.17249753527050318
    outer loop
      vertex -140.86351013183594 -244.7827606201172 959.01220703125
      vertex -141.28611755371094 -245.51473999023438 954.196533203125
      vertex -108.55082702636719 -261.0196228027344 957.1942138671875
    endloop
  endfacet
  facet normal -0.4342710680827075 -0.8776959846329604 0.2026287195475573
    outer loop
      vertex -141.28611755371094 -245.51473999023438 954.196533203125
      vertex -108.93077087402344 -261.9368896484375 952.40673828125
      vertex -108.55082702636719 -261.0196228027344 957.1942138671875
    endloop
  endfacet
  facet normal -0.4395228094285296 -0.8927306754762857 0.0992554333812861
    outer loop
      vertex -140.66604614257812 -244.44073486328125 962.962890625
      vertex -140.86351013183594 -244.7827606201172 959.01220703125
      vertex -108.32185363769531 -260.4668273925781 962.0463256835938
    endloop
  endfacet
  facet normal -0.440139258189 -0.8895865095850184 0.12211992206507849
    outer loop
      vertex -140.86351013183594 -244.7827606201172 959.01220703125
      vertex -108.55082702636719 -261.0196228027344 957.1942138671875
      vertex -108.32185363769531 -260.4668273925781 962.0463256835938
    endloop
  endfacet
  facet normal -0.44204567052454363 -0.8963804158035007 0.03313269283426578
    outer loop
      vertex -140.60012817382812 -244.32656860351562 966.9310302734375
      vertex -140.66604614257812 -244.44073486328125 962.962890625
      vertex -108.245361328125 -260.28216552734375 966.9310302734375
    endloop
  endfacet
  facet normal -0.44267683488209775 -0.8957527378898555 0.04079524998815143
    outer loop
      vertex -140.66604614257812 -244.44073486328125 962.962890625
      vertex -108.32185363769531 -260.4668273925781 962.0463256835938
      vertex -108.245361328125 -260.28216552734375 966.9310302734375
    endloop
  endfacet
  facet normal -0.44228850389210583 -0.8968728334189205 0.0
    outer loop
      vertex -108.245361328125 -260.28216552734375 966.9310302734375
      vertex -108.245361328125 -260.28216552734375 1773.77001953125
      vertex -140.60012817382812 -244.32656860351562 966.9310302734375
    endloop
  endfacet
  facet normal -0.44228850389210583 -0.8968728334189205 0.0
    outer loop
      vertex -108.245361328125 -260.28216552734375 1773.77001953125
      vertex -140.60012817382812 -244.32656860351562 1773.77001953125
      vertex -140.60012817382812 -244.32656860351562 966.9310302734375
    endloop
  endfacet
  facet normal -0.4418834057693918 -0.8960513752577112 -0.04279005263384731
    outer loop
      vertex -140.60012817382812 -244.32656860351562 1773.77001953125
      vertex -108.245361328125 -260.28216552734375 1773.77001953125
      vertex -108.29900360107422 -260.41168212890625 1777.0361328125
    endloop
  endfacet
  facet normal -0.44103621074095933 -0.8960342847874108 -0.051084452632570096
    outer loop
      vertex -140.70004272460938 -244.49961853027344 1777.66796875
      vertex -140.60012817382812 -244.32656860351562 1773.77001953125
      vertex -108.29900360107422 -260.41168212890625 1777.0361328125
    endloop
  endfacet
  facet normal -0.43601417003817233 -0.8868878390077594 -0.1527141268713223
    outer loop
      vertex -140.9987335205078 -245.0169677734375 1781.5252685546875
      vertex -140.70004272460938 -244.49961853027344 1777.66796875
      vertex -108.45954895019531 -260.79925537109375 1780.2783203125
    endloop
  endfacet
  facet normal -0.4391913493865347 -0.8892216924056975 -0.12804585264342594
    outer loop
      vertex -140.70004272460938 -244.49961853027344 1777.66796875
      vertex -108.29900360107422 -260.41168212890625 1777.0361328125
      vertex -108.45954895019531 -260.79925537109375 1780.2783203125
    endloop
  endfacet
  facet normal -0.42684427344116943 -0.8682837071278632 -0.25275951053674584
    outer loop
      vertex -141.4931182861328 -245.87327575683594 1785.3017578125
      vertex -140.9987335205078 -245.0169677734375 1781.5252685546875
      vertex -108.78961944580078 -261.59613037109375 1784.0855712890625
    endloop
  endfacet
  facet normal -0.4324891339380917 -0.8742657447870432 -0.22048255377112272
    outer loop
      vertex -140.9987335205078 -245.0169677734375 1781.5252685546875
      vertex -108.45954895019531 -260.79925537109375 1780.2783203125
      vertex -108.78961944580078 -261.59613037109375 1784.0855712890625
    endloop
  endfacet
  facet normal -0.4153406432508685 -0.8437419739340742 -0.3399876931387174
    outer loop
      vertex -142.01698303222656 -246.78062438964844 1788.1934814453125
      vertex -141.4931182861328 -245.87327575683594 1785.3017578125
      vertex -109.21280670166016 -262.6177978515625 1787.421630859375
    endloop
  endfacet
  facet normal -0.42083752441160077 -0.8510512087254488 -0.3140184997322098
    outer loop
      vertex -141.4931182861328 -245.87327575683594 1785.3017578125
      vertex -108.78961944580078 -261.59613037109375 1784.0855712890625
      vertex -109.21280670166016 -262.6177978515625 1787.421630859375
    endloop
  endfacet
  facet normal -0.4024953017940951 -0.8161806050598317 -0.41454402897382014
    outer loop
      vertex -142.6556854248047 -247.8868865966797 1790.99169921875
      vertex -142.01698303222656 -246.78062438964844 1788.1934814453125
      vertex -109.81861114501953 -264.080322265625 1790.99169921875
    endloop
  endfacet
  facet normal -0.40529098378986156 -0.8197764426429583 -0.4046057371643445
    outer loop
      vertex -142.01698303222656 -246.78062438964844 1788.1934814453125
      vertex -109.21280670166016 -262.6177978515625 1787.421630859375
      vertex -109.81861114501953 -264.080322265625 1790.99169921875
    endloop
  endfacet
  facet normal -0.16432462511582324 -0.33321749982473653 0.9284199025177649
    outer loop
      vertex -109.81861114501953 -264.080322265625 1790.99169921875
      vertex -98.31318664550781 -236.3037872314453 1802.997314453125
      vertex -127.62312316894531 -221.8497314453125 1802.997314453125
    endloop
  endfacet
  facet normal -0.16432448729402838 -0.33321745339128905 0.9284199435767087
    outer loop
      vertex -109.81861114501953 -264.080322265625 1790.99169921875
      vertex -127.62312316894531 -221.8497314453125 1802.997314453125
      vertex -142.6556854248047 -247.8868865966797 1790.99169921875
    endloop
  endfacet
  facet normal 0.36394822720191206 0.7380140323895392 -0.5682226464271884
    outer loop
      vertex -103.25862884521484 -248.24313354492188 913.9559936523438
      vertex -134.0846405029297 -233.0414276123047 913.9559936523438
      vertex -132.85446166992188 -230.9106903076172 917.5113525390625
    endloop
  endfacet
  facet normal 0.37492900499680737 0.7619199782019228 -0.5281156956850324
    outer loop
      vertex -101.96905517578125 -245.1298370361328 918.9238891601562
      vertex -132.85446166992188 -230.9106903076172 917.5113525390625
      vertex -131.71109008789062 -228.93028259277344 921.1802368164062
    endloop
  endfacet
  facet normal 0.36734381977004726 0.7422274164623838 -0.560497083246939
    outer loop
      vertex -101.96905517578125 -245.1298370361328 918.9238891601562
      vertex -103.25862884521484 -248.24313354492188 913.9559936523438
      vertex -132.85446166992188 -230.9106903076172 917.5113525390625
    endloop
  endfacet
  facet normal 0.38701046429751873 0.7881185089425568 -0.47863568231628956
    outer loop
      vertex -100.91909790039062 -242.5950164794922 923.5774536132812
      vertex -131.71109008789062 -228.93028259277344 921.1802368164062
      vertex -130.2724609375 -226.43850708007812 926.4464111328125
    endloop
  endfacet
  facet normal 0.3822923713987076 0.7725036024393596 -0.5070411492064174
    outer loop
      vertex -100.91909790039062 -242.5950164794922 923.5774536132812
      vertex -101.96905517578125 -245.1298370361328 918.9238891601562
      vertex -131.71109008789062 -228.93028259277344 921.1802368164062
    endloop
  endfacet
  facet normal 0.40021491692310984 0.8149317274059618 -0.41918289557109034
    outer loop
      vertex -99.88029479980469 -240.0871124267578 928.9291381835938
      vertex -130.2724609375 -226.43850708007812 926.4464111328125
      vertex -129.01258850097656 -224.25634765625 931.8916015625
    endloop
  endfacet
  facet normal 0.3959611032710928 0.7995711364577439 -0.4515537647279789
    outer loop
      vertex -99.88029479980469 -240.0871124267578 928.9291381835938
      vertex -100.91909790039062 -242.5950164794922 923.5774536132812
      vertex -130.2724609375 -226.43850708007812 926.4464111328125
    endloop
  endfacet
  facet normal 0.4116430464219737 0.8381360821755173 -0.35787974249447424
    outer loop
      vertex -98.98036193847656 -237.9144744873047 934.4488525390625
      vertex -129.01258850097656 -224.25634765625 931.8916015625
      vertex -127.93701934814453 -222.39341735839844 937.4916381835938
    endloop
  endfacet
  facet normal 0.40838390668959723 0.8247295494740642 -0.3912080712117907
    outer loop
      vertex -98.98036193847656 -237.9144744873047 934.4488525390625
      vertex -99.88029479980469 -240.0871124267578 928.9291381835938
      vertex -129.01258850097656 -224.25634765625 931.8916015625
    endloop
  endfacet
  facet normal 0.4212453230691757 0.8576330544608571 -0.2949880026178798
    outer loop
      vertex -98.2232437133789 -236.08663940429688 940.1121826171875
      vertex -127.93701934814453 -222.39341735839844 937.4916381835938
      vertex -127.05049133300781 -220.85791015625 943.2218627929688
    endloop
  endfacet
  facet normal 0.41900235281624604 0.8462308463092901 -0.3291358125289813
    outer loop
      vertex -98.2232437133789 -236.08663940429688 940.1121826171875
      vertex -98.98036193847656 -237.9144744873047 934.4488525390625
      vertex -127.93701934814453 -222.39341735839844 937.4916381835938
    endloop
  endfacet
  facet normal 0.4289762690451257 0.8733332409330461 -0.23079950363357835
    outer loop
      vertex -97.6122817993164 -234.61163330078125 945.8939208984375
      vertex -127.05049133300781 -220.85791015625 943.2218627929688
      vertex -126.35689544677734 -219.6565704345703 949.0568237304688
    endloop
  endfacet
  facet normal 0.42776711101925957 0.8639809251824353 -0.2656167533329545
    outer loop
      vertex -97.6122817993164 -234.61163330078125 945.8939208984375
      vertex -98.2232437133789 -236.08663940429688 940.1121826171875
      vertex -127.05049133300781 -220.85791015625 943.2218627929688
    endloop
  endfacet
  facet normal 0.4348053850851057 0.8851690670419311 -0.16558985431816256
    outer loop
      vertex -97.150146484375 -233.49595642089844 951.7686767578125
      vertex -126.35689544677734 -219.6565704345703 949.0568237304688
      vertex -125.85928344726562 -218.79466247558594 954.9708251953125
    endloop
  endfacet
  facet normal 0.4346435740299165 0.8779056653070424 -0.20091442550573518
    outer loop
      vertex -97.150146484375 -233.49595642089844 951.7686767578125
      vertex -97.6122817993164 -234.61163330078125 945.8939208984375
      vertex -126.35689544677734 -219.6565704345703 949.0568237304688
    endloop
  endfacet
  facet normal 0.4387053531674065 0.8930891479538646 -0.09964630906010181
    outer loop
      vertex -96.83887481689453 -232.74447631835938 957.7103271484375
      vertex -125.85928344726562 -218.79466247558594 954.9708251953125
      vertex -125.55982971191406 -218.27601623535156 960.9376220703125
    endloop
  endfacet
  facet normal 0.4395990662696103 0.8879400429855564 -0.1353334437517016
    outer loop
      vertex -96.83887481689453 -232.74447631835938 957.7103271484375
      vertex -97.150146484375 -233.49595642089844 951.7686767578125
      vertex -125.85928344726562 -218.79466247558594 954.9708251953125
    endloop
  endfacet
  facet normal 0.44105706187027804 0.8968623587999548 -0.03326526028966373
    outer loop
      vertex -96.702880859375 -232.41615295410156 962.3145751953125
      vertex -125.55982971191406 -218.27601623535156 960.9376220703125
      vertex -125.45986938476562 -218.10287475585938 966.9310302734375
    endloop
  endfacet
  facet normal 0.4416741114549953 0.8938834865716346 -0.0767873147399932
    outer loop
      vertex -96.702880859375 -232.41615295410156 962.3145751953125
      vertex -96.83887481689453 -232.74447631835938 957.7103271484375
      vertex -125.55982971191406 -218.27601623535156 960.9376220703125
    endloop
  endfacet
  facet normal 0.44214349782519663 0.8965784307096683 -0.025617277706440126
    outer loop
      vertex -96.65750885009766 -232.30662536621094 966.9310302734375
      vertex -96.702880859375 -232.41615295410156 962.3145751953125
      vertex -125.45986938476562 -218.10287475585938 966.9310302734375
    endloop
  endfacet
  facet normal 0.44211815497356693 0.8965270404839709 0.027763334162552614
    outer loop
      vertex -96.65750885009766 -232.30662536621094 1773.77001953125
      vertex -125.45986938476562 -218.10287475585938 1773.77001953125
      vertex -125.53795623779297 -218.23812866210938 1779.381103515625
    endloop
  endfacet
  facet normal 0.44025822095119543 0.8940081442621791 0.08319938027283003
    outer loop
      vertex -96.73402404785156 -232.4913330078125 1780.1180419921875
      vertex -125.53795623779297 -218.23812866210938 1779.381103515625
      vertex -125.77198791503906 -218.64346313476562 1784.9749755859375
    endloop
  endfacet
  facet normal 0.44264212501181244 0.8961480529387286 0.03141045015839241
    outer loop
      vertex -96.73402404785156 -232.4913330078125 1780.1180419921875
      vertex -96.65750885009766 -232.30662536621094 1773.77001953125
      vertex -125.53795623779297 -218.23812866210938 1779.381103515625
    endloop
  endfacet
  facet normal 0.4368160722560015 0.8882728513802766 0.14199669193186412
    outer loop
      vertex -96.9632568359375 -233.0447540283203 1786.44091796875
      vertex -125.77198791503906 -218.64346313476562 1784.9749755859375
      vertex -126.22391510009766 -219.4262237548828 1791.2618408203125
    endloop
  endfacet
  facet normal 0.4413173305004755 0.89240267356965 0.09410888377658523
    outer loop
      vertex -96.9632568359375 -233.0447540283203 1786.44091796875
      vertex -96.73402404785156 -232.4913330078125 1780.1180419921875
      vertex -125.77198791503906 -218.64346313476562 1784.9749755859375
    endloop
  endfacet
  facet normal 0.4324218240231993 0.8790295655601355 0.20079439479131073
    outer loop
      vertex -97.34430694580078 -233.96470642089844 1792.7139892578125
      vertex -126.22391510009766 -219.4262237548828 1791.2618408203125
      vertex -126.79912567138672 -220.4225311279297 1796.8621826171875
    endloop
  endfacet
  facet normal 0.43783100499151223 0.8853434508452727 0.15643204631246965
    outer loop
      vertex -97.34430694580078 -233.96470642089844 1792.7139892578125
      vertex -96.9632568359375 -233.0447540283203 1786.44091796875
      vertex -126.22391510009766 -219.4262237548828 1791.2618408203125
    endloop
  endfacet
  facet normal 0.42644700599549384 0.8666720655311405 0.25888700605759624
    outer loop
      vertex -97.7770767211914 -235.00949096679688 1797.888671875
      vertex -126.79912567138672 -220.4225311279297 1796.8621826171875
      vertex -127.62312316894531 -221.8497314453125 1802.997314453125
    endloop
  endfacet
  facet normal 0.43274581192166384 0.8759788360978975 0.2130543146074089
    outer loop
      vertex -97.7770767211914 -235.00949096679688 1797.888671875
      vertex -97.34430694580078 -233.96470642089844 1792.7139892578125
      vertex -126.79912567138672 -220.4225311279297 1796.8621826171875
    endloop
  endfacet
  facet normal 0.4266048889289503 0.8650694587114933 0.26393768269521867
    outer loop
      vertex -98.31318664550781 -236.3037872314453 1802.997314453125
      vertex -97.7770767211914 -235.00949096679688 1797.888671875
      vertex -127.62312316894531 -221.8497314453125 1802.997314453125
    endloop
  endfacet
endsolid v3d.csg
