solid v3d.csg
  facet normal -0.1950906137392684 -0.9807852223758449 0.0
    outer loop
      vertex 33.23860549926758 249.40777587890625 966.9310302734375
      vertex 64.73575592041016 243.14259338378906 966.9310302734375
      vertex 33.23860549926758 249.40777587890625 1773.77001953125
    endloop
  endfacet
  facet normal -0.1950906137392684 -0.9807852223758449 0.0
    outer loop
      vertex 64.73575592041016 243.14259338378906 966.9310302734375
      vertex 64.73575592041016 243.14259338378906 1773.77001953125
      vertex 33.23860549926758 249.40777587890625 1773.77001953125
    endloop
  endfacet
  facet normal -0.15783101702941946 -0.7934701596962956 -0.5877877812059331
    outer loop
      vertex 35.49012756347656 266.509765625 913.9559936523438
      vertex 35.80116653442383 268.8723449707031 910.6831665039062
      vertex 69.81702423095703 262.1061706542969 910.6831665039062
    endloop
  endfacet
  facet normal -0.15783101803468347 -0.7934677123711296 -0.5877910846301276
    outer loop
      vertex 35.49012756347656 266.509765625 913.9559936523438
      vertex 69.81702423095703 262.1061706542969 910.6831665039062
      vertex 69.20026397705078 259.80438232421875 913.9559936523438
    endloop
  endfacet
  facet normal 0.1146717140946402 0.5764916188078719 -0.8090165705539513
    outer loop
      vertex 39.095542907714844 283.0312805175781 921.239501953125
      vertex 41.29867935180664 292.8155212402344 928.5238647460938
      vertex 73.900634765625 286.33056640625 928.5238647460938
    endloop
  endfacet
  facet normal 0.1146711345196358 0.5764911615976416 -0.8090169785040247
    outer loop
      vertex 36.832847595214844 273.26007080078125 913.9559936523438
      vertex 39.095542907714844 283.0312805175781 921.239501953125
      vertex 72.19181060791016 276.4480285644531 921.239501953125
    endloop
  endfacet
  facet normal 0.1146714484824626 0.5764927399965603 -0.8090158092609763
    outer loop
      vertex 39.095542907714844 283.0312805175781 921.239501953125
      vertex 73.900634765625 286.33056640625 928.5238647460938
      vertex 72.19181060791016 276.4480285644531 921.239501953125
    endloop
  endfacet
  facet normal 0.11467058329950443 0.576488833717091 -0.8090187154357181
    outer loop
      vertex 35.80116653442383 268.8723449707031 910.6831665039062
      vertex 36.832847595214844 273.26007080078125 913.9559936523438
      vertex 70.54298400878906 266.5547180175781 913.9559936523438
    endloop
  endfacet
  facet normal 0.11467108721469063 0.576491367073682 -0.8090168387904655
    outer loop
      vertex 36.832847595214844 273.26007080078125 913.9559936523438
      vertex 72.19181060791016 276.4480285644531 921.239501953125
      vertex 70.54298400878906 266.5547180175781 913.9559936523438
    endloop
  endfacet
  facet normal 0.1146705836459145 0.5764879934913633 -0.8090193141122202
    outer loop
      vertex 35.80116653442383 268.8723449707031 910.6831665039062
      vertex 70.54298400878906 266.5547180175781 913.9559936523438
      vertex 69.81702423095703 262.1061706542969 910.6831665039062
    endloop
  endfacet
  facet normal 0.15415512151576705 0.7765107668323668 0.6109559947360111
    outer loop
      vertex 73.23257446289062 283.5281677246094 932.2542114257812
      vertex 73.900634765625 286.33056640625 928.5238647460938
      vertex 40.867897033691406 290.12420654296875 932.0369873046875
    endloop
  endfacet
  facet normal 0.15418216273991003 0.7751233622955322 0.6127084411990038
    outer loop
      vertex 73.900634765625 286.33056640625 928.5238647460938
      vertex 41.29867935180664 292.8155212402344 928.5238647460938
      vertex 40.867897033691406 290.12420654296875 932.0369873046875
    endloop
  endfacet
  facet normal 0.16274389983096532 0.8210796545822345 0.5471221288697133
    outer loop
      vertex 72.63552856445312 281.03912353515625 936.1671752929688
      vertex 73.23257446289062 283.5281677246094 932.2542114257812
      vertex 40.48569107055664 287.7159118652344 935.7102661132812
    endloop
  endfacet
  facet normal 0.16285226728440214 0.8172685969165807 0.5527668401182663
    outer loop
      vertex 73.23257446289062 283.5281677246094 932.2542114257812
      vertex 40.867897033691406 290.12420654296875 932.0369873046875
      vertex 40.48569107055664 287.7159118652344 935.7102661132812
    endloop
  endfacet
  facet normal 0.17752583172449746 0.8921565257653291 0.41538092470028387
    outer loop
      vertex 71.70951080322266 277.2069091796875 944.0146484375
      vertex 72.14108276367188 278.9888000488281 940.0030517578125
      vertex 40.11848831176758 285.38323974609375 939.9548950195312
    endloop
  endfacet
  facet normal 0.17092798391995123 0.8596132825159558 0.48150662387469206
    outer loop
      vertex 72.14108276367188 278.9888000488281 940.0030517578125
      vertex 72.63552856445312 281.03912353515625 936.1671752929688
      vertex 40.11848831176758 285.38323974609375 939.9548950195312
    endloop
  endfacet
  facet normal 0.17110218814940903 0.8571329693608605 0.4858468010032775
    outer loop
      vertex 72.63552856445312 281.03912353515625 936.1671752929688
      vertex 40.48569107055664 287.7159118652344 935.7102661132812
      vertex 40.11848831176758 285.38323974609375 939.9548950195312
    endloop
  endfacet
  facet normal 0.18157821901051877 0.9139537562178334 0.3629295825312141
    outer loop
      vertex 71.49858093261719 276.3382568359375 946.3076782226562
      vertex 71.70951080322266 277.2069091796875 944.0146484375
      vertex 39.80717849731445 283.3915100097656 944.4013061523438
    endloop
  endfacet
  facet normal 0.17817764876673445 0.8933056180569316 0.4126230704018881
    outer loop
      vertex 71.70951080322266 277.2069091796875 944.0146484375
      vertex 40.11848831176758 285.38323974609375 939.9548950195312
      vertex 39.80717849731445 283.3915100097656 944.4013061523438
    endloop
  endfacet
  facet normal 0.18446361622495344 0.927498481300777 0.32514572344406634
    outer loop
      vertex 71.30913543701172 275.5589904785156 948.6380615234375
      vertex 71.49858093261719 276.3382568359375 946.3076782226562
      vertex 39.57367706298828 281.8905944824219 948.5811157226562
    endloop
  endfacet
  facet normal 0.18459659396497152 0.9216613156271098 0.3412689800920041
    outer loop
      vertex 71.49858093261719 276.3382568359375 946.3076782226562
      vertex 39.80717849731445 283.3915100097656 944.4013061523438
      vertex 39.57367706298828 281.8905944824219 948.5811157226562
    endloop
  endfacet
  facet normal 0.18746805623330912 0.9453039969674477 0.26693834720675186
    outer loop
      vertex 71.00032043457031 274.2909240722656 953.3455200195312
      vertex 71.30913543701172 275.5589904785156 948.6380615234375
      vertex 39.390174865722656 280.7072448730469 952.822998046875
    endloop
  endfacet
  facet normal 0.18784075567993688 0.9439426002542907 0.27145573843770293
    outer loop
      vertex 71.30913543701172 275.5589904785156 948.6380615234375
      vertex 39.57367706298828 281.8905944824219 948.5811157226562
      vertex 39.390174865722656 280.7072448730469 952.822998046875
    endloop
  endfacet
  facet normal 0.19071129068726023 0.9636392210048361 0.18715943830219176
    outer loop
      vertex 70.7842025756836 273.4055480957031 958.1243286132812
      vertex 71.00032043457031 274.2909240722656 953.3455200195312
      vertex 39.25593185424805 279.83880615234375 957.1276245117188
    endloop
  endfacet
  facet normal 0.19174020585233523 0.9608860958319163 0.1998339418031926
    outer loop
      vertex 71.00032043457031 274.2909240722656 953.3455200195312
      vertex 39.390174865722656 280.7072448730469 952.822998046875
      vertex 39.25593185424805 279.83880615234375 957.1276245117188
    endloop
  endfacet
  facet normal 0.1930657379039196 0.9750082350676801 0.10992980668509539
    outer loop
      vertex 70.66905212402344 272.9348449707031 962.5014038085938
      vertex 70.7842025756836 273.4055480957031 958.1243286132812
      vertex 39.170806884765625 279.2864074707031 961.4862670898438
    endloop
  endfacet
  facet normal 0.19444911897492184 0.9726476212136512 0.12706748237571397
    outer loop
      vertex 70.7842025756836 273.4055480957031 958.1243286132812
      vertex 39.25593185424805 279.83880615234375 957.1276245117188
      vertex 39.170806884765625 279.2864074707031 961.4862670898438
    endloop
  endfacet
  facet normal 0.1938009349920566 0.9803628026290976 0.03646879237685035
    outer loop
      vertex 70.63053894042969 272.7776794433594 966.9310302734375
      vertex 70.66905212402344 272.9348449707031 962.5014038085938
      vertex 39.14275360107422 279.1038513183594 964.200439453125
    endloop
  endfacet
  facet normal 0.19511318699835672 0.978432638239483 0.06782637161951952
    outer loop
      vertex 70.66905212402344 272.9348449707031 962.5014038085938
      vertex 39.170806884765625 279.2864074707031 961.4862670898438
      vertex 39.14275360107422 279.1038513183594 964.200439453125
    endloop
  endfacet
  facet normal 0.1950414233270998 0.9805354190190101 0.0225640252559968
    outer loop
      vertex 70.63053894042969 272.7776794433594 966.9310302734375
      vertex 39.14275360107422 279.1038513183594 964.200439453125
      vertex 39.133392333984375 279.0428771972656 966.9310302734375
    endloop
  endfacet
  facet normal 0.19509109352506437 0.9807851269402461 -0.0
    outer loop
      vertex 39.133392333984375 279.0428771972656 966.9310302734375
      vertex 39.133392333984375 279.0428771972656 1773.77001953125
      vertex 70.63053894042969 272.7776794433594 966.9310302734375
    endloop
  endfacet
  facet normal 0.19509109352506437 0.9807851269402461 0.0
    outer loop
      vertex 39.133392333984375 279.0428771972656 1773.77001953125
      vertex 70.63053894042969 272.7776794433594 1773.77001953125
      vertex 70.63053894042969 272.7776794433594 966.9310302734375
    endloop
  endfacet
  facet normal 0.1949101000317259 0.979875214944102 -0.04306525332414148
    outer loop
      vertex 70.66146850585938 272.91522216796875 1777.03955078125
      vertex 70.63053894042969 272.7776794433594 1773.77001953125
      vertex 39.133392333984375 279.0428771972656 1773.77001953125
    endloop
  endfacet
  facet normal 0.192770939517859 0.972859260875058 -0.1280008726807656
    outer loop
      vertex 70.75299835205078 273.32281494140625 1780.2752685546875
      vertex 70.66146850585938 272.91522216796875 1777.03955078125
      vertex 39.1673583984375 279.2388916015625 1777.6715087890625
    endloop
  endfacet
  facet normal 0.19562259130182194 0.9793570808914164 -0.05090687458687537
    outer loop
      vertex 70.66146850585938 272.91522216796875 1777.03955078125
      vertex 39.133392333984375 279.0428771972656 1773.77001953125
      vertex 39.1673583984375 279.2388916015625 1777.6715087890625
    endloop
  endfacet
  facet normal 0.18934841200650906 0.9579651261458455 -0.21552261124760794
    outer loop
      vertex 70.9198226928711 274.06683349609375 1783.7288818359375
      vertex 70.75299835205078 273.32281494140625 1780.2752685546875
      vertex 39.26872253417969 279.8227844238281 1781.5059814453125
    endloop
  endfacet
  facet normal 0.1940885463757093 0.9690282093587586 -0.15268911432293428
    outer loop
      vertex 70.75299835205078 273.32281494140625 1780.2752685546875
      vertex 39.1673583984375 279.2388916015625 1777.6715087890625
      vertex 39.26872253417969 279.8227844238281 1781.5059814453125
    endloop
  endfacet
  facet normal 0.18424446397268027 0.932969325728705 -0.30922841839770376
    outer loop
      vertex 71.18181610107422 275.2381896972656 1787.4190673828125
      vertex 70.9198226928711 274.06683349609375 1783.7288818359375
      vertex 39.419002532958984 280.6865234375 1784.9322509765625
    endloop
  endfacet
  facet normal 0.19016090710642103 0.9499602673468072 -0.2478191273304908
    outer loop
      vertex 70.9198226928711 274.06683349609375 1783.7288818359375
      vertex 39.26872253417969 279.8227844238281 1781.5059814453125
      vertex 39.419002532958984 280.6865234375 1784.9322509765625
    endloop
  endfacet
  facet normal 0.17760911034398405 0.8969963796370382 -0.40478697958415727
    outer loop
      vertex 71.5258560180664 276.78228759765625 1790.99169921875
      vertex 71.18181610107422 275.2381896972656 1787.4190673828125
      vertex 39.60582733154297 281.7567138671875 1788.00927734375
    endloop
  endfacet
  facet normal 0.18467835186785098 0.9247250556256887 -0.33283250720060553
    outer loop
      vertex 71.18181610107422 275.2381896972656 1787.4190673828125
      vertex 39.419002532958984 280.6865234375 1784.9322509765625
      vertex 39.60582733154297 281.7567138671875 1788.00927734375
    endloop
  endfacet
  facet normal 0.17776495635472261 0.8936869913703757 -0.4119747343558457
    outer loop
      vertex 71.5258560180664 276.78228759765625 1790.99169921875
      vertex 39.60582733154297 281.7567138671875 1788.00927734375
      vertex 39.83871841430664 283.0852355957031 1790.99169921875
    endloop
  endfacet
  facet normal 0.07248221916272164 0.3643936223409649 0.9284199566481093
    outer loop
      vertex 39.83871841430664 283.0852355957031 1790.99169921875
      vertex 33.80332946777344 253.69725036621094 1802.997314453125
      vertex 71.5258560180664 276.78228759765625 1790.99169921875
    endloop
  endfacet
  facet normal 0.07248236633489472 0.36439341765595773 0.9284200254946597
    outer loop
      vertex 33.80332946777344 253.69725036621094 1802.997314453125
      vertex 65.85552978515625 247.32167053222656 1802.997314453125
      vertex 71.5258560180664 276.78228759765625 1790.99169921875
    endloop
  endfacet
  facet normal -0.16053542123906353 -0.80706362431942 -0.5682223902909832
    outer loop
      vertex 35.49012756347656 266.509765625 913.9559936523438
      vertex 69.20026397705078 259.80438232421875 913.9559936523438
      vertex 68.5634765625 257.4278564453125 917.5113525390625
    endloop
  endfacet
  facet normal -0.16495414839704722 -0.832997347684405 -0.52811508942403
    outer loop
      vertex 35.05027770996094 263.16876220703125 918.9238891601562
      vertex 68.5634765625 257.4278564453125 917.5113525390625
      vertex 67.97161865234375 255.21900939941406 921.1802368164062
    endloop
  endfacet
  facet normal -0.16272400404846055 -0.8120104675673823 -0.5604996869467794
    outer loop
      vertex 35.05027770996094 263.16876220703125 918.9238891601562
      vertex 35.49012756347656 266.509765625 913.9559936523438
      vertex 68.5634765625 257.4278564453125 917.5113525390625
    endloop
  endfacet
  facet normal -0.16984348327965826 -0.8614303448217573 -0.478634466171943
    outer loop
      vertex 34.69215774536133 260.4485778808594 923.5774536132812
      vertex 67.97161865234375 255.21900939941406 921.1802368164062
      vertex 67.2269287109375 252.43980407714844 926.4464111328125
    endloop
  endfacet
  facet normal -0.16932761007281005 -0.8451267802476922 -0.5070393335582551
    outer loop
      vertex 34.69215774536133 260.4485778808594 923.5774536132812
      vertex 35.05027770996094 263.16876220703125 918.9238891601562
      vertex 67.97161865234375 255.21900939941406 921.1802368164062
    endloop
  endfacet
  facet normal -0.17565786299619945 -0.8907469282014068 -0.4191828062640052
    outer loop
      vertex 34.33784103393555 257.75726318359375 928.9291381835938
      vertex 67.2269287109375 252.43980407714844 926.4464111328125
      vertex 66.57477569580078 250.00592041015625 931.8916015625
    endloop
  endfacet
  facet normal -0.17552460858024374 -0.8748084537852452 -0.4515542945965863
    outer loop
      vertex 34.33784103393555 257.75726318359375 928.9291381835938
      vertex 34.69215774536133 260.4485778808594 923.5774536132812
      vertex 67.2269287109375 252.43980407714844 926.4464111328125
    endloop
  endfacet
  facet normal -0.18069079159890974 -0.9161181707408218 -0.3578803362436244
    outer loop
      vertex 34.030887603759766 255.4257354736328 934.4488525390625
      vertex 66.57477569580078 250.00592041015625 931.8916015625
      vertex 66.01802062988281 247.92808532714844 937.4916381835938
    endloop
  endfacet
  facet normal -0.18101256853617823 -0.9023250450611727 -0.3912083371904134
    outer loop
      vertex 34.030887603759766 255.4257354736328 934.4488525390625
      vertex 34.33784103393555 257.75726318359375 928.9291381835938
      vertex 66.57477569580078 250.00592041015625 931.8916015625
    endloop
  endfacet
  facet normal -0.1849200770801949 -0.9374357448446002 -0.29498947333812536
    outer loop
      vertex 33.77265167236328 253.4642333984375 940.1121826171875
      vertex 66.01802062988281 247.92808532714844 937.4916381835938
      vertex 65.55912017822266 246.21543884277344 943.2218627929688
    endloop
  endfacet
  facet normal -0.18570457824718206 -0.92584246383192 -0.3291345344743939
    outer loop
      vertex 33.77265167236328 253.4642333984375 940.1121826171875
      vertex 34.030887603759766 255.4257354736328 934.4488525390625
      vertex 66.01802062988281 247.92808532714844 937.4916381835938
    endloop
  endfacet
  facet normal -0.18832443377609687 -0.9546023081397232 -0.2307993521161302
    outer loop
      vertex 33.56426239013672 251.88136291503906 945.8939208984375
      vertex 65.55912017822266 246.21543884277344 943.2218627929688
      vertex 65.20008850097656 244.87551879882812 949.0568237304688
    endloop
  endfacet
  facet normal -0.18957701704110125 -0.9452558314609902 -0.26561620375796
    outer loop
      vertex 33.56426239013672 251.88136291503906 945.8939208984375
      vertex 33.77265167236328 253.4642333984375 940.1121826171875
      vertex 65.55912017822266 246.21543884277344 943.2218627929688
    endloop
  endfacet
  facet normal -0.19089120005587157 -0.967543852378831 -0.1655881742914028
    outer loop
      vertex 33.40663528442383 250.68408203125 951.7686767578125
      vertex 65.20008850097656 244.87551879882812 949.0568237304688
      vertex 64.9425048828125 243.91419982910156 954.9708251953125
    endloop
  endfacet
  facet normal -0.1926149648231027 -0.9604854265587075 -0.20091595430560621
    outer loop
      vertex 33.40663528442383 250.68408203125 951.7686767578125
      vertex 33.56426239013672 251.88136291503906 945.8939208984375
      vertex 65.20008850097656 244.87551879882812 949.0568237304688
    endloop
  endfacet
  facet normal -0.1926081606101684 -0.9762030216183334 -0.09964816631329954
    outer loop
      vertex 33.30046844482422 249.8776397705078 957.7103271484375
      vertex 64.9425048828125 243.91419982910156 954.9708251953125
      vertex 64.7874984741211 243.33570861816406 960.9376220703125
    endloop
  endfacet
  facet normal -0.1948040353997512 -0.971460771638642 -0.13533424163613142
    outer loop
      vertex 33.30046844482422 249.8776397705078 957.7103271484375
      vertex 33.40663528442383 250.68408203125 951.7686767578125
      vertex 64.9425048828125 243.91419982910156 954.9708251953125
    endloop
  endfacet
  facet normal -0.19390362364525213 -0.9804564174895695 -0.03326556989981527
    outer loop
      vertex 33.25408172607422 249.5253143310547 962.3145751953125
      vertex 64.7874984741211 243.33570861816406 960.9376220703125
      vertex 64.73575592041016 243.14259338378906 966.9310302734375
    endloop
  endfacet
  facet normal -0.1952705794835024 -0.9777389029653266 -0.07678566543526712
    outer loop
      vertex 33.25408172607422 249.5253143310547 962.3145751953125
      vertex 33.30046844482422 249.8776397705078 957.7103271484375
      vertex 64.7874984741211 243.33570861816406 960.9376220703125
    endloop
  endfacet
  facet normal -0.19502659026171545 -0.9804633551190585 -0.02561714971592579
    outer loop
      vertex 33.23860549926758 249.40777587890625 966.9310302734375
      vertex 33.25408172607422 249.5253143310547 962.3145751953125
      vertex 64.73575592041016 243.14259338378906 966.9310302734375
    endloop
  endfacet
  facet normal -0.19501540331173609 -0.9804071146110559 0.027764763481519763
    outer loop
      vertex 33.23860549926758 249.40777587890625 1773.77001953125
      vertex 64.73575592041016 243.14259338378906 1773.77001953125
      vertex 64.77617645263672 243.29345703125 1779.381103515625
    endloop
  endfacet
  facet normal -0.19387032114124803 -0.977492706599927 0.08320040339167924
    outer loop
      vertex 33.264705657958984 249.60598754882812 1780.1180419921875
      vertex 64.77617645263672 243.29345703125 1779.381103515625
      vertex 64.8973159790039 243.7455596923828 1784.9749755859375
    endloop
  endfacet
  facet normal -0.19561921318757428 -0.980176804008372 0.03140949403934893
    outer loop
      vertex 33.264705657958984 249.60598754882812 1780.1180419921875
      vertex 33.23860549926758 249.40777587890625 1773.77001953125
      vertex 64.77617645263672 243.29345703125 1779.381103515625
    endloop
  endfacet
  facet normal -0.19202948662085378 -0.9710619833504823 0.14199753786442482
    outer loop
      vertex 33.342891693115234 250.1998748779297 1786.44091796875
      vertex 64.8973159790039 243.7455596923828 1784.9749755859375
      vertex 65.1312484741211 244.61862182617188 1791.2618408203125
    endloop
  endfacet
  facet normal -0.19530861103349706 -0.9762162877145829 0.09410794895716673
    outer loop
      vertex 33.342891693115234 250.1998748779297 1786.44091796875
      vertex 33.264705657958984 249.60598754882812 1780.1180419921875
      vertex 64.8973159790039 243.7455596923828 1784.9749755859375
    endloop
  endfacet
  facet normal -0.19017784908357482 -0.9609967754382855 0.2007923885887176
    outer loop
      vertex 33.472862243652344 251.18711853027344 1792.7139892578125
      vertex 65.1312484741211 244.61862182617188 1791.2618408203125
      vertex 65.42900085449219 245.72984313964844 1796.8621826171875
    endloop
  endfacet
  facet normal -0.19376820699984865 -0.9684947822907977 0.1564344547456352
    outer loop
      vertex 33.472862243652344 251.18711853027344 1792.7139892578125
      vertex 33.342891693115234 250.1998748779297 1786.44091796875
      vertex 65.1312484741211 244.61862182617188 1791.2618408203125
    endloop
  endfacet
  facet normal -0.18760545250906838 -0.947513807282894 0.25888564888217047
    outer loop
      vertex 33.6204719543457 252.30831909179688 1797.888671875
      vertex 65.42900085449219 245.72984313964844 1796.8621826171875
      vertex 65.85552978515625 247.32167053222656 1802.997314453125
    endloop
  endfacet
  facet normal -0.19128066637345045 -0.958133125477265 0.2130554400499933
    outer loop
      vertex 33.6204719543457 252.30831909179688 1797.888671875
      vertex 33.472862243652344 251.18711853027344 1792.7139892578125
      vertex 65.42900085449219 245.72984313964844 1796.8621826171875
    endloop
  endfacet
  facet normal -0.18817255233793476 -0.9460071866121452 0.26393463854674504
    outer loop
      vertex 33.80332946777344 253.69725036621094 1802.997314453125
      vertex 33.6204719543457 252.30831909179688 1797.888671875
      vertex 65.85552978515625 247.32167053222656 1802.997314453125
    endloop
  endfacet
  facet normal 0.9807829604178421 -0.19508979085716247 0.0021812971650796726
    outer loop
      vertex 70.63053894042969 272.7776794433594 966.9310302734375
      vertex 64.73575592041016 243.14259338378906 966.9310302734375
      vertex 64.7874984741211 243.33570861816406 960.9376220703125
    endloop
  endfacet
  facet normal 0.980806284930158 -0.19497805125516096 0.0016096491051862236
    outer loop
      vertex 70.66905212402344 272.9348449707031 962.5014038085938
      vertex 70.63053894042969 272.7776794433594 966.9310302734375
      vertex 64.7874984741211 243.33570861816406 960.9376220703125
    endloop
  endfacet
  facet normal 0.980830245857944 -0.19480365238063294 0.004854464894334474
    outer loop
      vertex 70.7842025756836 273.4055480957031 958.1243286132812
      vertex 70.66905212402344 272.9348449707031 962.5014038085938
      vertex 64.9425048828125 243.91419982910156 954.9708251953125
    endloop
  endfacet
  facet normal 0.9807365630314608 -0.19522522212645013 0.006550311360211532
    outer loop
      vertex 70.66905212402344 272.9348449707031 962.5014038085938
      vertex 64.7874984741211 243.33570861816406 960.9376220703125
      vertex 64.9425048828125 243.91419982910156 954.9708251953125
    endloop
  endfacet
  facet normal 0.9814283162359012 -0.18960290413735403 0.029141016335146142
    outer loop
      vertex 73.23257446289062 283.5281677246094 932.2542114257812
      vertex 72.63552856445312 281.03912353515625 936.1671752929688
      vertex 72.19181060791016 276.4480285644531 921.239501953125
    endloop
  endfacet
  facet normal 0.9808091212341796 -0.19248207995692526 0.03105022704091214
    outer loop
      vertex 73.900634765625 286.33056640625 928.5238647460938
      vertex 73.23257446289062 283.5281677246094 932.2542114257812
      vertex 72.19181060791016 276.4480285644531 921.239501953125
    endloop
  endfacet
  facet normal 0.9797824026504297 -0.19489007933006744 0.04521394071822678
    outer loop
      vertex 70.54298400878906 266.5547180175781 913.9559936523438
      vertex 68.5634765625 257.4278564453125 917.5113525390625
      vertex 69.20026397705078 259.80438232421875 913.9559936523438
    endloop
  endfacet
  facet normal 0.9803723004514663 -0.19686459418252397 0.01069972265294393
    outer loop
      vertex 64.9425048828125 243.91419982910156 954.9708251953125
      vertex 65.20008850097656 244.87551879882812 949.0568237304688
      vertex 69.26642608642578 264.74688720703125 942.0888061523438
    endloop
  endfacet
  facet normal 0.9806343847088438 -0.19523251757577254 0.015507018015495366
    outer loop
      vertex 65.20008850097656 244.87551879882812 949.0568237304688
      vertex 65.55912017822266 246.21543884277344 943.2218627929688
      vertex 69.26642608642578 264.74688720703125 942.0888061523438
    endloop
  endfacet
  facet normal 0.980606551503222 -0.1949358039162126 0.020268781426089507
    outer loop
      vertex 65.55912017822266 246.21543884277344 943.2218627929688
      vertex 66.01802062988281 247.92808532714844 937.4916381835938
      vertex 69.26642608642578 264.74688720703125 942.0888061523438
    endloop
  endfacet
  facet normal 0.9802758282692963 -0.19608420787981223 0.024703925418682847
    outer loop
      vertex 66.01802062988281 247.92808532714844 937.4916381835938
      vertex 66.57477569580078 250.00592041015625 931.8916015625
      vertex 69.26642608642578 264.74688720703125 942.0888061523438
    endloop
  endfacet
  facet normal 0.9818616984844271 -0.18936936717174205 0.009319218113668074
    outer loop
      vertex 71.00032043457031 274.2909240722656 953.3455200195312
      vertex 70.7842025756836 273.4055480957031 958.1243286132812
      vertex 69.26642608642578 264.74688720703125 942.0888061523438
    endloop
  endfacet
  facet normal 0.9811437190885902 -0.1928809625544479 0.012407126060425
    outer loop
      vertex 71.30913543701172 275.5589904785156 948.6380615234375
      vertex 71.00032043457031 274.2909240722656 953.3455200195312
      vertex 69.26642608642578 264.74688720703125 942.0888061523438
    endloop
  endfacet
  facet normal 0.9808389860634207 -0.19425890818689606 0.014777009444262967
    outer loop
      vertex 71.49858093261719 276.3382568359375 946.3076782226562
      vertex 71.30913543701172 275.5589904785156 948.6380615234375
      vertex 69.26642608642578 264.74688720703125 942.0888061523438
    endloop
  endfacet
  facet normal 0.9807006236786272 -0.1948257583364101 0.016407638617253244
    outer loop
      vertex 71.70951080322266 277.2069091796875 944.0146484375
      vertex 71.49858093261719 276.3382568359375 946.3076782226562
      vertex 69.26642608642578 264.74688720703125 942.0888061523438
    endloop
  endfacet
  facet normal 0.9805885372493328 -0.19517349578718318 0.01879965843903412
    outer loop
      vertex 72.14108276367188 278.9888000488281 940.0030517578125
      vertex 71.70951080322266 277.2069091796875 944.0146484375
      vertex 69.26642608642578 264.74688720703125 942.0888061523438
    endloop
  endfacet
  facet normal 0.9805984969866627 -0.19560816669415898 0.0128075302087545
    outer loop
      vertex 70.7842025756836 273.4055480957031 958.1243286132812
      vertex 64.9425048828125 243.91419982910156 954.9708251953125
      vertex 69.26642608642578 264.74688720703125 942.0888061523438
    endloop
  endfacet
  facet normal 0.9804669376532753 -0.1926350085631104 0.0397031188283584
    outer loop
      vertex 70.54298400878906 266.5547180175781 913.9559936523438
      vertex 72.19181060791016 276.4480285644531 921.239501953125
      vertex 69.62834930419922 264.6748962402344 927.4221801757812
    endloop
  endfacet
  facet normal 0.9803664295138611 -0.194838262265145 0.030326810576482347
    outer loop
      vertex 66.57477569580078 250.00592041015625 931.8916015625
      vertex 67.2269287109375 252.43980407714844 926.4464111328125
      vertex 69.62834930419922 264.6748962402344 927.4221801757812
    endloop
  endfacet
  facet normal 0.9801163493009964 -0.19520796658590653 0.03557796529149519
    outer loop
      vertex 67.2269287109375 252.43980407714844 926.4464111328125
      vertex 67.97161865234375 255.21900939941406 921.1802368164062
      vertex 69.62834930419922 264.6748962402344 927.4221801757812
    endloop
  endfacet
  facet normal 0.9795302597040135 -0.1974554790332202 0.03913826930191377
    outer loop
      vertex 67.97161865234375 255.21900939941406 921.1802368164062
      vertex 68.5634765625 257.4278564453125 917.5113525390625
      vertex 69.62834930419922 264.6748962402344 927.4221801757812
    endloop
  endfacet
  facet normal 0.9809637504253951 -0.1927752265190896 0.023405819615154384
    outer loop
      vertex 72.63552856445312 281.03912353515625 936.1671752929688
      vertex 72.14108276367188 278.9888000488281 940.0030517578125
      vertex 69.62834930419922 264.6748962402344 927.4221801757812
    endloop
  endfacet
  facet normal 0.9806292719982878 -0.19425138707810521 0.025152127511217204
    outer loop
      vertex 72.14108276367188 278.9888000488281 940.0030517578125
      vertex 69.26642608642578 264.74688720703125 942.0888061523438
      vertex 69.62834930419922 264.6748962402344 927.4221801757812
    endloop
  endfacet
  facet normal 0.9799265556972788 -0.19686730918381323 0.031419866549570755
    outer loop
      vertex 72.19181060791016 276.4480285644531 921.239501953125
      vertex 72.63552856445312 281.03912353515625 936.1671752929688
      vertex 69.62834930419922 264.6748962402344 927.4221801757812
    endloop
  endfacet
  facet normal 0.9802049555216675 -0.19638130374149584 0.025152111473119635
    outer loop
      vertex 69.26642608642578 264.74688720703125 942.0888061523438
      vertex 66.57477569580078 250.00592041015625 931.8916015625
      vertex 69.62834930419922 264.6748962402344 927.4221801757812
    endloop
  endfacet
  facet normal 0.9795738929316732 -0.19726710995267718 0.03899584102959012
    outer loop
      vertex 68.5634765625 257.4278564453125 917.5113525390625
      vertex 70.54298400878906 266.5547180175781 913.9559936523438
      vertex 69.62834930419922 264.6748962402344 927.4221801757812
    endloop
  endfacet
  facet normal 0.9796752317651976 -0.1948687617984724 0.04756685758946758
    outer loop
      vertex 69.20026397705078 259.80438232421875 913.9559936523438
      vertex 69.81702423095703 262.1061706542969 910.6831665039062
      vertex 70.54298400878906 266.5547180175781 913.9559936523438
    endloop
  endfacet
  facet normal 0.9808397897745118 -0.19453972161711972 -0.010373211085536207
    outer loop
      vertex 71.18181610107422 275.2381896972656 1787.4190673828125
      vertex 71.5258560180664 276.78228759765625 1790.99169921875
      vertex 65.42900085449219 245.72984313964844 1796.8621826171875
    endloop
  endfacet
  facet normal 0.980491440441216 -0.19579320292275074 -0.01736539405714923
    outer loop
      vertex 71.5258560180664 276.78228759765625 1790.99169921875
      vertex 65.85552978515625 247.32167053222656 1802.997314453125
      vertex 65.42900085449219 245.72984313964844 1796.8621826171875
    endloop
  endfacet
  facet normal 0.9808134234193633 -0.1947925532556115 -0.007803181181319034
    outer loop
      vertex 70.9198226928711 274.06683349609375 1783.7288818359375
      vertex 71.18181610107422 275.2381896972656 1787.4190673828125
      vertex 65.1312484741211 244.61862182617188 1791.2618408203125
    endloop
  endfacet
  facet normal 0.9806224183005466 -0.19545156947586798 -0.0133550258632341
    outer loop
      vertex 71.18181610107422 275.2381896972656 1787.4190673828125
      vertex 65.42900085449219 245.72984313964844 1796.8621826171875
      vertex 65.1312484741211 244.61862182617188 1791.2618408203125
    endloop
  endfacet
  facet normal 0.9807833044061439 -0.19502658412153984 -0.005361089819145384
    outer loop
      vertex 70.75299835205078 273.32281494140625 1780.2752685546875
      vertex 70.9198226928711 274.06683349609375 1783.7288818359375
      vertex 64.8973159790039 243.7455596923828 1784.9749755859375
    endloop
  endfacet
  facet normal 0.9807225124855393 -0.19517998454563287 -0.009387605489030346
    outer loop
      vertex 70.9198226928711 274.06683349609375 1783.7288818359375
      vertex 65.1312484741211 244.61862182617188 1791.2618408203125
      vertex 64.8973159790039 243.7455596923828 1784.9749755859375
    endloop
  endfacet
  facet normal 0.9807758348160704 -0.19511211877535362 -0.003165903951866268
    outer loop
      vertex 70.66146850585938 272.91522216796875 1777.03955078125
      vertex 70.75299835205078 273.32281494140625 1780.2752685546875
      vertex 64.77617645263672 243.29345703125 1779.381103515625
    endloop
  endfacet
  facet normal 0.9807792055608628 -0.1950440078249067 -0.0054758516233047744
    outer loop
      vertex 70.75299835205078 273.32281494140625 1780.2752685546875
      vertex 64.8973159790039 243.7455596923828 1784.9749755859375
      vertex 64.77617645263672 243.29345703125 1779.381103515625
    endloop
  endfacet
  facet normal 0.9807847311245881 -0.19509014307250744 -0.0010711063523650215
    outer loop
      vertex 70.63053894042969 272.7776794433594 1773.77001953125
      vertex 70.66146850585938 272.91522216796875 1777.03955078125
      vertex 64.73575592041016 243.14259338378906 1773.77001953125
    endloop
  endfacet
  facet normal 0.9807994439312137 -0.19501059055929573 -0.0018221838372765417
    outer loop
      vertex 70.66146850585938 272.91522216796875 1777.03955078125
      vertex 64.77617645263672 243.29345703125 1779.381103515625
      vertex 64.73575592041016 243.14259338378906 1773.77001953125
    endloop
  endfacet
  facet normal 0.9807852937369419 -0.19509025498302268 0.0
    outer loop
      vertex 64.73575592041016 243.14259338378906 966.9310302734375
      vertex 70.63053894042969 272.7776794433594 966.9310302734375
      vertex 70.63053894042969 272.7776794433594 1773.77001953125
    endloop
  endfacet
  facet normal 0.9807852937369419 -0.19509025498302268 0.0
    outer loop
      vertex 64.73575592041016 243.14259338378906 1773.77001953125
      vertex 64.73575592041016 243.14259338378906 966.9310302734375
      vertex 70.63053894042969 272.7776794433594 1773.77001953125
    endloop
  endfacet
  facet normal -0.9796750676453144 0.19486961013872645 0.04756676232969009
    outer loop
      vertex 35.80116653442383 268.8723449707031 910.6831665039062
      vertex 35.49012756347656 266.509765625 913.9559936523438
      vertex 36.832847595214844 273.26007080078125 913.9559936523438
    endloop
  endfacet
  facet normal -0.9804610223601733 0.19311902393603197 0.03743295642128804
    outer loop
      vertex 35.05027770996094 263.16876220703125 918.9238891601562
      vertex 34.69215774536133 260.4485778808594 923.5774536132812
      vertex 36.152252197265625 267.1416320800781 927.291015625
    endloop
  endfacet
  facet normal -0.9801710352079915 0.19532916751250512 0.03333553746628003
    outer loop
      vertex 34.69215774536133 260.4485778808594 923.5774536132812
      vertex 34.33784103393555 257.75726318359375 928.9291381835938
      vertex 36.152252197265625 267.1416320800781 927.291015625
    endloop
  endfacet
  facet normal -0.9806689931799567 0.19194525881555174 0.038017672648926124
    outer loop
      vertex 36.832847595214844 273.26007080078125 913.9559936523438
      vertex 35.05027770996094 263.16876220703125 918.9238891601562
      vertex 36.152252197265625 267.1416320800781 927.291015625
    endloop
  endfacet
  facet normal -0.9805024454455951 0.1944837409098891 0.028125237721719504
    outer loop
      vertex 34.33784103393555 257.75726318359375 928.9291381835938
      vertex 37.1954460144043 271.1261901855469 936.10595703125
      vertex 36.152252197265625 267.1416320800781 927.291015625
    endloop
  endfacet
  facet normal -0.9803201531991409 0.1954670473329134 0.027659187236174426
    outer loop
      vertex 37.1954460144043 271.1261901855469 936.10595703125
      vertex 38.167232513427734 277.0744323730469 928.5126953125
      vertex 36.152252197265625 267.1416320800781 927.291015625
    endloop
  endfacet
  facet normal -0.9802157935514965 0.19405020690183888 0.039006605511933974
    outer loop
      vertex 38.167232513427734 277.0744323730469 928.5126953125
      vertex 36.832847595214844 273.26007080078125 913.9559936523438
      vertex 36.152252197265625 267.1416320800781 927.291015625
    endloop
  endfacet
  facet normal -0.9798173066211205 0.19745762960624347 0.031121217135848398
    outer loop
      vertex 41.29867935180664 292.8155212402344 928.5238647460938
      vertex 39.095542907714844 283.0312805175781 921.239501953125
      vertex 40.867897033691406 290.12420654296875 932.0369873046875
    endloop
  endfacet
  facet normal -0.9798214721122407 0.19489873181624454 0.04432118143981801
    outer loop
      vertex 36.832847595214844 273.26007080078125 913.9559936523438
      vertex 35.49012756347656 266.509765625 913.9559936523438
      vertex 35.05027770996094 263.16876220703125 918.9238891601562
    endloop
  endfacet
  facet normal -0.9804457169975831 0.19586162462163337 0.019089788413442395
    outer loop
      vertex 39.80717849731445 283.3915100097656 944.4013061523438
      vertex 40.11848831176758 285.38323974609375 939.9548950195312
      vertex 37.1954460144043 271.1261901855469 936.10595703125
    endloop
  endfacet
  facet normal -0.9801243788195432 0.19771780649003798 0.0162441078663201
    outer loop
      vertex 39.57367706298828 281.8905944824219 948.5811157226562
      vertex 39.80717849731445 283.3915100097656 944.4013061523438
      vertex 37.1954460144043 271.1261901855469 936.10595703125
    endloop
  endfacet
  facet normal -0.9804717718631596 0.19469706653396535 0.02771564292209355
    outer loop
      vertex 34.33784103393555 257.75726318359375 928.9291381835938
      vertex 34.030887603759766 255.4257354736328 934.4488525390625
      vertex 37.1954460144043 271.1261901855469 936.10595703125
    endloop
  endfacet
  facet normal -0.980494109069689 0.19520955840058807 0.02290262842304243
    outer loop
      vertex 34.030887603759766 255.4257354736328 934.4488525390625
      vertex 33.77265167236328 253.4642333984375 940.1121826171875
      vertex 37.1954460144043 271.1261901855469 936.10595703125
    endloop
  endfacet
  facet normal -0.9807459158220083 0.194922132197362 0.011950354726306662
    outer loop
      vertex 39.390174865722656 280.7072448730469 952.822998046875
      vertex 39.57367706298828 281.8905944824219 948.5811157226562
      vertex 37.45682907104492 271.07421875 951.2807006835938
    endloop
  endfacet
  facet normal -0.9806823075289207 0.19540747009526307 0.008839249443260169
    outer loop
      vertex 39.25593185424805 279.83880615234375 957.1276245117188
      vertex 39.390174865722656 280.7072448730469 952.822998046875
      vertex 37.45682907104492 271.07421875 951.2807006835938
    endloop
  endfacet
  facet normal -0.9803216601965709 0.19731974640184405 0.005861759919264053
    outer loop
      vertex 39.170806884765625 279.2864074707031 961.4862670898438
      vertex 39.25593185424805 279.83880615234375 957.1276245117188
      vertex 37.45682907104492 271.07421875 951.2807006835938
    endloop
  endfacet
  facet normal -0.9797248084232871 0.20031998239664905 0.0033472992933689526
    outer loop
      vertex 39.14275360107422 279.1038513183594 964.200439453125
      vertex 39.170806884765625 279.2864074707031 961.4862670898438
      vertex 37.45682907104492 271.07421875 951.2807006835938
    endloop
  endfacet
  facet normal -0.9790437558634163 0.20364652138643535 0.0011909794539205474
    outer loop
      vertex 39.133392333984375 279.0428771972656 966.9310302734375
      vertex 39.14275360107422 279.1038513183594 964.200439453125
      vertex 37.45682907104492 271.07421875 951.2807006835938
    endloop
  endfacet
  facet normal -0.9807691650554868 0.19508707258859925 0.005734019983745427
    outer loop
      vertex 33.23860549926758 249.40777587890625 966.9310302734375
      vertex 39.133392333984375 279.0428771972656 966.9310302734375
      vertex 37.45682907104492 271.07421875 951.2807006835938
    endloop
  endfacet
  facet normal -0.9808510673908872 0.19394920576078029 0.017745117157116155
    outer loop
      vertex 33.77265167236328 253.4642333984375 940.1121826171875
      vertex 33.56426239013672 251.88136291503906 945.8939208984375
      vertex 37.45682907104492 271.07421875 951.2807006835938
    endloop
  endfacet
  facet normal -0.9806869801457676 0.19512065901873213 0.013452709640459418
    outer loop
      vertex 33.56426239013672 251.88136291503906 945.8939208984375
      vertex 33.40663528442383 250.68408203125 951.7686767578125
      vertex 37.45682907104492 271.07421875 951.2807006835938
    endloop
  endfacet
  facet normal -0.9807571263615171 0.19502673773857143 0.008945985588505654
    outer loop
      vertex 33.40663528442383 250.68408203125 951.7686767578125
      vertex 33.30046844482422 249.8776397705078 957.7103271484375
      vertex 37.45682907104492 271.07421875 951.2807006835938
    endloop
  endfacet
  facet normal -0.9810155741951404 0.19386574285589447 0.004951457715776871
    outer loop
      vertex 33.30046844482422 249.8776397705078 957.7103271484375
      vertex 33.25408172607422 249.5253143310547 962.3145751953125
      vertex 37.45682907104492 271.07421875 951.2807006835938
    endloop
  endfacet
  facet normal -0.9813510949473302 0.1922172085877678 0.001604109847497375
    outer loop
      vertex 33.25408172607422 249.5253143310547 962.3145751953125
      vertex 33.23860549926758 249.40777587890625 966.9310302734375
      vertex 37.45682907104492 271.07421875 951.2807006835938
    endloop
  endfacet
  facet normal -0.9808318998305721 0.1940630146230344 0.017559345949393013
    outer loop
      vertex 37.1954460144043 271.1261901855469 936.10595703125
      vertex 33.77265167236328 253.4642333984375 940.1121826171875
      vertex 37.45682907104492 271.07421875 951.2807006835938
    endloop
  endfacet
  facet normal -0.9803959477001666 0.1962535486217377 0.017559339009976443
    outer loop
      vertex 39.57367706298828 281.8905944824219 948.5811157226562
      vertex 37.1954460144043 271.1261901855469 936.10595703125
      vertex 37.45682907104492 271.07421875 951.2807006835938
    endloop
  endfacet
  facet normal -0.9793404808566275 0.19866992187823823 0.037715841451626285
    outer loop
      vertex 39.095542907714844 283.0312805175781 921.239501953125
      vertex 36.832847595214844 273.26007080078125 913.9559936523438
      vertex 38.167232513427734 277.0744323730469 928.5126953125
    endloop
  endfacet
  facet normal -0.9802981034157433 0.19575906030461185 0.02634423557729548
    outer loop
      vertex 40.48569107055664 287.7159118652344 935.7102661132812
      vertex 40.867897033691406 290.12420654296875 932.0369873046875
      vertex 38.167232513427734 277.0744323730469 928.5126953125
    endloop
  endfacet
  facet normal -0.9800228829476143 0.19746330419028923 0.023735888382362028
    outer loop
      vertex 40.11848831176758 285.38323974609375 939.9548950195312
      vertex 40.48569107055664 287.7159118652344 935.7102661132812
      vertex 38.167232513427734 277.0744323730469 928.5126953125
    endloop
  endfacet
  facet normal -0.9804591839510314 0.19383033576119957 0.03360936692022405
    outer loop
      vertex 40.867897033691406 290.12420654296875 932.0369873046875
      vertex 39.095542907714844 283.0312805175781 921.239501953125
      vertex 38.167232513427734 277.0744323730469 928.5126953125
    endloop
  endfacet
  facet normal -0.9806599683233429 0.19392908427142 0.026410922015491948
    outer loop
      vertex 37.1954460144043 271.1261901855469 936.10595703125
      vertex 40.11848831176758 285.38323974609375 939.9548950195312
      vertex 38.167232513427734 277.0744323730469 928.5126953125
    endloop
  endfacet
  facet normal -0.9807852888005055 0.1950902798001705 0.0
    outer loop
      vertex 33.23860549926758 249.40777587890625 1773.77001953125
      vertex 39.133392333984375 279.0428771972656 1773.77001953125
      vertex 33.23860549926758 249.40777587890625 966.9310302734375
    endloop
  endfacet
  facet normal -0.9807852888005055 0.1950902798001705 0.0
    outer loop
      vertex 33.23860549926758 249.40777587890625 966.9310302734375
      vertex 39.133392333984375 279.0428771972656 1773.77001953125
      vertex 39.133392333984375 279.0428771972656 966.9310302734375
    endloop
  endfacet
  facet normal -0.9807519859248129 0.19525349097788175 -0.0012713636323692754
    outer loop
      vertex 39.1673583984375 279.2388916015625 1777.6715087890625
      vertex 39.133392333984375 279.0428771972656 1773.77001953125
      vertex 33.264705657958984 249.60598754882812 1780.1180419921875
    endloop
  endfacet
  facet normal -0.9807832098158353 0.195089866264501 -0.0020589862180688655
    outer loop
      vertex 39.133392333984375 279.0428771972656 1773.77001953125
      vertex 33.23860549926758 249.40777587890625 1773.77001953125
      vertex 33.264705657958984 249.60598754882812 1780.1180419921875
    endloop
  endfacet
  facet normal -0.9806886557332116 0.19553754321305183 -0.003850936300438196
    outer loop
      vertex 39.26872253417969 279.8227844238281 1781.5059814453125
      vertex 39.1673583984375 279.2388916015625 1777.6715087890625
      vertex 33.342891693115234 250.1998748779297 1786.44091796875
    endloop
  endfacet
  facet normal -0.9807515799012161 0.1951617798625392 -0.0061820872004898445
    outer loop
      vertex 39.419002532958984 280.6865234375 1784.9322509765625
      vertex 39.26872253417969 279.8227844238281 1781.5059814453125
      vertex 33.342891693115234 250.1998748779297 1786.44091796875
    endloop
  endfacet
  facet normal -0.9808115220189073 0.19486055543625497 -0.006174318588213598
    outer loop
      vertex 39.1673583984375 279.2388916015625 1777.6715087890625
      vertex 33.264705657958984 249.60598754882812 1780.1180419921875
      vertex 33.342891693115234 250.1998748779297 1786.44091796875
    endloop
  endfacet
  facet normal -0.9806776977190381 0.1954485040724181 -0.008434183560993192
    outer loop
      vertex 39.60582733154297 281.7567138671875 1788.00927734375
      vertex 39.419002532958984 280.6865234375 1784.9322509765625
      vertex 33.472862243652344 251.18711853027344 1792.7139892578125
    endloop
  endfacet
  facet normal -0.9807572401032416 0.1949560757331933 -0.010361685180797978
    outer loop
      vertex 39.419002532958984 280.6865234375 1784.9322509765625
      vertex 33.342891693115234 250.1998748779297 1786.44091796875
      vertex 33.472862243652344 251.18711853027344 1792.7139892578125
    endloop
  endfacet
  facet normal -0.9805978312356455 0.19574241497223918 -0.010620751234452398
    outer loop
      vertex 39.83871841430664 283.0852355957031 1790.99169921875
      vertex 39.60582733154297 281.7567138671875 1788.00927734375
      vertex 33.6204719543457 252.30831909179688 1797.888671875
    endloop
  endfacet
  facet normal -0.980783143598696 0.19458481820227325 -0.014183573521788085
    outer loop
      vertex 39.60582733154297 281.7567138671875 1788.00927734375
      vertex 33.472862243652344 251.18711853027344 1792.7139892578125
      vertex 33.6204719543457 252.30831909179688 1797.888671875
    endloop
  endfacet
  facet normal -0.9808025721230285 0.1941991436017911 -0.017692007833553448
    outer loop
      vertex 39.83871841430664 283.0852355957031 1790.99169921875
      vertex 33.6204719543457 252.30831909179688 1797.888671875
      vertex 33.80332946777344 253.69725036621094 1802.997314453125
    endloop
  endfacet
endsolid v3d.csg
