solid v3d.csg
  facet normal 0.9238791659568288 0.3826843172996123 1.960548017176245E-6
    outer loop
      vertex 108.72006225585938 -263.5186767578125 947.7158813476562
      vertex 97.48413848876953 -236.39279174804688 940.1121826171875
      vertex 108.19166564941406 -262.2430419921875 952.40673828125
    endloop
  endfacet
  facet normal 0.9238795464505254 0.38268339871277945 8.606702413141194E-8
    outer loop
      vertex 96.87317657470703 -234.91778564453125 945.8939208984375
      vertex 96.41104125976562 -233.80209350585938 951.7686767578125
      vertex 107.81172180175781 -261.3257751464844 957.1942138671875
    endloop
  endfacet
  facet normal 0.9238795018727 0.3826835063324856 7.256918218465061E-7
    outer loop
      vertex 96.41104125976562 -233.80209350585938 951.7686767578125
      vertex 96.09976959228516 -233.05062866210938 957.7103271484375
      vertex 107.81172180175781 -261.3257751464844 957.1942138671875
    endloop
  endfacet
  facet normal 0.9238795714640601 0.38268333832475426 -7.926833672371713E-8
    outer loop
      vertex 108.19166564941406 -262.2430419921875 952.40673828125
      vertex 96.87317657470703 -234.91778564453125 945.8939208984375
      vertex 107.81172180175781 -261.3257751464844 957.1942138671875
    endloop
  endfacet
  facet normal 0.9238794962643013 0.38268351987281657 -4.1520841444846486E-7
    outer loop
      vertex 96.09976959228516 -233.05062866210938 957.7103271484375
      vertex 95.96377563476562 -232.72230529785156 962.3145751953125
      vertex 107.58274841308594 -260.7729797363281 962.0463256835938
    endloop
  endfacet
  facet normal 0.9238794946934045 0.38268352366532576 -3.868006912060149E-7
    outer loop
      vertex 107.81172180175781 -261.3257751464844 957.1942138671875
      vertex 96.09976959228516 -233.05062866210938 957.7103271484375
      vertex 107.58274841308594 -260.7729797363281 962.0463256835938
    endloop
  endfacet
  facet normal 0.9238795557676137 0.3826833762191107 -4.2340552777871035E-7
    outer loop
      vertex 95.96377563476562 -232.72230529785156 962.3145751953125
      vertex 95.91840362548828 -232.61276245117188 966.9310302734375
      vertex 107.50625610351562 -260.58831787109375 966.9310302734375
    endloop
  endfacet
  facet normal 0.9238794994854052 0.38268351209623397 5.37502754284875E-7
    outer loop
      vertex 107.58274841308594 -260.7729797363281 962.0463256835938
      vertex 95.96377563476562 -232.72230529785156 962.3145751953125
      vertex 107.50625610351562 -260.58831787109375 966.9310302734375
    endloop
  endfacet
  facet normal 0.9238795557676965 0.382683376219145 -0.0
    outer loop
      vertex 95.91840362548828 -232.61276245117188 966.9310302734375
      vertex 95.91840362548828 -232.61276245117188 1773.77001953125
      vertex 107.50625610351562 -260.58831787109375 1773.77001953125
    endloop
  endfacet
  facet normal 0.9238795557676965 0.382683376219145 -0.0
    outer loop
      vertex 107.50625610351562 -260.58831787109375 966.9310302734375
      vertex 95.91840362548828 -232.61276245117188 966.9310302734375
      vertex 107.50625610351562 -260.58831787109375 1773.77001953125
    endloop
  endfacet
  facet normal 0.9238796198813093 0.38268322143512107 -7.51764351331294E-8
    outer loop
      vertex 95.91840362548828 -232.61276245117188 1773.77001953125
      vertex 95.99491882324219 -232.7974853515625 1780.1180419921875
      vertex 107.55989837646484 -260.71783447265625 1777.0361328125
    endloop
  endfacet
  facet normal 0.9238795557666775 0.3826833762187229 1.4852698776219508E-6
    outer loop
      vertex 107.50625610351562 -260.58831787109375 1773.77001953125
      vertex 95.91840362548828 -232.61276245117188 1773.77001953125
      vertex 107.55989837646484 -260.71783447265625 1777.0361328125
    endloop
  endfacet
  facet normal 0.9238795373591622 0.38268342066120276 2.4782857711086474E-7
    outer loop
      vertex 95.99491882324219 -232.7974853515625 1780.1180419921875
      vertex 96.22415161132812 -233.3509063720703 1786.44091796875
      vertex 107.72044372558594 -261.10540771484375 1780.2783203125
    endloop
  endfacet
  facet normal 0.9238795419986275 0.38268340945501955 -2.0707877497315773E-6
    outer loop
      vertex 107.55989837646484 -260.71783447265625 1777.0361328125
      vertex 95.99491882324219 -232.7974853515625 1780.1180419921875
      vertex 107.72044372558594 -261.10540771484375 1780.2783203125
    endloop
  endfacet
  facet normal 0.9238795814246892 0.3826833142776334 -1.6484344958393748E-7
    outer loop
      vertex 96.22415161132812 -233.3509063720703 1786.44091796875
      vertex 96.60520935058594 -234.27085876464844 1792.7139892578125
      vertex 108.0505142211914 -261.90228271484375 1784.0855712890625
    endloop
  endfacet
  facet normal 0.9238796266257786 0.38268320515002185 1.3849530251472154E-6
    outer loop
      vertex 107.72044372558594 -261.10540771484375 1780.2783203125
      vertex 96.22415161132812 -233.3509063720703 1786.44091796875
      vertex 108.0505142211914 -261.90228271484375 1784.0855712890625
    endloop
  endfacet
  facet normal 0.9238795450601724 0.38268340206927187 3.111092597275252E-7
    outer loop
      vertex 96.60520935058594 -234.27085876464844 1792.7139892578125
      vertex 97.03797149658203 -235.31564331054688 1797.888671875
      vertex 108.47370910644531 -262.9239501953125 1787.421630859375
    endloop
  endfacet
  facet normal 0.9238794163205875 0.38268371287052955 -1.6602921080113189E-6
    outer loop
      vertex 108.0505142211914 -261.90228271484375 1784.0855712890625
      vertex 96.60520935058594 -234.27085876464844 1792.7139892578125
      vertex 108.47370910644531 -262.9239501953125 1787.421630859375
    endloop
  endfacet
  facet normal 0.9238795263026461 0.38268344735403564 1.7117078020507934E-7
    outer loop
      vertex 108.47370910644531 -262.9239501953125 1787.421630859375
      vertex 97.03797149658203 -235.31564331054688 1797.888671875
      vertex 109.07950592041016 -264.386474609375 1790.99169921875
    endloop
  endfacet
  facet normal 0.9238794775215649 0.38268356512177554 -4.103894737494851E-7
    outer loop
      vertex 97.03797149658203 -235.31564331054688 1797.888671875
      vertex 97.57408905029297 -236.6099395751953 1802.997314453125
      vertex 109.07950592041016 -264.386474609375 1790.99169921875
    endloop
  endfacet
  facet normal 0.9238795050058027 0.38268349876919167 5.354262947092063E-8
    outer loop
      vertex 103.43144989013672 -250.7508544921875 910.6831665039062
      vertex 102.51952362060547 -248.5492706298828 913.9559936523438
      vertex 111.96659088134766 -271.35650634765625 931.4583129882812
    endloop
  endfacet
  facet normal 0.9238795156935301 0.3826834729667426 2.355980631420514E-8
    outer loop
      vertex 112.84864044189453 -273.4859619140625 928.5238647460938
      vertex 103.43144989013672 -250.7508544921875 910.6831665039062
      vertex 111.96659088134766 -271.35650634765625 931.4583129882812
    endloop
  endfacet
  facet normal 0.9238796944244683 0.3826830414716666 -3.8204810385483355E-7
    outer loop
      vertex 102.51952362060547 -248.5492706298828 913.9559936523438
      vertex 101.2299575805664 -245.43597412109375 918.9238891601562
      vertex 111.15625 -269.4001770019531 934.5301513671875
    endloop
  endfacet
  facet normal 0.923879579584178 0.3826833187210399 1.1672594140523813E-7
    outer loop
      vertex 101.2299575805664 -245.43597412109375 918.9238891601562
      vertex 100.18000030517578 -242.90115356445312 923.5774536132812
      vertex 111.15625 -269.4001770019531 934.5301513671875
    endloop
  endfacet
  facet normal 0.92387937394195 0.38268381518473255 5.366061992390752E-7
    outer loop
      vertex 111.96659088134766 -271.35650634765625 931.4583129882812
      vertex 102.51952362060547 -248.5492706298828 913.9559936523438
      vertex 111.15625 -269.4001770019531 934.5301513671875
    endloop
  endfacet
  facet normal 0.9238794598781078 0.3826836077170099 1.711739499249515E-7
    outer loop
      vertex 100.18000030517578 -242.90115356445312 923.5774536132812
      vertex 99.14119720458984 -240.3932647705078 928.9291381835938
      vertex 110.207275390625 -267.109130859375 938.7477416992188
    endloop
  endfacet
  facet normal 0.9238797881295773 0.3826828152451192 -1.310380598688752E-6
    outer loop
      vertex 111.15625 -269.4001770019531 934.5301513671875
      vertex 100.18000030517578 -242.90115356445312 923.5774536132812
      vertex 110.207275390625 -267.109130859375 938.7477416992188
    endloop
  endfacet
  facet normal 0.9238795103304219 0.38268348591377116 7.101086541915431E-7
    outer loop
      vertex 99.14119720458984 -240.3932647705078 928.9291381835938
      vertex 98.24125671386719 -238.2206268310547 934.4488525390625
      vertex 109.3934097290039 -265.1443176269531 943.1527099609375
    endloop
  endfacet
  facet normal 0.9238791760898956 0.3826842928340657 2.355182911067042E-6
    outer loop
      vertex 110.207275390625 -267.109130859375 938.7477416992188
      vertex 99.14119720458984 -240.3932647705078 928.9291381835938
      vertex 109.3934097290039 -265.1443176269531 943.1527099609375
    endloop
  endfacet
  facet normal 0.9238793131116582 0.38268396204192356 4.7573121207659024E-7
    outer loop
      vertex 98.24125671386719 -238.2206268310547 934.4488525390625
      vertex 97.48413848876953 -236.39279174804688 940.1121826171875
      vertex 108.72006225585938 -263.5186767578125 947.7158813476562
    endloop
  endfacet
  facet normal 0.9238798971291359 0.38268255208920393 -2.6740968678837515E-6
    outer loop
      vertex 109.3934097290039 -265.1443176269531 943.1527099609375
      vertex 98.24125671386719 -238.2206268310547 934.4488525390625
      vertex 108.72006225585938 -263.5186767578125 947.7158813476562
    endloop
  endfacet
  facet normal 0.9238796342537009 0.3826831867361934 -8.24395961827972E-7
    outer loop
      vertex 97.48413848876953 -236.39279174804688 940.1121826171875
      vertex 96.87317657470703 -234.91778564453125 945.8939208984375
      vertex 108.19166564941406 -262.2430419921875 952.40673828125
    endloop
  endfacet
  facet normal -0.9659257988260831 -0.2588191475932752 1.1329943768072986E-6
    outer loop
      vertex 65.54891204833984 -243.08639526367188 1779.381103515625
      vertex 73.39738464355469 -272.3772888183594 1777.66796875
      vertex 65.67005920410156 -243.5384979248047 1784.9749755859375
    endloop
  endfacet
  facet normal -0.9659258027847867 -0.25881913282166863 7.04651031443429E-8
    outer loop
      vertex 73.552001953125 -272.9543151855469 1781.5252685546875
      vertex 73.80791473388672 -273.9093933105469 1785.3017578125
      vertex 65.90399169921875 -244.41156005859375 1791.2618408203125
    endloop
  endfacet
  facet normal -0.9659258571055555 -0.2588189300931775 -5.665019224190967E-7
    outer loop
      vertex 65.67005920410156 -243.5384979248047 1784.9749755859375
      vertex 73.552001953125 -272.9543151855469 1781.5252685546875
      vertex 65.90399169921875 -244.41156005859375 1791.2618408203125
    endloop
  endfacet
  facet normal -0.965925995558218 -0.25881841337991524 6.070928700525912E-7
    outer loop
      vertex 70.58976745605469 -261.89910888671875 910.6831665039062
      vertex 76.9588623046875 -285.6689147949219 928.5238647460938
      vertex 76.18603515625 -282.78466796875 932.40234375
    endloop
  endfacet
  facet normal -0.965925771923835 -0.2588192479962225 1.1636014062768515E-7
    outer loop
      vertex 73.80791473388672 -273.9093933105469 1785.3017578125
      vertex 74.07908630371094 -274.9214172363281 1788.1934814453125
      vertex 66.20174407958984 -245.52279663085938 1796.8621826171875
    endloop
  endfacet
  facet normal -0.9659259246437057 -0.2588186780375219 3.343210883223719E-7
    outer loop
      vertex 70.58976745605469 -261.89910888671875 910.6831665039062
      vertex 76.18603515625 -282.78466796875 932.40234375
      vertex 69.97300720214844 -259.5973205566406 913.9559936523438
    endloop
  endfacet
  facet normal -0.9659258285714039 -0.258819036584354 -4.400324340491558E-7
    outer loop
      vertex 65.90399169921875 -244.41156005859375 1791.2618408203125
      vertex 73.80791473388672 -273.9093933105469 1785.3017578125
      vertex 66.20174407958984 -245.52279663085938 1796.8621826171875
    endloop
  endfacet
  facet normal -0.9659260393479274 -0.2588182499473014 -1.9601992924030787E-6
    outer loop
      vertex 74.07908630371094 -274.9214172363281 1788.1934814453125
      vertex 74.40969848632812 -276.1553039550781 1790.99169921875
      vertex 66.6282730102539 -247.1146240234375 1802.997314453125
    endloop
  endfacet
  facet normal -0.9659257830404911 -0.2588192065083516 -3.444167564224301E-8
    outer loop
      vertex 66.20174407958984 -245.52279663085938 1796.8621826171875
      vertex 74.07908630371094 -274.9214172363281 1788.1934814453125
      vertex 66.6282730102539 -247.1146240234375 1802.997314453125
    endloop
  endfacet
  facet normal -0.9659257648777411 -0.2588192742925675 -1.4005203147224315E-7
    outer loop
      vertex 76.18603515625 -282.78466796875 932.40234375
      vertex 75.56271362304688 -280.4584045410156 936.090576171875
      vertex 69.33621978759766 -257.2208251953125 917.5113525390625
    endloop
  endfacet
  facet normal -0.9659255859943288 -0.25881994188941454 -1.3684228578474661E-6
    outer loop
      vertex 69.97300720214844 -259.5973205566406 913.9559936523438
      vertex 76.18603515625 -282.78466796875 932.40234375
      vertex 69.33621978759766 -257.2208251953125 917.5113525390625
    endloop
  endfacet
  facet normal -0.96592570550032 -0.258819495890148 -9.375996437265915E-7
    outer loop
      vertex 75.56271362304688 -280.4584045410156 936.090576171875
      vertex 74.9547119140625 -278.1893310546875 940.3822021484375
      vertex 68.7443618774414 -255.011962890625 921.1802368164062
    endloop
  endfacet
  facet normal -0.965925979951002 -0.25881847162600363 9.35944506097474E-7
    outer loop
      vertex 69.33621978759766 -257.2208251953125 917.5113525390625
      vertex 75.56271362304688 -280.4584045410156 936.090576171875
      vertex 68.7443618774414 -255.011962890625 921.1802368164062
    endloop
  endfacet
  facet normal -0.9659258765418393 -0.258818857556529 -1.1179245515173814E-7
    outer loop
      vertex 68.7443618774414 -255.011962890625 921.1802368164062
      vertex 74.9547119140625 -278.1893310546875 940.3822021484375
      vertex 67.99967193603516 -252.2327423095703 926.4464111328125
    endloop
  endfacet
  facet normal -0.9659259836313846 -0.2588184578866885 1.7025473431039984E-6
    outer loop
      vertex 74.9547119140625 -278.1893310546875 940.3822021484375
      vertex 74.43955993652344 -276.2667236328125 944.8504638671875
      vertex 67.3475112915039 -249.79885864257812 931.8916015625
    endloop
  endfacet
  facet normal -0.9659258120664144 -0.2588190981815044 -5.921550466471101E-7
    outer loop
      vertex 67.99967193603516 -252.2327423095703 926.4464111328125
      vertex 74.9547119140625 -278.1893310546875 940.3822021484375
      vertex 67.3475112915039 -249.79885864257812 931.8916015625
    endloop
  endfacet
  facet normal -0.9659258110803933 -0.2588191018620224 1.431124805309759E-7
    outer loop
      vertex 74.43955993652344 -276.2667236328125 944.8504638671875
      vertex 74.0206527709961 -274.7033386230469 949.4654541015625
      vertex 66.79076385498047 -247.72103881835938 937.4916381835938
    endloop
  endfacet
  facet normal -0.9659258314587726 -0.2588190258085134 4.593136877210778E-7
    outer loop
      vertex 67.3475112915039 -249.79885864257812 931.8916015625
      vertex 74.43955993652344 -276.2667236328125 944.8504638671875
      vertex 66.79076385498047 -247.72103881835938 937.4916381835938
    endloop
  endfacet
  facet normal -0.9659257879364571 -0.2588191882359896 -4.447377571472426E-7
    outer loop
      vertex 74.0206527709961 -274.7033386230469 949.4654541015625
      vertex 73.70075988769531 -273.5094909667969 954.196533203125
      vertex 66.33186340332031 -246.00839233398438 943.2218627929688
    endloop
  endfacet
  facet normal -0.9659258284107105 -0.2588190371842708 2.9932423161373853E-7
    outer loop
      vertex 66.79076385498047 -247.72103881835938 937.4916381835938
      vertex 74.0206527709961 -274.7033386230469 949.4654541015625
      vertex 66.33186340332031 -246.00839233398438 943.2218627929688
    endloop
  endfacet
  facet normal -0.9659257740837283 -0.25881923993509437 -4.126953868236234E-7
    outer loop
      vertex 73.70075988769531 -273.5094909667969 954.196533203125
      vertex 73.48200225830078 -272.6930847167969 959.01220703125
      vertex 65.97282409667969 -244.66845703125 949.0568237304688
    endloop
  endfacet
  facet normal -0.9659257603262955 -0.25881929127780884 -7.214859001854241E-7
    outer loop
      vertex 66.33186340332031 -246.00839233398438 943.2218627929688
      vertex 73.70075988769531 -273.5094909667969 954.196533203125
      vertex 65.97282409667969 -244.66845703125 949.0568237304688
    endloop
  endfacet
  facet normal -0.9659258256188142 -0.258819047603889 1.6759332630346205E-7
    outer loop
      vertex 65.97282409667969 -244.66845703125 949.0568237304688
      vertex 73.48200225830078 -272.6930847167969 959.01220703125
      vertex 65.71524047851562 -243.70713806152344 954.9708251953125
    endloop
  endfacet
  facet normal -0.9659257709281948 -0.2588192517105337 8.78739497710231E-7
    outer loop
      vertex 73.48200225830078 -272.6930847167969 959.01220703125
      vertex 73.37979125976562 -272.3116149902344 962.962890625
      vertex 65.56023406982422 -243.128662109375 960.9376220703125
    endloop
  endfacet
  facet normal -0.9659257962330016 -0.25881915727238136 -6.754543772912397E-7
    outer loop
      vertex 65.71524047851562 -243.70713806152344 954.9708251953125
      vertex 73.48200225830078 -272.6930847167969 959.01220703125
      vertex 65.56023406982422 -243.128662109375 960.9376220703125
    endloop
  endfacet
  facet normal -0.9659258013219097 -0.2588191382801915 -7.249460499785656E-7
    outer loop
      vertex 73.37979125976562 -272.3116149902344 962.962890625
      vertex 73.34566497802734 -272.18426513671875 966.9310302734375
      vertex 65.50849151611328 -242.935546875 966.9310302734375
    endloop
  endfacet
  facet normal -0.9659257628634239 -0.2588192818098014 4.138883329669332E-7
    outer loop
      vertex 65.56023406982422 -243.128662109375 960.9376220703125
      vertex 73.37979125976562 -272.3116149902344 962.962890625
      vertex 65.50849151611328 -242.935546875 966.9310302734375
    endloop
  endfacet
  facet normal -0.9659258013221637 -0.2588191382802595 0.0
    outer loop
      vertex 73.34566497802734 -272.18426513671875 966.9310302734375
      vertex 73.34566497802734 -272.18426513671875 1773.77001953125
      vertex 65.50849151611328 -242.935546875 1773.77001953125
    endloop
  endfacet
  facet normal -0.9659258013221637 -0.2588191382802595 0.0
    outer loop
      vertex 65.50849151611328 -242.935546875 966.9310302734375
      vertex 73.34566497802734 -272.18426513671875 966.9310302734375
      vertex 65.50849151611328 -242.935546875 1773.77001953125
    endloop
  endfacet
  facet normal -0.9659258185824492 -0.2588190738639207 -2.1812873209245048E-7
    outer loop
      vertex 73.34566497802734 -272.18426513671875 1773.77001953125
      vertex 73.39738464355469 -272.3772888183594 1777.66796875
      vertex 65.54891204833984 -243.08639526367188 1779.381103515625
    endloop
  endfacet
  facet normal -0.9659258013221541 -0.25881913828025693 1.3990412415198588E-7
    outer loop
      vertex 65.50849151611328 -242.935546875 1773.77001953125
      vertex 73.34566497802734 -272.18426513671875 1773.77001953125
      vertex 65.54891204833984 -243.08639526367188 1779.381103515625
    endloop
  endfacet
  facet normal -0.9659258145618828 -0.2588190888674577 8.845784035041619E-7
    outer loop
      vertex 73.39738464355469 -272.3772888183594 1777.66796875
      vertex 73.552001953125 -272.9543151855469 1781.5252685546875
      vertex 65.67005920410156 -243.5384979248047 1784.9749755859375
    endloop
  endfacet
  facet normal -0.3214397514046025 0.9469300323767049 0.0
    outer loop
      vertex 95.91840362548828 -232.61276245117188 966.9310302734375
      vertex 65.50849151611328 -242.935546875 966.9310302734375
      vertex 95.91840362548828 -232.61276245117188 1773.77001953125
    endloop
  endfacet
  facet normal -0.3214397514046025 0.9469300323767049 0.0
    outer loop
      vertex 65.50849151611328 -242.935546875 966.9310302734375
      vertex 65.50849151611328 -242.935546875 1773.77001953125
      vertex 95.91840362548828 -232.61276245117188 1773.77001953125
    endloop
  endfacet
  facet normal -0.260049079697151 0.7660795125807877 -0.5877896363093241
    outer loop
      vertex 102.51952362060547 -248.5492706298828 913.9559936523438
      vertex 103.43144989013672 -250.7508544921875 910.6831665039062
      vertex 70.58976745605469 -261.89910888671875 910.6831665039062
    endloop
  endfacet
  facet normal -0.2600485629668356 0.766078618426378 -0.5877910302895202
    outer loop
      vertex 102.51952362060547 -248.5492706298828 913.9559936523438
      vertex 70.58976745605469 -261.89910888671875 910.6831665039062
      vertex 69.97300720214844 -259.5973205566406 913.9559936523438
    endloop
  endfacet
  facet normal 0.18893745641451995 -0.5565915275949156 -0.8090170016589079
    outer loop
      vertex 103.43144989013672 -250.7508544921875 910.6831665039062
      vertex 112.84864044189453 -273.4859619140625 928.5238647460938
      vertex 70.58976745605469 -261.89910888671875 910.6831665039062
    endloop
  endfacet
  facet normal 0.1889375396792146 -0.5565913655900507 -0.8090170936701943
    outer loop
      vertex 112.84864044189453 -273.4859619140625 928.5238647460938
      vertex 76.9588623046875 -285.6689147949219 928.5238647460938
      vertex 70.58976745605469 -261.89910888671875 910.6831665039062
    endloop
  endfacet
  facet normal 0.25299118074608556 -0.7452870774795751 0.6168813780676599
    outer loop
      vertex 76.9588623046875 -285.6689147949219 928.5238647460938
      vertex 112.84864044189453 -273.4859619140625 928.5238647460938
      vertex 111.96659088134766 -271.35650634765625 931.4583129882812
    endloop
  endfacet
  facet normal 0.25582143326817797 -0.7506319382900484 0.609185593640838
    outer loop
      vertex 76.18603515625 -282.78466796875 932.40234375
      vertex 76.9588623046875 -285.6689147949219 928.5238647460938
      vertex 111.96659088134766 -271.35650634765625 931.4583129882812
    endloop
  endfacet
  facet normal 0.2703187808999281 -0.7930555309032984 0.5458852274942639
    outer loop
      vertex 75.56271362304688 -280.4584045410156 936.090576171875
      vertex 76.18603515625 -282.78466796875 932.40234375
      vertex 111.15625 -269.4001770019531 934.5301513671875
    endloop
  endfacet
  facet normal 0.2642107545763455 -0.780407081039245 0.5667075657073968
    outer loop
      vertex 76.18603515625 -282.78466796875 932.40234375
      vertex 111.96659088134766 -271.35650634765625 931.4583129882812
      vertex 111.15625 -269.4001770019531 934.5301513671875
    endloop
  endfacet
  facet normal 0.2833059624342201 -0.8306555041667144 0.4793215674750739
    outer loop
      vertex 74.9547119140625 -278.1893310546875 940.3822021484375
      vertex 75.56271362304688 -280.4584045410156 936.090576171875
      vertex 110.207275390625 -267.109130859375 938.7477416992188
    endloop
  endfacet
  facet normal 0.2760591286632222 -0.8171596402556826 0.5060054148118436
    outer loop
      vertex 75.56271362304688 -280.4584045410156 936.090576171875
      vertex 111.15625 -269.4001770019531 934.5301513671875
      vertex 110.207275390625 -267.109130859375 938.7477416992188
    endloop
  endfacet
  facet normal 0.29494038591979777 -0.8648986067614198 0.40615338084969266
    outer loop
      vertex 74.43955993652344 -276.2667236328125 944.8504638671875
      vertex 74.9547119140625 -278.1893310546875 940.3822021484375
      vertex 109.3934097290039 -265.1443176269531 943.1527099609375
    endloop
  endfacet
  facet normal 0.28838872880155514 -0.8535139191372842 0.4339883995444309
    outer loop
      vertex 74.9547119140625 -278.1893310546875 940.3822021484375
      vertex 110.207275390625 -267.109130859375 938.7477416992188
      vertex 109.3934097290039 -265.1443176269531 943.1527099609375
    endloop
  endfacet
  facet normal 0.3046148651744383 -0.8933740434413223 0.3302916929322642
    outer loop
      vertex 74.0206527709961 -274.7033386230469 949.4654541015625
      vertex 74.43955993652344 -276.2667236328125 944.8504638671875
      vertex 108.72006225585938 -263.5186767578125 947.7158813476562
    endloop
  endfacet
  facet normal 0.2987911183767652 -0.8841850562421206 0.3590830738106153
    outer loop
      vertex 74.43955993652344 -276.2667236328125 944.8504638671875
      vertex 109.3934097290039 -265.1443176269531 943.1527099609375
      vertex 108.72006225585938 -263.5186767578125 947.7158813476562
    endloop
  endfacet
  facet normal 0.312266577274327 -0.9158974508436392 0.2522329166772259
    outer loop
      vertex 73.70075988769531 -273.5094909667969 954.196533203125
      vertex 74.0206527709961 -274.7033386230469 949.4654541015625
      vertex 108.19166564941406 -262.2430419921875 952.40673828125
    endloop
  endfacet
  facet normal 0.30719616505501174 -0.9089693015092841 0.28178950493092886
    outer loop
      vertex 74.0206527709961 -274.7033386230469 949.4654541015625
      vertex 108.72006225585938 -263.5186767578125 947.7158813476562
      vertex 108.19166564941406 -262.2430419921875 952.40673828125
    endloop
  endfacet
  facet normal 0.3178458258126991 -0.9323193129779065 0.1724955931664565
    outer loop
      vertex 73.48200225830078 -272.6930847167969 959.01220703125
      vertex 73.70075988769531 -273.5094909667969 954.196533203125
      vertex 107.81172180175781 -261.3257751464844 957.1942138671875
    endloop
  endfacet
  facet normal 0.3135481558446051 -0.9277010048190115 0.2026287235913101
    outer loop
      vertex 73.70075988769531 -273.5094909667969 954.196533203125
      vertex 108.19166564941406 -262.2430419921875 952.40673828125
      vertex 107.81172180175781 -261.3257751464844 957.1942138671875
    endloop
  endfacet
  facet normal 0.3204662733685954 -0.9420457599124411 0.09925297912020518
    outer loop
      vertex 73.37979125976562 -272.3116149902344 962.962890625
      vertex 73.48200225830078 -272.6930847167969 959.01220703125
      vertex 107.58274841308594 -260.7729797363281 962.0463256835938
    endloop
  endfacet
  facet normal 0.317806836786088 -0.9402582240777585 0.12211996784375848
    outer loop
      vertex 73.48200225830078 -272.6930847167969 959.01220703125
      vertex 107.81172180175781 -261.3257751464844 957.1942138671875
      vertex 107.58274841308594 -260.7729797363281 962.0463256835938
    endloop
  endfacet
  facet normal 0.3212626760929698 -0.9464102130254569 0.033136107657552184
    outer loop
      vertex 73.34566497802734 -272.18426513671875 966.9310302734375
      vertex 73.37979125976562 -272.3116149902344 962.962890625
      vertex 107.50625610351562 -260.58831787109375 966.9310302734375
    endloop
  endfacet
  facet normal 0.32037294086651064 -0.9464126648545318 0.04079517818918095
    outer loop
      vertex 73.37979125976562 -272.3116149902344 962.962890625
      vertex 107.58274841308594 -260.7729797363281 962.0463256835938
      vertex 107.50625610351562 -260.58831787109375 966.9310302734375
    endloop
  endfacet
  facet normal 0.32143919494088047 -0.9469302212706904 0.0
    outer loop
      vertex 107.50625610351562 -260.58831787109375 966.9310302734375
      vertex 107.50625610351562 -260.58831787109375 1773.77001953125
      vertex 73.34566497802734 -272.18426513671875 966.9310302734375
    endloop
  endfacet
  facet normal 0.32143919494088047 -0.9469302212706904 0.0
    outer loop
      vertex 107.50625610351562 -260.58831787109375 1773.77001953125
      vertex 73.34566497802734 -272.18426513671875 1773.77001953125
      vertex 73.34566497802734 -272.18426513671875 966.9310302734375
    endloop
  endfacet
  facet normal 0.32114478170902944 -0.94606290704402 -0.042790245342576125
    outer loop
      vertex 73.34566497802734 -272.18426513671875 1773.77001953125
      vertex 107.50625610351562 -260.58831787109375 1773.77001953125
      vertex 107.55989837646484 -260.71783447265625 1777.0361328125
    endloop
  endfacet
  facet normal 0.32173191563585957 -0.9454515831173109 -0.05108696939778956
    outer loop
      vertex 73.39738464355469 -272.3772888183594 1777.66796875
      vertex 73.34566497802734 -272.18426513671875 1773.77001953125
      vertex 107.55989837646484 -260.71783447265625 1777.0361328125
    endloop
  endfacet
  facet normal 0.3188156279652404 -0.9354330590820824 -0.15271407054186767
    outer loop
      vertex 73.552001953125 -272.9543151855469 1781.5252685546875
      vertex 73.39738464355469 -272.3772888183594 1777.66796875
      vertex 107.72044372558594 -261.10540771484375 1780.2783203125
    endloop
  endfacet
  facet normal 0.3182192992786221 -0.9393299771003775 -0.12804558441128394
    outer loop
      vertex 73.39738464355469 -272.3772888183594 1777.66796875
      vertex 107.55989837646484 -260.71783447265625 1777.0361328125
      vertex 107.72044372558594 -261.10540771484375 1780.2783203125
    endloop
  endfacet
  facet normal 0.31214462089807454 -0.915794330182008 -0.25275775052584404
    outer loop
      vertex 73.80791473388672 -273.9093933105469 1785.3017578125
      vertex 73.552001953125 -272.9543151855469 1781.5252685546875
      vertex 108.0505142211914 -261.90228271484375 1784.0855712890625
    endloop
  endfacet
  facet normal 0.3123830155200679 -0.9240152693120424 -0.22048272878568745
    outer loop
      vertex 73.552001953125 -272.9543151855469 1781.5252685546875
      vertex 107.72044372558594 -261.10540771484375 1780.2783203125
      vertex 108.0505142211914 -261.90228271484375 1784.0855712890625
    endloop
  endfacet
  facet normal 0.3029249441443909 -0.8903054352597303 -0.33998927948113256
    outer loop
      vertex 74.07908630371094 -274.9214172363281 1788.1934814453125
      vertex 73.80791473388672 -273.9093933105469 1785.3017578125
      vertex 108.47370910644531 -262.9239501953125 1787.421630859375
    endloop
  endfacet
  facet normal 0.3042065231710673 -0.8993610841206187 -0.31401915806134556
    outer loop
      vertex 73.80791473388672 -273.9093933105469 1785.3017578125
      vertex 108.0505142211914 -261.90228271484375 1784.0855712890625
      vertex 108.47370910644531 -262.9239501953125 1787.421630859375
    endloop
  endfacet
  facet normal 0.2925193074424329 -0.8617329525202899 -0.4145464670143302
    outer loop
      vertex 74.40969848632812 -276.1553039550781 1790.99169921875
      vertex 74.07908630371094 -274.9214172363281 1788.1934814453125
      vertex 109.07950592041016 -264.386474609375 1790.99169921875
    endloop
  endfacet
  facet normal 0.29308528438130327 -0.8662538845027884 -0.40460502179651736
    outer loop
      vertex 74.07908630371094 -274.9214172363281 1788.1934814453125
      vertex 108.47370910644531 -262.9239501953125 1787.421630859375
      vertex 109.07950592041016 -264.386474609375 1790.99169921875
    endloop
  endfacet
  facet normal 0.11942539651542967 -0.351815408168914 0.9284198905894212
    outer loop
      vertex 109.07950592041016 -264.386474609375 1790.99169921875
      vertex 97.57408905029297 -236.6099395751953 1802.997314453125
      vertex 74.40969848632812 -276.1553039550781 1790.99169921875
    endloop
  endfacet
  facet normal 0.11942514436723588 -0.35181528453831984 0.9284199698725173
    outer loop
      vertex 97.57408905029297 -236.6099395751953 1802.997314453125
      vertex 66.6282730102539 -247.1146240234375 1802.997314453125
      vertex 74.40969848632812 -276.1553039550781 1790.99169921875
    endloop
  endfacet
  facet normal -0.26450544194760595 0.7792081648969638 -0.5682178340548703
    outer loop
      vertex 102.51952362060547 -248.5492706298828 913.9559936523438
      vertex 69.97300720214844 -259.5973205566406 913.9559936523438
      vertex 69.33621978759766 -257.2208251953125 917.5113525390625
    endloop
  endfacet
  facet normal -0.27364404796057895 0.8038724225502833 -0.5281174710979436
    outer loop
      vertex 101.2299575805664 -245.43597412109375 918.9238891601562
      vertex 69.33621978759766 -257.2208251953125 917.5113525390625
      vertex 68.7443618774414 -255.011962890625 921.1802368164062
    endloop
  endfacet
  facet normal -0.26508336680607614 0.7845853582234266 -0.560496765650055
    outer loop
      vertex 101.2299575805664 -245.43597412109375 918.9238891601562
      vertex 102.51952362060547 -248.5492706298828 913.9559936523438
      vertex 69.33621978759766 -257.2208251953125 917.5113525390625
    endloop
  endfacet
  facet normal -0.2836263524087555 0.8309412168107079 -0.478636382261571
    outer loop
      vertex 100.18000030517578 -242.90115356445312 923.5774536132812
      vertex 68.7443618774414 -255.011962890625 921.1802368164062
      vertex 67.99967193603516 -252.2327423095703 926.4464111328125
    endloop
  endfacet
  facet normal -0.2759213181818349 0.8165639553991451 -0.5070411550512461
    outer loop
      vertex 100.18000030517578 -242.90115356445312 923.5774536132812
      vertex 101.2299575805664 -245.43597412109375 918.9238891601562
      vertex 68.7443618774414 -255.011962890625 921.1802368164062
    endloop
  endfacet
  facet normal -0.2932488579978572 0.8592384135202249 -0.41918308173660784
    outer loop
      vertex 99.14119720458984 -240.3932647705078 928.9291381835938
      vertex 67.99967193603516 -252.2327423095703 926.4464111328125
      vertex 67.3475112915039 -249.79885864257812 931.8916015625
    endloop
  endfacet
  facet normal -0.28539568766170587 0.8453698368954543 -0.45155192429160906
    outer loop
      vertex 99.14119720458984 -240.3932647705078 928.9291381835938
      vertex 100.18000030517578 -242.90115356445312 923.5774536132812
      vertex 67.99967193603516 -252.2327423095703 926.4464111328125
    endloop
  endfacet
  facet normal -0.3015763683079887 0.8837279578669591 -0.35787789895781286
    outer loop
      vertex 98.24125671386719 -238.2206268310547 934.4488525390625
      vertex 67.3475112915039 -249.79885864257812 931.8916015625
      vertex 66.79076385498047 -247.72103881835938 937.4916381835938
    endloop
  endfacet
  facet normal -0.2944006077557735 0.8719427828100271 -0.3912084682858197
    outer loop
      vertex 98.24125671386719 -238.2206268310547 934.4488525390625
      vertex 99.14119720458984 -240.3932647705078 928.9291381835938
      vertex 67.3475112915039 -249.79885864257812 931.8916015625
    endloop
  endfacet
  facet normal -0.30857266274157524 0.9043031275163789 -0.29498943264576466
    outer loop
      vertex 97.48413848876953 -236.39279174804688 940.1121826171875
      vertex 66.79076385498047 -247.72103881835938 937.4916381835938
      vertex 66.33186340332031 -246.00839233398438 943.2218627929688
    endloop
  endfacet
  facet normal -0.3020963763585581 0.8946549298812176 -0.3291357407366478
    outer loop
      vertex 97.48413848876953 -236.39279174804688 940.1121826171875
      vertex 98.24125671386719 -238.2206268310547 934.4488525390625
      vertex 66.79076385498047 -247.72103881835938 937.4916381835938
    endloop
  endfacet
  facet normal -0.31420738214811555 0.9208714016027167 -0.23080204226539258
    outer loop
      vertex 96.87317657470703 -234.91778564453125 945.8939208984375
      vertex 66.33186340332031 -246.00839233398438 943.2218627929688
      vertex 65.97282409667969 -244.66845703125 949.0568237304688
    endloop
  endfacet
  facet normal -0.3084496856571819 0.9134037853036379 -0.26561686017828684
    outer loop
      vertex 96.87317657470703 -234.91778564453125 945.8939208984375
      vertex 97.48413848876953 -236.39279174804688 940.1121826171875
      vertex 66.33186340332031 -246.00839233398438 943.2218627929688
    endloop
  endfacet
  facet normal -0.31845533136536097 0.9333631478129241 -0.1655881524437295
    outer loop
      vertex 96.41104125976562 -233.80209350585938 951.7686767578125
      vertex 65.97282409667969 -244.66845703125 949.0568237304688
      vertex 65.71524047851562 -243.70713806152344 954.9708251953125
    endloop
  endfacet
  facet normal -0.31343319519427454 0.9281121441455805 -0.20091659971192274
    outer loop
      vertex 96.41104125976562 -233.80209350585938 951.7686767578125
      vertex 96.87317657470703 -234.91778564453125 945.8939208984375
      vertex 65.97282409667969 -244.66845703125 949.0568237304688
    endloop
  endfacet
  facet normal -0.3212976969341336 0.9417210345701527 -0.09964578763270882
    outer loop
      vertex 96.09976959228516 -233.05062866210938 957.7103271484375
      vertex 65.71524047851562 -243.70713806152344 954.9708251953125
      vertex 65.56023406982422 -243.128662109375 960.9376220703125
    endloop
  endfacet
  facet normal -0.3170250136437992 0.9387122198415484 -0.1353311089302894
    outer loop
      vertex 96.09976959228516 -233.05062866210938 957.7103271484375
      vertex 96.41104125976562 -233.80209350585938 951.7686767578125
      vertex 65.71524047851562 -243.70713806152344 954.9708251953125
    endloop
  endfacet
  facet normal -0.3223028772763225 0.9460519334388077 -0.033265515719697235
    outer loop
      vertex 95.96377563476562 -232.72230529785156 962.3145751953125
      vertex 65.56023406982422 -243.128662109375 960.9376220703125
      vertex 65.50849151611328 -242.935546875 966.9310302734375
    endloop
  endfacet
  facet normal -0.31976018699882164 0.9443818734986567 -0.07678736756554427
    outer loop
      vertex 95.96377563476562 -232.72230529785156 962.3145751953125
      vertex 96.09976959228516 -233.05062866210938 957.7103271484375
      vertex 65.56023406982422 -243.128662109375 960.9376220703125
    endloop
  endfacet
  facet normal -0.3213342376368395 0.946619199148744 -0.02562029518450862
    outer loop
      vertex 95.91840362548828 -232.61276245117188 966.9310302734375
      vertex 95.96377563476562 -232.72230529785156 962.3145751953125
      vertex 65.50849151611328 -242.935546875 966.9310302734375
    endloop
  endfacet
  facet normal -0.3213158550716279 0.9465650459116448 0.02776211695592194
    outer loop
      vertex 95.91840362548828 -232.61276245117188 1773.77001953125
      vertex 65.50849151611328 -242.935546875 1773.77001953125
      vertex 65.54891204833984 -243.08639526367188 1779.381103515625
    endloop
  endfacet
  facet normal -0.3208492784630507 0.943468793580791 0.08320081759782501
    outer loop
      vertex 95.99491882324219 -232.7974853515625 1780.1180419921875
      vertex 65.54891204833984 -243.08639526367188 1779.381103515625
      vertex 65.67005920410156 -243.5384979248047 1784.9749755859375
    endloop
  endfacet
  facet normal -0.3206767789893683 0.9466676568112734 0.03141259245043426
    outer loop
      vertex 95.99491882324219 -232.7974853515625 1780.1180419921875
      vertex 95.91840362548828 -232.61276245117188 1773.77001953125
      vertex 65.54891204833984 -243.08639526367188 1779.381103515625
    endloop
  endfacet
  facet normal -0.3192280196123059 0.9369792903486048 0.1419974681190837
    outer loop
      vertex 96.22415161132812 -233.3509063720703 1786.44091796875
      vertex 65.67005920410156 -243.5384979248047 1784.9749755859375
      vertex 65.90399169921875 -244.41156005859375 1791.2618408203125
    endloop
  endfacet
  facet normal -0.31896537543260933 0.9430824997192183 0.09410891561634945
    outer loop
      vertex 96.22415161132812 -233.3509063720703 1786.44091796875
      vertex 95.99491882324219 -232.7974853515625 1780.1180419921875
      vertex 65.67005920410156 -243.5384979248047 1784.9749755859375
    endloop
  endfacet
  facet normal -0.3157992768532678 0.9273361019149026 0.20079484760378322
    outer loop
      vertex 96.60520935058594 -234.27085876464844 1792.7139892578125
      vertex 65.90399169921875 -244.41156005859375 1791.2618408203125
      vertex 66.20174407958984 -245.52279663085938 1796.8621826171875
    endloop
  endfacet
  facet normal -0.31643900440841594 0.9356255740617837 0.156432546647328
    outer loop
      vertex 96.60520935058594 -234.27085876464844 1792.7139892578125
      vertex 96.22415161132812 -233.3509063720703 1786.44091796875
      vertex 65.90399169921875 -244.41156005859375 1791.2618408203125
    endloop
  endfacet
  facet normal -0.31128628912712464 0.9143735946824141 0.2588856418363609
    outer loop
      vertex 97.03797149658203 -235.31564331054688 1797.888671875
      vertex 66.20174407958984 -245.52279663085938 1796.8621826171875
      vertex 66.6282730102539 -247.1146240234375 1802.997314453125
    endloop
  endfacet
  facet normal -0.31341319039149707 0.9254081658733941 0.21305374585644835
    outer loop
      vertex 97.03797149658203 -235.31564331054688 1797.888671875
      vertex 96.60520935058594 -234.27085876464844 1792.7139892578125
      vertex 66.20174407958984 -245.52279663085938 1796.8621826171875
    endloop
  endfacet
  facet normal -0.3100409677102011 0.9133516383960563 0.26393821811280344
    outer loop
      vertex 97.57408905029297 -236.6099395751953 1802.997314453125
      vertex 97.03797149658203 -235.31564331054688 1797.888671875
      vertex 66.6282730102539 -247.1146240234375 1802.997314453125
    endloop
  endfacet
endsolid v3d.csg
