solid v3d.csg
  facet normal 0.9914448896649233 0.13052597732736257 -2.1185624499302715E-7
    outer loop
      vertex 36.81185531616211 -282.6783447265625 947.7158813476562
      vertex 32.979496002197266 -253.5686492919922 940.1121826171875
      vertex 36.631629943847656 -281.30938720703125 952.40673828125
    endloop
  endfacet
  facet normal 0.9914448476264681 0.1305262966410225 3.305678206507889E-7
    outer loop
      vertex 32.7711067199707 -251.98577880859375 945.8939208984375
      vertex 32.61347961425781 -250.7884979248047 951.7686767578125
      vertex 36.50204086303711 -280.3250427246094 957.1942138671875
    endloop
  endfacet
  facet normal 0.9914448606174848 0.1305261979647362 -2.1593529143500354E-7
    outer loop
      vertex 32.61347961425781 -250.7884979248047 951.7686767578125
      vertex 32.5073127746582 -249.98207092285156 957.7103271484375
      vertex 36.50204086303711 -280.3250427246094 957.1942138671875
    endloop
  endfacet
  facet normal 0.9914448874340406 0.13052599427205427 -4.408664638736168E-7
    outer loop
      vertex 36.631629943847656 -281.30938720703125 952.40673828125
      vertex 32.7711067199707 -251.98577880859375 945.8939208984375
      vertex 36.50204086303711 -280.3250427246094 957.1942138671875
    endloop
  endfacet
  facet normal 0.991444851505892 0.13052626717430788 3.41788269800982E-8
    outer loop
      vertex 32.5073127746582 -249.98207092285156 957.7103271484375
      vertex 32.4609260559082 -249.62973022460938 962.3145751953125
      vertex 36.42394256591797 -279.7318115234375 962.0463256835938
    endloop
  endfacet
  facet normal 0.9914448601582033 0.13052620145281302 -4.2455871837959855E-7
    outer loop
      vertex 36.50204086303711 -280.3250427246094 957.1942138671875
      vertex 32.5073127746582 -249.98207092285156 957.7103271484375
      vertex 36.42394256591797 -279.7318115234375 962.0463256835938
    endloop
  endfacet
  facet normal 0.9914448664289468 0.1305261538217659 4.296660535212869E-7
    outer loop
      vertex 32.4609260559082 -249.62973022460938 962.3145751953125
      vertex 32.44544982910156 -249.51219177246094 966.9310302734375
      vertex 36.397850036621094 -279.5336608886719 966.9310302734375
    endloop
  endfacet
  facet normal 0.9914448527508899 0.1305262577128631 1.114304284530886E-6
    outer loop
      vertex 36.42394256591797 -279.7318115234375 962.0463256835938
      vertex 32.4609260559082 -249.62973022460938 962.3145751953125
      vertex 36.397850036621094 -279.5336608886719 966.9310302734375
    endloop
  endfacet
  facet normal 0.9914448664290382 0.13052615382177793 -0.0
    outer loop
      vertex 32.44544982910156 -249.51219177246094 966.9310302734375
      vertex 32.44544982910156 -249.51219177246094 1773.77001953125
      vertex 36.397850036621094 -279.5336608886719 1773.77001953125
    endloop
  endfacet
  facet normal 0.9914448664290382 0.13052615382177793 -0.0
    outer loop
      vertex 36.397850036621094 -279.5336608886719 966.9310302734375
      vertex 32.44544982910156 -249.51219177246094 966.9310302734375
      vertex 36.397850036621094 -279.5336608886719 1773.77001953125
    endloop
  endfacet
  facet normal 0.9914448628461332 0.13052618103575658 -4.827126867610999E-7
    outer loop
      vertex 32.44544982910156 -249.51219177246094 1773.77001953125
      vertex 32.47154998779297 -249.71041870117188 1780.1180419921875
      vertex 36.4161491394043 -279.6726379394531 1777.0361328125
    endloop
  endfacet
  facet normal 0.991444866428768 0.13052615382174235 -7.383720299679537E-7
    outer loop
      vertex 36.397850036621094 -279.5336608886719 1773.77001953125
      vertex 32.44544982910156 -249.51219177246094 1773.77001953125
      vertex 36.4161491394043 -279.6726379394531 1777.0361328125
    endloop
  endfacet
  facet normal 0.9914448744926739 0.1305260925723118 1.0259307123588915E-7
    outer loop
      vertex 32.47154998779297 -249.71041870117188 1780.1180419921875
      vertex 32.54973602294922 -250.30430603027344 1786.44091796875
      vertex 36.47090530395508 -280.08856201171875 1780.2783203125
    endloop
  endfacet
  facet normal 0.9914448743044976 0.13052609400114565 3.781007226029184E-7
    outer loop
      vertex 36.4161491394043 -279.6726379394531 1777.0361328125
      vertex 32.47154998779297 -249.71041870117188 1780.1180419921875
      vertex 36.47090530395508 -280.08856201171875 1780.2783203125
    endloop
  endfacet
  facet normal 0.9914448607540023 0.13052619692793413 8.501905322098969E-8
    outer loop
      vertex 32.54973602294922 -250.30430603027344 1786.44091796875
      vertex 32.67970657348633 -251.29153442382812 1792.7139892578125
      vertex 36.58348846435547 -280.9436950683594 1784.0855712890625
    endloop
  endfacet
  facet normal 0.9914448529099908 0.13052625650723185 -7.034483505902435E-7
    outer loop
      vertex 36.47090530395508 -280.08856201171875 1780.2783203125
      vertex 32.54973602294922 -250.30430603027344 1786.44091796875
      vertex 36.58348846435547 -280.9436950683594 1784.0855712890625
    endloop
  endfacet
  facet normal 0.991444870168175 0.13052612542008046 -1.7882052584710323E-7
    outer loop
      vertex 32.67970657348633 -251.29153442382812 1792.7139892578125
      vertex 32.82731628417969 -252.41273498535156 1797.888671875
      vertex 36.72782897949219 -282.04010009765625 1787.421630859375
    endloop
  endfacet
  facet normal 0.9914448981844368 0.13052591261082014 1.0790294293213756E-6
    outer loop
      vertex 36.58348846435547 -280.9436950683594 1784.0855712890625
      vertex 32.67970657348633 -251.29153442382812 1792.7139892578125
      vertex 36.72782897949219 -282.04010009765625 1787.421630859375
    endloop
  endfacet
  facet normal 0.9914448362516144 0.13052638303868694 -9.206588808596992E-7
    outer loop
      vertex 36.72782897949219 -282.04010009765625 1787.421630859375
      vertex 32.82731628417969 -252.41273498535156 1797.888671875
      vertex 36.9344596862793 -283.6095886230469 1790.99169921875
    endloop
  endfacet
  facet normal 0.9914448665383281 0.13052615299156597 1.379415519578471E-7
    outer loop
      vertex 32.82731628417969 -252.41273498535156 1797.888671875
      vertex 33.01017379760742 -253.8016815185547 1802.997314453125
      vertex 36.9344596862793 -283.6095886230469 1790.99169921875
    endloop
  endfacet
  facet normal 0.9914448783353694 0.1305260633841433 -5.705126948051994E-8
    outer loop
      vertex 35.00801086425781 -268.97674560546875 910.6831665039062
      vertex 34.69697189331055 -266.6141662597656 913.9559936523438
      vertex 37.919189453125 -291.08935546875 931.4583129882812
    endloop
  endfacet
  facet normal 0.9914448821284024 0.13052603457314776 -8.824857059276532E-8
    outer loop
      vertex 38.22003936767578 -293.3745422363281 928.5238647460938
      vertex 35.00801086425781 -268.97674560546875 910.6831665039062
      vertex 37.919189453125 -291.08935546875 931.4583129882812
    endloop
  endfacet
  facet normal 0.991444830749264 0.13052642483596022 3.2517029956325443E-7
    outer loop
      vertex 34.69697189331055 -266.6141662597656 913.9559936523438
      vertex 34.25712203979492 -263.273193359375 918.9238891601562
      vertex 37.64279556274414 -288.98992919921875 934.5301513671875
    endloop
  endfacet
  facet normal 0.9914448960713328 0.13052592866494914 -5.066149062575221E-7
    outer loop
      vertex 34.25712203979492 -263.273193359375 918.9238891601562
      vertex 33.89900207519531 -260.552978515625 923.5774536132812
      vertex 37.64279556274414 -288.98992919921875 934.5301513671875
    endloop
  endfacet
  facet normal 0.991444885702272 0.13052600742683543 -1.366580594944597E-7
    outer loop
      vertex 37.919189453125 -291.08935546875 931.4583129882812
      vertex 34.69697189331055 -266.6141662597656 913.9559936523438
      vertex 37.64279556274414 -288.98992919921875 934.5301513671875
    endloop
  endfacet
  facet normal 0.9914448502611175 0.13052627662867433 4.065225166391991E-7
    outer loop
      vertex 33.89900207519531 -260.552978515625 923.5774536132812
      vertex 33.54468536376953 -257.8616943359375 928.9291381835938
      vertex 37.31911849975586 -286.5313720703125 938.7477416992188
    endloop
  endfacet
  facet normal 0.9914448511328519 0.13052627000723355 3.9498708456955673E-7
    outer loop
      vertex 37.64279556274414 -288.98992919921875 934.5301513671875
      vertex 33.89900207519531 -260.552978515625 923.5774536132812
      vertex 37.31911849975586 -286.5313720703125 938.7477416992188
    endloop
  endfacet
  facet normal 0.9914448461859113 0.13052630758318592 3.0678358947921746E-7
    outer loop
      vertex 33.54468536376953 -257.8616943359375 928.9291381835938
      vertex 33.23773193359375 -255.53016662597656 934.4488525390625
      vertex 37.041526794433594 -284.4228515625 943.1527099609375
    endloop
  endfacet
  facet normal 0.9914448697544977 0.13052612856239193 -3.331488515727662E-8
    outer loop
      vertex 37.31911849975586 -286.5313720703125 938.7477416992188
      vertex 33.54468536376953 -257.8616943359375 928.9291381835938
      vertex 37.041526794433594 -284.4228515625 943.1527099609375
    endloop
  endfacet
  facet normal 0.9914448955365385 0.1305259327275379 -3.8555979357378225E-7
    outer loop
      vertex 33.23773193359375 -255.53016662597656 934.4488525390625
      vertex 32.979496002197266 -253.5686492919922 940.1121826171875
      vertex 36.81185531616211 -282.6783447265625 947.7158813476562
    endloop
  endfacet
  facet normal 0.9914448372401513 0.13052637553215965 5.362515171277376E-7
    outer loop
      vertex 37.041526794433594 -284.4228515625 943.1527099609375
      vertex 33.23773193359375 -255.53016662597656 934.4488525390625
      vertex 36.81185531616211 -282.6783447265625 947.7158813476562
    endloop
  endfacet
  facet normal 0.9914448719987097 0.13052611151586846 9.616688773116598E-8
    outer loop
      vertex 32.979496002197266 -253.5686492919922 940.1121826171875
      vertex 32.7711067199707 -251.98577880859375 945.8939208984375
      vertex 36.631629943847656 -281.30938720703125 952.40673828125
    endloop
  endfacet
  facet normal -1.0 -0.0 0.0
    outer loop
      vertex 0.4000000059604645 -251.76873779296875 1779.381103515625
      vertex 0.4000000059604645 -282.0928955078125 1777.66796875
      vertex 0.4000000059604645 -252.23678588867188 1784.9749755859375
    endloop
  endfacet
  facet normal -1.0 0.0 0.0
    outer loop
      vertex 0.4000000059604645 -282.6902770996094 1781.5252685546875
      vertex 0.4000000059604645 -283.6790771484375 1785.3017578125
      vertex 0.4000000059604645 -253.14064025878906 1791.2618408203125
    endloop
  endfacet
  facet normal -1.0 -0.0 0.0
    outer loop
      vertex 0.4000000059604645 -252.23678588867188 1784.9749755859375
      vertex 0.4000000059604645 -282.6902770996094 1781.5252685546875
      vertex 0.4000000059604645 -253.14064025878906 1791.2618408203125
    endloop
  endfacet
  facet normal -1.0 0.0 0.0
    outer loop
      vertex 0.4000000059604645 -271.2450866699219 910.6831665039062
      vertex 0.4000000059604645 -295.8533935546875 928.5238647460938
      vertex 0.4000000059604645 -292.867431640625 932.40234375
    endloop
  endfacet
  facet normal -1.0 0.0 0.0
    outer loop
      vertex 0.4000000059604645 -283.6790771484375 1785.3017578125
      vertex 0.4000000059604645 -284.7267761230469 1788.1934814453125
      vertex 0.4000000059604645 -254.29107666015625 1796.8621826171875
    endloop
  endfacet
  facet normal -1.0 0.0 0.0
    outer loop
      vertex 0.4000000059604645 -271.2450866699219 910.6831665039062
      vertex 0.4000000059604645 -292.867431640625 932.40234375
      vertex 0.4000000059604645 -268.86212158203125 913.9559936523438
    endloop
  endfacet
  facet normal -1.0 -0.0 0.0
    outer loop
      vertex 0.4000000059604645 -253.14064025878906 1791.2618408203125
      vertex 0.4000000059604645 -283.6790771484375 1785.3017578125
      vertex 0.4000000059604645 -254.29107666015625 1796.8621826171875
    endloop
  endfacet
  facet normal -1.0 0.0 0.0
    outer loop
      vertex 0.4000000059604645 -284.7267761230469 1788.1934814453125
      vertex 0.4000000059604645 -286.0041809082031 1790.99169921875
      vertex 0.4000000059604645 -255.93905639648438 1802.997314453125
    endloop
  endfacet
  facet normal -1.0 -0.0 0.0
    outer loop
      vertex 0.4000000059604645 -254.29107666015625 1796.8621826171875
      vertex 0.4000000059604645 -284.7267761230469 1788.1934814453125
      vertex 0.4000000059604645 -255.93905639648438 1802.997314453125
    endloop
  endfacet
  facet normal -1.0 0.0 0.0
    outer loop
      vertex 0.4000000059604645 -292.867431640625 932.40234375
      vertex 0.4000000059604645 -290.4591064453125 936.090576171875
      vertex 0.4000000059604645 -266.4017639160156 917.5113525390625
    endloop
  endfacet
  facet normal -1.0 0.0 0.0
    outer loop
      vertex 0.4000000059604645 -268.86212158203125 913.9559936523438
      vertex 0.4000000059604645 -292.867431640625 932.40234375
      vertex 0.4000000059604645 -266.4017639160156 917.5113525390625
    endloop
  endfacet
  facet normal -1.0 0.0 0.0
    outer loop
      vertex 0.4000000059604645 -290.4591064453125 936.090576171875
      vertex 0.4000000059604645 -288.1099548339844 940.3822021484375
      vertex 0.4000000059604645 -264.114990234375 921.1802368164062
    endloop
  endfacet
  facet normal -1.0 0.0 0.0
    outer loop
      vertex 0.4000000059604645 -266.4017639160156 917.5113525390625
      vertex 0.4000000059604645 -290.4591064453125 936.090576171875
      vertex 0.4000000059604645 -264.114990234375 921.1802368164062
    endloop
  endfacet
  facet normal -1.0 0.0 0.0
    outer loop
      vertex 0.4000000059604645 -264.114990234375 921.1802368164062
      vertex 0.4000000059604645 -288.1099548339844 940.3822021484375
      vertex 0.4000000059604645 -261.23773193359375 926.4464111328125
    endloop
  endfacet
  facet normal -1.0 0.0 0.0
    outer loop
      vertex 0.4000000059604645 -288.1099548339844 940.3822021484375
      vertex 0.4000000059604645 -286.1195373535156 944.8504638671875
      vertex 0.4000000059604645 -258.7179870605469 931.8916015625
    endloop
  endfacet
  facet normal -1.0 0.0 0.0
    outer loop
      vertex 0.4000000059604645 -261.23773193359375 926.4464111328125
      vertex 0.4000000059604645 -288.1099548339844 940.3822021484375
      vertex 0.4000000059604645 -258.7179870605469 931.8916015625
    endloop
  endfacet
  facet normal -1.0 0.0 0.0
    outer loop
      vertex 0.4000000059604645 -286.1195373535156 944.8504638671875
      vertex 0.4000000059604645 -284.5010070800781 949.4654541015625
      vertex 0.4000000059604645 -256.5668640136719 937.4916381835938
    endloop
  endfacet
  facet normal -1.0 0.0 0.0
    outer loop
      vertex 0.4000000059604645 -258.7179870605469 931.8916015625
      vertex 0.4000000059604645 -286.1195373535156 944.8504638671875
      vertex 0.4000000059604645 -256.5668640136719 937.4916381835938
    endloop
  endfacet
  facet normal -1.0 0.0 0.0
    outer loop
      vertex 0.4000000059604645 -284.5010070800781 949.4654541015625
      vertex 0.4000000059604645 -283.2650451660156 954.196533203125
      vertex 0.4000000059604645 -254.79380798339844 943.2218627929688
    endloop
  endfacet
  facet normal -1.0 0.0 0.0
    outer loop
      vertex 0.4000000059604645 -256.5668640136719 937.4916381835938
      vertex 0.4000000059604645 -284.5010070800781 949.4654541015625
      vertex 0.4000000059604645 -254.79380798339844 943.2218627929688
    endloop
  endfacet
  facet normal -1.0 0.0 0.0
    outer loop
      vertex 0.4000000059604645 -283.2650451660156 954.196533203125
      vertex 0.4000000059604645 -282.41986083984375 959.01220703125
      vertex 0.4000000059604645 -253.4066162109375 949.0568237304688
    endloop
  endfacet
  facet normal -1.0 0.0 0.0
    outer loop
      vertex 0.4000000059604645 -254.79380798339844 943.2218627929688
      vertex 0.4000000059604645 -283.2650451660156 954.196533203125
      vertex 0.4000000059604645 -253.4066162109375 949.0568237304688
    endloop
  endfacet
  facet normal -1.0 0.0 0.0
    outer loop
      vertex 0.4000000059604645 -253.4066162109375 949.0568237304688
      vertex 0.4000000059604645 -282.41986083984375 959.01220703125
      vertex 0.4000000059604645 -252.411376953125 954.9708251953125
    endloop
  endfacet
  facet normal -1.0 0.0 0.0
    outer loop
      vertex 0.4000000059604645 -282.41986083984375 959.01220703125
      vertex 0.4000000059604645 -282.02490234375 962.962890625
      vertex 0.4000000059604645 -251.81248474121094 960.9376220703125
    endloop
  endfacet
  facet normal -1.0 0.0 0.0
    outer loop
      vertex 0.4000000059604645 -252.411376953125 954.9708251953125
      vertex 0.4000000059604645 -282.41986083984375 959.01220703125
      vertex 0.4000000059604645 -251.81248474121094 960.9376220703125
    endloop
  endfacet
  facet normal -1.0 0.0 0.0
    outer loop
      vertex 0.4000000059604645 -282.02490234375 962.962890625
      vertex 0.4000000059604645 -281.89306640625 966.9310302734375
      vertex 0.4000000059604645 -251.61256408691406 966.9310302734375
    endloop
  endfacet
  facet normal -1.0 0.0 0.0
    outer loop
      vertex 0.4000000059604645 -251.81248474121094 960.9376220703125
      vertex 0.4000000059604645 -282.02490234375 962.962890625
      vertex 0.4000000059604645 -251.61256408691406 966.9310302734375
    endloop
  endfacet
  facet normal -1.0 0.0 0.0
    outer loop
      vertex 0.4000000059604645 -281.89306640625 966.9310302734375
      vertex 0.4000000059604645 -281.89306640625 1773.77001953125
      vertex 0.4000000059604645 -251.61256408691406 1773.77001953125
    endloop
  endfacet
  facet normal -1.0 0.0 0.0
    outer loop
      vertex 0.4000000059604645 -251.61256408691406 966.9310302734375
      vertex 0.4000000059604645 -281.89306640625 966.9310302734375
      vertex 0.4000000059604645 -251.61256408691406 1773.77001953125
    endloop
  endfacet
  facet normal -1.0 0.0 0.0
    outer loop
      vertex 0.4000000059604645 -281.89306640625 1773.77001953125
      vertex 0.4000000059604645 -282.0928955078125 1777.66796875
      vertex 0.4000000059604645 -251.76873779296875 1779.381103515625
    endloop
  endfacet
  facet normal -1.0 0.0 0.0
    outer loop
      vertex 0.4000000059604645 -251.61256408691406 1773.77001953125
      vertex 0.4000000059604645 -281.89306640625 1773.77001953125
      vertex 0.4000000059604645 -251.76873779296875 1779.381103515625
    endloop
  endfacet
  facet normal -1.0 0.0 0.0
    outer loop
      vertex 0.4000000059604645 -282.0928955078125 1777.66796875
      vertex 0.4000000059604645 -282.6902770996094 1781.5252685546875
      vertex 0.4000000059604645 -252.23678588867188 1784.9749755859375
    endloop
  endfacet
  facet normal -0.06540320877742617 0.9978589180247959 0.0
    outer loop
      vertex 32.44544982910156 -249.51219177246094 966.9310302734375
      vertex 0.4000000059604645 -251.61256408691406 966.9310302734375
      vertex 32.44544982910156 -249.51219177246094 1773.77001953125
    endloop
  endfacet
  facet normal -0.06540320877742617 0.9978589180247959 0.0
    outer loop
      vertex 0.4000000059604645 -251.61256408691406 966.9310302734375
      vertex 0.4000000059604645 -251.61256408691406 1773.77001953125
      vertex 32.44544982910156 -249.51219177246094 1773.77001953125
    endloop
  endfacet
  facet normal -0.05291242709684503 0.8072829591661788 -0.5877878009100043
    outer loop
      vertex 34.69697189331055 -266.6141662597656 913.9559936523438
      vertex 35.00801086425781 -268.97674560546875 910.6831665039062
      vertex 0.4000000059604645 -268.86212158203125 913.9559936523438
    endloop
  endfacet
  facet normal -0.052912412331512705 0.8072830709649834 -0.5877876486917751
    outer loop
      vertex 35.00801086425781 -268.97674560546875 910.6831665039062
      vertex 0.4000000059604645 -271.2450866699219 910.6831665039062
      vertex 0.4000000059604645 -268.86212158203125 913.9559936523438
    endloop
  endfacet
  facet normal 0.038443178166972715 -0.5865264039342373 -0.8090172430426896
    outer loop
      vertex 35.00801086425781 -268.97674560546875 910.6831665039062
      vertex 38.22003936767578 -293.3745422363281 928.5238647460938
      vertex 0.4000000059604645 -271.2450866699219 910.6831665039062
    endloop
  endfacet
  facet normal 0.03844291279479003 -0.5865266965830845 -0.8090170434862214
    outer loop
      vertex 38.22003936767578 -293.3745422363281 928.5238647460938
      vertex 0.4000000059604645 -295.8533935546875 928.5238647460938
      vertex 0.4000000059604645 -271.2450866699219 910.6831665039062
    endloop
  endfacet
  facet normal 0.05147583654781376 -0.785371091035843 0.6168812589282254
    outer loop
      vertex 0.4000000059604645 -295.8533935546875 928.5238647460938
      vertex 38.22003936767578 -293.3745422363281 928.5238647460938
      vertex 37.919189453125 -291.08935546875 931.4583129882812
    endloop
  endfacet
  facet normal 0.05282691718333985 -0.7912690531711924 0.6091819123336387
    outer loop
      vertex 0.4000000059604645 -292.867431640625 932.40234375
      vertex 0.4000000059604645 -295.8533935546875 928.5238647460938
      vertex 37.919189453125 -291.08935546875 931.4583129882812
    endloop
  endfacet
  facet normal 0.05585079446171343 -0.8359964608647656 0.5458851584166599
    outer loop
      vertex 0.4000000059604645 -290.4591064453125 936.090576171875
      vertex 0.4000000059604645 -292.867431640625 932.40234375
      vertex 37.64279556274414 -288.98992919921875 934.5301513671875
    endloop
  endfacet
  facet normal 0.053223936271547846 -0.8221949084496185 0.5667122242613845
    outer loop
      vertex 0.4000000059604645 -292.867431640625 932.40234375
      vertex 37.919189453125 -291.08935546875 931.4583129882812
      vertex 37.64279556274414 -288.98992919921875 934.5301513671875
    endloop
  endfacet
  facet normal 0.05866239960239041 -0.8756738538628271 0.479326636578767
    outer loop
      vertex 0.4000000059604645 -288.1099548339844 940.3822021484375
      vertex 0.4000000059604645 -290.4591064453125 936.090576171875
      vertex 37.31911849975586 -286.5313720703125 938.7477416992188
    endloop
  endfacet
  facet normal 0.055156864763961276 -0.8607681145650751 0.5059999735350743
    outer loop
      vertex 0.4000000059604645 -290.4591064453125 936.090576171875
      vertex 37.64279556274414 -288.98992919921875 934.5301513671875
      vertex 37.31911849975586 -286.5313720703125 938.7477416992188
    endloop
  endfacet
  facet normal 0.061037965044354915 -0.9117648098246502 0.4061518169215341
    outer loop
      vertex 0.4000000059604645 -286.1195373535156 944.8504638671875
      vertex 0.4000000059604645 -288.1099548339844 940.3822021484375
      vertex 37.041526794433594 -284.4228515625 943.1527099609375
    endloop
  endfacet
  facet normal 0.05765570097077494 -0.8990707296493055 0.4339903722819595
    outer loop
      vertex 0.4000000059604645 -288.1099548339844 940.3822021484375
      vertex 37.31911849975586 -286.5313720703125 938.7477416992188
      vertex 37.041526794433594 -284.4228515625 943.1527099609375
    endloop
  endfacet
  facet normal 0.06301252675964437 -0.9417735324896509 0.33029083392266523
    outer loop
      vertex 0.4000000059604645 -284.5010070800781 949.4654541015625
      vertex 0.4000000059604645 -286.1195373535156 944.8504638671875
      vertex 36.81185531616211 -282.6783447265625 947.7158813476562
    endloop
  endfacet
  facet normal 0.059765740383022486 -0.9313911300415338 0.3590802405541466
    outer loop
      vertex 0.4000000059604645 -286.1195373535156 944.8504638671875
      vertex 37.041526794433594 -284.4228515625 943.1527099609375
      vertex 36.81185531616211 -282.6783447265625 947.7158813476562
    endloop
  endfacet
  facet normal 0.06457483051609049 -0.9655095725091689 0.252232743031074
    outer loop
      vertex 0.4000000059604645 -283.2650451660156 954.196533203125
      vertex 0.4000000059604645 -284.5010070800781 949.4654541015625
      vertex 36.631629943847656 -281.30938720703125 952.40673828125
    endloop
  endfacet
  facet normal 0.061469719864451274 -0.9575035481957094 0.2817950119012272
    outer loop
      vertex 0.4000000059604645 -284.5010070800781 949.4654541015625
      vertex 36.81185531616211 -282.6783447265625 947.7158813476562
      vertex 36.631629943847656 -281.30938720703125 952.40673828125
    endloop
  endfacet
  facet normal 0.06571400721092231 -0.9828165991295372 0.17249116421351415
    outer loop
      vertex 0.4000000059604645 -282.41986083984375 959.01220703125
      vertex 0.4000000059604645 -283.2650451660156 954.196533203125
      vertex 36.50204086303711 -280.3250427246094 957.1942138671875
    endloop
  endfacet
  facet normal 0.06275773378719461 -0.9772427499777714 0.2026279212393458
    outer loop
      vertex 0.4000000059604645 -283.2650451660156 954.196533203125
      vertex 36.631629943847656 -281.30938720703125 952.40673828125
      vertex 36.50204086303711 -280.3250427246094 957.1942138671875
    endloop
  endfacet
  facet normal 0.0657274621828982 -0.9928882675027421 0.0992612158418342
    outer loop
      vertex 0.4000000059604645 -282.02490234375 962.962890625
      vertex 0.4000000059604645 -282.41986083984375 959.01220703125
      vertex 36.42394256591797 -279.7318115234375 962.0463256835938
    endloop
  endfacet
  facet normal 0.063621868277494 -0.9904738848817994 0.12212182951478007
    outer loop
      vertex 0.4000000059604645 -282.41986083984375 959.01220703125
      vertex 36.50204086303711 -280.3250427246094 957.1942138671875
      vertex 36.42394256591797 -279.7318115234375 962.0463256835938
    endloop
  endfacet
  facet normal 0.06536671414437063 -0.9973110409530107 0.033134276439820705
    outer loop
      vertex 0.4000000059604645 -281.89306640625 966.9310302734375
      vertex 0.4000000059604645 -282.02490234375 962.962890625
      vertex 36.397850036621094 -279.5336608886719 966.9310302734375
    endloop
  endfacet
  facet normal 0.06450683839693422 -0.9970831952032715 0.0407917840167199
    outer loop
      vertex 0.4000000059604645 -282.02490234375 962.962890625
      vertex 36.42394256591797 -279.7318115234375 962.0463256835938
      vertex 36.397850036621094 -279.5336608886719 966.9310302734375
    endloop
  endfacet
  facet normal 0.06540262613042991 -0.9978589562133735 0.0
    outer loop
      vertex 36.397850036621094 -279.5336608886719 966.9310302734375
      vertex 36.397850036621094 -279.5336608886719 1773.77001953125
      vertex 0.4000000059604645 -281.89306640625 966.9310302734375
    endloop
  endfacet
  facet normal 0.06540262613042991 -0.9978589562133735 0.0
    outer loop
      vertex 36.397850036621094 -279.5336608886719 1773.77001953125
      vertex 0.4000000059604645 -281.89306640625 1773.77001953125
      vertex 0.4000000059604645 -281.89306640625 966.9310302734375
    endloop
  endfacet
  facet normal 0.06534273064417447 -0.9969451206239958 -0.04278731138982088
    outer loop
      vertex 0.4000000059604645 -281.89306640625 1773.77001953125
      vertex 36.397850036621094 -279.5336608886719 1773.77001953125
      vertex 36.4161491394043 -279.6726379394531 1777.0361328125
    endloop
  endfacet
  facet normal 0.06606826147695717 -0.9965064956586667 -0.05108609336694342
    outer loop
      vertex 0.4000000059604645 -282.0928955078125 1777.66796875
      vertex 0.4000000059604645 -281.89306640625 1773.77001953125
      vertex 36.4161491394043 -279.6726379394531 1777.0361328125
    endloop
  endfacet
  facet normal 0.06584417246129701 -0.9860745659000857 -0.15271376964060712
    outer loop
      vertex 0.4000000059604645 -282.6902770996094 1781.5252685546875
      vertex 0.4000000059604645 -282.0928955078125 1777.66796875
      vertex 36.47090530395508 -280.08856201171875 1780.2783203125
    endloop
  endfacet
  facet normal 0.06425967063616617 -0.9896841341325109 -0.12804690303210592
    outer loop
      vertex 0.4000000059604645 -282.0928955078125 1777.66796875
      vertex 36.4161491394043 -279.6726379394531 1777.0361328125
      vertex 36.47090530395508 -280.08856201171875 1780.2783203125
    endloop
  endfacet
  facet normal 0.06448421942501792 -0.9653764274774088 -0.2527649871246042
    outer loop
      vertex 0.4000000059604645 -283.6790771484375 1785.3017578125
      vertex 0.4000000059604645 -282.6902770996094 1781.5252685546875
      vertex 36.58348846435547 -280.9436950683594 1784.0855712890625
    endloop
  endfacet
  facet normal 0.06258608881174738 -0.9733818348575458 -0.22047853649869287
    outer loop
      vertex 0.4000000059604645 -282.6902770996094 1781.5252685546875
      vertex 36.47090530395508 -280.08856201171875 1780.2783203125
      vertex 36.58348846435547 -280.9436950683594 1784.0855712890625
    endloop
  endfacet
  facet normal 0.062175273422017056 -0.9383743910691839 -0.339981966522396
    outer loop
      vertex 0.4000000059604645 -284.7267761230469 1788.1934814453125
      vertex 0.4000000059604645 -283.6790771484375 1785.3017578125
      vertex 36.72782897949219 -282.04010009765625 1787.421630859375
    endloop
  endfacet
  facet normal 0.06106992846514946 -0.9474489021493737 -0.31402395076364475
    outer loop
      vertex 0.4000000059604645 -283.6790771484375 1785.3017578125
      vertex 36.58348846435547 -280.9436950683594 1784.0855712890625
      vertex 36.72782897949219 -282.04010009765625 1787.421630859375
    endloop
  endfacet
  facet normal 0.05951867350348598 -0.9080805074076659 -0.4145447135962797
    outer loop
      vertex 0.4000000059604645 -286.0041809082031 1790.99169921875
      vertex 0.4000000059604645 -284.7267761230469 1788.1934814453125
      vertex 36.9344596862793 -283.6095886230469 1790.99169921875
    endloop
  endfacet
  facet normal 0.05889546426148123 -0.912592402314606 -0.4046065144397467
    outer loop
      vertex 0.4000000059604645 -284.7267761230469 1788.1934814453125
      vertex 36.72782897949219 -282.04010009765625 1787.421630859375
      vertex 36.9344596862793 -283.6095886230469 1790.99169921875
    endloop
  endfacet
  facet normal 0.02429928897430324 -0.3707370403983699 0.9284199434695491
    outer loop
      vertex 36.9344596862793 -283.6095886230469 1790.99169921875
      vertex 33.01017379760742 -253.8016815185547 1802.997314453125
      vertex 0.4000000059604645 -255.93905639648438 1802.997314453125
    endloop
  endfacet
  facet normal 0.024299356829163177 -0.3707369633803086 0.9284199724484803
    outer loop
      vertex 36.9344596862793 -283.6095886230469 1790.99169921875
      vertex 0.4000000059604645 -255.93905639648438 1802.997314453125
      vertex 0.4000000059604645 -286.0041809082031 1790.99169921875
    endloop
  endfacet
  facet normal -0.05381893331704014 0.8211134913132344 -0.5682219256593386
    outer loop
      vertex 34.69697189331055 -266.6141662597656 913.9559936523438
      vertex 0.4000000059604645 -268.86212158203125 913.9559936523438
      vertex 0.4000000059604645 -266.4017639160156 917.5113525390625
    endloop
  endfacet
  facet normal -0.056262124512889054 0.8473061876610021 -0.5281162728951595
    outer loop
      vertex 34.25712203979492 -263.273193359375 918.9238891601562
      vertex 0.4000000059604645 -266.4017639160156 917.5113525390625
      vertex 0.4000000059604645 -264.114990234375 921.1802368164062
    endloop
  endfacet
  facet normal -0.0529849456274974 0.8264602596694796 -0.5604962397054127
    outer loop
      vertex 34.25712203979492 -263.273193359375 918.9238891601562
      vertex 34.69697189331055 -266.6141662597656 913.9559936523438
      vertex 0.4000000059604645 -266.4017639160156 917.5113525390625
    endloop
  endfacet
  facet normal -0.05889891512783222 0.8760356475370802 -0.4786360433994216
    outer loop
      vertex 33.89900207519531 -260.552978515625 923.5774536132812
      vertex 0.4000000059604645 -264.114990234375 921.1802368164062
      vertex 0.4000000059604645 -261.23773193359375 926.4464111328125
    endloop
  endfacet
  facet normal -0.0551771692405242 0.8601525163820679 -0.5070435174185732
    outer loop
      vertex 33.89900207519531 -260.552978515625 923.5774536132812
      vertex 34.25712203979492 -263.273193359375 918.9238891601562
      vertex 0.4000000059604645 -264.114990234375 921.1802368164062
    endloop
  endfacet
  facet normal -0.06086935625565285 0.9058588410110121 -0.419183350851639
    outer loop
      vertex 33.54468536376953 -257.8616943359375 928.9291381835938
      vertex 0.4000000059604645 -261.23773193359375 926.4464111328125
      vertex 0.4000000059604645 -258.7179870605469 931.8916015625
    endloop
  endfacet
  facet normal -0.05687346709977213 0.8904312174417771 -0.4515502804175918
    outer loop
      vertex 33.54468536376953 -257.8616943359375 928.9291381835938
      vertex 33.89900207519531 -260.552978515625 923.5774536132812
      vertex 0.4000000059604645 -261.23773193359375 926.4464111328125
    endloop
  endfacet
  facet normal -0.06257458560710759 0.931669011885559 -0.35787885314486645
    outer loop
      vertex 33.23773193359375 -255.53016662597656 934.4488525390625
      vertex 0.4000000059604645 -258.7179870605469 931.8916015625
      vertex 0.4000000059604645 -256.5668640136719 937.4916381835938
    endloop
  endfacet
  facet normal -0.058693692478750455 0.9184286178047121 -0.3912082878218914
    outer loop
      vertex 33.23773193359375 -255.53016662597656 934.4488525390625
      vertex 33.54468536376953 -257.8616943359375 928.9291381835938
      vertex 0.4000000059604645 -258.7179870605469 931.8916015625
    endloop
  endfacet
  facet normal -0.06400745808931861 0.9533544844338708 -0.29498859693007157
    outer loop
      vertex 32.979496002197266 -253.5686492919922 940.1121826171875
      vertex 0.4000000059604645 -256.5668640136719 937.4916381835938
      vertex 0.4000000059604645 -254.79380798339844 943.2218627929688
    endloop
  endfacet
  facet normal -0.06024877400935068 0.9423582353310521 -0.32913681279084445
    outer loop
      vertex 32.979496002197266 -253.5686492919922 940.1121826171875
      vertex 33.23773193359375 -255.53016662597656 934.4488525390625
      vertex 0.4000000059604645 -256.5668640136719 937.4916381835938
    endloop
  endfacet
  facet normal -0.06516214753831358 0.9708167941486868 -0.23080001457335583
    outer loop
      vertex 32.7711067199707 -251.98577880859375 945.8939208984375
      vertex 0.4000000059604645 -254.79380798339844 943.2218627929688
      vertex 0.4000000059604645 -253.4066162109375 949.0568237304688
    endloop
  endfacet
  facet normal -0.06153326344472119 0.9621131383233362 -0.26561620160574445
    outer loop
      vertex 32.7711067199707 -251.98577880859375 945.8939208984375
      vertex 32.979496002197266 -253.5686492919922 940.1121826171875
      vertex 0.4000000059604645 -254.79380798339844 943.2218627929688
    endloop
  endfacet
  facet normal -0.06603215953939283 0.9839816248267457 -0.1655896008506622
    outer loop
      vertex 32.61347961425781 -250.7884979248047 951.7686767578125
      vertex 0.4000000059604645 -253.4066162109375 949.0568237304688
      vertex 0.4000000059604645 -252.411376953125 954.9708251953125
    endloop
  endfacet
  facet normal -0.06254041646501955 0.977610092024671 -0.2009159134560933
    outer loop
      vertex 32.61347961425781 -250.7884979248047 951.7686767578125
      vertex 32.7711067199707 -251.98577880859375 945.8939208984375
      vertex 0.4000000059604645 -253.4066162109375 949.0568237304688
    endloop
  endfacet
  facet normal -0.06661436600457445 0.9927904941790802 -0.09964718214513789
    outer loop
      vertex 32.5073127746582 -249.98207092285156 957.7103271484375
      vertex 0.4000000059604645 -252.411376953125 954.9708251953125
      vertex 0.4000000059604645 -251.81248474121094 960.9376220703125
    endloop
  endfacet
  facet normal -0.06326607081708358 0.9887783893502099 -0.13533181827409438
    outer loop
      vertex 32.5073127746582 -249.98207092285156 957.7103271484375
      vertex 32.61347961425781 -250.7884979248047 951.7686767578125
      vertex 0.4000000059604645 -252.411376953125 954.9708251953125
    endloop
  endfacet
  facet normal -0.06646450828780012 0.9972341462495548 -0.03326449596766077
    outer loop
      vertex 32.4609260559082 -249.62973022460938 962.3145751953125
      vertex 0.4000000059604645 -251.81248474121094 960.9376220703125
      vertex 0.4000000059604645 -251.61256408691406 966.9310302734375
    endloop
  endfacet
  facet normal -0.06444058254262996 0.994962752561008 -0.07678888160266925
    outer loop
      vertex 32.4609260559082 -249.62973022460938 962.3145751953125
      vertex 32.5073127746582 -249.98207092285156 957.7103271484375
      vertex 0.4000000059604645 -251.81248474121094 960.9376220703125
    endloop
  endfacet
  facet normal -0.0653817453011494 0.9975314490578302 -0.02561709433095403
    outer loop
      vertex 32.44544982910156 -249.51219177246094 966.9310302734375
      vertex 32.4609260559082 -249.62973022460938 962.3145751953125
      vertex 0.4000000059604645 -251.61256408691406 966.9310302734375
    endloop
  endfacet
  facet normal -0.06537799845038034 0.9974742832318058 0.027762773813464113
    outer loop
      vertex 32.44544982910156 -249.51219177246094 1773.77001953125
      vertex 0.4000000059604645 -251.61256408691406 1773.77001953125
      vertex 0.4000000059604645 -251.76873779296875 1779.381103515625
    endloop
  endfacet
  facet normal -0.06572894843011502 0.9943628516393898 0.08319990755915614
    outer loop
      vertex 32.47154998779297 -249.71041870117188 1780.1180419921875
      vertex 0.4000000059604645 -251.76873779296875 1779.381103515625
      vertex 0.4000000059604645 -252.23678588867188 1784.9749755859375
    endloop
  endfacet
  facet normal -0.06473439923788771 0.997408019528512 0.03141178338651449
    outer loop
      vertex 32.47154998779297 -249.71041870117188 1780.1180419921875
      vertex 32.44544982910156 -249.51219177246094 1773.77001953125
      vertex 0.4000000059604645 -251.76873779296875 1779.381103515625
    endloop
  endfacet
  facet normal -0.06584255763857386 0.9876748898648509 0.14199672367370306
    outer loop
      vertex 32.54973602294922 -250.30430603027344 1786.44091796875
      vertex 0.4000000059604645 -252.23678588867188 1784.9749755859375
      vertex 0.4000000059604645 -253.14064025878906 1791.2618408203125
    endloop
  endfacet
  facet normal -0.06400922638573701 0.9935021442910149 0.09410796048504524
    outer loop
      vertex 32.54973602294922 -250.30430603027344 1786.44091796875
      vertex 32.47154998779297 -249.71041870117188 1780.1180419921875
      vertex 0.4000000059604645 -252.23678588867188 1784.9749755859375
    endloop
  endfacet
  facet normal -0.06502644574145389 0.9774727406195584 0.20079492697755896
    outer loop
      vertex 32.67970657348633 -251.29153442382812 1792.7139892578125
      vertex 0.4000000059604645 -253.14064025878906 1791.2618408203125
      vertex 0.4000000059604645 -254.29107666015625 1796.8621826171875
    endloop
  endfacet
  facet normal -0.06349888568052692 0.9856454076098795 0.15643216413156733
    outer loop
      vertex 32.67970657348633 -251.29153442382812 1792.7139892578125
      vertex 32.54973602294922 -250.30430603027344 1786.44091796875
      vertex 0.4000000059604645 -253.14064025878906 1791.2618408203125
    endloop
  endfacet
  facet normal -0.06402190967485241 0.9637839558331994 0.2588854603103355
    outer loop
      vertex 32.82731628417969 -252.41273498535156 1797.888671875
      vertex 0.4000000059604645 -254.29107666015625 1796.8621826171875
      vertex 0.4000000059604645 -255.93905639648438 1802.997314453125
    endloop
  endfacet
  facet normal -0.06322041315344676 0.9749925979139845 0.21305542324392213
    outer loop
      vertex 32.82731628417969 -252.41273498535156 1797.888671875
      vertex 32.67970657348633 -251.29153442382812 1792.7139892578125
      vertex 0.4000000059604645 -254.29107666015625 1796.8621826171875
    endloop
  endfacet
  facet normal -0.06308366444650555 0.962474707762594 0.263937280802296
    outer loop
      vertex 33.01017379760742 -253.8016815185547 1802.997314453125
      vertex 32.82731628417969 -252.41273498535156 1797.888671875
      vertex 0.4000000059604645 -255.93905639648438 1802.997314453125
    endloop
  endfacet
endsolid v3d.csg
