solid v3d.csg
  facet normal 0.3826843172996123 -0.9238791659568288 1.960548017176245E-6
    outer loop
      vertex -263.5186767578125 -108.72006225585938 947.7158813476562
      vertex -236.39279174804688 -97.48413848876953 940.1121826171875
      vertex -262.2430419921875 -108.19166564941406 952.40673828125
    endloop
  endfacet
  facet normal 0.38268339871277945 -0.9238795464505254 8.606702413141194E-8
    outer loop
      vertex -234.91778564453125 -96.87317657470703 945.8939208984375
      vertex -233.80209350585938 -96.41104125976562 951.7686767578125
      vertex -261.3257751464844 -107.81172180175781 957.1942138671875
    endloop
  endfacet
  facet normal 0.3826835063324856 -0.9238795018727 7.256918218465061E-7
    outer loop
      vertex -233.80209350585938 -96.41104125976562 951.7686767578125
      vertex -233.05062866210938 -96.09976959228516 957.7103271484375
      vertex -261.3257751464844 -107.81172180175781 957.1942138671875
    endloop
  endfacet
  facet normal 0.38268333832475426 -0.9238795714640601 -7.926833672371713E-8
    outer loop
      vertex -262.2430419921875 -108.19166564941406 952.40673828125
      vertex -234.91778564453125 -96.87317657470703 945.8939208984375
      vertex -261.3257751464844 -107.81172180175781 957.1942138671875
    endloop
  endfacet
  facet normal 0.38268351987281657 -0.9238794962643013 -4.1520841444846486E-7
    outer loop
      vertex -233.05062866210938 -96.09976959228516 957.7103271484375
      vertex -232.72230529785156 -95.96377563476562 962.3145751953125
      vertex -260.7729797363281 -107.58274841308594 962.0463256835938
    endloop
  endfacet
  facet normal 0.38268352366532576 -0.9238794946934045 -3.868006912060149E-7
    outer loop
      vertex -261.3257751464844 -107.81172180175781 957.1942138671875
      vertex -233.05062866210938 -96.09976959228516 957.7103271484375
      vertex -260.7729797363281 -107.58274841308594 962.0463256835938
    endloop
  endfacet
  facet normal 0.3826833762191107 -0.9238795557676137 -4.2340552777871035E-7
    outer loop
      vertex -232.72230529785156 -95.96377563476562 962.3145751953125
      vertex -232.61276245117188 -95.91840362548828 966.9310302734375
      vertex -260.58831787109375 -107.50625610351562 966.9310302734375
    endloop
  endfacet
  facet normal 0.38268351209623397 -0.9238794994854052 5.37502754284875E-7
    outer loop
      vertex -260.7729797363281 -107.58274841308594 962.0463256835938
      vertex -232.72230529785156 -95.96377563476562 962.3145751953125
      vertex -260.58831787109375 -107.50625610351562 966.9310302734375
    endloop
  endfacet
  facet normal 0.382683376219145 -0.9238795557676965 0.0
    outer loop
      vertex -232.61276245117188 -95.91840362548828 966.9310302734375
      vertex -232.61276245117188 -95.91840362548828 1773.77001953125
      vertex -260.58831787109375 -107.50625610351562 1773.77001953125
    endloop
  endfacet
  facet normal 0.382683376219145 -0.9238795557676965 0.0
    outer loop
      vertex -260.58831787109375 -107.50625610351562 966.9310302734375
      vertex -232.61276245117188 -95.91840362548828 966.9310302734375
      vertex -260.58831787109375 -107.50625610351562 1773.77001953125
    endloop
  endfacet
  facet normal 0.38268322143512107 -0.9238796198813093 -7.51764351331294E-8
    outer loop
      vertex -232.61276245117188 -95.91840362548828 1773.77001953125
      vertex -232.7974853515625 -95.99491882324219 1780.1180419921875
      vertex -260.71783447265625 -107.55989837646484 1777.0361328125
    endloop
  endfacet
  facet normal 0.3826833762187229 -0.9238795557666775 1.4852698776219508E-6
    outer loop
      vertex -260.58831787109375 -107.50625610351562 1773.77001953125
      vertex -232.61276245117188 -95.91840362548828 1773.77001953125
      vertex -260.71783447265625 -107.55989837646484 1777.0361328125
    endloop
  endfacet
  facet normal 0.38268342066120276 -0.9238795373591622 2.4782857711086474E-7
    outer loop
      vertex -232.7974853515625 -95.99491882324219 1780.1180419921875
      vertex -233.3509063720703 -96.22415161132812 1786.44091796875
      vertex -261.10540771484375 -107.72044372558594 1780.2783203125
    endloop
  endfacet
  facet normal 0.38268340945501955 -0.9238795419986275 -2.0707877497315773E-6
    outer loop
      vertex -260.71783447265625 -107.55989837646484 1777.0361328125
      vertex -232.7974853515625 -95.99491882324219 1780.1180419921875
      vertex -261.10540771484375 -107.72044372558594 1780.2783203125
    endloop
  endfacet
  facet normal 0.3826833142776334 -0.9238795814246892 -1.6484344958393748E-7
    outer loop
      vertex -233.3509063720703 -96.22415161132812 1786.44091796875
      vertex -234.27085876464844 -96.60520935058594 1792.7139892578125
      vertex -261.90228271484375 -108.0505142211914 1784.0855712890625
    endloop
  endfacet
  facet normal 0.38268320515002185 -0.9238796266257786 1.3849530251472154E-6
    outer loop
      vertex -261.10540771484375 -107.72044372558594 1780.2783203125
      vertex -233.3509063720703 -96.22415161132812 1786.44091796875
      vertex -261.90228271484375 -108.0505142211914 1784.0855712890625
    endloop
  endfacet
  facet normal 0.38268340206927187 -0.9238795450601724 3.111092597275252E-7
    outer loop
      vertex -234.27085876464844 -96.60520935058594 1792.7139892578125
      vertex -235.31564331054688 -97.03797149658203 1797.888671875
      vertex -262.9239501953125 -108.47370910644531 1787.421630859375
    endloop
  endfacet
  facet normal 0.38268371287052955 -0.9238794163205875 -1.6602921080113189E-6
    outer loop
      vertex -261.90228271484375 -108.0505142211914 1784.0855712890625
      vertex -234.27085876464844 -96.60520935058594 1792.7139892578125
      vertex -262.9239501953125 -108.47370910644531 1787.421630859375
    endloop
  endfacet
  facet normal 0.38268344735403564 -0.9238795263026461 1.7117078020507934E-7
    outer loop
      vertex -262.9239501953125 -108.47370910644531 1787.421630859375
      vertex -235.31564331054688 -97.03797149658203 1797.888671875
      vertex -264.386474609375 -109.07950592041016 1790.99169921875
    endloop
  endfacet
  facet normal 0.38268356512177554 -0.9238794775215649 -4.103894737494851E-7
    outer loop
      vertex -235.31564331054688 -97.03797149658203 1797.888671875
      vertex -236.6099395751953 -97.57408905029297 1802.997314453125
      vertex -264.386474609375 -109.07950592041016 1790.99169921875
    endloop
  endfacet
  facet normal 0.38268349876919167 -0.9238795050058027 5.354262947092063E-8
    outer loop
      vertex -250.7508544921875 -103.43144989013672 910.6831665039062
      vertex -248.5492706298828 -102.51952362060547 913.9559936523438
      vertex -271.35650634765625 -111.96659088134766 931.4583129882812
    endloop
  endfacet
  facet normal 0.3826834729667426 -0.9238795156935301 2.355980631420514E-8
    outer loop
      vertex -273.4859619140625 -112.84864044189453 928.5238647460938
      vertex -250.7508544921875 -103.43144989013672 910.6831665039062
      vertex -271.35650634765625 -111.96659088134766 931.4583129882812
    endloop
  endfacet
  facet normal 0.3826830414716666 -0.9238796944244683 -3.8204810385483355E-7
    outer loop
      vertex -248.5492706298828 -102.51952362060547 913.9559936523438
      vertex -245.43597412109375 -101.2299575805664 918.9238891601562
      vertex -269.4001770019531 -111.15625 934.5301513671875
    endloop
  endfacet
  facet normal 0.3826833187210399 -0.923879579584178 1.1672594140523813E-7
    outer loop
      vertex -245.43597412109375 -101.2299575805664 918.9238891601562
      vertex -242.90115356445312 -100.18000030517578 923.5774536132812
      vertex -269.4001770019531 -111.15625 934.5301513671875
    endloop
  endfacet
  facet normal 0.38268381518473255 -0.92387937394195 5.366061992390752E-7
    outer loop
      vertex -271.35650634765625 -111.96659088134766 931.4583129882812
      vertex -248.5492706298828 -102.51952362060547 913.9559936523438
      vertex -269.4001770019531 -111.15625 934.5301513671875
    endloop
  endfacet
  facet normal 0.3826836077170099 -0.9238794598781078 1.711739499249515E-7
    outer loop
      vertex -242.90115356445312 -100.18000030517578 923.5774536132812
      vertex -240.3932647705078 -99.14119720458984 928.9291381835938
      vertex -267.109130859375 -110.207275390625 938.7477416992188
    endloop
  endfacet
  facet normal 0.3826828152451192 -0.9238797881295773 -1.310380598688752E-6
    outer loop
      vertex -269.4001770019531 -111.15625 934.5301513671875
      vertex -242.90115356445312 -100.18000030517578 923.5774536132812
      vertex -267.109130859375 -110.207275390625 938.7477416992188
    endloop
  endfacet
  facet normal 0.38268348591377116 -0.9238795103304219 7.101086541915431E-7
    outer loop
      vertex -240.3932647705078 -99.14119720458984 928.9291381835938
      vertex -238.2206268310547 -98.24125671386719 934.4488525390625
      vertex -265.1443176269531 -109.3934097290039 943.1527099609375
    endloop
  endfacet
  facet normal 0.3826842928340657 -0.9238791760898956 2.355182911067042E-6
    outer loop
      vertex -267.109130859375 -110.207275390625 938.7477416992188
      vertex -240.3932647705078 -99.14119720458984 928.9291381835938
      vertex -265.1443176269531 -109.3934097290039 943.1527099609375
    endloop
  endfacet
  facet normal 0.38268396204192356 -0.9238793131116582 4.7573121207659024E-7
    outer loop
      vertex -238.2206268310547 -98.24125671386719 934.4488525390625
      vertex -236.39279174804688 -97.48413848876953 940.1121826171875
      vertex -263.5186767578125 -108.72006225585938 947.7158813476562
    endloop
  endfacet
  facet normal 0.38268255208920393 -0.9238798971291359 -2.6740968678837515E-6
    outer loop
      vertex -265.1443176269531 -109.3934097290039 943.1527099609375
      vertex -238.2206268310547 -98.24125671386719 934.4488525390625
      vertex -263.5186767578125 -108.72006225585938 947.7158813476562
    endloop
  endfacet
  facet normal 0.3826831867361934 -0.9238796342537009 -8.24395961827972E-7
    outer loop
      vertex -236.39279174804688 -97.48413848876953 940.1121826171875
      vertex -234.91778564453125 -96.87317657470703 945.8939208984375
      vertex -262.2430419921875 -108.19166564941406 952.40673828125
    endloop
  endfacet
  facet normal -0.2588191475932752 0.9659257988260831 1.1329943768072986E-6
    outer loop
      vertex -243.08639526367188 -65.54891204833984 1779.381103515625
      vertex -272.3772888183594 -73.39738464355469 1777.66796875
      vertex -243.5384979248047 -65.67005920410156 1784.9749755859375
    endloop
  endfacet
  facet normal -0.25881913282166863 0.9659258027847867 7.04651031443429E-8
    outer loop
      vertex -272.9543151855469 -73.552001953125 1781.5252685546875
      vertex -273.9093933105469 -73.80791473388672 1785.3017578125
      vertex -244.41156005859375 -65.90399169921875 1791.2618408203125
    endloop
  endfacet
  facet normal -0.2588189300931775 0.9659258571055555 -5.665019224190967E-7
    outer loop
      vertex -243.5384979248047 -65.67005920410156 1784.9749755859375
      vertex -272.9543151855469 -73.552001953125 1781.5252685546875
      vertex -244.41156005859375 -65.90399169921875 1791.2618408203125
    endloop
  endfacet
  facet normal -0.25881841337991524 0.965925995558218 6.070928700525912E-7
    outer loop
      vertex -261.89910888671875 -70.58976745605469 910.6831665039062
      vertex -285.6689147949219 -76.9588623046875 928.5238647460938
      vertex -282.78466796875 -76.18603515625 932.40234375
    endloop
  endfacet
  facet normal -0.2588192479962225 0.965925771923835 1.1636014062768515E-7
    outer loop
      vertex -273.9093933105469 -73.80791473388672 1785.3017578125
      vertex -274.9214172363281 -74.07908630371094 1788.1934814453125
      vertex -245.52279663085938 -66.20174407958984 1796.8621826171875
    endloop
  endfacet
  facet normal -0.2588186780375219 0.9659259246437057 3.343210883223719E-7
    outer loop
      vertex -261.89910888671875 -70.58976745605469 910.6831665039062
      vertex -282.78466796875 -76.18603515625 932.40234375
      vertex -259.5973205566406 -69.97300720214844 913.9559936523438
    endloop
  endfacet
  facet normal -0.258819036584354 0.9659258285714039 -4.400324340491558E-7
    outer loop
      vertex -244.41156005859375 -65.90399169921875 1791.2618408203125
      vertex -273.9093933105469 -73.80791473388672 1785.3017578125
      vertex -245.52279663085938 -66.20174407958984 1796.8621826171875
    endloop
  endfacet
  facet normal -0.2588182499473014 0.9659260393479274 -1.9601992924030787E-6
    outer loop
      vertex -274.9214172363281 -74.07908630371094 1788.1934814453125
      vertex -276.1553039550781 -74.40969848632812 1790.99169921875
      vertex -247.1146240234375 -66.6282730102539 1802.997314453125
    endloop
  endfacet
  facet normal -0.2588192065083516 0.9659257830404911 -3.444167564224301E-8
    outer loop
      vertex -245.52279663085938 -66.20174407958984 1796.8621826171875
      vertex -274.9214172363281 -74.07908630371094 1788.1934814453125
      vertex -247.1146240234375 -66.6282730102539 1802.997314453125
    endloop
  endfacet
  facet normal -0.2588192742925675 0.9659257648777411 -1.4005203147224315E-7
    outer loop
      vertex -282.78466796875 -76.18603515625 932.40234375
      vertex -280.4584045410156 -75.56271362304688 936.090576171875
      vertex -257.2208251953125 -69.33621978759766 917.5113525390625
    endloop
  endfacet
  facet normal -0.25881994188941454 0.9659255859943288 -1.3684228578474661E-6
    outer loop
      vertex -259.5973205566406 -69.97300720214844 913.9559936523438
      vertex -282.78466796875 -76.18603515625 932.40234375
      vertex -257.2208251953125 -69.33621978759766 917.5113525390625
    endloop
  endfacet
  facet normal -0.258819495890148 0.96592570550032 -9.375996437265915E-7
    outer loop
      vertex -280.4584045410156 -75.56271362304688 936.090576171875
      vertex -278.1893310546875 -74.9547119140625 940.3822021484375
      vertex -255.011962890625 -68.7443618774414 921.1802368164062
    endloop
  endfacet
  facet normal -0.25881847162600363 0.965925979951002 9.35944506097474E-7
    outer loop
      vertex -257.2208251953125 -69.33621978759766 917.5113525390625
      vertex -280.4584045410156 -75.56271362304688 936.090576171875
      vertex -255.011962890625 -68.7443618774414 921.1802368164062
    endloop
  endfacet
  facet normal -0.258818857556529 0.9659258765418393 -1.1179245515173814E-7
    outer loop
      vertex -255.011962890625 -68.7443618774414 921.1802368164062
      vertex -278.1893310546875 -74.9547119140625 940.3822021484375
      vertex -252.2327423095703 -67.99967193603516 926.4464111328125
    endloop
  endfacet
  facet normal -0.2588184578866885 0.9659259836313846 1.7025473431039984E-6
    outer loop
      vertex -278.1893310546875 -74.9547119140625 940.3822021484375
      vertex -276.2667236328125 -74.43955993652344 944.8504638671875
      vertex -249.79885864257812 -67.3475112915039 931.8916015625
    endloop
  endfacet
  facet normal -0.2588190981815044 0.9659258120664144 -5.921550466471101E-7
    outer loop
      vertex -252.2327423095703 -67.99967193603516 926.4464111328125
      vertex -278.1893310546875 -74.9547119140625 940.3822021484375
      vertex -249.79885864257812 -67.3475112915039 931.8916015625
    endloop
  endfacet
  facet normal -0.2588191018620224 0.9659258110803933 1.431124805309759E-7
    outer loop
      vertex -276.2667236328125 -74.43955993652344 944.8504638671875
      vertex -274.7033386230469 -74.0206527709961 949.4654541015625
      vertex -247.72103881835938 -66.79076385498047 937.4916381835938
    endloop
  endfacet
  facet normal -0.2588190258085134 0.9659258314587726 4.593136877210778E-7
    outer loop
      vertex -249.79885864257812 -67.3475112915039 931.8916015625
      vertex -276.2667236328125 -74.43955993652344 944.8504638671875
      vertex -247.72103881835938 -66.79076385498047 937.4916381835938
    endloop
  endfacet
  facet normal -0.2588191882359896 0.9659257879364571 -4.447377571472426E-7
    outer loop
      vertex -274.7033386230469 -74.0206527709961 949.4654541015625
      vertex -273.5094909667969 -73.70075988769531 954.196533203125
      vertex -246.00839233398438 -66.33186340332031 943.2218627929688
    endloop
  endfacet
  facet normal -0.2588190371842708 0.9659258284107105 2.9932423161373853E-7
    outer loop
      vertex -247.72103881835938 -66.79076385498047 937.4916381835938
      vertex -274.7033386230469 -74.0206527709961 949.4654541015625
      vertex -246.00839233398438 -66.33186340332031 943.2218627929688
    endloop
  endfacet
  facet normal -0.25881923993509437 0.9659257740837283 -4.126953868236234E-7
    outer loop
      vertex -273.5094909667969 -73.70075988769531 954.196533203125
      vertex -272.6930847167969 -73.48200225830078 959.01220703125
      vertex -244.66845703125 -65.97282409667969 949.0568237304688
    endloop
  endfacet
  facet normal -0.25881929127780884 0.9659257603262955 -7.214859001854241E-7
    outer loop
      vertex -246.00839233398438 -66.33186340332031 943.2218627929688
      vertex -273.5094909667969 -73.70075988769531 954.196533203125
      vertex -244.66845703125 -65.97282409667969 949.0568237304688
    endloop
  endfacet
  facet normal -0.258819047603889 0.9659258256188142 1.6759332630346205E-7
    outer loop
      vertex -244.66845703125 -65.97282409667969 949.0568237304688
      vertex -272.6930847167969 -73.48200225830078 959.01220703125
      vertex -243.70713806152344 -65.71524047851562 954.9708251953125
    endloop
  endfacet
  facet normal -0.2588192517105337 0.9659257709281948 8.78739497710231E-7
    outer loop
      vertex -272.6930847167969 -73.48200225830078 959.01220703125
      vertex -272.3116149902344 -73.37979125976562 962.962890625
      vertex -243.128662109375 -65.56023406982422 960.9376220703125
    endloop
  endfacet
  facet normal -0.25881915727238136 0.9659257962330016 -6.754543772912397E-7
    outer loop
      vertex -243.70713806152344 -65.71524047851562 954.9708251953125
      vertex -272.6930847167969 -73.48200225830078 959.01220703125
      vertex -243.128662109375 -65.56023406982422 960.9376220703125
    endloop
  endfacet
  facet normal -0.2588191382801915 0.9659258013219097 -7.249460499785656E-7
    outer loop
      vertex -272.3116149902344 -73.37979125976562 962.962890625
      vertex -272.18426513671875 -73.34566497802734 966.9310302734375
      vertex -242.935546875 -65.50849151611328 966.9310302734375
    endloop
  endfacet
  facet normal -0.2588192818098014 0.9659257628634239 4.138883329669332E-7
    outer loop
      vertex -243.128662109375 -65.56023406982422 960.9376220703125
      vertex -272.3116149902344 -73.37979125976562 962.962890625
      vertex -242.935546875 -65.50849151611328 966.9310302734375
    endloop
  endfacet
  facet normal -0.2588191382802595 0.9659258013221637 0.0
    outer loop
      vertex -272.18426513671875 -73.34566497802734 966.9310302734375
      vertex -272.18426513671875 -73.34566497802734 1773.77001953125
      vertex -242.935546875 -65.50849151611328 1773.77001953125
    endloop
  endfacet
  facet normal -0.2588191382802595 0.9659258013221637 0.0
    outer loop
      vertex -242.935546875 -65.50849151611328 966.9310302734375
      vertex -272.18426513671875 -73.34566497802734 966.9310302734375
      vertex -242.935546875 -65.50849151611328 1773.77001953125
    endloop
  endfacet
  facet normal -0.2588190738639207 0.9659258185824492 -2.1812873209245048E-7
    outer loop
      vertex -272.18426513671875 -73.34566497802734 1773.77001953125
      vertex -272.3772888183594 -73.39738464355469 1777.66796875
      vertex -243.08639526367188 -65.54891204833984 1779.381103515625
    endloop
  endfacet
  facet normal -0.25881913828025693 0.9659258013221541 1.3990412415198588E-7
    outer loop
      vertex -242.935546875 -65.50849151611328 1773.77001953125
      vertex -272.18426513671875 -73.34566497802734 1773.77001953125
      vertex -243.08639526367188 -65.54891204833984 1779.381103515625
    endloop
  endfacet
  facet normal -0.2588190888674577 0.9659258145618828 8.845784035041619E-7
    outer loop
      vertex -272.3772888183594 -73.39738464355469 1777.66796875
      vertex -272.9543151855469 -73.552001953125 1781.5252685546875
      vertex -243.5384979248047 -65.67005920410156 1784.9749755859375
    endloop
  endfacet
  facet normal 0.9469300323767049 0.3214397514046025 -0.0
    outer loop
      vertex -232.61276245117188 -95.91840362548828 966.9310302734375
      vertex -242.935546875 -65.50849151611328 966.9310302734375
      vertex -232.61276245117188 -95.91840362548828 1773.77001953125
    endloop
  endfacet
  facet normal 0.9469300323767049 0.3214397514046025 -0.0
    outer loop
      vertex -242.935546875 -65.50849151611328 966.9310302734375
      vertex -242.935546875 -65.50849151611328 1773.77001953125
      vertex -232.61276245117188 -95.91840362548828 1773.77001953125
    endloop
  endfacet
  facet normal 0.7660795125807877 0.260049079697151 -0.5877896363093241
    outer loop
      vertex -248.5492706298828 -102.51952362060547 913.9559936523438
      vertex -250.7508544921875 -103.43144989013672 910.6831665039062
      vertex -261.89910888671875 -70.58976745605469 910.6831665039062
    endloop
  endfacet
  facet normal 0.766078618426378 0.2600485629668356 -0.5877910302895202
    outer loop
      vertex -248.5492706298828 -102.51952362060547 913.9559936523438
      vertex -261.89910888671875 -70.58976745605469 910.6831665039062
      vertex -259.5973205566406 -69.97300720214844 913.9559936523438
    endloop
  endfacet
  facet normal -0.5565915275949156 -0.18893745641451995 -0.8090170016589079
    outer loop
      vertex -250.7508544921875 -103.43144989013672 910.6831665039062
      vertex -273.4859619140625 -112.84864044189453 928.5238647460938
      vertex -261.89910888671875 -70.58976745605469 910.6831665039062
    endloop
  endfacet
  facet normal -0.5565913655900507 -0.1889375396792146 -0.8090170936701943
    outer loop
      vertex -273.4859619140625 -112.84864044189453 928.5238647460938
      vertex -285.6689147949219 -76.9588623046875 928.5238647460938
      vertex -261.89910888671875 -70.58976745605469 910.6831665039062
    endloop
  endfacet
  facet normal -0.7452870774795751 -0.25299118074608556 0.6168813780676599
    outer loop
      vertex -285.6689147949219 -76.9588623046875 928.5238647460938
      vertex -273.4859619140625 -112.84864044189453 928.5238647460938
      vertex -271.35650634765625 -111.96659088134766 931.4583129882812
    endloop
  endfacet
  facet normal -0.7506319382900484 -0.25582143326817797 0.609185593640838
    outer loop
      vertex -282.78466796875 -76.18603515625 932.40234375
      vertex -285.6689147949219 -76.9588623046875 928.5238647460938
      vertex -271.35650634765625 -111.96659088134766 931.4583129882812
    endloop
  endfacet
  facet normal -0.7930555309032984 -0.2703187808999281 0.5458852274942639
    outer loop
      vertex -280.4584045410156 -75.56271362304688 936.090576171875
      vertex -282.78466796875 -76.18603515625 932.40234375
      vertex -269.4001770019531 -111.15625 934.5301513671875
    endloop
  endfacet
  facet normal -0.780407081039245 -0.2642107545763455 0.5667075657073968
    outer loop
      vertex -282.78466796875 -76.18603515625 932.40234375
      vertex -271.35650634765625 -111.96659088134766 931.4583129882812
      vertex -269.4001770019531 -111.15625 934.5301513671875
    endloop
  endfacet
  facet normal -0.8306555041667144 -0.2833059624342201 0.4793215674750739
    outer loop
      vertex -278.1893310546875 -74.9547119140625 940.3822021484375
      vertex -280.4584045410156 -75.56271362304688 936.090576171875
      vertex -267.109130859375 -110.207275390625 938.7477416992188
    endloop
  endfacet
  facet normal -0.8171596402556826 -0.2760591286632222 0.5060054148118436
    outer loop
      vertex -280.4584045410156 -75.56271362304688 936.090576171875
      vertex -269.4001770019531 -111.15625 934.5301513671875
      vertex -267.109130859375 -110.207275390625 938.7477416992188
    endloop
  endfacet
  facet normal -0.8648986067614198 -0.29494038591979777 0.40615338084969266
    outer loop
      vertex -276.2667236328125 -74.43955993652344 944.8504638671875
      vertex -278.1893310546875 -74.9547119140625 940.3822021484375
      vertex -265.1443176269531 -109.3934097290039 943.1527099609375
    endloop
  endfacet
  facet normal -0.8535139191372842 -0.28838872880155514 0.4339883995444309
    outer loop
      vertex -278.1893310546875 -74.9547119140625 940.3822021484375
      vertex -267.109130859375 -110.207275390625 938.7477416992188
      vertex -265.1443176269531 -109.3934097290039 943.1527099609375
    endloop
  endfacet
  facet normal -0.8933740434413223 -0.3046148651744383 0.3302916929322642
    outer loop
      vertex -274.7033386230469 -74.0206527709961 949.4654541015625
      vertex -276.2667236328125 -74.43955993652344 944.8504638671875
      vertex -263.5186767578125 -108.72006225585938 947.7158813476562
    endloop
  endfacet
  facet normal -0.8841850562421206 -0.2987911183767652 0.3590830738106153
    outer loop
      vertex -276.2667236328125 -74.43955993652344 944.8504638671875
      vertex -265.1443176269531 -109.3934097290039 943.1527099609375
      vertex -263.5186767578125 -108.72006225585938 947.7158813476562
    endloop
  endfacet
  facet normal -0.9158974508436392 -0.312266577274327 0.2522329166772259
    outer loop
      vertex -273.5094909667969 -73.70075988769531 954.196533203125
      vertex -274.7033386230469 -74.0206527709961 949.4654541015625
      vertex -262.2430419921875 -108.19166564941406 952.40673828125
    endloop
  endfacet
  facet normal -0.9089693015092841 -0.30719616505501174 0.28178950493092886
    outer loop
      vertex -274.7033386230469 -74.0206527709961 949.4654541015625
      vertex -263.5186767578125 -108.72006225585938 947.7158813476562
      vertex -262.2430419921875 -108.19166564941406 952.40673828125
    endloop
  endfacet
  facet normal -0.9323193129779065 -0.3178458258126991 0.1724955931664565
    outer loop
      vertex -272.6930847167969 -73.48200225830078 959.01220703125
      vertex -273.5094909667969 -73.70075988769531 954.196533203125
      vertex -261.3257751464844 -107.81172180175781 957.1942138671875
    endloop
  endfacet
  facet normal -0.9277010048190115 -0.3135481558446051 0.2026287235913101
    outer loop
      vertex -273.5094909667969 -73.70075988769531 954.196533203125
      vertex -262.2430419921875 -108.19166564941406 952.40673828125
      vertex -261.3257751464844 -107.81172180175781 957.1942138671875
    endloop
  endfacet
  facet normal -0.9420457599124411 -0.3204662733685954 0.09925297912020518
    outer loop
      vertex -272.3116149902344 -73.37979125976562 962.962890625
      vertex -272.6930847167969 -73.48200225830078 959.01220703125
      vertex -260.7729797363281 -107.58274841308594 962.0463256835938
    endloop
  endfacet
  facet normal -0.9402582240777585 -0.317806836786088 0.12211996784375848
    outer loop
      vertex -272.6930847167969 -73.48200225830078 959.01220703125
      vertex -261.3257751464844 -107.81172180175781 957.1942138671875
      vertex -260.7729797363281 -107.58274841308594 962.0463256835938
    endloop
  endfacet
  facet normal -0.9464102130254569 -0.3212626760929698 0.033136107657552184
    outer loop
      vertex -272.18426513671875 -73.34566497802734 966.9310302734375
      vertex -272.3116149902344 -73.37979125976562 962.962890625
      vertex -260.58831787109375 -107.50625610351562 966.9310302734375
    endloop
  endfacet
  facet normal -0.9464126648545318 -0.32037294086651064 0.04079517818918095
    outer loop
      vertex -272.3116149902344 -73.37979125976562 962.962890625
      vertex -260.7729797363281 -107.58274841308594 962.0463256835938
      vertex -260.58831787109375 -107.50625610351562 966.9310302734375
    endloop
  endfacet
  facet normal -0.9469302212706904 -0.32143919494088047 0.0
    outer loop
      vertex -260.58831787109375 -107.50625610351562 966.9310302734375
      vertex -260.58831787109375 -107.50625610351562 1773.77001953125
      vertex -272.18426513671875 -73.34566497802734 966.9310302734375
    endloop
  endfacet
  facet normal -0.9469302212706904 -0.32143919494088047 0.0
    outer loop
      vertex -260.58831787109375 -107.50625610351562 1773.77001953125
      vertex -272.18426513671875 -73.34566497802734 1773.77001953125
      vertex -272.18426513671875 -73.34566497802734 966.9310302734375
    endloop
  endfacet
  facet normal -0.94606290704402 -0.32114478170902944 -0.042790245342576125
    outer loop
      vertex -272.18426513671875 -73.34566497802734 1773.77001953125
      vertex -260.58831787109375 -107.50625610351562 1773.77001953125
      vertex -260.71783447265625 -107.55989837646484 1777.0361328125
    endloop
  endfacet
  facet normal -0.9454515831173109 -0.32173191563585957 -0.05108696939778956
    outer loop
      vertex -272.3772888183594 -73.39738464355469 1777.66796875
      vertex -272.18426513671875 -73.34566497802734 1773.77001953125
      vertex -260.71783447265625 -107.55989837646484 1777.0361328125
    endloop
  endfacet
  facet normal -0.9354330590820824 -0.3188156279652404 -0.15271407054186767
    outer loop
      vertex -272.9543151855469 -73.552001953125 1781.5252685546875
      vertex -272.3772888183594 -73.39738464355469 1777.66796875
      vertex -261.10540771484375 -107.72044372558594 1780.2783203125
    endloop
  endfacet
  facet normal -0.9393299771003775 -0.3182192992786221 -0.12804558441128394
    outer loop
      vertex -272.3772888183594 -73.39738464355469 1777.66796875
      vertex -260.71783447265625 -107.55989837646484 1777.0361328125
      vertex -261.10540771484375 -107.72044372558594 1780.2783203125
    endloop
  endfacet
  facet normal -0.915794330182008 -0.31214462089807454 -0.25275775052584404
    outer loop
      vertex -273.9093933105469 -73.80791473388672 1785.3017578125
      vertex -272.9543151855469 -73.552001953125 1781.5252685546875
      vertex -261.90228271484375 -108.0505142211914 1784.0855712890625
    endloop
  endfacet
  facet normal -0.9240152693120424 -0.3123830155200679 -0.22048272878568745
    outer loop
      vertex -272.9543151855469 -73.552001953125 1781.5252685546875
      vertex -261.10540771484375 -107.72044372558594 1780.2783203125
      vertex -261.90228271484375 -108.0505142211914 1784.0855712890625
    endloop
  endfacet
  facet normal -0.8903054352597303 -0.3029249441443909 -0.33998927948113256
    outer loop
      vertex -274.9214172363281 -74.07908630371094 1788.1934814453125
      vertex -273.9093933105469 -73.80791473388672 1785.3017578125
      vertex -262.9239501953125 -108.47370910644531 1787.421630859375
    endloop
  endfacet
  facet normal -0.8993610841206187 -0.3042065231710673 -0.31401915806134556
    outer loop
      vertex -273.9093933105469 -73.80791473388672 1785.3017578125
      vertex -261.90228271484375 -108.0505142211914 1784.0855712890625
      vertex -262.9239501953125 -108.47370910644531 1787.421630859375
    endloop
  endfacet
  facet normal -0.8617329525202899 -0.2925193074424329 -0.4145464670143302
    outer loop
      vertex -276.1553039550781 -74.40969848632812 1790.99169921875
      vertex -274.9214172363281 -74.07908630371094 1788.1934814453125
      vertex -264.386474609375 -109.07950592041016 1790.99169921875
    endloop
  endfacet
  facet normal -0.8662538845027884 -0.29308528438130327 -0.40460502179651736
    outer loop
      vertex -274.9214172363281 -74.07908630371094 1788.1934814453125
      vertex -262.9239501953125 -108.47370910644531 1787.421630859375
      vertex -264.386474609375 -109.07950592041016 1790.99169921875
    endloop
  endfacet
  facet normal -0.351815408168914 -0.11942539651542967 0.9284198905894212
    outer loop
      vertex -264.386474609375 -109.07950592041016 1790.99169921875
      vertex -236.6099395751953 -97.57408905029297 1802.997314453125
      vertex -276.1553039550781 -74.40969848632812 1790.99169921875
    endloop
  endfacet
  facet normal -0.35181528453831984 -0.11942514436723588 0.9284199698725173
    outer loop
      vertex -236.6099395751953 -97.57408905029297 1802.997314453125
      vertex -247.1146240234375 -66.6282730102539 1802.997314453125
      vertex -276.1553039550781 -74.40969848632812 1790.99169921875
    endloop
  endfacet
  facet normal 0.7792081648969638 0.26450544194760595 -0.5682178340548703
    outer loop
      vertex -248.5492706298828 -102.51952362060547 913.9559936523438
      vertex -259.5973205566406 -69.97300720214844 913.9559936523438
      vertex -257.2208251953125 -69.33621978759766 917.5113525390625
    endloop
  endfacet
  facet normal 0.8038724225502833 0.27364404796057895 -0.5281174710979436
    outer loop
      vertex -245.43597412109375 -101.2299575805664 918.9238891601562
      vertex -257.2208251953125 -69.33621978759766 917.5113525390625
      vertex -255.011962890625 -68.7443618774414 921.1802368164062
    endloop
  endfacet
  facet normal 0.7845853582234266 0.26508336680607614 -0.560496765650055
    outer loop
      vertex -245.43597412109375 -101.2299575805664 918.9238891601562
      vertex -248.5492706298828 -102.51952362060547 913.9559936523438
      vertex -257.2208251953125 -69.33621978759766 917.5113525390625
    endloop
  endfacet
  facet normal 0.8309412168107079 0.2836263524087555 -0.478636382261571
    outer loop
      vertex -242.90115356445312 -100.18000030517578 923.5774536132812
      vertex -255.011962890625 -68.7443618774414 921.1802368164062
      vertex -252.2327423095703 -67.99967193603516 926.4464111328125
    endloop
  endfacet
  facet normal 0.8165639553991451 0.2759213181818349 -0.5070411550512461
    outer loop
      vertex -242.90115356445312 -100.18000030517578 923.5774536132812
      vertex -245.43597412109375 -101.2299575805664 918.9238891601562
      vertex -255.011962890625 -68.7443618774414 921.1802368164062
    endloop
  endfacet
  facet normal 0.8592384135202249 0.2932488579978572 -0.41918308173660784
    outer loop
      vertex -240.3932647705078 -99.14119720458984 928.9291381835938
      vertex -252.2327423095703 -67.99967193603516 926.4464111328125
      vertex -249.79885864257812 -67.3475112915039 931.8916015625
    endloop
  endfacet
  facet normal 0.8453698368954543 0.28539568766170587 -0.45155192429160906
    outer loop
      vertex -240.3932647705078 -99.14119720458984 928.9291381835938
      vertex -242.90115356445312 -100.18000030517578 923.5774536132812
      vertex -252.2327423095703 -67.99967193603516 926.4464111328125
    endloop
  endfacet
  facet normal 0.8837279578669591 0.3015763683079887 -0.35787789895781286
    outer loop
      vertex -238.2206268310547 -98.24125671386719 934.4488525390625
      vertex -249.79885864257812 -67.3475112915039 931.8916015625
      vertex -247.72103881835938 -66.79076385498047 937.4916381835938
    endloop
  endfacet
  facet normal 0.8719427828100271 0.2944006077557735 -0.3912084682858197
    outer loop
      vertex -238.2206268310547 -98.24125671386719 934.4488525390625
      vertex -240.3932647705078 -99.14119720458984 928.9291381835938
      vertex -249.79885864257812 -67.3475112915039 931.8916015625
    endloop
  endfacet
  facet normal 0.9043031275163789 0.30857266274157524 -0.29498943264576466
    outer loop
      vertex -236.39279174804688 -97.48413848876953 940.1121826171875
      vertex -247.72103881835938 -66.79076385498047 937.4916381835938
      vertex -246.00839233398438 -66.33186340332031 943.2218627929688
    endloop
  endfacet
  facet normal 0.8946549298812176 0.3020963763585581 -0.3291357407366478
    outer loop
      vertex -236.39279174804688 -97.48413848876953 940.1121826171875
      vertex -238.2206268310547 -98.24125671386719 934.4488525390625
      vertex -247.72103881835938 -66.79076385498047 937.4916381835938
    endloop
  endfacet
  facet normal 0.9208714016027167 0.31420738214811555 -0.23080204226539258
    outer loop
      vertex -234.91778564453125 -96.87317657470703 945.8939208984375
      vertex -246.00839233398438 -66.33186340332031 943.2218627929688
      vertex -244.66845703125 -65.97282409667969 949.0568237304688
    endloop
  endfacet
  facet normal 0.9134037853036379 0.3084496856571819 -0.26561686017828684
    outer loop
      vertex -234.91778564453125 -96.87317657470703 945.8939208984375
      vertex -236.39279174804688 -97.48413848876953 940.1121826171875
      vertex -246.00839233398438 -66.33186340332031 943.2218627929688
    endloop
  endfacet
  facet normal 0.9333631478129241 0.31845533136536097 -0.1655881524437295
    outer loop
      vertex -233.80209350585938 -96.41104125976562 951.7686767578125
      vertex -244.66845703125 -65.97282409667969 949.0568237304688
      vertex -243.70713806152344 -65.71524047851562 954.9708251953125
    endloop
  endfacet
  facet normal 0.9281121441455805 0.31343319519427454 -0.20091659971192274
    outer loop
      vertex -233.80209350585938 -96.41104125976562 951.7686767578125
      vertex -234.91778564453125 -96.87317657470703 945.8939208984375
      vertex -244.66845703125 -65.97282409667969 949.0568237304688
    endloop
  endfacet
  facet normal 0.9417210345701527 0.3212976969341336 -0.09964578763270882
    outer loop
      vertex -233.05062866210938 -96.09976959228516 957.7103271484375
      vertex -243.70713806152344 -65.71524047851562 954.9708251953125
      vertex -243.128662109375 -65.56023406982422 960.9376220703125
    endloop
  endfacet
  facet normal 0.9387122198415484 0.3170250136437992 -0.1353311089302894
    outer loop
      vertex -233.05062866210938 -96.09976959228516 957.7103271484375
      vertex -233.80209350585938 -96.41104125976562 951.7686767578125
      vertex -243.70713806152344 -65.71524047851562 954.9708251953125
    endloop
  endfacet
  facet normal 0.9460519334388077 0.3223028772763225 -0.033265515719697235
    outer loop
      vertex -232.72230529785156 -95.96377563476562 962.3145751953125
      vertex -243.128662109375 -65.56023406982422 960.9376220703125
      vertex -242.935546875 -65.50849151611328 966.9310302734375
    endloop
  endfacet
  facet normal 0.9443818734986567 0.31976018699882164 -0.07678736756554427
    outer loop
      vertex -232.72230529785156 -95.96377563476562 962.3145751953125
      vertex -233.05062866210938 -96.09976959228516 957.7103271484375
      vertex -243.128662109375 -65.56023406982422 960.9376220703125
    endloop
  endfacet
  facet normal 0.946619199148744 0.3213342376368395 -0.02562029518450862
    outer loop
      vertex -232.61276245117188 -95.91840362548828 966.9310302734375
      vertex -232.72230529785156 -95.96377563476562 962.3145751953125
      vertex -242.935546875 -65.50849151611328 966.9310302734375
    endloop
  endfacet
  facet normal 0.9465650459116448 0.3213158550716279 0.02776211695592194
    outer loop
      vertex -232.61276245117188 -95.91840362548828 1773.77001953125
      vertex -242.935546875 -65.50849151611328 1773.77001953125
      vertex -243.08639526367188 -65.54891204833984 1779.381103515625
    endloop
  endfacet
  facet normal 0.943468793580791 0.3208492784630507 0.08320081759782501
    outer loop
      vertex -232.7974853515625 -95.99491882324219 1780.1180419921875
      vertex -243.08639526367188 -65.54891204833984 1779.381103515625
      vertex -243.5384979248047 -65.67005920410156 1784.9749755859375
    endloop
  endfacet
  facet normal 0.9466676568112734 0.3206767789893683 0.03141259245043426
    outer loop
      vertex -232.7974853515625 -95.99491882324219 1780.1180419921875
      vertex -232.61276245117188 -95.91840362548828 1773.77001953125
      vertex -243.08639526367188 -65.54891204833984 1779.381103515625
    endloop
  endfacet
  facet normal 0.9369792903486048 0.3192280196123059 0.1419974681190837
    outer loop
      vertex -233.3509063720703 -96.22415161132812 1786.44091796875
      vertex -243.5384979248047 -65.67005920410156 1784.9749755859375
      vertex -244.41156005859375 -65.90399169921875 1791.2618408203125
    endloop
  endfacet
  facet normal 0.9430824997192183 0.31896537543260933 0.09410891561634945
    outer loop
      vertex -233.3509063720703 -96.22415161132812 1786.44091796875
      vertex -232.7974853515625 -95.99491882324219 1780.1180419921875
      vertex -243.5384979248047 -65.67005920410156 1784.9749755859375
    endloop
  endfacet
  facet normal 0.9273361019149026 0.3157992768532678 0.20079484760378322
    outer loop
      vertex -234.27085876464844 -96.60520935058594 1792.7139892578125
      vertex -244.41156005859375 -65.90399169921875 1791.2618408203125
      vertex -245.52279663085938 -66.20174407958984 1796.8621826171875
    endloop
  endfacet
  facet normal 0.9356255740617837 0.31643900440841594 0.156432546647328
    outer loop
      vertex -234.27085876464844 -96.60520935058594 1792.7139892578125
      vertex -233.3509063720703 -96.22415161132812 1786.44091796875
      vertex -244.41156005859375 -65.90399169921875 1791.2618408203125
    endloop
  endfacet
  facet normal 0.9143735946824141 0.31128628912712464 0.2588856418363609
    outer loop
      vertex -235.31564331054688 -97.03797149658203 1797.888671875
      vertex -245.52279663085938 -66.20174407958984 1796.8621826171875
      vertex -247.1146240234375 -66.6282730102539 1802.997314453125
    endloop
  endfacet
  facet normal 0.9254081658733941 0.31341319039149707 0.21305374585644835
    outer loop
      vertex -235.31564331054688 -97.03797149658203 1797.888671875
      vertex -234.27085876464844 -96.60520935058594 1792.7139892578125
      vertex -245.52279663085938 -66.20174407958984 1796.8621826171875
    endloop
  endfacet
  facet normal 0.9133516383960563 0.3100409677102011 0.26393821811280344
    outer loop
      vertex -236.6099395751953 -97.57408905029297 1802.997314453125
      vertex -235.31564331054688 -97.03797149658203 1797.888671875
      vertex -247.1146240234375 -66.6282730102539 1802.997314453125
    endloop
  endfacet
endsolid v3d.csg
