solid v3d.csg
  facet normal 0.6087613745951473 -0.7933533820435751 -1.0236124300596119E-6
    outer loop
      vertex -226.4006805419922 -173.2191619873047 947.7158813476562
      vertex -203.10714721679688 -155.34539794921875 940.1121826171875
      vertex -225.3052520751953 -172.3786163330078 952.40673828125
    endloop
  endfacet
  facet normal 0.608761699598397 -0.7933531326586606 1.6616425556303693E-6
    outer loop
      vertex -201.8405303955078 -154.37350463867188 945.8939208984375
      vertex -200.88247680664062 -153.6383514404297 951.7686767578125
      vertex -224.51759338378906 -171.7742156982422 957.1942138671875
    endloop
  endfacet
  facet normal 0.6087614514105537 -0.7933533231017015 -5.612244322660411E-8
    outer loop
      vertex -200.88247680664062 -153.6383514404297 951.7686767578125
      vertex -200.23716735839844 -153.1431884765625 957.7103271484375
      vertex -224.51759338378906 -171.7742156982422 957.1942138671875
    endloop
  endfacet
  facet normal 0.6087616231985935 -0.7933531912827998 1.4180537504236543E-6
    outer loop
      vertex -225.3052520751953 -172.3786163330078 952.40673828125
      vertex -201.8405303955078 -154.37350463867188 945.8939208984375
      vertex -224.51759338378906 -171.7742156982422 957.1942138671875
    endloop
  endfacet
  facet normal 0.6087616521820569 -0.7933531690442253 2.392204688757416E-7
    outer loop
      vertex -200.23716735839844 -153.1431884765625 957.7103271484375
      vertex -199.95523071289062 -152.92684936523438 962.3145751953125
      vertex -224.0428924560547 -171.40997314453125 962.0463256835938
    endloop
  endfacet
  facet normal 0.6087614688534992 -0.7933533097160941 -1.3599249011923702E-6
    outer loop
      vertex -224.51759338378906 -171.7742156982422 957.1942138671875
      vertex -200.23716735839844 -153.1431884765625 957.7103271484375
      vertex -224.0428924560547 -171.40997314453125 962.0463256835938
    endloop
  endfacet
  facet normal 0.6087616626559021 -0.79335316100723 5.075722976384338E-7
    outer loop
      vertex -199.95523071289062 -152.92684936523438 962.3145751953125
      vertex -199.86117553710938 -152.85467529296875 966.9310302734375
      vertex -223.88430786132812 -171.2882843017578 966.9310302734375
    endloop
  endfacet
  facet normal 0.6087616509753123 -0.7933531699701228 4.113778576708234E-7
    outer loop
      vertex -224.0428924560547 -171.40997314453125 962.0463256835938
      vertex -199.95523071289062 -152.92684936523438 962.3145751953125
      vertex -223.88430786132812 -171.2882843017578 966.9310302734375
    endloop
  endfacet
  facet normal 0.6087616626559808 -0.7933531610073323 0.0
    outer loop
      vertex -199.86117553710938 -152.85467529296875 966.9310302734375
      vertex -199.86117553710938 -152.85467529296875 1773.77001953125
      vertex -223.88430786132812 -171.2882843017578 1773.77001953125
    endloop
  endfacet
  facet normal 0.6087616626559808 -0.7933531610073323 0.0
    outer loop
      vertex -223.88430786132812 -171.2882843017578 966.9310302734375
      vertex -199.86117553710938 -152.85467529296875 966.9310302734375
      vertex -223.88430786132812 -171.2882843017578 1773.77001953125
    endloop
  endfacet
  facet normal 0.6087615440124954 -0.7933532520448019 -1.2082032562907575E-6
    outer loop
      vertex -199.86117553710938 -152.85467529296875 1773.77001953125
      vertex -200.01979064941406 -152.9763946533203 1780.1180419921875
      vertex -223.9955291748047 -171.37362670898438 1777.0361328125
    endloop
  endfacet
  facet normal 0.6087616626559703 -0.7933531610073188 1.8467626622893087E-7
    outer loop
      vertex -223.88430786132812 -171.2882843017578 1773.77001953125
      vertex -199.86117553710938 -152.85467529296875 1773.77001953125
      vertex -223.9955291748047 -171.37362670898438 1777.0361328125
    endloop
  endfacet
  facet normal 0.6087614630946515 -0.7933533141358696 -7.010410814971372E-7
    outer loop
      vertex -200.01979064941406 -152.9763946533203 1780.1180419921875
      vertex -200.49501037597656 -153.34104919433594 1786.44091796875
      vertex -224.32835388183594 -171.62901306152344 1780.2783203125
    endloop
  endfacet
  facet normal 0.6087614650408615 -0.7933533126427658 -2.3210763695599345E-7
    outer loop
      vertex -223.9955291748047 -171.37362670898438 1777.0361328125
      vertex -200.01979064941406 -152.9763946533203 1780.1180419921875
      vertex -224.32835388183594 -171.62901306152344 1780.2783203125
    endloop
  endfacet
  facet normal 0.6087613255375762 -0.7933534196858884 1.5619992005362927E-6
    outer loop
      vertex -200.49501037597656 -153.34104919433594 1786.44091796875
      vertex -201.28500366210938 -153.9472198486328 1792.7139892578125
      vertex -225.01263427734375 -172.15408325195312 1784.0855712890625
    endloop
  endfacet
  facet normal 0.6087614619490954 -0.7933533150148919 -6.940021732896828E-7
    outer loop
      vertex -224.32835388183594 -171.62901306152344 1780.2783203125
      vertex -200.49501037597656 -153.34104919433594 1786.44091796875
      vertex -225.01263427734375 -172.15408325195312 1784.0855712890625
    endloop
  endfacet
  facet normal 0.6087618102915374 -0.7933530477218558 -1.0063880170350768E-6
    outer loop
      vertex -201.28500366210938 -153.9472198486328 1792.7139892578125
      vertex -202.1821746826172 -154.63565063476562 1797.888671875
      vertex -225.8899688720703 -172.82728576660156 1787.421630859375
    endloop
  endfacet
  facet normal 0.6087616610067578 -0.7933531622728205 9.631065436166677E-8
    outer loop
      vertex -225.01263427734375 -172.15408325195312 1784.0855712890625
      vertex -201.28500366210938 -153.9472198486328 1792.7139892578125
      vertex -225.8899688720703 -172.82728576660156 1787.421630859375
    endloop
  endfacet
  facet normal 0.6087612050849073 -0.7933535121131053 1.1715102414990753E-6
    outer loop
      vertex -225.8899688720703 -172.82728576660156 1787.421630859375
      vertex -202.1821746826172 -154.63565063476562 1797.888671875
      vertex -227.1458740234375 -173.7909698486328 1790.99169921875
    endloop
  endfacet
  facet normal 0.608761281492129 -0.7933534534843374 7.321204064786087E-7
    outer loop
      vertex -202.1821746826172 -154.63565063476562 1797.888671875
      vertex -203.29360961914062 -155.4884796142578 1802.997314453125
      vertex -227.1458740234375 -173.7909698486328 1790.99169921875
    endloop
  endfacet
  facet normal 0.6087608907445257 -0.7933537533154058 -5.385558614715227E-7
    outer loop
      vertex -215.4366912841797 -164.8061981201172 910.6831665039062
      vertex -213.54615783691406 -163.3555450439453 913.9559936523438
      vertex -233.1311798095703 -178.38365173339844 931.4583129882812
    endloop
  endfacet
  facet normal 0.6087618780726483 -0.7933529957117613 7.974922138619768E-7
    outer loop
      vertex -234.95977783203125 -179.7867889404297 928.5238647460938
      vertex -215.4366912841797 -164.8061981201172 910.6831665039062
      vertex -233.1311798095703 -178.38365173339844 931.4583129882812
    endloop
  endfacet
  facet normal 0.6087613100830247 -0.7933534315461157 -4.3508198319700296E-8
    outer loop
      vertex -213.54615783691406 -163.3555450439453 913.9559936523438
      vertex -210.87271118164062 -161.30413818359375 918.9238891601562
      vertex -231.45123291015625 -177.09458923339844 934.5301513671875
    endloop
  endfacet
  facet normal 0.6087616044954296 -0.7933532056353094 5.73283027491075E-7
    outer loop
      vertex -210.87271118164062 -161.30413818359375 918.9238891601562
      vertex -208.69601440429688 -159.63389587402344 923.5774536132812
      vertex -231.45123291015625 -177.09458923339844 934.5301513671875
    endloop
  endfacet
  facet normal 0.6087606762513805 -0.793353917901157 -9.198919038255326E-7
    outer loop
      vertex -233.1311798095703 -178.38365173339844 931.4583129882812
      vertex -213.54615783691406 -163.3555450439453 913.9559936523438
      vertex -231.45123291015625 -177.09458923339844 934.5301513671875
    endloop
  endfacet
  facet normal 0.6087614648537499 -0.7933533127861908 -5.41151390301016E-7
    outer loop
      vertex -208.69601440429688 -159.63389587402344 923.5774536132812
      vertex -206.5424346923828 -157.9813995361328 928.9291381835938
      vertex -229.48387145996094 -175.58499145507812 938.7477416992188
    endloop
  endfacet
  facet normal 0.6087608833120808 -0.7933537590166375 -1.807236087452058E-6
    outer loop
      vertex -231.45123291015625 -177.09458923339844 934.5301513671875
      vertex -208.69601440429688 -159.63389587402344 923.5774536132812
      vertex -229.48387145996094 -175.58499145507812 938.7477416992188
    endloop
  endfacet
  facet normal 0.6087610719571842 -0.7933536142663866 3.642362398687204E-8
    outer loop
      vertex -206.5424346923828 -157.9813995361328 928.9291381835938
      vertex -204.67674255371094 -156.5498046875 934.4488525390625
      vertex -227.79664611816406 -174.29031372070312 943.1527099609375
    endloop
  endfacet
  facet normal 0.6087625935556422 -0.7933524466932043 3.6488936117687694E-6
    outer loop
      vertex -229.48387145996094 -175.58499145507812 938.7477416992188
      vertex -206.5424346923828 -157.9813995361328 928.9291381835938
      vertex -227.79664611816406 -174.29031372070312 943.1527099609375
    endloop
  endfacet
  facet normal 0.6087619382132259 -0.7933529495627527 1.7196204889779267E-6
    outer loop
      vertex -204.67674255371094 -156.5498046875 934.4488525390625
      vertex -203.10714721679688 -155.34539794921875 940.1121826171875
      vertex -226.4006805419922 -173.2191619873047 947.7158813476562
    endloop
  endfacet
  facet normal 0.6087607195746747 -0.7933538846572944 -1.450724125847118E-6
    outer loop
      vertex -227.79664611816406 -174.29031372070312 943.1527099609375
      vertex -204.67674255371094 -156.5498046875 934.4488525390625
      vertex -226.4006805419922 -173.2191619873047 947.7158813476562
    endloop
  endfacet
  facet normal 0.6087610178840499 -0.7933536557554807 -2.0468706388609356E-6
    outer loop
      vertex -203.10714721679688 -155.34539794921875 940.1121826171875
      vertex -201.8405303955078 -154.37350463867188 945.8939208984375
      vertex -225.3052520751953 -172.3786163330078 952.40673828125
    endloop
  endfacet
  facet normal -0.49999979162558944 0.8660255240891346 -7.119519332441355E-7
    outer loop
      vertex -217.83811950683594 -126.23078155517578 1779.381103515625
      vertex -244.099609375 -141.39285278320312 1777.66796875
      vertex -218.24346923828125 -126.46480560302734 1784.9749755859375
    endloop
  endfacet
  facet normal -0.4999997785576655 0.8660255316335534 -1.0519279119536574E-6
    outer loop
      vertex -244.61697387695312 -141.69155883789062 1781.5252685546875
      vertex -245.47328186035156 -142.18594360351562 1785.3017578125
      vertex -219.02622985839844 -126.91673278808594 1791.2618408203125
    endloop
  endfacet
  facet normal -0.5000000800602578 0.8660253575616222 4.661397097247613E-9
    outer loop
      vertex -218.24346923828125 -126.46480560302734 1784.9749755859375
      vertex -244.61697387695312 -141.69155883789062 1781.5252685546875
      vertex -219.02622985839844 -126.91673278808594 1791.2618408203125
    endloop
  endfacet
  facet normal -0.49999809314271976 0.8660265047020774 2.673353946323912E-6
    outer loop
      vertex -234.70513916015625 -135.9689483642578 910.6831665039062
      vertex -256.0165710449219 -148.27310180664062 928.5238647460938
      vertex -253.4306182861328 -146.78012084960938 932.40234375
    endloop
  endfacet
  facet normal -0.4999992050399335 0.8660258627515407 -2.210067813449819E-6
    outer loop
      vertex -245.47328186035156 -142.18594360351562 1785.3017578125
      vertex -246.38063049316406 -142.7097930908203 1788.1934814453125
      vertex -220.0225372314453 -127.49195098876953 1796.8621826171875
    endloop
  endfacet
  facet normal -0.49999928997377324 0.8660258137169118 1.2975378008660583E-6
    outer loop
      vertex -234.70513916015625 -135.9689483642578 910.6831665039062
      vertex -253.4306182861328 -146.78012084960938 932.40234375
      vertex -232.64141845703125 -134.7774658203125 913.9559936523438
    endloop
  endfacet
  facet normal -0.49999995478622805 0.8660254298886205 -9.276193662584618E-9
    outer loop
      vertex -219.02622985839844 -126.91673278808594 1791.2618408203125
      vertex -245.47328186035156 -142.18594360351562 1785.3017578125
      vertex -220.0225372314453 -127.49195098876953 1796.8621826171875
    endloop
  endfacet
  facet normal -0.5000010217130759 0.86602481389315 2.686094551225473E-6
    outer loop
      vertex -246.38063049316406 -142.7097930908203 1788.1934814453125
      vertex -247.48687744140625 -143.34849548339844 1790.99169921875
      vertex -221.44972229003906 -128.31593322753906 1802.997314453125
    endloop
  endfacet
  facet normal -0.4999996567041256 0.8660256019862304 -3.7896394885539774E-7
    outer loop
      vertex -220.0225372314453 -127.49195098876953 1796.8621826171875
      vertex -246.38063049316406 -142.7097930908203 1788.1934814453125
      vertex -221.44972229003906 -128.31593322753906 1802.997314453125
    endloop
  endfacet
  facet normal -0.5000006082215609 0.8660250526270498 -6.202329383538661E-7
    outer loop
      vertex -253.4306182861328 -146.78012084960938 932.40234375
      vertex -251.34495544433594 -145.57595825195312 936.090576171875
      vertex -230.5106964111328 -133.5472869873047 917.5113525390625
    endloop
  endfacet
  facet normal -0.5000007230973345 0.8660249863031725 -8.559859890212039E-7
    outer loop
      vertex -232.64141845703125 -134.7774658203125 913.9559936523438
      vertex -253.4306182861328 -146.78012084960938 932.40234375
      vertex -230.5106964111328 -133.5472869873047 917.5113525390625
    endloop
  endfacet
  facet normal -0.5000008046558186 0.866024939214551 -1.4025072253185204E-6
    outer loop
      vertex -251.34495544433594 -145.57595825195312 936.090576171875
      vertex -249.310546875 -144.40138244628906 940.3822021484375
      vertex -228.53028869628906 -132.40390014648438 921.1802368164062
    endloop
  endfacet
  facet normal -0.4999999081940916 0.866025456788493 4.264242926492509E-7
    outer loop
      vertex -230.5106964111328 -133.5472869873047 917.5113525390625
      vertex -251.34495544433594 -145.57595825195312 936.090576171875
      vertex -228.53028869628906 -132.40390014648438 921.1802368164062
    endloop
  endfacet
  facet normal -0.5000000332393838 0.8660253845936223 -2.89409694171093E-7
    outer loop
      vertex -228.53028869628906 -132.40390014648438 921.1802368164062
      vertex -249.310546875 -144.40138244628906 940.3822021484375
      vertex -226.03851318359375 -130.96527099609375 926.4464111328125
    endloop
  endfacet
  facet normal -0.4999999002785167 0.8660254613586171 2.598552472112818E-7
    outer loop
      vertex -249.310546875 -144.40138244628906 940.3822021484375
      vertex -247.5867919921875 -143.4061737060547 944.8504638671875
      vertex -223.85635375976562 -129.7053985595703 931.8916015625
    endloop
  endfacet
  facet normal -0.5000000432861187 0.8660253787931288 -3.1177972187935297E-7
    outer loop
      vertex -226.03851318359375 -130.96527099609375 926.4464111328125
      vertex -249.310546875 -144.40138244628906 940.3822021484375
      vertex -223.85635375976562 -129.7053985595703 931.8916015625
    endloop
  endfacet
  facet normal -0.49999997933311857 0.8660254157164637 -8.545739685944271E-8
    outer loop
      vertex -247.5867919921875 -143.4061737060547 944.8504638671875
      vertex -246.1851043701172 -142.59690856933594 949.4654541015625
      vertex -221.99342346191406 -128.6298370361328 937.4916381835938
    endloop
  endfacet
  facet normal -0.499999909970995 0.8660254557626704 2.361899317122128E-7
    outer loop
      vertex -223.85635375976562 -129.7053985595703 931.8916015625
      vertex -247.5867919921875 -143.4061737060547 944.8504638671875
      vertex -221.99342346191406 -128.6298370361328 937.4916381835938
    endloop
  endfacet
  facet normal -0.4999993651165097 0.8660257703306492 2.5085519130782666E-6
    outer loop
      vertex -246.1851043701172 -142.59690856933594 949.4654541015625
      vertex -245.11473083496094 -141.97894287109375 954.196533203125
      vertex -220.45791625976562 -127.74331665039062 943.2218627929688
    endloop
  endfacet
  facet normal -0.4999997005912267 0.8660255766478501 6.654289663206314E-7
    outer loop
      vertex -221.99342346191406 -128.6298370361328 937.4916381835938
      vertex -246.1851043701172 -142.59690856933594 949.4654541015625
      vertex -220.45791625976562 -127.74331665039062 943.2218627929688
    endloop
  endfacet
  facet normal -0.5000004108084933 0.8660251666029243 -1.3095936348751095E-6
    outer loop
      vertex -245.11473083496094 -141.97894287109375 954.196533203125
      vertex -244.3827667236328 -141.55633544921875 959.01220703125
      vertex -219.25656127929688 -127.04971313476562 949.0568237304688
    endloop
  endfacet
  facet normal -0.5000002261151056 0.8660252732367794 -7.065312903693323E-8
    outer loop
      vertex -220.45791625976562 -127.74331665039062 943.2218627929688
      vertex -245.11473083496094 -141.97894287109375 954.196533203125
      vertex -219.25656127929688 -127.04971313476562 949.0568237304688
    endloop
  endfacet
  facet normal -0.4999999388881847 0.866025439067314 2.785023876463036E-7
    outer loop
      vertex -219.25656127929688 -127.04971313476562 949.0568237304688
      vertex -244.3827667236328 -141.55633544921875 959.01220703125
      vertex -218.39466857910156 -126.5521011352539 954.9708251953125
    endloop
  endfacet
  facet normal -0.49999994777375567 0.866025433936674 1.0184494122908113E-6
    outer loop
      vertex -244.3827667236328 -141.55633544921875 959.01220703125
      vertex -244.04074096679688 -141.35887145996094 962.962890625
      vertex -217.87600708007812 -126.25265502929688 960.9376220703125
    endloop
  endfacet
  facet normal -0.49999991746786765 0.8660254514342588 4.6215982681892634E-7
    outer loop
      vertex -218.39466857910156 -126.5521011352539 954.9708251953125
      vertex -244.3827667236328 -141.55633544921875 959.01220703125
      vertex -217.87600708007812 -126.25265502929688 960.9376220703125
    endloop
  endfacet
  facet normal -0.5000002406585582 0.8660252648394761 1.0484539539721303E-6
    outer loop
      vertex -244.04074096679688 -141.35887145996094 962.962890625
      vertex -243.9265594482422 -141.29295349121094 966.9310302734375
      vertex -217.70286560058594 -126.1526870727539 966.9310302734375
    endloop
  endfacet
  facet normal -0.5000000460263392 0.8660253772108554 -6.740003056350425E-7
    outer loop
      vertex -217.87600708007812 -126.25265502929688 960.9376220703125
      vertex -244.04074096679688 -141.35887145996094 962.962890625
      vertex -217.70286560058594 -126.1526870727539 966.9310302734375
    endloop
  endfacet
  facet normal -0.500000240658833 0.866025264839952 0.0
    outer loop
      vertex -243.9265594482422 -141.29295349121094 966.9310302734375
      vertex -243.9265594482422 -141.29295349121094 1773.77001953125
      vertex -217.70286560058594 -126.1526870727539 1773.77001953125
    endloop
  endfacet
  facet normal -0.500000240658833 0.866025264839952 0.0
    outer loop
      vertex -217.70286560058594 -126.1526870727539 966.9310302734375
      vertex -243.9265594482422 -141.29295349121094 966.9310302734375
      vertex -217.70286560058594 -126.1526870727539 1773.77001953125
    endloop
  endfacet
  facet normal -0.49999970632659385 0.8660255733333115 -2.455377194939943E-6
    outer loop
      vertex -243.9265594482422 -141.29295349121094 1773.77001953125
      vertex -244.099609375 -141.39285278320312 1777.66796875
      vertex -217.83811950683594 -126.23078155517578 1779.381103515625
    endloop
  endfacet
  facet normal -0.5000002406586493 0.866025264839634 8.570798279678184E-7
    outer loop
      vertex -217.70286560058594 -126.1526870727539 1773.77001953125
      vertex -243.9265594482422 -141.29295349121094 1773.77001953125
      vertex -217.83811950683594 -126.23078155517578 1779.381103515625
    endloop
  endfacet
  facet normal -0.5000001977184976 0.8660252896307438 1.20401740586622E-6
    outer loop
      vertex -244.099609375 -141.39285278320312 1777.66796875
      vertex -244.61697387695312 -141.69155883789062 1781.5252685546875
      vertex -218.24346923828125 -126.46480560302734 1784.9749755859375
    endloop
  endfacet
  facet normal 0.831469728171426 0.5555700596095285 -0.0
    outer loop
      vertex -199.86117553710938 -152.85467529296875 966.9310302734375
      vertex -217.70286560058594 -126.1526870727539 966.9310302734375
      vertex -199.86117553710938 -152.85467529296875 1773.77001953125
    endloop
  endfacet
  facet normal 0.831469728171426 0.5555700596095285 -0.0
    outer loop
      vertex -217.70286560058594 -126.1526870727539 966.9310302734375
      vertex -217.70286560058594 -126.1526870727539 1773.77001953125
      vertex -199.86117553710938 -152.85467529296875 1773.77001953125
    endloop
  endfacet
  facet normal 0.6726718244249947 0.44946490975442693 -0.587787301261429
    outer loop
      vertex -213.54615783691406 -163.3555450439453 913.9559936523438
      vertex -215.4366912841797 -164.8061981201172 910.6831665039062
      vertex -232.64141845703125 -134.7774658203125 913.9559936523438
    endloop
  endfacet
  facet normal 0.6726704441982432 0.44946433871039554 -0.5877893174682277
    outer loop
      vertex -215.4366912841797 -164.8061981201172 910.6831665039062
      vertex -234.70513916015625 -135.9689483642578 910.6831665039062
      vertex -232.64141845703125 -134.7774658203125 913.9559936523438
    endloop
  endfacet
  facet normal -0.48872530068540115 -0.32655612625557423 -0.8090171054278874
    outer loop
      vertex -215.4366912841797 -164.8061981201172 910.6831665039062
      vertex -234.95977783203125 -179.7867889404297 928.5238647460938
      vertex -256.0165710449219 -148.27310180664062 928.5238647460938
    endloop
  endfacet
  facet normal -0.4887252821092238 -0.3265560240216772 -0.8090171579159576
    outer loop
      vertex -215.4366912841797 -164.8061981201172 910.6831665039062
      vertex -256.0165710449219 -148.27310180664062 928.5238647460938
      vertex -234.70513916015625 -135.9689483642578 910.6831665039062
    endloop
  endfacet
  facet normal -0.6544137363904824 -0.4372657082095197 0.6168803466211865
    outer loop
      vertex -256.0165710449219 -148.27310180664062 928.5238647460938
      vertex -234.95977783203125 -179.7867889404297 928.5238647460938
      vertex -233.1311798095703 -178.38365173339844 931.4583129882812
    endloop
  endfacet
  facet normal -0.6588433853470087 -0.4413823475327154 0.609185535671196
    outer loop
      vertex -253.4306182861328 -146.78012084960938 932.40234375
      vertex -256.0165710449219 -148.27310180664062 928.5238647460938
      vertex -233.1311798095703 -178.38365173339844 931.4583129882812
    endloop
  endfacet
  facet normal -0.6960696666397564 -0.4663663198458292 0.5458841222251076
    outer loop
      vertex -251.34495544433594 -145.57595825195312 936.090576171875
      vertex -253.4306182861328 -146.78012084960938 932.40234375
      vertex -231.45123291015625 -177.09458923339844 934.5301513671875
    endloop
  endfacet
  facet normal -0.6854318762183649 -0.4571917233058428 0.5667088063586149
    outer loop
      vertex -253.4306182861328 -146.78012084960938 932.40234375
      vertex -233.1311798095703 -178.38365173339844 931.4583129882812
      vertex -231.45123291015625 -177.09458923339844 934.5301513671875
    endloop
  endfacet
  facet normal -0.7290254353272229 -0.48864092610371174 0.47932448297834734
    outer loop
      vertex -249.310546875 -144.40138244628906 940.3822021484375
      vertex -251.34495544433594 -145.57595825195312 936.090576171875
      vertex -229.48387145996094 -175.58499145507812 938.7477416992188
    endloop
  endfacet
  facet normal -0.7178668590653428 -0.4781497405688928 0.5060039508240622
    outer loop
      vertex -251.34495544433594 -145.57595825195312 936.090576171875
      vertex -231.45123291015625 -177.09458923339844 934.5301513671875
      vertex -229.48387145996094 -175.58499145507812 938.7477416992188
    endloop
  endfacet
  facet normal -0.7590921633598278 -0.5087430352784138 0.4061522024825215
    outer loop
      vertex -247.5867919921875 -143.4061737060547 944.8504638671875
      vertex -249.310546875 -144.40138244628906 940.3822021484375
      vertex -227.79664611816406 -174.29031372070312 943.1527099609375
    endloop
  endfacet
  facet normal -0.7497900453139283 -0.4994670073119219 0.4339903185037767
    outer loop
      vertex -249.310546875 -144.40138244628906 940.3822021484375
      vertex -229.48387145996094 -175.58499145507812 938.7477416992188
      vertex -227.79664611816406 -174.29031372070312 943.1527099609375
    endloop
  endfacet
  facet normal -0.7840932313870014 -0.5254577520410626 0.33029071333151855
    outer loop
      vertex -246.1851043701172 -142.59690856933594 949.4654541015625
      vertex -247.5867919921875 -143.4061737060547 944.8504638671875
      vertex -226.4006805419922 -173.2191619873047 947.7158813476562
    endloop
  endfacet
  facet normal -0.7767246897287143 -0.5174541962768833 0.3590820395414914
    outer loop
      vertex -247.5867919921875 -143.4061737060547 944.8504638671875
      vertex -227.79664611816406 -174.29031372070312 943.1527099609375
      vertex -226.4006805419922 -173.2191619873047 947.7158813476562
    endloop
  endfacet
  facet normal -0.8038685828686687 -0.5386787903499543 0.25223097015201823
    outer loop
      vertex -245.11473083496094 -141.97894287109375 954.196533203125
      vertex -246.1851043701172 -142.59690856933594 949.4654541015625
      vertex -225.3052520751953 -172.3786163330078 952.40673828125
    endloop
  endfacet
  facet normal -0.7984880133749178 -0.5319870039250298 0.2817919802823484
    outer loop
      vertex -246.1851043701172 -142.59690856933594 949.4654541015625
      vertex -226.4006805419922 -173.2191619873047 947.7158813476562
      vertex -225.3052520751953 -172.3786163330078 952.40673828125
    endloop
  endfacet
  facet normal -0.8182866719355001 -0.5483177896365733 0.1724949973210408
    outer loop
      vertex -244.3827667236328 -141.55633544921875 959.01220703125
      vertex -245.11473083496094 -141.97894287109375 954.196533203125
      vertex -224.51759338378906 -171.7742156982422 957.1942138671875
    endloop
  endfacet
  facet normal -0.8149383630845992 -0.5429717103927166 0.20262572908246804
    outer loop
      vertex -245.11473083496094 -141.97894287109375 954.196533203125
      vertex -225.3052520751953 -172.3786163330078 952.40673828125
      vertex -224.51759338378906 -171.7742156982422 957.1942138671875
    endloop
  endfacet
  facet normal -0.8270032571903423 -0.5533660615135875 0.09925529991645368
    outer loop
      vertex -244.04074096679688 -141.35887145996094 962.962890625
      vertex -244.3827667236328 -141.55633544921875 959.01220703125
      vertex -224.0428924560547 -171.40997314453125 962.0463256835938
    endloop
  endfacet
  facet normal -0.8259650044493857 -0.5503348301451957 0.12212037567083146
    outer loop
      vertex -244.3827667236328 -141.55633544921875 959.01220703125
      vertex -224.51759338378906 -171.7742156982422 957.1942138671875
      vertex -224.0428924560547 -171.40997314453125 962.0463256835938
    endloop
  endfacet
  facet normal -0.8310128549619841 -0.5552653783452022 0.033136000046650724
    outer loop
      vertex -243.9265594482422 -141.29295349121094 966.9310302734375
      vertex -244.04074096679688 -141.35887145996094 962.962890625
      vertex -223.88430786132812 -171.2882843017578 966.9310302734375
    endloop
  endfacet
  facet normal -0.8312455933377773 -0.5544062226403313 0.0407983315125269
    outer loop
      vertex -244.04074096679688 -141.35887145996094 962.962890625
      vertex -224.0428924560547 -171.40997314453125 962.0463256835938
      vertex -223.88430786132812 -171.2882843017578 966.9310302734375
    endloop
  endfacet
  facet normal -0.8314694547761822 -0.5555704687743925 0.0
    outer loop
      vertex -223.88430786132812 -171.2882843017578 966.9310302734375
      vertex -223.88430786132812 -171.2882843017578 1773.77001953125
      vertex -243.9265594482422 -141.29295349121094 966.9310302734375
    endloop
  endfacet
  facet normal -0.8314694547761822 -0.5555704687743925 0.0
    outer loop
      vertex -223.88430786132812 -171.2882843017578 1773.77001953125
      vertex -243.9265594482422 -141.29295349121094 1773.77001953125
      vertex -243.9265594482422 -141.29295349121094 966.9310302734375
    endloop
  endfacet
  facet normal -0.8307078399685401 -0.5550615737172421 -0.042791751510554754
    outer loop
      vertex -243.9265594482422 -141.29295349121094 1773.77001953125
      vertex -223.88430786132812 -171.2882843017578 1773.77001953125
      vertex -223.9955291748047 -171.37362670898438 1777.0361328125
    endloop
  endfacet
  facet normal -0.8299659386647948 -0.5554701868569237 -0.05108240567357869
    outer loop
      vertex -244.099609375 -141.39285278320312 1777.66796875
      vertex -243.9265594482422 -141.29295349121094 1773.77001953125
      vertex -223.9955291748047 -171.37362670898438 1777.0361328125
    endloop
  endfacet
  facet normal -0.8210426513686083 -0.5500597694410084 -0.15271939849315333
    outer loop
      vertex -244.61697387695312 -141.69155883789062 1781.5252685546875
      vertex -244.099609375 -141.39285278320312 1777.66796875
      vertex -224.32835388183594 -171.62901306152344 1780.2783203125
    endloop
  endfacet
  facet normal -0.8249616600185498 -0.5504924601778559 -0.1280480799808047
    outer loop
      vertex -244.099609375 -141.39285278320312 1777.66796875
      vertex -223.9955291748047 -171.37362670898438 1777.0361328125
      vertex -224.32835388183594 -171.62901306152344 1780.2783203125
    endloop
  endfacet
  facet normal -0.8037996810190388 -0.5385339113664129 -0.2527593699590265
    outer loop
      vertex -245.47328186035156 -142.18594360351562 1785.3017578125
      vertex -244.61697387695312 -141.69155883789062 1781.5252685546875
      vertex -225.01263427734375 -172.15408325195312 1784.0855712890625
    endloop
  endfacet
  facet normal -0.8116798239766189 -0.5408922263488357 -0.22048007353201954
    outer loop
      vertex -244.61697387695312 -141.69155883789062 1781.5252685546875
      vertex -224.32835388183594 -171.62901306152344 1780.2783203125
      vertex -225.01263427734375 -172.15408325195312 1784.0855712890625
    endloop
  endfacet
  facet normal -0.7815672712014025 -0.5230320022841792 -0.33998547788603545
    outer loop
      vertex -246.38063049316406 -142.7097930908203 1788.1934814453125
      vertex -245.47328186035156 -142.18594360351562 1785.3017578125
      vertex -225.8899688720703 -172.82728576660156 1787.421630859375
    endloop
  endfacet
  facet normal -0.7899806466695496 -0.5266128320479434 -0.314021500872161
    outer loop
      vertex -245.47328186035156 -142.18594360351562 1785.3017578125
      vertex -225.01263427734375 -172.15408325195312 1784.0855712890625
      vertex -225.8899688720703 -172.82728576660156 1787.421630859375
    endloop
  endfacet
  facet normal -0.7566630314869464 -0.5055858838893721 -0.4145406744733099
    outer loop
      vertex -247.48687744140625 -143.34849548339844 1790.99169921875
      vertex -246.38063049316406 -142.7097930908203 1788.1934814453125
      vertex -227.1458740234375 -173.7909698486328 1790.99169921875
    endloop
  endfacet
  facet normal -0.7608804238015859 -0.5073014507010137 -0.4046062515485466
    outer loop
      vertex -246.38063049316406 -142.7097930908203 1788.1934814453125
      vertex -225.8899688720703 -172.82728576660156 1787.421630859375
      vertex -227.1458740234375 -173.7909698486328 1790.99169921875
    endloop
  endfacet
  facet normal -0.30891795809204936 -0.20641235360718874 0.9284199671735737
    outer loop
      vertex -227.1458740234375 -173.7909698486328 1790.99169921875
      vertex -203.29360961914062 -155.4884796142578 1802.997314453125
      vertex -221.44972229003906 -128.31593322753906 1802.997314453125
    endloop
  endfacet
  facet normal -0.3089180163469712 -0.20641234188118168 0.9284199503971134
    outer loop
      vertex -227.1458740234375 -173.7909698486328 1790.99169921875
      vertex -221.44972229003906 -128.31593322753906 1802.997314453125
      vertex -247.48687744140625 -143.34849548339844 1790.99169921875
    endloop
  endfacet
  facet normal 0.6841966216371997 0.4571655324813409 -0.5682206075559867
    outer loop
      vertex -213.54615783691406 -163.3555450439453 913.9559936523438
      vertex -232.64141845703125 -134.7774658203125 913.9559936523438
      vertex -230.5106964111328 -133.5472869873047 917.5113525390625
    endloop
  endfacet
  facet normal 0.7056574135112078 0.47237726942619224 -0.5281167769405994
    outer loop
      vertex -210.87271118164062 -161.30413818359375 918.9238891601562
      vertex -230.5106964111328 -133.5472869873047 917.5113525390625
      vertex -228.53028869628906 -132.40390014648438 921.1802368164062
    endloop
  endfacet
  facet normal 0.6892429584044698 0.4591162372952727 -0.5604965878055683
    outer loop
      vertex -210.87271118164062 -161.30413818359375 918.9238891601562
      vertex -213.54615783691406 -163.3555450439453 913.9559936523438
      vertex -230.5106964111328 -133.5472869873047 917.5113525390625
    endloop
  endfacet
  facet normal 0.7292201545379358 0.4890253795998822 -0.4786357114997379
    outer loop
      vertex -208.69601440429688 -159.63389587402344 923.5774536132812
      vertex -228.53028869628906 -132.40390014648438 921.1802368164062
      vertex -226.03851318359375 -130.96527099609375 926.4464111328125
    endloop
  endfacet
  facet normal 0.7173268185251025 0.4778616185508344 -0.507040934186414
    outer loop
      vertex -208.69601440429688 -159.63389587402344 923.5774536132812
      vertex -210.87271118164062 -161.30413818359375 918.9238891601562
      vertex -228.53028869628906 -132.40390014648438 921.1802368164062
    endloop
  endfacet
  facet normal 0.7540622760548192 0.505643896652809 -0.41918293573186993
    outer loop
      vertex -206.5424346923828 -157.9813995361328 928.9291381835938
      vertex -226.03851318359375 -130.96527099609375 926.4464111328125
      vertex -223.85635375976562 -129.7053985595703 931.8916015625
    endloop
  endfacet
  facet normal 0.7426984624974292 0.49446852920526396 -0.4515527294010497
    outer loop
      vertex -206.5424346923828 -157.9813995361328 928.9291381835938
      vertex -208.69601440429688 -159.63389587402344 923.5774536132812
      vertex -226.03851318359375 -130.96527099609375 926.4464111328125
    endloop
  endfacet
  facet normal 0.7755615410985591 0.5200257276960509 -0.3578792233463974
    outer loop
      vertex -204.67674255371094 -156.5498046875 934.4488525390625
      vertex -223.85635375976562 -129.7053985595703 931.8916015625
      vertex -221.99342346191406 -128.6298370361328 937.4916381835938
    endloop
  endfacet
  facet normal 0.7660352978736108 0.51004440325061 -0.39120918844579494
    outer loop
      vertex -204.67674255371094 -156.5498046875 934.4488525390625
      vertex -206.5424346923828 -157.9813995361328 928.9291381835938
      vertex -223.85635375976562 -129.7053985595703 931.8916015625
    endloop
  endfacet
  facet normal 0.7936257213994401 0.5321096224038968 -0.2949873964738162
    outer loop
      vertex -203.10714721679688 -155.34539794921875 940.1121826171875
      vertex -221.99342346191406 -128.6298370361328 937.4916381835938
      vertex -220.45791625976562 -127.74331665039062 943.2218627929688
    endloop
  endfacet
  facet normal 0.7859819144907744 0.5233562339557822 -0.3291362673316897
    outer loop
      vertex -203.10714721679688 -155.34539794921875 940.1121826171875
      vertex -204.67674255371094 -156.5498046875 934.4488525390625
      vertex -221.99342346191406 -128.6298370361328 937.4916381835938
    endloop
  endfacet
  facet normal 0.8081705125516095 0.5418401609611154 -0.23080221535267204
    outer loop
      vertex -201.8405303955078 -154.37350463867188 945.8939208984375
      vertex -220.45791625976562 -127.74331665039062 943.2218627929688
      vertex -219.25656127929688 -127.04971313476562 949.0568237304688
    endloop
  endfacet
  facet normal 0.8024477602978873 0.5343461574332766 -0.2656158429559435
    outer loop
      vertex -201.8405303955078 -154.37350463867188 945.8939208984375
      vertex -203.10714721679688 -155.34539794921875 940.1121826171875
      vertex -220.45791625976562 -127.74331665039062 943.2218627929688
    endloop
  endfacet
  facet normal 0.8191374152166102 0.5491763311825696 -0.16558759694223282
    outer loop
      vertex -200.88247680664062 -153.6383514404297 951.7686767578125
      vertex -219.25656127929688 -127.04971313476562 949.0568237304688
      vertex -218.39466857910156 -126.5521011352539 954.9708251953125
    endloop
  endfacet
  facet normal 0.8153652911960825 0.542966448550806 -0.20091510062922774
    outer loop
      vertex -200.88247680664062 -153.6383514404297 951.7686767578125
      vertex -201.8405303955078 -154.37350463867188 945.8939208984375
      vertex -219.25656127929688 -127.04971313476562 949.0568237304688
    endloop
  endfacet
  facet normal 0.8264744416639566 0.5540850862002601 -0.09964795294787375
    outer loop
      vertex -200.23716735839844 -153.1431884765625 957.7103271484375
      vertex -218.39466857910156 -126.5521011352539 954.9708251953125
      vertex -217.87600708007812 -126.25265502929688 960.9376220703125
    endloop
  endfacet
  facet normal 0.8246739367195047 0.5491792049466085 -0.13533328840224496
    outer loop
      vertex -200.23716735839844 -153.1431884765625 957.7103271484375
      vertex -200.88247680664062 -153.6383514404297 951.7686767578125
      vertex -218.39466857910156 -126.5521011352539 954.9708251953125
    endloop
  endfacet
  facet normal 0.8303979062478407 0.5561768571610682 -0.03326591134538318
    outer loop
      vertex -199.95523071289062 -152.92684936523438 962.3145751953125
      vertex -217.87600708007812 -126.25265502929688 960.9376220703125
      vertex -217.70286560058594 -126.1526870727539 966.9310302734375
    endloop
  endfacet
  facet normal 0.8294428487648847 0.5532885810348768 -0.07678741257006355
    outer loop
      vertex -199.95523071289062 -152.92684936523438 962.3145751953125
      vertex -200.23716735839844 -153.1431884765625 957.7103271484375
      vertex -217.87600708007812 -126.25265502929688 960.9376220703125
    endloop
  endfacet
  facet normal 0.8311968505136516 0.5553877286701577 -0.025617699716986603
    outer loop
      vertex -199.86117553710938 -152.85467529296875 966.9310302734375
      vertex -199.95523071289062 -152.92684936523438 962.3145751953125
      vertex -217.70286560058594 -126.1526870727539 966.9310302734375
    endloop
  endfacet
  facet normal 0.83114920033898 0.5553558898557238 0.027764048307679354
    outer loop
      vertex -199.86117553710938 -152.85467529296875 1773.77001953125
      vertex -217.70286560058594 -126.1526870727539 1773.77001953125
      vertex -217.83811950683594 -126.23078155517578 1779.381103515625
    endloop
  endfacet
  facet normal 0.8282789143776432 0.5541043358472187 0.08320111172758016
    outer loop
      vertex -200.01979064941406 -152.9763946533203 1780.1180419921875
      vertex -217.83811950683594 -126.23078155517578 1779.381103515625
      vertex -218.24346923828125 -126.46480560302734 1784.9749755859375
    endloop
  endfacet
  facet normal 0.8314134945823525 0.5547656469883872 0.03141143021126165
    outer loop
      vertex -200.01979064941406 -152.9763946533203 1780.1180419921875
      vertex -199.86117553710938 -152.85467529296875 1773.77001953125
      vertex -217.83811950683594 -126.23078155517578 1779.381103515625
    endloop
  endfacet
  facet normal 0.8224300256915044 0.550859140519766 0.14199669061952122
    outer loop
      vertex -200.49501037597656 -153.34104919433594 1786.44091796875
      vertex -218.24346923828125 -126.46480560302734 1784.9749755859375
      vertex -219.02622985839844 -126.91673278808594 1791.2618408203125
    endloop
  endfacet
  facet normal 0.8283933564205387 0.5521850742411876 0.0941068054051807
    outer loop
      vertex -200.49501037597656 -153.34104919433594 1786.44091796875
      vertex -200.01979064941406 -152.9763946533203 1780.1180419921875
      vertex -218.24346923828125 -126.46480560302734 1784.9749755859375
    endloop
  endfacet
  facet normal 0.8140029364820756 0.5450510111176551 0.20079495680464615
    outer loop
      vertex -201.28500366210938 -153.9472198486328 1792.7139892578125
      vertex -219.02622985839844 -126.91673278808594 1791.2618408203125
      vertex -220.0225372314453 -127.49195098876953 1796.8621826171875
    endloop
  endfacet
  facet normal 0.8218442018137869 0.5478143605125387 0.15643380185016809
    outer loop
      vertex -201.28500366210938 -153.9472198486328 1792.7139892578125
      vertex -200.49501037597656 -153.34104919433594 1786.44091796875
      vertex -219.02622985839844 -126.91673278808594 1791.2618408203125
    endloop
  endfacet
  facet normal 0.8026505403763615 0.5373371507248171 0.2588839440453385
    outer loop
      vertex -202.1821746826172 -154.63565063476562 1797.888671875
      vertex -220.0225372314453 -127.49195098876953 1796.8621826171875
      vertex -221.44972229003906 -128.31593322753906 1802.997314453125
    endloop
  endfacet
  facet normal 0.8127583209055697 0.5422473791098403 0.21305326011884435
    outer loop
      vertex -202.1821746826172 -154.63565063476562 1797.888671875
      vertex -201.28500366210938 -153.9472198486328 1792.7139892578125
      vertex -220.0225372314453 -127.49195098876953 1796.8621826171875
    endloop
  endfacet
  facet normal 0.8019856570279009 0.5358696142132671 0.26393704265307344
    outer loop
      vertex -203.29360961914062 -155.4884796142578 1802.997314453125
      vertex -202.1821746826172 -154.63565063476562 1797.888671875
      vertex -221.44972229003906 -128.31593322753906 1802.997314453125
    endloop
  endfacet
endsolid v3d.csg
