solid v3d.csg
  facet normal 1.0 0.0 -0.0
    outer loop
      vertex -0.4000000059604645 -254.1074981689453 945.8939208984375
      vertex -0.4000000059604645 -252.89988708496094 951.7686767578125
      vertex -0.4000000059604645 -282.6912841796875 957.1942138671875
    endloop
  endfacet
  facet normal 1.0 0.0 -0.0
    outer loop
      vertex -0.4000000059604645 -252.89988708496094 951.7686767578125
      vertex -0.4000000059604645 -252.08648681640625 957.7103271484375
      vertex -0.4000000059604645 -282.6912841796875 957.1942138671875
    endloop
  endfacet
  facet normal 1.0 -0.0 0.0
    outer loop
      vertex -0.4000000059604645 -283.68414306640625 952.40673828125
      vertex -0.4000000059604645 -254.1074981689453 945.8939208984375
      vertex -0.4000000059604645 -282.6912841796875 957.1942138671875
    endloop
  endfacet
  facet normal 1.0 0.0 -0.0
    outer loop
      vertex -0.4000000059604645 -252.08648681640625 957.7103271484375
      vertex -0.4000000059604645 -251.7311248779297 962.3145751953125
      vertex -0.4000000059604645 -282.09295654296875 962.0463256835938
    endloop
  endfacet
  facet normal 1.0 0.0 0.0
    outer loop
      vertex -0.4000000059604645 -282.6912841796875 957.1942138671875
      vertex -0.4000000059604645 -252.08648681640625 957.7103271484375
      vertex -0.4000000059604645 -282.09295654296875 962.0463256835938
    endloop
  endfacet
  facet normal 1.0 0.0 -0.0
    outer loop
      vertex -0.4000000059604645 -251.7311248779297 962.3145751953125
      vertex -0.4000000059604645 -251.61256408691406 966.9310302734375
      vertex -0.4000000059604645 -281.89306640625 966.9310302734375
    endloop
  endfacet
  facet normal 1.0 0.0 0.0
    outer loop
      vertex -0.4000000059604645 -282.09295654296875 962.0463256835938
      vertex -0.4000000059604645 -251.7311248779297 962.3145751953125
      vertex -0.4000000059604645 -281.89306640625 966.9310302734375
    endloop
  endfacet
  facet normal 1.0 0.0 -0.0
    outer loop
      vertex -0.4000000059604645 -251.61256408691406 966.9310302734375
      vertex -0.4000000059604645 -251.61256408691406 1773.77001953125
      vertex -0.4000000059604645 -281.89306640625 1773.77001953125
    endloop
  endfacet
  facet normal 1.0 0.0 0.0
    outer loop
      vertex -0.4000000059604645 -281.89306640625 966.9310302734375
      vertex -0.4000000059604645 -251.61256408691406 966.9310302734375
      vertex -0.4000000059604645 -281.89306640625 1773.77001953125
    endloop
  endfacet
  facet normal 1.0 0.0 0.0
    outer loop
      vertex -0.4000000059604645 -251.61256408691406 1773.77001953125
      vertex -0.4000000059604645 -251.8125 1780.1180419921875
      vertex -0.4000000059604645 -282.0771484375 1777.511474609375
    endloop
  endfacet
  facet normal 1.0 0.0 -0.0
    outer loop
      vertex -0.4000000059604645 -281.89306640625 1773.77001953125
      vertex -0.4000000059604645 -251.61256408691406 1773.77001953125
      vertex -0.4000000059604645 -282.0771484375 1777.511474609375
    endloop
  endfacet
  facet normal 1.0 0.0 0.0
    outer loop
      vertex -0.4000000059604645 -251.8125 1780.1180419921875
      vertex -0.4000000059604645 -252.41151428222656 1786.44091796875
      vertex -0.4000000059604645 -282.6275634765625 1781.2169189453125
    endloop
  endfacet
  facet normal 1.0 0.0 -0.0
    outer loop
      vertex -0.4000000059604645 -282.0771484375 1777.511474609375
      vertex -0.4000000059604645 -251.8125 1780.1180419921875
      vertex -0.4000000059604645 -282.6275634765625 1781.2169189453125
    endloop
  endfacet
  facet normal 1.0 0.0 0.0
    outer loop
      vertex -0.4000000059604645 -252.41151428222656 1786.44091796875
      vertex -0.4000000059604645 -253.40725708007812 1792.7139892578125
      vertex -0.4000000059604645 -283.5851745605469 1785.0015869140625
    endloop
  endfacet
  facet normal 1.0 0.0 -0.0
    outer loop
      vertex -0.4000000059604645 -282.6275634765625 1781.2169189453125
      vertex -0.4000000059604645 -252.41151428222656 1786.44091796875
      vertex -0.4000000059604645 -283.5851745605469 1785.0015869140625
    endloop
  endfacet
  facet normal 1.0 0.0 -0.0
    outer loop
      vertex -0.4000000059604645 -283.5851745605469 1785.0015869140625
      vertex -0.4000000059604645 -253.40725708007812 1792.7139892578125
      vertex -0.4000000059604645 -284.92498779296875 1788.6693115234375
    endloop
  endfacet
  facet normal 1.0 0.0 0.0
    outer loop
      vertex -0.4000000059604645 -253.40725708007812 1792.7139892578125
      vertex -0.4000000059604645 -254.79583740234375 1798.912353515625
      vertex -0.4000000059604645 -284.92498779296875 1788.6693115234375
    endloop
  endfacet
  facet normal 1.0 0.0 0.0
    outer loop
      vertex -0.4000000059604645 -254.79583740234375 1798.912353515625
      vertex -0.4000000059604645 -256.5718078613281 1805.0115966796875
      vertex -0.4000000059604645 -286.4462890625 1791.8387451171875
    endloop
  endfacet
  facet normal 1.0 0.0 -0.0
    outer loop
      vertex -0.4000000059604645 -271.2450866699219 910.6831665039062
      vertex -0.4000000059604645 -268.86212158203125 913.9559936523438
      vertex -0.4000000059604645 -293.5484924316406 931.4583129882812
    endloop
  endfacet
  facet normal 1.0 0.0 0.0
    outer loop
      vertex -0.4000000059604645 -256.5718078613281 1805.0115966796875
      vertex -0.4000000059604645 -258.3682861328125 1810.0677490234375
      vertex -0.4000000059604645 -286.4462890625 1791.8387451171875
    endloop
  endfacet
  facet normal 1.0 0.0 -0.0
    outer loop
      vertex -0.4000000059604645 -284.92498779296875 1788.6693115234375
      vertex -0.4000000059604645 -254.79583740234375 1798.912353515625
      vertex -0.4000000059604645 -286.4462890625 1791.8387451171875
    endloop
  endfacet
  facet normal 1.0 0.0 -0.0
    outer loop
      vertex -0.4000000059604645 -286.4462890625 1791.8387451171875
      vertex -0.4000000059604645 -258.3682861328125 1810.0677490234375
      vertex -0.4000000059604645 -288.4707946777344 1795.1798095703125
    endloop
  endfacet
  facet normal 1.0 0.0 0.0
    outer loop
      vertex -0.4000000059604645 -258.3682861328125 1810.0677490234375
      vertex -0.4000000059604645 -260.4310302734375 1815.0216064453125
      vertex -0.4000000059604645 -288.4707946777344 1795.1798095703125
    endloop
  endfacet
  facet normal 1.0 -0.0 0.0
    outer loop
      vertex -0.4000000059604645 -295.8533935546875 928.5238647460938
      vertex -0.4000000059604645 -271.2450866699219 910.6831665039062
      vertex -0.4000000059604645 -293.5484924316406 931.4583129882812
    endloop
  endfacet
  facet normal 1.0 0.0 -0.0
    outer loop
      vertex -0.4000000059604645 -288.4707946777344 1795.1798095703125
      vertex -0.4000000059604645 -260.4310302734375 1815.0216064453125
      vertex -0.4000000059604645 -290.5776062011719 1798.2862548828125
    endloop
  endfacet
  facet normal 1.0 0.0 -0.0
    outer loop
      vertex -0.4000000059604645 -268.86212158203125 913.9559936523438
      vertex -0.4000000059604645 -265.4923095703125 918.9238891601562
      vertex -0.4000000059604645 -291.43096923828125 934.5301513671875
    endloop
  endfacet
  facet normal 1.0 0.0 -0.0
    outer loop
      vertex -0.4000000059604645 -265.4923095703125 918.9238891601562
      vertex -0.4000000059604645 -262.7486267089844 923.5774536132812
      vertex -0.4000000059604645 -291.43096923828125 934.5301513671875
    endloop
  endfacet
  facet normal 1.0 -0.0 0.0
    outer loop
      vertex -0.4000000059604645 -293.5484924316406 931.4583129882812
      vertex -0.4000000059604645 -268.86212158203125 913.9559936523438
      vertex -0.4000000059604645 -291.43096923828125 934.5301513671875
    endloop
  endfacet
  facet normal 1.0 0.0 -0.0
    outer loop
      vertex -0.4000000059604645 -262.7486267089844 923.5774536132812
      vertex -0.4000000059604645 -260.03411865234375 928.9291381835938
      vertex -0.4000000059604645 -288.951171875 938.7477416992188
    endloop
  endfacet
  facet normal 1.0 -0.0 0.0
    outer loop
      vertex -0.4000000059604645 -291.43096923828125 934.5301513671875
      vertex -0.4000000059604645 -262.7486267089844 923.5774536132812
      vertex -0.4000000059604645 -288.951171875 938.7477416992188
    endloop
  endfacet
  facet normal 1.0 0.0 -0.0
    outer loop
      vertex -0.4000000059604645 -260.03411865234375 928.9291381835938
      vertex -0.4000000059604645 -257.6824645996094 934.4488525390625
      vertex -0.4000000059604645 -286.824462890625 943.1527099609375
    endloop
  endfacet
  facet normal 1.0 -0.0 0.0
    outer loop
      vertex -0.4000000059604645 -288.951171875 938.7477416992188
      vertex -0.4000000059604645 -260.03411865234375 928.9291381835938
      vertex -0.4000000059604645 -286.824462890625 943.1527099609375
    endloop
  endfacet
  facet normal 1.0 0.0 -0.0
    outer loop
      vertex -0.4000000059604645 -257.6824645996094 934.4488525390625
      vertex -0.4000000059604645 -255.7040252685547 940.1121826171875
      vertex -0.4000000059604645 -285.06488037109375 947.7158813476562
    endloop
  endfacet
  facet normal 1.0 -0.0 0.0
    outer loop
      vertex -0.4000000059604645 -286.824462890625 943.1527099609375
      vertex -0.4000000059604645 -257.6824645996094 934.4488525390625
      vertex -0.4000000059604645 -285.06488037109375 947.7158813476562
    endloop
  endfacet
  facet normal 1.0 0.0 -0.0
    outer loop
      vertex -0.4000000059604645 -255.7040252685547 940.1121826171875
      vertex -0.4000000059604645 -254.1074981689453 945.8939208984375
      vertex -0.4000000059604645 -283.68414306640625 952.40673828125
    endloop
  endfacet
  facet normal 1.0 -0.0 0.0
    outer loop
      vertex -0.4000000059604645 -285.06488037109375 947.7158813476562
      vertex -0.4000000059604645 -255.7040252685547 940.1121826171875
      vertex -0.4000000059604645 -283.68414306640625 952.40673828125
    endloop
  endfacet
  facet normal 0.06540320877742617 0.9978589180247959 0.0
    outer loop
      vertex -0.4000000059604645 -251.61256408691406 966.9310302734375
      vertex -32.44544982910156 -249.51219177246094 966.9310302734375
      vertex -32.44544982910156 -249.51219177246094 1773.77001953125
    endloop
  endfacet
  facet normal 0.06540320877742617 0.9978589180247959 0.0
    outer loop
      vertex -0.4000000059604645 -251.61256408691406 1773.77001953125
      vertex -0.4000000059604645 -251.61256408691406 966.9310302734375
      vertex -32.44544982910156 -249.51219177246094 1773.77001953125
    endloop
  endfacet
  facet normal -0.9914448664290376 0.13052615382177785 3.729249485835544E-8
    outer loop
      vertex -32.44544982910156 -249.51219177246094 1773.77001953125
      vertex -36.397850036621094 -279.5336608886719 1773.77001953125
      vertex -32.46632766723633 -249.6707763671875 1779.448486328125
    endloop
  endfacet
  facet normal -0.9914448714393868 0.13052611576152642 8.640160453781605E-7
    outer loop
      vertex -36.42393493652344 -279.73175048828125 1777.66796875
      vertex -36.50190734863281 -280.32403564453125 1781.5252685546875
      vertex -32.52889633178711 -250.14602661132812 1785.10888671875
    endloop
  endfacet
  facet normal -0.9914449145730657 0.13052578813024138 -4.3110942788979264E-7
    outer loop
      vertex -35.00801086425781 -268.97674560546875 910.6831665039062
      vertex -38.22003936767578 -293.3745422363281 928.5238647460938
      vertex -37.830291748046875 -290.4140930175781 932.40234375
    endloop
  endfacet
  facet normal -0.9914448709393604 0.13052611956242804 -9.830798612161494E-8
    outer loop
      vertex -35.00801086425781 -268.97674560546875 910.6831665039062
      vertex -37.830291748046875 -290.4140930175781 932.40234375
      vertex -34.69697189331055 -266.6141662597656 913.9559936523438
    endloop
  endfacet
  facet normal -0.9914448393210185 0.13052635972747018 -1.228260838108116E-7
    outer loop
      vertex -32.46632766723633 -249.6707763671875 1779.448486328125
      vertex -36.42393493652344 -279.73175048828125 1777.66796875
      vertex -32.52889633178711 -250.14602661132812 1785.10888671875
    endloop
  endfacet
  facet normal -0.9914448516757064 0.13052626588376137 -4.2208958067564695E-7
    outer loop
      vertex -32.52889633178711 -250.14602661132812 1785.10888671875
      vertex -36.50190734863281 -280.32403564453125 1781.5252685546875
      vertex -32.647972106933594 -251.05047607421875 1791.3946533203125
    endloop
  endfacet
  facet normal -0.9914448527336897 0.1305262578476614 -3.9784058682347625E-7
    outer loop
      vertex -36.50190734863281 -280.32403564453125 1781.5252685546875
      vertex -36.6309700012207 -281.3043518066406 1785.3017578125
      vertex -32.647972106933594 -251.05047607421875 1791.3946533203125
    endloop
  endfacet
  facet normal -0.9914447876718113 0.13052675203906675 7.27199935196496E-7
    outer loop
      vertex -37.830291748046875 -290.4140930175781 932.40234375
      vertex -37.51594161987305 -288.0263977050781 936.090576171875
      vertex -34.37582778930664 -264.17486572265625 917.5113525390625
    endloop
  endfacet
  facet normal -0.9914447863903073 0.13052676177291456 7.446491130488447E-7
    outer loop
      vertex -34.69697189331055 -266.6141662597656 913.9559936523438
      vertex -37.830291748046875 -290.4140930175781 932.40234375
      vertex -34.37582778930664 -264.17486572265625 917.5113525390625
    endloop
  endfacet
  facet normal -0.9914448876345144 0.1305259927490931 4.98965317958497E-7
    outer loop
      vertex -36.6309700012207 -281.3043518066406 1785.3017578125
      vertex -36.809776306152344 -282.66253662109375 1788.9580078125
      vertex -32.81844711303711 -252.34536743164062 1797.611083984375
    endloop
  endfacet
  facet normal -0.9914448657262747 0.13052615915976074 1.006811616185127E-7
    outer loop
      vertex -32.647972106933594 -251.05047607421875 1791.3946533203125
      vertex -36.6309700012207 -281.3043518066406 1785.3017578125
      vertex -32.81844711303711 -252.34536743164062 1797.611083984375
    endloop
  endfacet
  facet normal -0.9914448736913835 0.13052609865870465 1.2146589778839527E-7
    outer loop
      vertex -32.81844711303711 -252.34536743164062 1797.611083984375
      vertex -36.809776306152344 -282.66253662109375 1788.9580078125
      vertex -33.03965759277344 -254.025634765625 1803.7335205078125
    endloop
  endfacet
  facet normal -0.9914448550410873 0.13052624032153062 2.885070309660716E-7
    outer loop
      vertex -37.51594161987305 -288.0263977050781 936.090576171875
      vertex -37.20931625366211 -285.6973571777344 940.3822021484375
      vertex -34.07734680175781 -261.90765380859375 921.1802368164062
    endloop
  endfacet
  facet normal -0.9914449185427276 0.13052575797702823 -5.710702485062921E-7
    outer loop
      vertex -34.37582778930664 -264.17486572265625 917.5113525390625
      vertex -37.51594161987305 -288.0263977050781 936.090576171875
      vertex -34.07734680175781 -261.90765380859375 921.1802368164062
    endloop
  endfacet
  facet normal -0.9914448171080621 0.13052652844933152 -7.259630948293754E-7
    outer loop
      vertex -36.809776306152344 -282.66253662109375 1788.9580078125
      vertex -37.014156341552734 -284.2149353027344 1792.1484375
      vertex -33.03965759277344 -254.025634765625 1803.7335205078125
    endloop
  endfacet
  facet normal -0.9914449393393162 0.13052560000787908 1.021166868245568E-6
    outer loop
      vertex -37.014156341552734 -284.2149353027344 1792.1484375
      vertex -37.25641632080078 -286.05511474609375 1795.1798095703125
      vertex -33.281429290771484 -255.862060546875 1809.1436767578125
    endloop
  endfacet
  facet normal -0.9914448407627874 0.13052634877597927 -2.49641215927184E-7
    outer loop
      vertex -33.03965759277344 -254.025634765625 1803.7335205078125
      vertex -37.014156341552734 -284.2149353027344 1792.1484375
      vertex -33.281429290771484 -255.862060546875 1809.1436767578125
    endloop
  endfacet
  facet normal -0.9914448410596879 0.13052634652061842 -3.30823494176275E-7
    outer loop
      vertex -37.25641632080078 -286.05511474609375 1795.1798095703125
      vertex -37.531410217285156 -288.1438903808594 1798.2862548828125
      vertex -33.596492767333984 -258.2552185058594 1815.0216064453125
    endloop
  endfacet
  facet normal -0.9914448903848522 0.13052597185896453 2.0320482496273476E-7
    outer loop
      vertex -33.281429290771484 -255.862060546875 1809.1436767578125
      vertex -37.25641632080078 -286.05511474609375 1795.1798095703125
      vertex -33.596492767333984 -258.2552185058594 1815.0216064453125
    endloop
  endfacet
  facet normal -0.9914448642444328 0.13052617041535494 2.0039772805044493E-7
    outer loop
      vertex -34.07734680175781 -261.90765380859375 921.1802368164062
      vertex -37.20931625366211 -285.6973571777344 940.3822021484375
      vertex -33.70178985595703 -259.0550231933594 926.4464111328125
    endloop
  endfacet
  facet normal -0.9914448960099141 0.13052592913224426 -2.3461276802187438E-7
    outer loop
      vertex -37.20931625366211 -285.6973571777344 940.3822021484375
      vertex -36.94951629638672 -283.7239685058594 944.8504638671875
      vertex -33.37289810180664 -256.55682373046875 931.8916015625
    endloop
  endfacet
  facet normal -0.9914448989267907 0.13052590697615685 -3.119724975143648E-7
    outer loop
      vertex -33.70178985595703 -259.0550231933594 926.4464111328125
      vertex -37.20931625366211 -285.6973571777344 940.3822021484375
      vertex -33.37289810180664 -256.55682373046875 931.8916015625
    endloop
  endfacet
  facet normal -0.9914448788945943 0.13052605913598683 -3.3501818431638165E-7
    outer loop
      vertex -36.94951629638672 -283.7239685058594 944.8504638671875
      vertex -36.73825454711914 -282.1192626953125 949.4654541015625
      vertex -33.09211730957031 -254.42410278320312 937.4916381835938
    endloop
  endfacet
  facet normal -0.9914448529690751 0.13052625605951876 4.626414378492552E-7
    outer loop
      vertex -33.37289810180664 -256.55682373046875 931.8916015625
      vertex -36.94951629638672 -283.7239685058594 944.8504638671875
      vertex -33.09211730957031 -254.42410278320312 937.4916381835938
    endloop
  endfacet
  facet normal -0.9914448607126468 0.13052619724208073 4.5134304521769334E-8
    outer loop
      vertex -36.73825454711914 -282.1192626953125 949.4654541015625
      vertex -36.57693099975586 -280.8938903808594 954.196533203125
      vertex -32.860687255859375 -252.6662139892578 943.2218627929688
    endloop
  endfacet
  facet normal -0.99144486368259 0.13052617468311264 -6.312815322834787E-8
    outer loop
      vertex -33.09211730957031 -254.42410278320312 937.4916381835938
      vertex -36.73825454711914 -282.1192626953125 949.4654541015625
      vertex -32.860687255859375 -252.6662139892578 943.2218627929688
    endloop
  endfacet
  facet normal -0.9914448681666294 0.1305261406231597 -2.794483458614489E-7
    outer loop
      vertex -36.57693099975586 -280.8938903808594 954.196533203125
      vertex -36.466609954833984 -280.055908203125 959.01220703125
      vertex -32.679622650146484 -251.2908935546875 949.0568237304688
    endloop
  endfacet
  facet normal -0.9914448610039552 0.13052619502937568 3.9344418060657564E-8
    outer loop
      vertex -32.860687255859375 -252.6662139892578 943.2218627929688
      vertex -36.57693099975586 -280.8938903808594 954.196533203125
      vertex -32.679622650146484 -251.2908935546875 949.0568237304688
    endloop
  endfacet
  facet normal -0.9914448352486557 0.13052639065935603 4.555263485501694E-7
    outer loop
      vertex -32.679622650146484 -251.2908935546875 949.0568237304688
      vertex -36.466609954833984 -280.055908203125 959.01220703125
      vertex -32.54971694946289 -250.30418395996094 954.9708251953125
    endloop
  endfacet
  facet normal -0.9914448610266894 0.1305261948517474 1.1366915509188996E-6
    outer loop
      vertex -36.466609954833984 -280.055908203125 959.01220703125
      vertex -36.41505813598633 -279.66436767578125 962.962890625
      vertex -32.4715461730957 -249.7104034423828 960.9376220703125
    endloop
  endfacet
  facet normal -0.9914448490074739 0.13052628615125875 -3.271732426208139E-7
    outer loop
      vertex -32.54971694946289 -250.30418395996094 954.9708251953125
      vertex -36.466609954833984 -280.055908203125 959.01220703125
      vertex -32.4715461730957 -249.7104034423828 960.9376220703125
    endloop
  endfacet
  facet normal -0.9914448664290367 0.13052615382177774 5.735102438718366E-8
    outer loop
      vertex -36.41505813598633 -279.66436767578125 962.962890625
      vertex -36.397850036621094 -279.5336608886719 966.9310302734375
      vertex -32.44544982910156 -249.51219177246094 966.9310302734375
    endloop
  endfacet
  facet normal -0.9914448690993374 0.13052613353865966 2.141449497759363E-7
    outer loop
      vertex -32.4715461730957 -249.7104034423828 960.9376220703125
      vertex -36.41505813598633 -279.66436767578125 962.962890625
      vertex -32.44544982910156 -249.51219177246094 966.9310302734375
    endloop
  endfacet
  facet normal -0.9914448664290382 0.13052615382177793 0.0
    outer loop
      vertex -36.397850036621094 -279.5336608886719 966.9310302734375
      vertex -36.397850036621094 -279.5336608886719 1773.77001953125
      vertex -32.44544982910156 -249.51219177246094 1773.77001953125
    endloop
  endfacet
  facet normal -0.9914448664290382 0.13052615382177793 0.0
    outer loop
      vertex -32.44544982910156 -249.51219177246094 966.9310302734375
      vertex -36.397850036621094 -279.5336608886719 966.9310302734375
      vertex -32.44544982910156 -249.51219177246094 1773.77001953125
    endloop
  endfacet
  facet normal -0.9914448288384876 0.1305264393416179 -1.4902737321144364E-6
    outer loop
      vertex -36.397850036621094 -279.5336608886719 1773.77001953125
      vertex -36.42393493652344 -279.73175048828125 1777.66796875
      vertex -32.46632766723633 -249.6707763671875 1779.448486328125
    endloop
  endfacet
  facet normal 0.05381899059825057 0.8211143652505607 -0.5682206573419821
    outer loop
      vertex -0.4000000059604645 -268.86212158203125 913.9559936523438
      vertex -34.69697189331055 -266.6141662597656 913.9559936523438
      vertex -34.37582778930664 -264.17486572265625 917.5113525390625
    endloop
  endfacet
  facet normal 0.054815059638260624 0.8474008517327953 -0.5281165645190339
    outer loop
      vertex -0.4000000059604645 -265.4923095703125 918.9238891601562
      vertex -34.37582778930664 -264.17486572265625 917.5113525390625
      vertex -34.07734680175781 -261.90765380859375 921.1802368164062
    endloop
  endfacet
  facet normal 0.05534326926564784 0.8263049313713163 -0.5604973531948516
    outer loop
      vertex -0.4000000059604645 -265.4923095703125 918.9238891601562
      vertex -0.4000000059604645 -268.86212158203125 913.9559936523438
      vertex -34.37582778930664 -264.17486572265625 917.5113525390625
    endloop
  endfacet
  facet normal 0.05595084573549758 0.8762297388245127 -0.4786344614222934
    outer loop
      vertex -0.4000000059604645 -262.7486267089844 923.5774536132812
      vertex -34.07734680175781 -261.90765380859375 921.1802368164062
      vertex -33.70178985595703 -259.0550231933594 926.4464111328125
    endloop
  endfacet
  facet normal 0.057567636593886216 0.8599961985333211 -0.5070429032391941
    outer loop
      vertex -0.4000000059604645 -262.7486267089844 923.5774536132812
      vertex -0.4000000059604645 -265.4923095703125 918.9238891601562
      vertex -34.07734680175781 -261.90765380859375 921.1802368164062
    endloop
  endfacet
  facet normal 0.0578898158729105 0.9060534118423387 -0.41918490443604717
    outer loop
      vertex -0.4000000059604645 -260.03411865234375 928.9291381835938
      vertex -33.70178985595703 -259.0550231933594 926.4464111328125
      vertex -33.37289810180664 -256.55682373046875 931.8916015625
    endloop
  endfacet
  facet normal 0.059837721405665706 0.8902368808900845 -0.45155037703458023
    outer loop
      vertex -0.4000000059604645 -260.03411865234375 928.9291381835938
      vertex -0.4000000059604645 -262.7486267089844 923.5774536132812
      vertex -33.70178985595703 -259.0550231933594 926.4464111328125
    endloop
  endfacet
  facet normal 0.05956810229033836 0.9318659969988224 -0.35787903658487513
    outer loop
      vertex -0.4000000059604645 -257.6824645996094 934.4488525390625
      vertex -33.37289810180664 -256.55682373046875 931.8916015625
      vertex -33.09211730957031 -254.42410278320312 937.4916381835938
    endloop
  endfacet
  facet normal 0.061687628118601616 0.9182319333987315 -0.39120934680031433
    outer loop
      vertex -0.4000000059604645 -257.6824645996094 934.4488525390625
      vertex -0.4000000059604645 -260.03411865234375 928.9291381835938
      vertex -33.37289810180664 -256.55682373046875 931.8916015625
    endloop
  endfacet
  facet normal 0.06097816164342138 0.9535529636384574 -0.29498882917646846
    outer loop
      vertex -0.4000000059604645 -255.7040252685547 940.1121826171875
      vertex -33.09211730957031 -254.42410278320312 937.4916381835938
      vertex -32.860687255859375 -252.6662139892578 943.2218627929688
    endloop
  endfacet
  facet normal 0.06326933562543914 0.9421604494739175 -0.32913626147330116
    outer loop
      vertex -0.4000000059604645 -255.7040252685547 940.1121826171875
      vertex -0.4000000059604645 -257.6824645996094 934.4488525390625
      vertex -33.09211730957031 -254.42410278320312 937.4916381835938
    endloop
  endfacet
  facet normal 0.06211269141277557 0.9710168053067014 -0.2307994310595862
    outer loop
      vertex -0.4000000059604645 -254.1074981689453 945.8939208984375
      vertex -32.860687255859375 -252.6662139892578 943.2218627929688
      vertex -32.679622650146484 -251.2908935546875 949.0568237304688
    endloop
  endfacet
  facet normal 0.06457449166641356 0.961913889588311 -0.2656158956898303
    outer loop
      vertex -0.4000000059604645 -254.1074981689453 945.8939208984375
      vertex -0.4000000059604645 -255.7040252685547 940.1121826171875
      vertex -32.860687255859375 -252.6662139892578 943.2218627929688
    endloop
  endfacet
  facet normal 0.06296826533270072 0.98418285685899 -0.16558714269491856
    outer loop
      vertex -0.4000000059604645 -252.89988708496094 951.7686767578125
      vertex -32.679622650146484 -251.2908935546875 949.0568237304688
      vertex -32.54971694946289 -250.30418395996094 954.9708251953125
    endloop
  endfacet
  facet normal 0.06559865246809508 0.9774096851239926 -0.20091571421914098
    outer loop
      vertex -0.4000000059604645 -252.89988708496094 951.7686767578125
      vertex -0.4000000059604645 -254.1074981689453 945.8939208984375
      vertex -32.679622650146484 -251.2908935546875 949.0568237304688
    endloop
  endfacet
  facet normal 0.06354025162808023 0.9929917852925724 -0.09964913830289948
    outer loop
      vertex -0.4000000059604645 -252.08648681640625 957.7103271484375
      vertex -32.54971694946289 -250.30418395996094 954.9708251953125
      vertex -32.4715461730957 -249.7104034423828 960.9376220703125
    endloop
  endfacet
  facet normal 0.06633625077812116 0.9885768300949243 -0.1353342263884983
    outer loop
      vertex -0.4000000059604645 -252.08648681640625 957.7103271484375
      vertex -0.4000000059604645 -252.89988708496094 951.7686767578125
      vertex -32.54971694946289 -250.30418395996094 954.9708251953125
    endloop
  endfacet
  facet normal 0.06426965117312115 0.997377997079734 -0.0332647392790556
    outer loop
      vertex -0.4000000059604645 -251.7311248779297 962.3145751953125
      vertex -32.4715461730957 -249.7104034423828 960.9376220703125
      vertex -32.44544982910156 -249.51219177246094 966.9310302734375
    endloop
  endfacet
  facet normal 0.06597961916105884 0.9948621954410974 -0.07678477673003513
    outer loop
      vertex -0.4000000059604645 -251.7311248779297 962.3145751953125
      vertex -0.4000000059604645 -252.08648681640625 957.7103271484375
      vertex -32.4715461730957 -249.7104034423828 960.9376220703125
    endloop
  endfacet
  facet normal 0.06538174241583324 0.9975314050364661 -0.025618815832187523
    outer loop
      vertex -0.4000000059604645 -251.61256408691406 966.9310302734375
      vertex -0.4000000059604645 -251.7311248779297 962.3145751953125
      vertex -32.44544982910156 -249.51219177246094 966.9310302734375
    endloop
  endfacet
  facet normal 0.052912412331512705 0.8072830709649834 -0.5877876486917751
    outer loop
      vertex -0.4000000059604645 -268.86212158203125 913.9559936523438
      vertex -0.4000000059604645 -271.2450866699219 910.6831665039062
      vertex -35.00801086425781 -268.97674560546875 910.6831665039062
    endloop
  endfacet
  facet normal 0.05291242709684503 0.8072829591661788 -0.5877878009100043
    outer loop
      vertex -0.4000000059604645 -268.86212158203125 913.9559936523438
      vertex -35.00801086425781 -268.97674560546875 910.6831665039062
      vertex -34.69697189331055 -266.6141662597656 913.9559936523438
    endloop
  endfacet
  facet normal -0.03844319692776044 -0.5865266901670069 -0.8090170346362981
    outer loop
      vertex -0.4000000059604645 -271.2450866699219 910.6831665039062
      vertex -0.4000000059604645 -295.8533935546875 928.5238647460938
      vertex -35.00801086425781 -268.97674560546875 910.6831665039062
    endloop
  endfacet
  facet normal -0.038442895627468374 -0.5865264346598397 -0.8090172341928151
    outer loop
      vertex -0.4000000059604645 -295.8533935546875 928.5238647460938
      vertex -38.22003936767578 -293.3745422363281 928.5238647460938
      vertex -35.00801086425781 -268.97674560546875 910.6831665039062
    endloop
  endfacet
  facet normal -0.051475873515069666 -0.7853716550483205 0.6168805377806326
    outer loop
      vertex -38.22003936767578 -293.3745422363281 928.5238647460938
      vertex -0.4000000059604645 -295.8533935546875 928.5238647460938
      vertex -0.4000000059604645 -293.5484924316406 931.4583129882812
    endloop
  endfacet
  facet normal -0.05090655423595195 -0.7913916794455622 0.6091861229871823
    outer loop
      vertex -37.830291748046875 -290.4140930175781 932.40234375
      vertex -38.22003936767578 -293.3745422363281 928.5238647460938
      vertex -0.4000000059604645 -293.5484924316406 931.4583129882812
    endloop
  endfacet
  facet normal -0.053747313465833085 -0.8361370489806034 0.5458809958381164
    outer loop
      vertex -37.51594161987305 -288.0263977050781 936.090576171875
      vertex -37.830291748046875 -290.4140930175781 932.40234375
      vertex -0.4000000059604645 -291.43096923828125 934.5301513671875
    endloop
  endfacet
  facet normal -0.054550248378977026 -0.8221103576812528 0.5667087701765294
    outer loop
      vertex -37.830291748046875 -290.4140930175781 932.40234375
      vertex -0.4000000059604645 -293.5484924316406 931.4583129882812
      vertex -0.4000000059604645 -291.43096923828125 934.5301513671875
    endloop
  endfacet
  facet normal -0.05613757962689424 -0.8758405308750872 0.47932445861866857
    outer loop
      vertex -37.20931625366211 -285.6973571777344 940.3822021484375
      vertex -37.51594161987305 -288.0263977050781 936.090576171875
      vertex -0.4000000059604645 -288.951171875 938.7477416992188
    endloop
  endfacet
  facet normal -0.05766788127202098 -0.8606012777070511 0.5060038105376157
    outer loop
      vertex -37.51594161987305 -288.0263977050781 936.090576171875
      vertex -0.4000000059604645 -291.43096923828125 934.5301513671875
      vertex -0.4000000059604645 -288.951171875 938.7477416992188
    endloop
  endfacet
  facet normal -0.0584930683640308 -0.9119316613955138 0.4061517030590649
    outer loop
      vertex -36.94951629638672 -283.7239685058594 944.8504638671875
      vertex -37.20931625366211 -285.6973571777344 940.3822021484375
      vertex -0.4000000059604645 -286.824462890625 943.1527099609375
    endloop
  endfacet
  facet normal -0.06018944086992821 -0.8989051222281712 0.4339894151240581
    outer loop
      vertex -37.20931625366211 -285.6973571777344 940.3822021484375
      vertex -0.4000000059604645 -288.951171875 938.7477416992188
      vertex -0.4000000059604645 -286.824462890625 943.1527099609375
    endloop
  endfacet
  facet normal -0.06045199517957545 -0.9419399360883626 0.3302948880631671
    outer loop
      vertex -36.73825454711914 -282.1192626953125 949.4654541015625
      vertex -36.94951629638672 -283.7239685058594 944.8504638671875
      vertex -0.4000000059604645 -285.06488037109375 947.7158813476562
    endloop
  endfacet
  facet normal -0.062315828854062734 -0.931222461088694 0.35908420382710643
    outer loop
      vertex -36.94951629638672 -283.7239685058594 944.8504638671875
      vertex -0.4000000059604645 -286.824462890625 943.1527099609375
      vertex -0.4000000059604645 -285.06488037109375 947.7158813476562
    endloop
  endfacet
  facet normal -0.06200218944038199 -0.9656789851107291 0.2522297092336889
    outer loop
      vertex -36.57693099975586 -280.8938903808594 954.196533203125
      vertex -36.73825454711914 -282.1192626953125 949.4654541015625
      vertex -0.4000000059604645 -283.68414306640625 952.40673828125
    endloop
  endfacet
  facet normal -0.06403552643000868 -0.9573371905512333 0.2817888481510637
    outer loop
      vertex -36.73825454711914 -282.1192626953125 949.4654541015625
      vertex -0.4000000059604645 -285.06488037109375 947.7158813476562
      vertex -0.4000000059604645 -283.68414306640625 952.40673828125
    endloop
  endfacet
  facet normal -0.06313142942987189 -0.9829848736919611 0.17249684261151169
    outer loop
      vertex -36.466609954833984 -280.055908203125 959.01220703125
      vertex -36.57693099975586 -280.8938903808594 954.196533203125
      vertex -0.4000000059604645 -282.6912841796875 957.1942138671875
    endloop
  endfacet
  facet normal -0.06533475433672817 -0.9770730035007924 0.20263197108477257
    outer loop
      vertex -36.57693099975586 -280.8938903808594 954.196533203125
      vertex -0.4000000059604645 -283.68414306640625 952.40673828125
      vertex -0.4000000059604645 -282.6912841796875 957.1942138671875
    endloop
  endfacet
  facet normal -0.06443292059937276 -0.9929740885391228 0.09925148982727286
    outer loop
      vertex -36.41505813598633 -279.66436767578125 962.962890625
      vertex -36.466609954833984 -280.055908203125 959.01220703125
      vertex -0.4000000059604645 -282.09295654296875 962.0463256835938
    endloop
  endfacet
  facet normal -0.06620577232035692 -0.9903050820152121 0.12211732164729643
    outer loop
      vertex -36.466609954833984 -280.055908203125 959.01220703125
      vertex -0.4000000059604645 -282.6912841796875 957.1942138671875
      vertex -0.4000000059604645 -282.09295654296875 962.0463256835938
    endloop
  endfacet
  facet normal -0.06536671484150638 -0.9973110515893292 0.03313395491962002
    outer loop
      vertex -36.397850036621094 -279.5336608886719 966.9310302734375
      vertex -36.41505813598633 -279.66436767578125 962.962890625
      vertex -0.4000000059604645 -281.89306640625 966.9310302734375
    endloop
  endfacet
  facet normal -0.066190169741358 -0.99697261969103 0.0407977574875751
    outer loop
      vertex -36.41505813598633 -279.66436767578125 962.962890625
      vertex -0.4000000059604645 -282.09295654296875 962.0463256835938
      vertex -0.4000000059604645 -281.89306640625 966.9310302734375
    endloop
  endfacet
  facet normal -0.06540262613042991 -0.9978589562133735 0.0
    outer loop
      vertex -0.4000000059604645 -281.89306640625 966.9310302734375
      vertex -0.4000000059604645 -281.89306640625 1773.77001953125
      vertex -36.397850036621094 -279.5336608886719 966.9310302734375
    endloop
  endfacet
  facet normal -0.06540262613042991 -0.9978589562133735 0.0
    outer loop
      vertex -0.4000000059604645 -281.89306640625 1773.77001953125
      vertex -36.397850036621094 -279.5336608886719 1773.77001953125
      vertex -36.397850036621094 -279.5336608886719 966.9310302734375
    endloop
  endfacet
  facet normal -0.06532394673740471 -0.9966585313735046 -0.04903625009172088
    outer loop
      vertex -36.397850036621094 -279.5336608886719 1773.77001953125
      vertex -0.4000000059604645 -281.89306640625 1773.77001953125
      vertex -0.4000000059604645 -282.0771484375 1777.511474609375
    endloop
  endfacet
  facet normal -0.06510525326024284 -0.9965701721577788 -0.05108030895888399
    outer loop
      vertex -36.42393493652344 -279.73175048828125 1777.66796875
      vertex -36.397850036621094 -279.5336608886719 1773.77001953125
      vertex -0.4000000059604645 -282.0771484375 1777.511474609375
    endloop
  endfacet
  facet normal -0.06422885794645738 -0.9861793056176174 -0.15272534491186363
    outer loop
      vertex -36.50190734863281 -280.32403564453125 1781.5252685546875
      vertex -36.42393493652344 -279.73175048828125 1777.66796875
      vertex -0.4000000059604645 -282.6275634765625 1781.2169189453125
    endloop
  endfacet
  facet normal -0.06490121453603916 -0.9870614527179989 -0.14662032911564674
    outer loop
      vertex -36.42393493652344 -279.73175048828125 1777.66796875
      vertex -0.4000000059604645 -282.0771484375 1777.511474609375
      vertex -0.4000000059604645 -282.6275634765625 1781.2169189453125
    endloop
  endfacet
  facet normal -0.06287343221277088 -0.9654808155080059 -0.2527720839170775
    outer loop
      vertex -36.6309700012207 -281.3043518066406 1785.3017578125
      vertex -36.50190734863281 -280.32403564453125 1781.5252685546875
      vertex -0.4000000059604645 -283.5851745605469 1785.0015869140625
    endloop
  endfacet
  facet normal -0.06382160539074598 -0.9674724376948112 -0.2447935558510634
    outer loop
      vertex -36.50190734863281 -280.32403564453125 1781.5252685546875
      vertex -0.4000000059604645 -282.6275634765625 1781.2169189453125
      vertex -0.4000000059604645 -283.5851745605469 1785.0015869140625
    endloop
  endfacet
  facet normal -0.06085759693123657 -0.9347000974139056 -0.3501886360094952
    outer loop
      vertex -36.809776306152344 -282.66253662109375 1788.9580078125
      vertex -36.6309700012207 -281.3043518066406 1785.3017578125
      vertex -0.4000000059604645 -284.92498779296875 1788.6693115234375
    endloop
  endfacet
  facet normal -0.06185459719129901 -0.937492501336563 -0.34246433207564336
    outer loop
      vertex -36.6309700012207 -281.3043518066406 1785.3017578125
      vertex -0.4000000059604645 -283.5851745605469 1785.0015869140625
      vertex -0.4000000059604645 -284.92498779296875 1788.6693115234375
    endloop
  endfacet
  facet normal -0.058336288090493946 -0.8961953676631703 -0.4398076175680657
    outer loop
      vertex -37.014156341552734 -284.2149353027344 1792.1484375
      vertex -36.809776306152344 -282.66253662109375 1788.9580078125
      vertex -0.4000000059604645 -286.4462890625 1791.8387451171875
    endloop
  endfacet
  facet normal -0.05934586254239678 -0.8999370807885757 -0.4319621733680336
    outer loop
      vertex -36.809776306152344 -282.66253662109375 1788.9580078125
      vertex -0.4000000059604645 -284.92498779296875 1788.6693115234375
      vertex -0.4000000059604645 -286.4462890625 1791.8387451171875
    endloop
  endfacet
  facet normal -0.0558103557900434 -0.8515075531054289 -0.521363684188872
    outer loop
      vertex -37.25641632080078 -286.05511474609375 1795.1798095703125
      vertex -37.014156341552734 -284.2149353027344 1792.1484375
      vertex -0.4000000059604645 -288.4707946777344 1795.1798095703125
    endloop
  endfacet
  facet normal -0.056413777231500574 -0.8538791704960725 -0.5174049168025114
    outer loop
      vertex -37.014156341552734 -284.2149353027344 1792.1484375
      vertex -0.4000000059604645 -286.4462890625 1791.8387451171875
      vertex -0.4000000059604645 -288.4707946777344 1795.1798095703125
    endloop
  endfacet
  facet normal -0.054165071030747726 -0.8264011166718648 -0.5604706410185364
    outer loop
      vertex -0.4000000059604645 -288.4707946777344 1795.1798095703125
      vertex -0.4000000059604645 -290.5776062011719 1798.2862548828125
      vertex -37.531410217285156 -288.1438903808594 1798.2862548828125
    endloop
  endfacet
  facet normal -0.05416490214806006 -0.826402602875321 -0.5604684659605619
    outer loop
      vertex -0.4000000059604645 -288.4707946777344 1795.1798095703125
      vertex -37.531410217285156 -288.1438903808594 1798.2862548828125
      vertex -37.25641632080078 -286.05511474609375 1795.1798095703125
    endloop
  endfacet
  facet normal -0.031796047688080455 -0.4851150162854096 0.873872091513297
    outer loop
      vertex -0.4000000059604645 -290.5776062011719 1798.2862548828125
      vertex -0.4000000059604645 -260.4310302734375 1815.0216064453125
      vertex -37.531410217285156 -288.1438903808594 1798.2862548828125
    endloop
  endfacet
  facet normal -0.031796095524138354 -0.48511496749642447 0.8738721168571308
    outer loop
      vertex -0.4000000059604645 -260.4310302734375 1815.0216064453125
      vertex -33.596492767333984 -258.2552185058594 1815.0216064453125
      vertex -37.531410217285156 -288.1438903808594 1798.2862548828125
    endloop
  endfacet
  facet normal 0.0653773877980762 0.997464966489418 0.028096935615189923
    outer loop
      vertex -0.4000000059604645 -251.61256408691406 1773.77001953125
      vertex -32.44544982910156 -249.51219177246094 1773.77001953125
      vertex -32.46632766723633 -249.6707763671875 1779.448486328125
    endloop
  endfacet
  facet normal 0.06465485337411508 0.994349024663857 0.08420075465937311
    outer loop
      vertex -0.4000000059604645 -251.8125 1780.1180419921875
      vertex -32.46632766723633 -249.6707763671875 1779.448486328125
      vertex -32.52889633178711 -250.14602661132812 1785.10888671875
    endloop
  endfacet
  facet normal 0.06595607406479974 0.9973279833170143 0.03141162184249668
    outer loop
      vertex -0.4000000059604645 -251.8125 1780.1180419921875
      vertex -0.4000000059604645 -251.61256408691406 1773.77001953125
      vertex -32.46632766723633 -249.6707763671875 1779.448486328125
    endloop
  endfacet
  facet normal 0.06369820884323939 0.9876251672263345 0.14331457445534876
    outer loop
      vertex -0.4000000059604645 -252.41151428222656 1786.44091796875
      vertex -32.52889633178711 -250.14602661132812 1785.10888671875
      vertex -32.647972106933594 -251.05047607421875 1791.3946533203125
    endloop
  endfacet
  facet normal 0.06614277018630532 0.9933623052906732 0.09410879012972748
    outer loop
      vertex -0.4000000059604645 -252.41151428222656 1786.44091796875
      vertex -0.4000000059604645 -251.8125 1780.1180419921875
      vertex -32.52889633178711 -250.14602661132812 1785.10888671875
    endloop
  endfacet
  facet normal 0.06298584394585881 0.9766965657581224 0.20517456445358345
    outer loop
      vertex -0.4000000059604645 -253.40725708007812 1792.7139892578125
      vertex -32.647972106933594 -251.05047607421875 1791.3946533203125
      vertex -32.81844711303711 -252.34536743164062 1797.611083984375
    endloop
  endfacet
  facet normal 0.06562383453271486 0.9855061955618112 0.15643225642593042
    outer loop
      vertex -0.4000000059604645 -253.40725708007812 1792.7139892578125
      vertex -0.4000000059604645 -252.41151428222656 1786.44091796875
      vertex -32.647972106933594 -251.05047607421875 1791.3946533203125
    endloop
  endfacet
  facet normal 0.06202319070286779 0.9619114520640846 0.26623200822403054
    outer loop
      vertex -0.4000000059604645 -254.79583740234375 1798.912353515625
      vertex -32.81844711303711 -252.34536743164062 1797.611083984375
      vertex -33.03965759277344 -254.025634765625 1803.7335205078125
    endloop
  endfacet
  facet normal 0.06484895610969874 0.9737593679604217 0.21814514938637153
    outer loop
      vertex -0.4000000059604645 -254.79583740234375 1798.912353515625
      vertex -0.4000000059604645 -253.40725708007812 1792.7139892578125
      vertex -32.81844711303711 -252.34536743164062 1797.611083984375
    endloop
  endfacet
  facet normal 0.06100796558380143 0.9443372562530715 0.3232726010470826
    outer loop
      vertex -0.4000000059604645 -256.5718078613281 1805.0115966796875
      vertex -33.03965759277344 -254.025634765625 1803.7335205078125
      vertex -33.281429290771484 -255.862060546875 1809.1436767578125
    endloop
  endfacet
  facet normal 0.06382057270969221 0.9581684832092685 0.27899837326310106
    outer loop
      vertex -0.4000000059604645 -256.5718078613281 1805.0115966796875
      vertex -0.4000000059604645 -254.79583740234375 1798.912353515625
      vertex -33.03965759277344 -254.025634765625 1803.7335205078125
    endloop
  endfacet
  facet normal 0.05972626472626606 0.9234023183054398 0.37915818842534194
    outer loop
      vertex -0.4000000059604645 -258.3682861328125 1810.0677490234375
      vertex -33.281429290771484 -255.862060546875 1809.1436767578125
      vertex -33.596492767333984 -258.2552185058594 1815.0216064453125
    endloop
  endfacet
  facet normal 0.06229120506004843 0.9404591604242293 0.33415022571639974
    outer loop
      vertex -0.4000000059604645 -258.3682861328125 1810.0677490234375
      vertex -0.4000000059604645 -256.5718078613281 1805.0115966796875
      vertex -33.281429290771484 -255.862060546875 1809.1436767578125
    endloop
  endfacet
  facet normal 0.06039706992608695 0.92148177727765 0.383697182801186
    outer loop
      vertex -0.4000000059604645 -260.4310302734375 1815.0216064453125
      vertex -0.4000000059604645 -258.3682861328125 1810.0677490234375
      vertex -33.596492767333984 -258.2552185058594 1815.0216064453125
    endloop
  endfacet
endsolid v3d.csg
