solid v3d.csg
  facet normal -0.8660255466321947 0.499999752579162 1.0886761156242856E-6
    outer loop
      vertex 127.40015411376953 219.86354064941406 945.8939208984375
      vertex 126.79635620117188 218.81771850585938 951.7686767578125
      vertex 141.6920623779297 244.6178436279297 957.1942138671875
    endloop
  endfacet
  facet normal -0.8660253076907234 0.5000001664368029 -1.5353554929874452E-6
    outer loop
      vertex 126.79635620117188 218.81771850585938 951.7686767578125
      vertex 126.38965606689453 218.11331176757812 957.7103271484375
      vertex 141.6920623779297 244.6178436279297 957.1942138671875
    endloop
  endfacet
  facet normal -0.8660253925470774 0.5000000194635845 3.0916462509479574E-7
    outer loop
      vertex 142.1884765625 245.4776611328125 952.40673828125
      vertex 127.40015411376953 219.86354064941406 945.8939208984375
      vertex 141.6920623779297 244.6178436279297 957.1942138671875
    endloop
  endfacet
  facet normal -0.8660254915534664 0.49999984797936786 4.311091645000139E-7
    outer loop
      vertex 126.38965606689453 218.11331176757812 957.7103271484375
      vertex 126.21196746826172 217.8055419921875 962.3145751953125
      vertex 141.39288330078125 244.09967041015625 962.0463256835938
    endloop
  endfacet
  facet normal -0.8660253120564756 0.5000001588732434 -2.0532168347276224E-6
    outer loop
      vertex 141.6920623779297 244.6178436279297 957.1942138671875
      vertex 126.38965606689453 218.11331176757812 957.7103271484375
      vertex 141.39288330078125 244.09967041015625 962.0463256835938
    endloop
  endfacet
  facet normal -0.8660252648399518 0.5000002406588329 -2.1598544101348125E-8
    outer loop
      vertex 126.21196746826172 217.8055419921875 962.3145751953125
      vertex 126.1526870727539 217.70286560058594 966.9310302734375
      vertex 141.29295349121094 243.9265594482422 966.9310302734375
    endloop
  endfacet
  facet normal -0.8660254810680996 0.49999986613288677 2.803931484724617E-6
    outer loop
      vertex 141.39288330078125 244.09967041015625 962.0463256835938
      vertex 126.21196746826172 217.8055419921875 962.3145751953125
      vertex 141.29295349121094 243.9265594482422 966.9310302734375
    endloop
  endfacet
  facet normal -0.866025264839952 0.500000240658833 0.0
    outer loop
      vertex 126.1526870727539 217.70286560058594 966.9310302734375
      vertex 126.1526870727539 217.70286560058594 1773.77001953125
      vertex 141.29295349121094 243.9265594482422 1773.77001953125
    endloop
  endfacet
  facet normal -0.866025264839952 0.500000240658833 0.0
    outer loop
      vertex 141.29295349121094 243.9265594482422 966.9310302734375
      vertex 126.1526870727539 217.70286560058594 966.9310302734375
      vertex 141.29295349121094 243.9265594482422 1773.77001953125
    endloop
  endfacet
  facet normal -0.8660253562878945 0.5000000822660974 -5.66822672568721E-7
    outer loop
      vertex 126.1526870727539 217.70286560058594 1773.77001953125
      vertex 126.25265502929688 217.8760223388672 1780.1180419921875
      vertex 141.38497924804688 244.08596801757812 1777.511474609375
    endloop
  endfacet
  facet normal -0.8660252648381216 0.5000002406577762 -2.056043691175583E-6
    outer loop
      vertex 141.29295349121094 243.9265594482422 1773.77001953125
      vertex 126.1526870727539 217.70286560058594 1773.77001953125
      vertex 141.38497924804688 244.08596801757812 1777.511474609375
    endloop
  endfacet
  facet normal -0.8660253116626695 0.5000001595591185 6.573871058071421E-7
    outer loop
      vertex 126.25265502929688 217.8760223388672 1780.1180419921875
      vertex 126.55216217041016 218.394775390625 1786.44091796875
      vertex 141.66018676757812 244.56263732910156 1781.2169189453125
    endloop
  endfacet
  facet normal -0.8660253092930501 0.5000001636635748 5.244841172699005E-7
    outer loop
      vertex 141.38497924804688 244.08596801757812 1777.511474609375
      vertex 126.25265502929688 217.8760223388672 1780.1180419921875
      vertex 141.66018676757812 244.56263732910156 1781.2169189453125
    endloop
  endfacet
  facet normal -0.8660252757951696 0.5000002216838472 6.371854376510762E-8
    outer loop
      vertex 126.55216217041016 218.394775390625 1786.44091796875
      vertex 127.05004119873047 219.2571258544922 1792.7139892578125
      vertex 142.13900756835938 245.3919677734375 1785.0015869140625
    endloop
  endfacet
  facet normal -0.8660252440263173 0.5000002767070079 1.4398071347762293E-6
    outer loop
      vertex 141.66018676757812 244.56263732910156 1781.2169189453125
      vertex 126.55216217041016 218.394775390625 1786.44091796875
      vertex 142.13900756835938 245.3919677734375 1785.0015869140625
    endloop
  endfacet
  facet normal -0.8660254170487672 0.499999977024423 -1.0417095419218934E-6
    outer loop
      vertex 142.13900756835938 245.3919677734375 1785.0015869140625
      vertex 127.05004119873047 219.2571258544922 1792.7139892578125
      vertex 142.80889892578125 246.55226135253906 1788.6693115234375
    endloop
  endfacet
  facet normal -0.8660253483427609 0.5000000960277896 2.9065802109268527E-8
    outer loop
      vertex 127.05004119873047 219.2571258544922 1792.7139892578125
      vertex 127.74433135986328 220.4596710205078 1798.912353515625
      vertex 142.80889892578125 246.55226135253906 1788.6693115234375
    endloop
  endfacet
  facet normal -0.8660253282657496 0.5000001308021178 -2.557254305517038E-7
    outer loop
      vertex 127.74433135986328 220.4596710205078 1798.912353515625
      vertex 128.63230895996094 221.99769592285156 1805.0115966796875
      vertex 143.56956481933594 247.86976623535156 1791.8387451171875
    endloop
  endfacet
  facet normal -0.8660258736826394 0.4999991861100942 1.2102146000238451E-6
    outer loop
      vertex 135.9689483642578 234.70513916015625 910.6831665039062
      vertex 134.7774658203125 232.64141845703125 913.9559936523438
      vertex 147.1206512451172 254.02044677734375 931.4583129882812
    endloop
  endfacet
  facet normal -0.8660253947623242 0.5000000156264496 -5.573388902965718E-7
    outer loop
      vertex 128.63230895996094 221.99769592285156 1805.0115966796875
      vertex 129.53054809570312 223.55349731445312 1810.0677490234375
      vertex 143.56956481933594 247.86976623535156 1791.8387451171875
    endloop
  endfacet
  facet normal -0.8660251968576044 0.5000003584067724 9.202274017817511E-7
    outer loop
      vertex 142.80889892578125 246.55226135253906 1788.6693115234375
      vertex 127.74433135986328 220.4596710205078 1798.912353515625
      vertex 143.56956481933594 247.86976623535156 1791.8387451171875
    endloop
  endfacet
  facet normal -0.8660255236052854 0.49999979246323745 -9.542517004975207E-7
    outer loop
      vertex 143.56956481933594 247.86976623535156 1791.8387451171875
      vertex 129.53054809570312 223.55349731445312 1810.0677490234375
      vertex 144.58181762695312 249.623046875 1795.1798095703125
    endloop
  endfacet
  facet normal -0.8660253775177331 0.5000000454951334 -3.6348958017558574E-7
    outer loop
      vertex 129.53054809570312 223.55349731445312 1810.0677490234375
      vertex 130.56192016601562 225.3398895263672 1815.0216064453125
      vertex 144.58181762695312 249.623046875 1795.1798095703125
    endloop
  endfacet
  facet normal -0.866026327687714 0.49999839974439686 2.185024816594221E-6
    outer loop
      vertex 148.27310180664062 256.0165710449219 928.5238647460938
      vertex 135.9689483642578 234.70513916015625 910.6831665039062
      vertex 147.1206512451172 254.02044677734375 931.4583129882812
    endloop
  endfacet
  facet normal -0.8660258114399355 0.4999992939167748 -1.5899027161134062E-6
    outer loop
      vertex 144.58181762695312 249.623046875 1795.1798095703125
      vertex 130.56192016601562 225.3398895263672 1815.0216064453125
      vertex 145.6352081298828 251.4475860595703 1798.2862548828125
    endloop
  endfacet
  facet normal -0.8660251890676794 0.5000003718999035 -4.984984868121981E-7
    outer loop
      vertex 134.7774658203125 232.64141845703125 913.9559936523438
      vertex 133.09255981445312 229.72308349609375 918.9238891601562
      vertex 146.0618896484375 252.18661499023438 934.5301513671875
    endloop
  endfacet
  facet normal -0.8660259764137893 0.49999900817106996 2.1187532582852913E-6
    outer loop
      vertex 133.09255981445312 229.72308349609375 918.9238891601562
      vertex 131.72073364257812 227.34698486328125 923.5774536132812
      vertex 146.0618896484375 252.18661499023438 934.5301513671875
    endloop
  endfacet
  facet normal -0.8660255439786324 0.49999975717637624 2.8014129965649375E-7
    outer loop
      vertex 147.1206512451172 254.02044677734375 931.4583129882812
      vertex 134.7774658203125 232.64141845703125 913.9559936523438
      vertex 146.0618896484375 252.18661499023438 934.5301513671875
    endloop
  endfacet
  facet normal -0.8660252510046341 0.5000002646209551 -1.1556192683774557E-6
    outer loop
      vertex 131.72073364257812 227.34698486328125 923.5774536132812
      vertex 130.36346435546875 224.9961395263672 928.9291381835938
      vertex 144.82199096679688 250.03904724121094 938.7477416992188
    endloop
  endfacet
  facet normal -0.8660255454249939 0.49999975467126245 -1.3855966865200338E-7
    outer loop
      vertex 146.0618896484375 252.18661499023438 934.5301513671875
      vertex 131.72073364257812 227.34698486328125 923.5774536132812
      vertex 144.82199096679688 250.03904724121094 938.7477416992188
    endloop
  endfacet
  facet normal -0.8660254293177853 0.4999999557749168 -1.643736414695247E-7
    outer loop
      vertex 130.36346435546875 224.9961395263672 928.9291381835938
      vertex 129.18763732910156 222.9595489501953 934.4488525390625
      vertex 143.75863647460938 248.197265625 943.1527099609375
    endloop
  endfacet
  facet normal -0.8660254015009066 0.5000000039551211 -2.691607439059553E-7
    outer loop
      vertex 144.82199096679688 250.03904724121094 938.7477416992188
      vertex 130.36346435546875 224.9961395263672 928.9291381835938
      vertex 143.75863647460938 248.197265625 943.1527099609375
    endloop
  endfacet
  facet normal -0.8660252787595492 0.5000002165493922 -7.673681190640101E-8
    outer loop
      vertex 129.18763732910156 222.9595489501953 934.4488525390625
      vertex 128.19842529296875 221.24618530273438 940.1121826171875
      vertex 142.8788604736328 246.67343139648438 947.7158813476562
    endloop
  endfacet
  facet normal -0.8660257054071312 0.4999994775709707 1.6844242592981013E-6
    outer loop
      vertex 143.75863647460938 248.197265625 943.1527099609375
      vertex 129.18763732910156 222.9595489501953 934.4488525390625
      vertex 142.8788604736328 246.67343139648438 947.7158813476562
    endloop
  endfacet
  facet normal -0.8660253468563324 0.5000000986023483 -1.0582617566348898E-7
    outer loop
      vertex 128.19842529296875 221.24618530273438 940.1121826171875
      vertex 127.40015411376953 219.86354064941406 945.8939208984375
      vertex 142.1884765625 245.4776611328125 952.40673828125
    endloop
  endfacet
  facet normal -0.8660251718454601 0.5000004017290657 -9.024079366475684E-7
    outer loop
      vertex 142.8788604736328 246.67343139648438 947.7158813476562
      vertex 128.19842529296875 221.24618530273438 940.1121826171875
      vertex 142.1884765625 245.4776611328125 952.40673828125
    endloop
  endfacet
  facet normal -0.5555700596095285 -0.831469728171426 0.0
    outer loop
      vertex 126.1526870727539 217.70286560058594 966.9310302734375
      vertex 152.85467529296875 199.86117553710938 966.9310302734375
      vertex 152.85467529296875 199.86117553710938 1773.77001953125
    endloop
  endfacet
  facet normal -0.5555700596095285 -0.831469728171426 -0.0
    outer loop
      vertex 126.1526870727539 217.70286560058594 1773.77001953125
      vertex 126.1526870727539 217.70286560058594 966.9310302734375
      vertex 152.85467529296875 199.86117553710938 1773.77001953125
    endloop
  endfacet
  facet normal 0.7933531610058561 -0.608761662654848 -1.929056767428465E-6
    outer loop
      vertex 152.85467529296875 199.86117553710938 1773.77001953125
      vertex 171.2882843017578 223.88430786132812 1773.77001953125
      vertex 152.95205688476562 199.98806762695312 1779.448486328125
    endloop
  endfacet
  facet normal 0.7933531072525777 -0.6087617327052511 -2.5259519005239666E-6
    outer loop
      vertex 171.40992736816406 224.0428466796875 1777.66796875
      vertex 171.7736053466797 224.51678466796875 1781.5252685546875
      vertex 153.24386596679688 200.3683624267578 1785.10888671875
    endloop
  endfacet
  facet normal 0.7933529161509794 -0.6087619817578797 9.777611261715763E-7
    outer loop
      vertex 164.8061981201172 215.4366912841797 910.6831665039062
      vertex 179.7867889404297 234.95977783203125 928.5238647460938
      vertex 177.9690399169922 232.59085083007812 932.40234375
    endloop
  endfacet
  facet normal 0.7933535163530102 -0.608761199560456 1.6910154808588626E-7
    outer loop
      vertex 152.95205688476562 199.98806762695312 1779.448486328125
      vertex 171.40992736816406 224.0428466796875 1777.66796875
      vertex 153.24386596679688 200.3683624267578 1785.10888671875
    endloop
  endfacet
  facet normal 0.79335380532356 -0.60876082296613 -4.763518085537005E-7
    outer loop
      vertex 164.8061981201172 215.4366912841797 910.6831665039062
      vertex 177.9690399169922 232.59085083007812 932.40234375
      vertex 163.3555450439453 213.54615783691406 913.9559936523438
    endloop
  endfacet
  facet normal 0.7933533008885296 -0.6087614803592973 1.7572554472624492E-7
    outer loop
      vertex 153.24386596679688 200.3683624267578 1785.10888671875
      vertex 171.7736053466797 224.51678466796875 1781.5252685546875
      vertex 153.79920959472656 201.09210205078125 1791.3946533203125
    endloop
  endfacet
  facet normal 0.793353439389026 -0.6087612998613409 8.563728433239267E-7
    outer loop
      vertex 171.7736053466797 224.51678466796875 1781.5252685546875
      vertex 172.3755340576172 225.30123901367188 1785.3017578125
      vertex 153.79920959472656 201.09210205078125 1791.3946533203125
    endloop
  endfacet
  facet normal 0.7933538168149654 -0.6087608079899426 -7.474468008962941E-7
    outer loop
      vertex 177.9690399169922 232.59085083007812 932.40234375
      vertex 176.50294494628906 230.68019104003906 936.090576171875
      vertex 161.85777282714844 211.59422302246094 917.5113525390625
    endloop
  endfacet
  facet normal 0.7933535014838019 -0.6087612189383953 1.731713173118749E-7
    outer loop
      vertex 163.3555450439453 213.54615783691406 913.9559936523438
      vertex 177.9690399169922 232.59085083007812 932.40234375
      vertex 161.85777282714844 211.59422302246094 917.5113525390625
    endloop
  endfacet
  facet normal 0.7933532640493272 -0.6087615283689647 -4.009832747445708E-7
    outer loop
      vertex 172.3755340576172 225.30123901367188 1785.3017578125
      vertex 173.20947265625 226.38804626464844 1788.9580078125
      vertex 154.59429931640625 202.12828063964844 1797.611083984375
    endloop
  endfacet
  facet normal 0.7933533068220717 -0.608761472626536 -2.342585358546153E-7
    outer loop
      vertex 153.79920959472656 201.09210205078125 1791.3946533203125
      vertex 172.3755340576172 225.30123901367188 1785.3017578125
      vertex 154.59429931640625 202.12828063964844 1797.611083984375
    endloop
  endfacet
  facet normal 0.7933532656932145 -0.6087615262266157 -3.9144052571120016E-7
    outer loop
      vertex 154.59429931640625 202.12828063964844 1797.611083984375
      vertex 173.20947265625 226.38804626464844 1788.9580078125
      vertex 155.62600708007812 203.4728240966797 1803.7335205078125
    endloop
  endfacet
  facet normal 0.7933538597592368 -0.6087607520232717 -1.0871047540815083E-6
    outer loop
      vertex 176.50294494628906 230.68019104003906 936.090576171875
      vertex 175.07289123535156 228.81649780273438 940.3822021484375
      vertex 160.46568298339844 209.78001403808594 921.1802368164062
    endloop
  endfacet
  facet normal 0.7933532434340617 -0.60876155523525 -4.6291908412291775E-7
    outer loop
      vertex 173.20947265625 226.38804626464844 1788.9580078125
      vertex 174.1626739501953 227.63027954101562 1792.1484375
      vertex 155.62600708007812 203.4728240966797 1803.7335205078125
    endloop
  endfacet
  facet normal 0.7933535394856964 -0.608761169413336 -1.5755938572006862E-7
    outer loop
      vertex 161.85777282714844 211.59422302246094 917.5113525390625
      vertex 176.50294494628906 230.68019104003906 936.090576171875
      vertex 160.46568298339844 209.78001403808594 921.1802368164062
    endloop
  endfacet
  facet normal 0.793353935852913 -0.6087606528543208 1.7531093261123032E-6
    outer loop
      vertex 174.1626739501953 227.63027954101562 1792.1484375
      vertex 175.2925567626953 229.102783203125 1795.1798095703125
      vertex 156.75360107421875 204.9423370361328 1809.1436767578125
    endloop
  endfacet
  facet normal 0.7933534379087183 -0.6087613017910023 3.7673653488701115E-7
    outer loop
      vertex 155.62600708007812 203.4728240966797 1803.7335205078125
      vertex 174.1626739501953 227.63027954101562 1792.1484375
      vertex 156.75360107421875 204.9423370361328 1809.1436767578125
    endloop
  endfacet
  facet normal 0.7933524918176584 -0.6087625347559611 -2.0517335174738507E-6
    outer loop
      vertex 175.2925567626953 229.102783203125 1795.1798095703125
      vertex 176.57510375976562 230.7742156982422 1798.2862548828125
      vertex 158.2230224609375 206.85733032226562 1815.0216064453125
    endloop
  endfacet
  facet normal 0.7933535768945722 -0.608761120660945 4.671382340410575E-7
    outer loop
      vertex 156.75360107421875 204.9423370361328 1809.1436767578125
      vertex 175.2925567626953 229.102783203125 1795.1798095703125
      vertex 158.2230224609375 206.85733032226562 1815.0216064453125
    endloop
  endfacet
  facet normal 0.7933530081303423 -0.6087618618886208 6.610420493098187E-7
    outer loop
      vertex 160.46568298339844 209.78001403808594 921.1802368164062
      vertex 175.07289123535156 228.81649780273438 940.3822021484375
      vertex 158.714111328125 207.49732971191406 926.4464111328125
    endloop
  endfacet
  facet normal 0.7933532399492168 -0.6087615597768035 -4.4007162632167534E-7
    outer loop
      vertex 175.07289123535156 228.81649780273438 940.3822021484375
      vertex 173.8612060546875 227.23739624023438 944.8504638671875
      vertex 157.18019104003906 205.498291015625 931.8916015625
    endloop
  endfacet
  facet normal 0.7933530943252738 -0.6087617495575446 3.88014920422273E-7
    outer loop
      vertex 158.714111328125 207.49732971191406 926.4464111328125
      vertex 175.07289123535156 228.81649780273438 940.3822021484375
      vertex 157.18019104003906 205.498291015625 931.8916015625
    endloop
  endfacet
  facet normal 0.793353079994102 -0.6087617682343673 1.9623946077233395E-7
    outer loop
      vertex 173.8612060546875 227.23739624023438 944.8504638671875
      vertex 172.8759002685547 225.9533233642578 949.4654541015625
      vertex 155.87066650390625 203.79168701171875 937.4916381835938
    endloop
  endfacet
  facet normal 0.7933531058355552 -0.6087617345571893 2.5765656249659997E-8
    outer loop
      vertex 157.18019104003906 205.498291015625 931.8916015625
      vertex 173.8612060546875 227.23739624023438 944.8504638671875
      vertex 155.87066650390625 203.79168701171875 937.4916381835938
    endloop
  endfacet
  facet normal 0.7933533506038591 -0.6087614155688368 -5.062341748880173E-7
    outer loop
      vertex 172.8759002685547 225.9533233642578 949.4654541015625
      vertex 172.12350463867188 224.9727783203125 954.196533203125
      vertex 154.7913055419922 202.38502502441406 943.2218627929688
    endloop
  endfacet
  facet normal 0.79335343459036 -0.6087613061145785 -1.1626692683318612E-6
    outer loop
      vertex 155.87066650390625 203.79168701171875 937.4916381835938
      vertex 172.8759002685547 225.9533233642578 949.4654541015625
      vertex 154.7913055419922 202.38502502441406 943.2218627929688
    endloop
  endfacet
  facet normal 0.7933529017545518 -0.608762000517388 1.923597365733436E-6
    outer loop
      vertex 172.12350463867188 224.9727783203125 954.196533203125
      vertex 171.6089630126953 224.30223083496094 959.01220703125
      vertex 153.9468231201172 201.28448486328125 949.0568237304688
    endloop
  endfacet
  facet normal 0.7933529996551364 -0.6087618729332664 9.893504237024028E-7
    outer loop
      vertex 154.7913055419922 202.38502502441406 943.2218627929688
      vertex 172.12350463867188 224.9727783203125 954.196533203125
      vertex 153.9468231201172 201.28448486328125 949.0568237304688
    endloop
  endfacet
  facet normal 0.7933534409888984 -0.608761297776593 -6.578744661652442E-7
    outer loop
      vertex 153.9468231201172 201.28448486328125 949.0568237304688
      vertex 171.6089630126953 224.30223083496094 959.01220703125
      vertex 153.34097290039062 200.4949188232422 954.9708251953125
    endloop
  endfacet
  facet normal 0.7933535445481635 -0.6087611628152056 -8.623368038904467E-7
    outer loop
      vertex 171.6089630126953 224.30223083496094 959.01220703125
      vertex 171.36854553222656 223.98890686035156 962.962890625
      vertex 152.9763946533203 200.019775390625 960.9376220703125
    endloop
  endfacet
  facet normal 0.7933535169127817 -0.6087611988289102 -1.583957488606401E-6
    outer loop
      vertex 153.34097290039062 200.4949188232422 954.9708251953125
      vertex 171.6089630126953 224.30223083496094 959.01220703125
      vertex 152.9763946533203 200.019775390625 960.9376220703125
    endloop
  endfacet
  facet normal 0.793353161007329 -0.6087616626559781 -9.063666356401207E-8
    outer loop
      vertex 171.36854553222656 223.98890686035156 962.962890625
      vertex 171.2882843017578 223.88430786132812 966.9310302734375
      vertex 152.85467529296875 199.86117553710938 966.9310302734375
    endloop
  endfacet
  facet normal 0.7933533935705901 -0.6087613595670952 2.837307966235394E-6
    outer loop
      vertex 152.9763946533203 200.019775390625 960.9376220703125
      vertex 171.36854553222656 223.98890686035156 962.962890625
      vertex 152.85467529296875 199.86117553710938 966.9310302734375
    endloop
  endfacet
  facet normal 0.7933531610073323 -0.6087616626559808 0.0
    outer loop
      vertex 152.85467529296875 199.86117553710938 966.9310302734375
      vertex 171.2882843017578 223.88430786132812 966.9310302734375
      vertex 171.2882843017578 223.88430786132812 1773.77001953125
    endloop
  endfacet
  facet normal 0.7933531610073323 -0.6087616626559808 0.0
    outer loop
      vertex 152.85467529296875 199.86117553710938 966.9310302734375
      vertex 171.2882843017578 223.88430786132812 1773.77001953125
      vertex 152.85467529296875 199.86117553710938 1773.77001953125
    endloop
  endfacet
  facet normal 0.7933535681743875 -0.6087611320233471 1.6187376157162157E-6
    outer loop
      vertex 171.2882843017578 223.88430786132812 1773.77001953125
      vertex 171.40992736816406 224.0428466796875 1777.66796875
      vertex 152.95205688476562 199.98806762695312 1779.448486328125
    endloop
  endfacet
  facet normal -0.4571648857104092 -0.6841956536760238 -0.568222293441772
    outer loop
      vertex 134.7774658203125 232.64141845703125 913.9559936523438
      vertex 163.3555450439453 213.54615783691406 913.9559936523438
      vertex 161.85777282714844 211.59422302246094 917.5113525390625
    endloop
  endfacet
  facet normal -0.4711725091361271 -0.7064645555904481 -0.5281139065852717
    outer loop
      vertex 133.09255981445312 229.72308349609375 918.9238891601562
      vertex 161.85777282714844 211.59422302246094 917.5113525390625
      vertex 160.46568298339844 209.78001403808594 921.1802368164062
    endloop
  endfacet
  facet normal -0.46108144379315047 -0.687929833284388 -0.5604966071859294
    outer loop
      vertex 133.09255981445312 229.72308349609375 918.9238891601562
      vertex 134.7774658203125 232.64141845703125 913.9559936523438
      vertex 161.85777282714844 211.59422302246094 917.5113525390625
    endloop
  endfacet
  facet normal -0.48656910360223826 -0.730860668901871 -0.47863680392550684
    outer loop
      vertex 131.72073364257812 227.34698486328125 923.5774536132812
      vertex 160.46568298339844 209.78001403808594 921.1802368164062
      vertex 158.714111328125 207.49732971191406 926.4464111328125
    endloop
  endfacet
  facet normal -0.47985334530804197 -0.7159954533724987 -0.507041692315919
    outer loop
      vertex 131.72073364257812 227.34698486328125 923.5774536132812
      vertex 133.09255981445312 229.72308349609375 918.9238891601562
      vertex 160.46568298339844 209.78001403808594 921.1802368164062
    endloop
  endfacet
  facet normal -0.5031611658448052 -0.7557216830444343 -0.4191820355909639
    outer loop
      vertex 130.36346435546875 224.9961395263672 928.9291381835938
      vertex 158.714111328125 207.49732971191406 926.4464111328125
      vertex 157.18019104003906 205.498291015625 931.8916015625
    endloop
  endfacet
  facet normal -0.49693881187298017 -0.7410477876290479 -0.4515528692239309
    outer loop
      vertex 130.36346435546875 224.9961395263672 928.9291381835938
      vertex 131.72073364257812 227.34698486328125 923.5774536132812
      vertex 158.714111328125 207.49732971191406 926.4464111328125
    endloop
  endfacet
  facet normal -0.51751984396661 -0.777235766312866 -0.3578795532924835
    outer loop
      vertex 129.18763732910156 222.9595489501953 934.4488525390625
      vertex 157.18019104003906 205.498291015625 931.8916015625
      vertex 155.87066650390625 203.79168701171875 937.4916381835938
    endloop
  endfacet
  facet normal -0.5125384838987959 -0.7643688120680744 -0.391209178906074
    outer loop
      vertex 129.18763732910156 222.9595489501953 934.4488525390625
      vertex 130.36346435546875 224.9961395263672 928.9291381835938
      vertex 157.18019104003906 205.498291015625 931.8916015625
    endloop
  endfacet
  facet normal -0.5295850807083938 -0.7953122472718178 -0.29498825676717205
    outer loop
      vertex 128.19842529296875 221.24618530273438 940.1121826171875
      vertex 155.87066650390625 203.79168701171875 937.4916381835938
      vertex 154.7913055419922 202.38502502441406 943.2218627929688
    endloop
  endfacet
  facet normal -0.5258732810216376 -0.784301122114838 -0.32913377547274586
    outer loop
      vertex 128.19842529296875 221.24618530273438 940.1121826171875
      vertex 129.18763732910156 222.9595489501953 934.4488525390625
      vertex 155.87066650390625 203.79168701171875 937.4916381835938
    endloop
  endfacet
  facet normal -0.5392988760748637 -0.8098685739319766 -0.2308021126891503
    outer loop
      vertex 127.40015411376953 219.86354064941406 945.8939208984375
      vertex 154.7913055419922 202.38502502441406 943.2218627929688
      vertex 153.9468231201172 201.28448486328125 949.0568237304688
    endloop
  endfacet
  facet normal -0.5368793913991684 -0.8007543731065817 -0.2656180585757376
    outer loop
      vertex 127.40015411376953 219.86354064941406 945.8939208984375
      vertex 128.19842529296875 221.24618530273438 940.1121826171875
      vertex 154.7913055419922 202.38502502441406 943.2218627929688
    endloop
  endfacet
  facet normal -0.546623535704332 -0.8208432525648136 -0.16558703129445995
    outer loop
      vertex 126.79635620117188 218.81771850585938 951.7686767578125
      vertex 153.9468231201172 201.28448486328125 949.0568237304688
      vertex 153.34097290039062 200.4949188232422 954.9708251953125
    endloop
  endfacet
  facet normal -0.5455149573394231 -0.8136624396238372 -0.20091507077457565
    outer loop
      vertex 126.79635620117188 218.81771850585938 951.7686767578125
      vertex 127.40015411376953 219.86354064941406 945.8939208984375
      vertex 153.9468231201172 201.28448486328125 949.0568237304688
    endloop
  endfacet
  facet normal -0.5515237168547392 -0.828185863276294 -0.09964820929667247
    outer loop
      vertex 126.38965606689453 218.11331176757812 957.7103271484375
      vertex 153.34097290039062 200.4949188232422 954.9708251953125
      vertex 152.9763946533203 200.019775390625 960.9376220703125
    endloop
  endfacet
  facet normal -0.551737667967512 -0.8229646872274791 -0.135331701098999
    outer loop
      vertex 126.38965606689453 218.11331176757812 957.7103271484375
      vertex 126.79635620117188 218.81771850585938 951.7686767578125
      vertex 153.34097290039062 200.4949188232422 954.9708251953125
    endloop
  endfacet
  facet normal -0.5543478915292223 -0.831620025290753 -0.033264826656892066
    outer loop
      vertex 126.21196746826172 217.8055419921875 962.3145751953125
      vertex 152.9763946533203 200.019775390625 960.9376220703125
      vertex 152.85467529296875 199.86117553710938 966.9310302734375
    endloop
  endfacet
  facet normal -0.5545708372256206 -0.8285859452123663 -0.07678878756305271
    outer loop
      vertex 126.21196746826172 217.8055419921875 962.3145751953125
      vertex 126.38965606689453 218.11331176757812 957.7103271484375
      vertex 152.9763946533203 200.019775390625 960.9376220703125
    endloop
  endfacet
  facet normal -0.5553877134523618 -0.8311968277386 -0.02561876857784476
    outer loop
      vertex 126.1526870727539 217.70286560058594 966.9310302734375
      vertex 126.21196746826172 217.8055419921875 962.3145751953125
      vertex 152.85467529296875 199.86117553710938 966.9310302734375
    endloop
  endfacet
  facet normal -0.44946433871039554 -0.6726704441982432 -0.5877893174682277
    outer loop
      vertex 134.7774658203125 232.64141845703125 913.9559936523438
      vertex 135.9689483642578 234.70513916015625 910.6831665039062
      vertex 164.8061981201172 215.4366912841797 910.6831665039062
    endloop
  endfacet
  facet normal -0.44946490975442693 -0.6726718244249947 -0.587787301261429
    outer loop
      vertex 134.7774658203125 232.64141845703125 913.9559936523438
      vertex 164.8061981201172 215.4366912841797 910.6831665039062
      vertex 163.3555450439453 213.54615783691406 913.9559936523438
    endloop
  endfacet
  facet normal 0.3265560240216772 0.4887252821092238 -0.8090171579159576
    outer loop
      vertex 135.9689483642578 234.70513916015625 910.6831665039062
      vertex 148.27310180664062 256.0165710449219 928.5238647460938
      vertex 164.8061981201172 215.4366912841797 910.6831665039062
    endloop
  endfacet
  facet normal 0.32655612625557423 0.48872530068540115 -0.8090171054278874
    outer loop
      vertex 148.27310180664062 256.0165710449219 928.5238647460938
      vertex 179.7867889404297 234.95977783203125 928.5238647460938
      vertex 164.8061981201172 215.4366912841797 910.6831665039062
    endloop
  endfacet
  facet normal 0.4372643475405284 0.6544117000074277 0.6168834713812199
    outer loop
      vertex 179.7867889404297 234.95977783203125 928.5238647460938
      vertex 148.27310180664062 256.0165710449219 928.5238647460938
      vertex 147.1206512451172 254.02044677734375 931.4583129882812
    endloop
  endfacet
  facet normal 0.43978325905159354 0.6599140992114134 0.609183114276773
    outer loop
      vertex 177.9690399169922 232.59085083007812 932.40234375
      vertex 179.7867889404297 234.95977783203125 928.5238647460938
      vertex 147.1206512451172 254.02044677734375 931.4583129882812
    endloop
  endfacet
  facet normal 0.4646131799907392 0.6972395633336641 0.5458860543201067
    outer loop
      vertex 176.50294494628906 230.68019104003906 936.090576171875
      vertex 177.9690399169922 232.59085083007812 932.40234375
      vertex 146.0618896484375 252.18661499023438 934.5301513671875
    endloop
  endfacet
  facet normal 0.4582965484497182 0.6846933105830759 0.5667092236075415
    outer loop
      vertex 177.9690399169922 232.59085083007812 932.40234375
      vertex 147.1206512451172 254.02044677734375 931.4583129882812
      vertex 146.0618896484375 252.18661499023438 934.5301513671875
    endloop
  endfacet
  facet normal 0.4865373399952587 0.7304319053510571 0.4793231148563174
    outer loop
      vertex 175.07289123535156 228.81649780273438 940.3822021484375
      vertex 176.50294494628906 230.68019104003906 936.090576171875
      vertex 144.82199096679688 250.03904724121094 938.7477416992188
    endloop
  endfacet
  facet normal 0.48024268130044007 0.7164684833876683 0.5060038333545888
    outer loop
      vertex 176.50294494628906 230.68019104003906 936.090576171875
      vertex 146.0618896484375 252.18661499023438 934.5301513671875
      vertex 144.82199096679688 250.03904724121094 938.7477416992188
    endloop
  endfacet
  facet normal 0.5066225080645059 0.7605096900511311 0.40615101336911885
    outer loop
      vertex 173.8612060546875 227.23739624023438 944.8504638671875
      vertex 175.07289123535156 228.81649780273438 940.3822021484375
      vertex 143.75863647460938 248.197265625 943.1527099609375
    endloop
  endfacet
  facet normal 0.5015782836031848 0.7483800508157562 0.4339890839165072
    outer loop
      vertex 175.07289123535156 228.81649780273438 940.3822021484375
      vertex 144.82199096679688 250.03904724121094 938.7477416992188
      vertex 143.75863647460938 248.197265625 943.1527099609375
    endloop
  endfacet
  facet normal 0.5233235521036721 0.7855185009310439 0.3302925135522158
    outer loop
      vertex 172.8759002685547 225.9533233642578 949.4654541015625
      vertex 173.8612060546875 227.23739624023438 944.8504638671875
      vertex 142.8788604736328 246.67343139648438 947.7158813476562
    endloop
  endfacet
  facet normal 0.5195790465384545 0.7753052222223664 0.3590813651429401
    outer loop
      vertex 173.8612060546875 227.23739624023438 944.8504638671875
      vertex 143.75863647460938 248.197265625 943.1527099609375
      vertex 142.8788604736328 246.67343139648438 947.7158813476562
    endloop
  endfacet
  facet normal 0.5365344928421215 0.8053016187512151 0.25223013465349486
    outer loop
      vertex 172.12350463867188 224.9727783203125 954.196533203125
      vertex 172.8759002685547 225.9533233642578 949.4654541015625
      vertex 142.1884765625 245.4776611328125 952.40673828125
    endloop
  endfacet
  facet normal 0.5341241711720336 0.7970596220928958 0.28179305988423176
    outer loop
      vertex 172.8759002685547 225.9533233642578 949.4654541015625
      vertex 142.8788604736328 246.67343139648438 947.7158813476562
      vertex 142.1884765625 245.4776611328125 952.40673828125
    endloop
  endfacet
  facet normal 0.5461660916875669 0.8197239797139284 0.17249694887935688
    outer loop
      vertex 171.6089630126953 224.30223083496094 959.01220703125
      vertex 172.12350463867188 224.9727783203125 954.196533203125
      vertex 141.6920623779297 244.6178436279297 957.1942138671875
    endloop
  endfacet
  facet normal 0.5451185315903083 0.8135037170687148 0.2026264761382637
    outer loop
      vertex 172.12350463867188 224.9727783203125 954.196533203125
      vertex 142.1884765625 245.4776611328125 952.40673828125
      vertex 141.6920623779297 244.6178436279297 957.1942138671875
    endloop
  endfacet
  facet normal 0.552287581628142 0.8277239035400681 0.09925505875133159
    outer loop
      vertex 171.36854553222656 223.98890686035156 962.962890625
      vertex 171.6089630126953 224.30223083496094 959.01220703125
      vertex 141.39288330078125 244.09967041015625 962.0463256835938
    endloop
  endfacet
  facet normal 0.5524883653536147 0.8245261010141451 0.12212008391457438
    outer loop
      vertex 171.6089630126953 224.30223083496094 959.01220703125
      vertex 141.6920623779297 244.6178436279297 957.1942138671875
      vertex 141.39288330078125 244.09967041015625 962.0463256835938
    endloop
  endfacet
  facet normal 0.5552653731532643 0.8310128471917047 0.033136281917299754
    outer loop
      vertex 171.2882843017578 223.88430786132812 966.9310302734375
      vertex 171.36854553222656 223.98890686035156 962.962890625
      vertex 141.29295349121094 243.9265594482422 966.9310302734375
    endloop
  endfacet
  facet normal 0.5558090122351205 0.8303083838017643 0.040796197209077796
    outer loop
      vertex 171.36854553222656 223.98890686035156 962.962890625
      vertex 141.39288330078125 244.09967041015625 962.0463256835938
      vertex 141.29295349121094 243.9265594482422 966.9310302734375
    endloop
  endfacet
  facet normal 0.5555704687743925 0.8314694547761822 -0.0
    outer loop
      vertex 141.29295349121094 243.9265594482422 966.9310302734375
      vertex 141.29295349121094 243.9265594482422 1773.77001953125
      vertex 171.2882843017578 223.88430786132812 966.9310302734375
    endloop
  endfacet
  facet normal 0.5555704687743925 0.8314694547761822 0.0
    outer loop
      vertex 141.29295349121094 243.9265594482422 1773.77001953125
      vertex 171.2882843017578 223.88430786132812 1773.77001953125
      vertex 171.2882843017578 223.88430786132812 966.9310302734375
    endloop
  endfacet
  facet normal 0.5549022461740221 0.8304693895955672 -0.049031521858810836
    outer loop
      vertex 171.2882843017578 223.88430786132812 1773.77001953125
      vertex 141.29295349121094 243.9265594482422 1773.77001953125
      vertex 141.38497924804688 244.08596801757812 1777.511474609375
    endloop
  endfacet
  facet normal 0.5546672555234131 0.8305024114298464 -0.051087965895452656
    outer loop
      vertex 171.40992736816406 224.0428466796875 1777.66796875
      vertex 171.2882843017578 223.88430786132812 1773.77001953125
      vertex 141.38497924804688 244.08596801757812 1777.511474609375
    endloop
  endfacet
  facet normal 0.5487130862238552 0.8219423017264418 -0.1527245940879563
    outer loop
      vertex 171.7736053466797 224.51678466796875 1781.5252685546875
      vertex 171.40992736816406 224.0428466796875 1777.66796875
      vertex 141.66018676757812 244.56263732910156 1781.2169189453125
    endloop
  endfacet
  facet normal 0.5497364569333533 0.8223700908285682 -0.14661944492111514
    outer loop
      vertex 171.40992736816406 224.0428466796875 1777.66796875
      vertex 141.38497924804688 244.08596801757812 1777.511474609375
      vertex 141.66018676757812 244.56263732910156 1781.2169189453125
    endloop
  endfacet
  facet normal 0.5371901307973123 0.8046939764438369 -0.2527733523316338
    outer loop
      vertex 172.3755340576172 225.30123901367188 1785.3017578125
      vertex 171.7736053466797 224.51678466796875 1781.5252685546875
      vertex 142.13900756835938 245.3919677734375 1785.0015869140625
    endloop
  endfacet
  facet normal 0.539006241872177 0.8059441172628384 -0.2447985928722965
    outer loop
      vertex 171.7736053466797 224.51678466796875 1781.5252685546875
      vertex 141.66018676757812 244.56263732910156 1781.2169189453125
      vertex 142.13900756835938 245.3919677734375 1785.0015869140625
    endloop
  endfacet
  facet normal 0.5200545136652271 0.779046354288146 -0.35018578024638947
    outer loop
      vertex 173.20947265625 226.38804626464844 1788.9580078125
      vertex 172.3755340576172 225.30123901367188 1785.3017578125
      vertex 142.80889892578125 246.55226135253906 1788.6693115234375
    endloop
  endfacet
  facet normal 0.5223148727526921 0.7809667572452931 -0.3424588994012432
    outer loop
      vertex 172.3755340576172 225.30123901367188 1785.3017578125
      vertex 142.13900756835938 245.3919677734375 1785.0015869140625
      vertex 142.80889892578125 246.55226135253906 1788.6693115234375
    endloop
  endfacet
  facet normal 0.4986179728548687 0.7469590849086705 -0.4398093252973416
    outer loop
      vertex 174.1626739501953 227.63027954101562 1792.1484375
      vertex 173.20947265625 226.38804626464844 1788.9580078125
      vertex 143.56956481933594 247.86976623535156 1791.8387451171875
    endloop
  endfacet
  facet normal 0.5013617765909528 0.7496933587160004 -0.43196786555331385
    outer loop
      vertex 173.20947265625 226.38804626464844 1788.9580078125
      vertex 142.80889892578125 246.55226135253906 1788.6693115234375
      vertex 143.56956481933594 247.86976623535156 1791.8387451171875
    endloop
  endfacet
  facet normal 0.47408823491343166 0.7095230520700472 -0.5213610880166184
    outer loop
      vertex 175.2925567626953 229.102783203125 1795.1798095703125
      vertex 174.1626739501953 227.63027954101562 1792.1484375
      vertex 144.58181762695312 249.623046875 1795.1798095703125
    endloop
  endfacet
  facet normal 0.4757950054594044 0.7112735627897182 -0.5174060607069713
    outer loop
      vertex 174.1626739501953 227.63027954101562 1792.1484375
      vertex 143.56956481933594 247.86976623535156 1791.8387451171875
      vertex 144.58181762695312 249.623046875 1795.1798095703125
    endloop
  endfacet
  facet normal 0.46011037932401233 0.6886037167462964 -0.5604670910245309
    outer loop
      vertex 144.58181762695312 249.623046875 1795.1798095703125
      vertex 145.6352081298828 251.4475860595703 1798.2862548828125
      vertex 175.2925567626953 229.102783203125 1795.1798095703125
    endloop
  endfacet
  facet normal 0.4601095971137683 0.6886029062603641 -0.5604687289524599
    outer loop
      vertex 145.6352081298828 251.4475860595703 1798.2862548828125
      vertex 176.57510375976562 230.7742156982422 1798.2862548828125
      vertex 175.2925567626953 229.102783203125 1795.1798095703125
    endloop
  endfacet
  facet normal 0.27009371167761925 0.4042239414055725 0.8738720685013062
    outer loop
      vertex 145.6352081298828 251.4475860595703 1798.2862548828125
      vertex 130.56192016601562 225.3398895263672 1815.0216064453125
      vertex 176.57510375976562 230.7742156982422 1798.2862548828125
    endloop
  endfacet
  facet normal 0.2700937432549937 0.4042238187305141 0.8738721154868293
    outer loop
      vertex 130.56192016601562 225.3398895263672 1815.0216064453125
      vertex 158.2230224609375 206.85733032226562 1815.0216064453125
      vertex 176.57510375976562 230.7742156982422 1798.2862548828125
    endloop
  endfacet
  facet normal -0.5553507258873386 -0.8311414719106471 0.028096706686180445
    outer loop
      vertex 126.1526870727539 217.70286560058594 1773.77001953125
      vertex 152.85467529296875 199.86117553710938 1773.77001953125
      vertex 152.95205688476562 199.98806762695312 1779.448486328125
    endloop
  endfacet
  facet normal -0.5531672160388155 -0.8288041323273154 0.08420060176169934
    outer loop
      vertex 126.25265502929688 217.8760223388672 1780.1180419921875
      vertex 152.95205688476562 199.98806762695312 1779.448486328125
      vertex 153.24386596679688 200.3683624267578 1785.10888671875
    endloop
  endfacet
  facet normal -0.5557835427147634 -0.8307333536431526 0.03141255787463768
    outer loop
      vertex 126.25265502929688 217.8760223388672 1780.1180419921875
      vertex 126.1526870727539 217.70286560058594 1773.77001953125
      vertex 152.95205688476562 199.98806762695312 1779.448486328125
    endloop
  endfacet
  facet normal -0.548976658380983 -0.8234595351843201 0.14331441821000757
    outer loop
      vertex 126.55216217041016 218.394775390625 1786.44091796875
      vertex 153.24386596679688 200.3683624267578 1785.10888671875
      vertex 153.79920959472656 201.09210205078125 1791.3946533203125
    endloop
  endfacet
  facet normal -0.5539623569285649 -0.8272058091902195 0.09410768485146878
    outer loop
      vertex 126.55216217041016 218.394775390625 1786.44091796875
      vertex 126.25265502929688 217.8760223388672 1780.1180419921875
      vertex 153.24386596679688 200.3683624267578 1785.10888671875
    endloop
  endfacet
  facet normal -0.5428955528674548 -0.8143507562435384 0.20517617912983413
    outer loop
      vertex 127.05004119873047 219.2571258544922 1792.7139892578125
      vertex 153.79920959472656 201.09210205078125 1791.3946533203125
      vertex 154.59429931640625 202.12828063964844 1797.611083984375
    endloop
  endfacet
  facet normal -0.5495849143079421 -0.8206611311222994 0.15643442661447635
    outer loop
      vertex 127.05004119873047 219.2571258544922 1792.7139892578125
      vertex 126.55216217041016 218.394775390625 1786.44091796875
      vertex 153.79920959472656 201.09210205078125 1791.3946533203125
    endloop
  endfacet
  facet normal -0.5346694015125996 -0.8020283645201995 0.26623135350895927
    outer loop
      vertex 127.74433135986328 220.4596710205078 1798.912353515625
      vertex 154.59429931640625 202.12828063964844 1797.611083984375
      vertex 155.62600708007812 203.4728240966797 1803.7335205078125
    endloop
  endfacet
  facet normal -0.5430404319986866 -0.8108759575637603 0.2181450679243855
    outer loop
      vertex 127.74433135986328 220.4596710205078 1798.912353515625
      vertex 127.05004119873047 219.2571258544922 1792.7139892578125
      vertex 154.59429931640625 202.12828063964844 1797.611083984375
    endloop
  endfacet
  facet normal -0.5250025353134029 -0.7873160145779213 0.3232736164669764
    outer loop
      vertex 128.63230895996094 221.99769592285156 1805.0115966796875
      vertex 155.62600708007812 203.4728240966797 1803.7335205078125
      vertex 156.75360107421875 204.9423370361328 1809.1436767578125
    endloop
  endfacet
  facet normal -0.5343545355717253 -0.7978885853454545 0.27899647970781843
    outer loop
      vertex 128.63230895996094 221.99769592285156 1805.0115966796875
      vertex 127.74433135986328 220.4596710205078 1798.912353515625
      vertex 155.62600708007812 203.4728240966797 1803.7335205078125
    endloop
  endfacet
  facet normal -0.51342577969675 -0.7698276045460907 0.3791562053054285
    outer loop
      vertex 129.53054809570312 223.55349731445312 1810.0677490234375
      vertex 156.75360107421875 204.9423370361328 1809.1436767578125
      vertex 158.2230224609375 206.85733032226562 1815.0216064453125
    endloop
  endfacet
  facet normal -0.5241748197390981 -0.7833159428569568 0.33415100182043594
    outer loop
      vertex 129.53054809570312 223.55349731445312 1810.0677490234375
      vertex 128.63230895996094 221.99769592285156 1805.0115966796875
      vertex 156.75360107421875 204.9423370361328 1809.1436767578125
    endloop
  endfacet
  facet normal -0.5130462427901068 -0.7678278991089705 0.3836976284900122
    outer loop
      vertex 130.56192016601562 225.3398895263672 1815.0216064453125
      vertex 129.53054809570312 223.55349731445312 1810.0677490234375
      vertex 158.2230224609375 206.85733032226562 1815.0216064453125
    endloop
  endfacet
endsolid v3d.csg
