solid v3d.csg
  facet normal -0.5000001373426916 0.8660253244895822 -5.531821021736988E-8
    outer loop
      vertex 220.2635498046875 126.70733642578125 945.8939208984375
      vertex 219.2177276611328 126.10353088378906 951.7686767578125
      vertex 245.01783752441406 140.99923706054688 957.1942138671875
    endloop
  endfacet
  facet normal -0.5000000141133879 0.8660253956356662 -8.366419113449715E-7
    outer loop
      vertex 219.2177276611328 126.10353088378906 951.7686767578125
      vertex 218.5133056640625 125.69683837890625 957.7103271484375
      vertex 245.01783752441406 140.99923706054688 957.1942138671875
    endloop
  endfacet
  facet normal -0.5000000480857109 0.8660253760220811 -3.160185603881605E-7
    outer loop
      vertex 245.87765502929688 141.4956512451172 952.40673828125
      vertex 220.2635498046875 126.70733642578125 945.8939208984375
      vertex 245.01783752441406 140.99923706054688 957.1942138671875
    endloop
  endfacet
  facet normal -0.5000002416475782 0.8660252642682807 1.1908393012804344E-6
    outer loop
      vertex 218.5133056640625 125.69683837890625 957.7103271484375
      vertex 218.20555114746094 125.51914978027344 962.3145751953125
      vertex 244.49966430664062 140.7000732421875 962.0463256835938
    endloop
  endfacet
  facet normal -0.5000000113764572 0.8660253972159946 -6.492336702036633E-7
    outer loop
      vertex 245.01783752441406 140.99923706054688 957.1942138671875
      vertex 218.5133056640625 125.69683837890625 957.7103271484375
      vertex 244.49966430664062 140.7000732421875 962.0463256835938
    endloop
  endfacet
  facet normal -0.5000000516909593 0.8660253739406469 2.7202426581982816E-8
    outer loop
      vertex 218.20555114746094 125.51914978027344 962.3145751953125
      vertex 218.10287475585938 125.45986938476562 966.9310302734375
      vertex 244.32656860351562 140.60012817382812 966.9310302734375
    endloop
  endfacet
  facet normal -0.5000002396981807 0.8660252653933788 1.4455935527134005E-6
    outer loop
      vertex 244.49966430664062 140.7000732421875 962.0463256835938
      vertex 218.20555114746094 125.51914978027344 962.3145751953125
      vertex 244.32656860351562 140.60012817382812 966.9310302734375
    endloop
  endfacet
  facet normal -0.5000000516909595 0.8660253739406472 0.0
    outer loop
      vertex 218.10287475585938 125.45986938476562 966.9310302734375
      vertex 218.10287475585938 125.45986938476562 1773.77001953125
      vertex 244.32656860351562 140.60012817382812 1773.77001953125
    endloop
  endfacet
  facet normal -0.5000000516909595 0.8660253739406472 0.0
    outer loop
      vertex 244.32656860351562 140.60012817382812 966.9310302734375
      vertex 218.10287475585938 125.45986938476562 966.9310302734375
      vertex 244.32656860351562 140.60012817382812 1773.77001953125
    endloop
  endfacet
  facet normal -0.4999999831108707 0.8660254135351463 -6.386372335761286E-7
    outer loop
      vertex 218.10287475585938 125.45986938476562 1773.77001953125
      vertex 218.27601623535156 125.5598373413086 1780.1180419921875
      vertex 244.4859619140625 140.69215393066406 1777.511474609375
    endloop
  endfacet
  facet normal -0.5000000516909595 0.8660253739406472 6.157127731621005E-9
    outer loop
      vertex 244.32656860351562 140.60012817382812 1773.77001953125
      vertex 218.10287475585938 125.45986938476562 1773.77001953125
      vertex 244.4859619140625 140.69215393066406 1777.511474609375
    endloop
  endfacet
  facet normal -0.4999997954872181 0.8660255218597663 5.094193438305021E-7
    outer loop
      vertex 218.27601623535156 125.5598373413086 1780.1180419921875
      vertex 218.79478454589844 125.85934448242188 1786.44091796875
      vertex 244.962646484375 140.9673614501953 1781.2169189453125
    endloop
  endfacet
  facet normal -0.4999998253515588 0.8660255046164811 1.476456596292874E-6
    outer loop
      vertex 244.4859619140625 140.69215393066406 1777.511474609375
      vertex 218.27601623535156 125.5598373413086 1780.1180419921875
      vertex 244.962646484375 140.9673614501953 1781.2169189453125
    endloop
  endfacet
  facet normal -0.5000000459334859 0.866025377264688 -2.5887397071626614E-7
    outer loop
      vertex 218.79478454589844 125.85934448242188 1786.44091796875
      vertex 219.65711975097656 126.35721588134766 1792.7139892578125
      vertex 245.79197692871094 141.44618225097656 1785.0015869140625
    endloop
  endfacet
  facet normal -0.5000000952728763 0.8660253487773243 -1.4928172830106813E-6
    outer loop
      vertex 244.962646484375 140.9673614501953 1781.2169189453125
      vertex 218.79478454589844 125.85934448242188 1786.44091796875
      vertex 245.79197692871094 141.44618225097656 1785.0015869140625
    endloop
  endfacet
  facet normal -0.4999997767757108 0.8660255326624747 9.572441167764076E-7
    outer loop
      vertex 245.79197692871094 141.44618225097656 1785.0015869140625
      vertex 219.65711975097656 126.35721588134766 1792.7139892578125
      vertex 246.9522705078125 142.11607360839844 1788.6693115234375
    endloop
  endfacet
  facet normal -0.4999998922501471 0.8660254659938325 -8.177903203355431E-8
    outer loop
      vertex 219.65711975097656 126.35721588134766 1792.7139892578125
      vertex 220.8596649169922 127.05150604248047 1798.912353515625
      vertex 246.9522705078125 142.11607360839844 1788.6693115234375
    endloop
  endfacet
  facet normal -0.49999990434602837 0.8660254590102082 3.471711887147198E-7
    outer loop
      vertex 220.8596649169922 127.05150604248047 1798.912353515625
      vertex 222.397705078125 127.93949127197266 1805.0115966796875
      vertex 248.269775390625 142.87673950195312 1791.8387451171875
    endloop
  endfacet
  facet normal -0.5000020709213946 0.8660242081297996 2.7331604456739493E-6
    outer loop
      vertex 235.10513305664062 135.27613830566406 910.6831665039062
      vertex 233.0414276123047 134.0846405029297 913.9559936523438
      vertex 254.4204559326172 146.42784118652344 931.4583129882812
    endloop
  endfacet
  facet normal -0.500000281454547 0.8660252412862823 -6.403731082835444E-7
    outer loop
      vertex 222.397705078125 127.93949127197266 1805.0115966796875
      vertex 223.95350646972656 128.83773803710938 1810.0677490234375
      vertex 248.269775390625 142.87673950195312 1791.8387451171875
    endloop
  endfacet
  facet normal -0.5000001698747447 0.8660253057065807 -1.024722277911029E-6
    outer loop
      vertex 246.9522705078125 142.11607360839844 1788.6693115234375
      vertex 220.8596649169922 127.05150604248047 1798.912353515625
      vertex 248.269775390625 142.87673950195312 1791.8387451171875
    endloop
  endfacet
  facet normal -0.5000004213738702 0.866025160503528 -8.892306499095833E-7
    outer loop
      vertex 248.269775390625 142.87673950195312 1791.8387451171875
      vertex 223.95350646972656 128.83773803710938 1810.0677490234375
      vertex 250.02304077148438 143.8889923095703 1795.1798095703125
    endloop
  endfacet
  facet normal -0.5000004592518401 0.8660251386345508 -9.776657604664967E-7
    outer loop
      vertex 223.95350646972656 128.83773803710938 1810.0677490234375
      vertex 225.73988342285156 129.86911010742188 1815.0216064453125
      vertex 250.02304077148438 143.8889923095703 1795.1798095703125
    endloop
  endfacet
  facet normal -0.49999943984573436 0.8660257271892519 -5.284375223835135E-7
    outer loop
      vertex 256.41656494140625 147.58029174804688 928.5238647460938
      vertex 235.10513305664062 135.27613830566406 910.6831665039062
      vertex 254.4204559326172 146.42784118652344 931.4583129882812
    endloop
  endfacet
  facet normal -0.4999997626390376 0.8660255408247961 1.5905680043419844E-7
    outer loop
      vertex 250.02304077148438 143.8889923095703 1795.1798095703125
      vertex 225.73988342285156 129.86911010742188 1815.0216064453125
      vertex 251.84759521484375 144.94239807128906 1798.2862548828125
    endloop
  endfacet
  facet normal -0.4999986384349956 0.8660261898797733 -2.3394797144200997E-6
    outer loop
      vertex 233.0414276123047 134.0846405029297 913.9559936523438
      vertex 230.12307739257812 132.39974975585938 918.9238891601562
      vertex 252.5866241455078 145.36907958984375 934.5301513671875
    endloop
  endfacet
  facet normal -0.5000005428953218 0.8660250903424525 1.3155399820832774E-6
    outer loop
      vertex 230.12307739257812 132.39974975585938 918.9238891601562
      vertex 227.7469940185547 131.0279083251953 923.5774536132812
      vertex 252.5866241455078 145.36907958984375 934.5301513671875
    endloop
  endfacet
  facet normal -0.500000068568871 0.8660253641960179 -5.280021208534246E-7
    outer loop
      vertex 254.4204559326172 146.42784118652344 931.4583129882812
      vertex 233.0414276123047 134.0846405029297 913.9559936523438
      vertex 252.5866241455078 145.36907958984375 934.5301513671875
    endloop
  endfacet
  facet normal -0.5000006022312242 0.8660250560852704 9.578819804231334E-7
    outer loop
      vertex 227.7469940185547 131.0279083251953 923.5774536132812
      vertex 225.39614868164062 129.67063903808594 928.9291381835938
      vertex 250.43905639648438 144.12918090820312 938.7477416992188
    endloop
  endfacet
  facet normal -0.500000080508267 0.86602535730296 -8.265890182960207E-8
    outer loop
      vertex 252.5866241455078 145.36907958984375 934.5301513671875
      vertex 227.7469940185547 131.0279083251953 923.5774536132812
      vertex 250.43905639648438 144.12918090820312 938.7477416992188
    endloop
  endfacet
  facet normal -0.5000001569073876 0.8660253131938949 6.542538648390447E-8
    outer loop
      vertex 225.39614868164062 129.67063903808594 928.9291381835938
      vertex 223.35955810546875 128.49481201171875 934.4488525390625
      vertex 248.59725952148438 143.06581115722656 943.1527099609375
    endloop
  endfacet
  facet normal -0.5000006642927822 0.8660250202536935 1.1689378824735432E-6
    outer loop
      vertex 250.43905639648438 144.12918090820312 938.7477416992188
      vertex 225.39614868164062 129.67063903808594 928.9291381835938
      vertex 248.59725952148438 143.06581115722656 943.1527099609375
    endloop
  endfacet
  facet normal -0.4999997331120777 0.8660255578715299 -1.0754096315421869E-6
    outer loop
      vertex 223.35955810546875 128.49481201171875 934.4488525390625
      vertex 221.64617919921875 127.50559997558594 940.1121826171875
      vertex 247.0734405517578 142.18603515625 947.7158813476562
    endloop
  endfacet
  facet normal -0.5000000686813263 0.866025364131209 -2.756682701865996E-7
    outer loop
      vertex 248.59725952148438 143.06581115722656 943.1527099609375
      vertex 223.35955810546875 128.49481201171875 934.4488525390625
      vertex 247.0734405517578 142.18603515625 947.7158813476562
    endloop
  endfacet
  facet normal -0.5000001585972323 0.8660253122182244 2.63485674774951E-7
    outer loop
      vertex 221.64617919921875 127.50559997558594 940.1121826171875
      vertex 220.2635498046875 126.70733642578125 945.8939208984375
      vertex 245.87765502929688 141.4956512451172 952.40673828125
    endloop
  endfacet
  facet normal -0.49999985369504246 0.8660254882534618 -5.377610159144152E-7
    outer loop
      vertex 247.0734405517578 142.18603515625 947.7158813476562
      vertex 221.64617919921875 127.50559997558594 940.1121826171875
      vertex 245.87765502929688 141.4956512451172 952.40673828125
    endloop
  endfacet
  facet normal -0.8968727631021578 -0.442288646480441 0.0
    outer loop
      vertex 218.10287475585938 125.45986938476562 966.9310302734375
      vertex 232.30662536621094 96.65750885009766 966.9310302734375
      vertex 232.30662536621094 96.65750885009766 1773.77001953125
    endloop
  endfacet
  facet normal -0.8968727631021578 -0.442288646480441 -0.0
    outer loop
      vertex 218.10287475585938 125.45986938476562 1773.77001953125
      vertex 218.10287475585938 125.45986938476562 966.9310302734375
      vertex 232.30662536621094 96.65750885009766 1773.77001953125
    endloop
  endfacet
  facet normal 0.3826835543797428 -0.9238794819709375 6.314795159580538E-7
    outer loop
      vertex 232.30662536621094 96.65750885009766 1773.77001953125
      vertex 260.28216552734375 108.245361328125 1773.77001953125
      vertex 232.4543914794922 96.71871948242188 1779.448486328125
    endloop
  endfacet
  facet normal 0.3826832942522844 -0.9238795897181561 -1.5592532254171778E-6
    outer loop
      vertex 260.4667663574219 108.32183074951172 1777.66796875
      vertex 261.0187072753906 108.55044555664062 1781.5252685546875
      vertex 232.8972625732422 96.90216064453125 1785.10888671875
    endloop
  endfacet
  facet normal 0.3826842320746847 -0.9238792012595968 -1.1568946456150974E-6
    outer loop
      vertex 250.4447021484375 104.1705551147461 910.6831665039062
      vertex 273.1798095703125 113.5877456665039 928.5238647460938
      vertex 270.421142578125 112.44506072998047 932.40234375
    endloop
  endfacet
  facet normal 0.3826842872319359 -0.923879178412581 -1.2163302903447853E-6
    outer loop
      vertex 250.4447021484375 104.1705551147461 910.6831665039062
      vertex 270.421142578125 112.44506072998047 932.40234375
      vertex 248.24313354492188 103.25862884521484 913.9559936523438
    endloop
  endfacet
  facet normal 0.38268357335201864 -0.9238794741125106 -3.4773341704396674E-7
    outer loop
      vertex 232.4543914794922 96.71871948242188 1779.448486328125
      vertex 260.4667663574219 108.32183074951172 1777.66796875
      vertex 232.8972625732422 96.90216064453125 1785.10888671875
    endloop
  endfacet
  facet normal 0.3826835420185941 -0.9238794870910308 7.186056858925679E-7
    outer loop
      vertex 232.8972625732422 96.90216064453125 1785.10888671875
      vertex 261.0187072753906 108.55044555664062 1781.5252685546875
      vertex 233.7400665283203 97.25126647949219 1791.3946533203125
    endloop
  endfacet
  facet normal 0.3826826533253913 -0.9238798551971877 -2.159146136770719E-6
    outer loop
      vertex 261.0187072753906 108.55044555664062 1781.5252685546875
      vertex 261.9322204589844 108.92882537841797 1785.3017578125
      vertex 233.7400665283203 97.25126647949219 1791.3946533203125
    endloop
  endfacet
  facet normal 0.3826829768027788 -0.9238797212108975 7.98843872032985E-7
    outer loop
      vertex 270.421142578125 112.44506072998047 932.40234375
      vertex 268.1961364746094 111.5234375 936.090576171875
      vertex 245.97006225585938 102.31709289550781 917.5113525390625
    endloop
  endfacet
  facet normal 0.3826833055039688 -0.9238795850588585 1.6651238130763684E-7
    outer loop
      vertex 248.24313354492188 103.25862884521484 913.9559936523438
      vertex 270.421142578125 112.44506072998047 932.40234375
      vertex 245.97006225585938 102.31709289550781 917.5113525390625
    endloop
  endfacet
  facet normal 0.38268432017440324 -0.9238791647641259 2.7195192029789447E-6
    outer loop
      vertex 261.9322204589844 108.92882537841797 1785.3017578125
      vertex 263.19781494140625 109.45306396484375 1788.9580078125
      vertex 234.9467315673828 97.7510757446289 1797.611083984375
    endloop
  endfacet
  facet normal 0.3826828627915569 -0.923879768435596 -1.0236489056230667E-6
    outer loop
      vertex 233.7400665283203 97.25126647949219 1791.3946533203125
      vertex 261.9322204589844 108.92882537841797 1785.3017578125
      vertex 234.9467315673828 97.7510757446289 1797.611083984375
    endloop
  endfacet
  facet normal 0.3826837659020929 -0.9238793943554716 5.994097634934835E-7
    outer loop
      vertex 234.9467315673828 97.7510757446289 1797.611083984375
      vertex 263.19781494140625 109.45306396484375 1788.9580078125
      vertex 236.51248168945312 98.3996353149414 1803.7335205078125
    endloop
  endfacet
  facet normal 0.38268395782591463 -0.9238793148579743 -5.038722865969265E-7
    outer loop
      vertex 268.1961364746094 111.5234375 936.090576171875
      vertex 266.02581787109375 110.62445831298828 940.3822021484375
      vertex 243.85736083984375 101.44197845458984 921.1802368164062
    endloop
  endfacet
  facet normal 0.3826840991997331 -0.9238792562987274 -7.742369109256036E-7
    outer loop
      vertex 245.97006225585938 102.31709289550781 917.5113525390625
      vertex 268.1961364746094 111.5234375 936.090576171875
      vertex 243.85736083984375 101.44197845458984 921.1802368164062
    endloop
  endfacet
  facet normal 0.38268358771663596 -0.9238794681625274 2.2238329822632266E-7
    outer loop
      vertex 263.19781494140625 109.45306396484375 1788.9580078125
      vertex 264.6444396972656 110.05227661132812 1792.1484375
      vertex 236.51248168945312 98.3996353149414 1803.7335205078125
    endloop
  endfacet
  facet normal 0.3826836634906671 -0.923879436775897 -1.146306897456594E-7
    outer loop
      vertex 264.6444396972656 110.05227661132812 1792.1484375
      vertex 266.35919189453125 110.7625503540039 1795.1798095703125
      vertex 238.22377014160156 99.10846710205078 1809.1436767578125
    endloop
  endfacet
  facet normal 0.38268312364672963 -0.9238796603859057 -1.0978580141880437E-6
    outer loop
      vertex 236.51248168945312 98.3996353149414 1803.7335205078125
      vertex 264.6444396972656 110.05227661132812 1792.1484375
      vertex 238.22377014160156 99.10846710205078 1809.1436767578125
    endloop
  endfacet
  facet normal 0.38268278275667544 -0.9238798015865956 -1.3857556354502006E-6
    outer loop
      vertex 266.35919189453125 110.7625503540039 1795.1798095703125
      vertex 268.3056335449219 111.56878662109375 1798.2862548828125
      vertex 240.45382690429688 100.03218841552734 1815.0216064453125
    endloop
  endfacet
  facet normal 0.3826837550049916 -0.9238793988693921 1.0139540380873972E-7
    outer loop
      vertex 238.22377014160156 99.10846710205078 1809.1436767578125
      vertex 266.35919189453125 110.7625503540039 1795.1798095703125
      vertex 240.45382690429688 100.03218841552734 1815.0216064453125
    endloop
  endfacet
  facet normal 0.3826827691091734 -0.9238798072399442 1.1039476936924452E-6
    outer loop
      vertex 243.85736083984375 101.44197845458984 921.1802368164062
      vertex 266.02581787109375 110.62445831298828 940.3822021484375
      vertex 241.19911193847656 100.34090423583984 926.4464111328125
    endloop
  endfacet
  facet normal 0.38268343076589295 -0.92387953317369 1.041504684489927E-7
    outer loop
      vertex 266.02581787109375 110.62445831298828 940.3822021484375
      vertex 264.1869201660156 109.86276245117188 944.8504638671875
      vertex 238.87118530273438 99.37664031982422 931.8916015625
    endloop
  endfacet
  facet normal 0.3826836604309382 -0.9238794380429766 -7.563873456874864E-7
    outer loop
      vertex 241.19911193847656 100.34090423583984 926.4464111328125
      vertex 266.02581787109375 110.62445831298828 940.3822021484375
      vertex 238.87118530273438 99.37664031982422 931.8916015625
    endloop
  endfacet
  facet normal 0.382683831061059 -0.9238793673652903 -1.0684264861647548E-6
    outer loop
      vertex 264.1869201660156 109.86276245117188 944.8504638671875
      vertex 262.69158935546875 109.24337005615234 949.4654541015625
      vertex 236.88380432128906 98.55343627929688 937.4916381835938
    endloop
  endfacet
  facet normal 0.38268370647514466 -0.9238794189709865 -5.268714237964159E-7
    outer loop
      vertex 238.87118530273438 99.37664031982422 931.8916015625
      vertex 264.1869201660156 109.86276245117188 944.8504638671875
      vertex 236.88380432128906 98.55343627929688 937.4916381835938
    endloop
  endfacet
  facet normal 0.3826830686042045 -0.9238796831856557 6.650934710801282E-7
    outer loop
      vertex 262.69158935546875 109.24337005615234 949.4654541015625
      vertex 261.5497131347656 108.77039337158203 954.196533203125
      vertex 235.24571228027344 97.87492370605469 943.2218627929688
    endloop
  endfacet
  facet normal 0.38268299553489693 -0.9238797134515693 1.0414037599349934E-6
    outer loop
      vertex 236.88380432128906 98.55343627929688 937.4916381835938
      vertex 262.69158935546875 109.24337005615234 949.4654541015625
      vertex 235.24571228027344 97.87492370605469 943.2218627929688
    endloop
  endfacet
  facet normal 0.3826833046075043 -0.9238795854298244 8.342346164120884E-7
    outer loop
      vertex 261.5497131347656 108.77039337158203 954.196533203125
      vertex 260.7688293457031 108.44694519042969 959.01220703125
      vertex 233.964111328125 97.34406280517578 949.0568237304688
    endloop
  endfacet
  facet normal 0.3826835436431422 -0.9238794864181583 -6.688234826904764E-7
    outer loop
      vertex 235.24571228027344 97.87492370605469 943.2218627929688
      vertex 261.5497131347656 108.77039337158203 954.196533203125
      vertex 233.964111328125 97.34406280517578 949.0568237304688
    endloop
  endfacet
  facet normal 0.3826834936992579 -0.9238795071058095 2.3775597961537698E-7
    outer loop
      vertex 233.964111328125 97.34406280517578 949.0568237304688
      vertex 260.7688293457031 108.44694519042969 959.01220703125
      vertex 233.0446319580078 96.96320343017578 954.9708251953125
    endloop
  endfacet
  facet normal 0.382683645033188 -0.9238794444210213 6.464079130611194E-7
    outer loop
      vertex 260.7688293457031 108.44694519042969 959.01220703125
      vertex 260.4039611816406 108.29581451416016 962.962890625
      vertex 232.4913330078125 96.73401641845703 960.9376220703125
    endloop
  endfacet
  facet normal 0.3826835806623107 -0.9238794710844375 -4.6117351729653945E-7
    outer loop
      vertex 233.0446319580078 96.96320343017578 954.9708251953125
      vertex 260.7688293457031 108.44694519042969 959.01220703125
      vertex 232.4913330078125 96.73401641845703 960.9376220703125
    endloop
  endfacet
  facet normal 0.3826835543796728 -0.9238794819707685 -8.743350578257277E-7
    outer loop
      vertex 260.4039611816406 108.29581451416016 962.962890625
      vertex 260.28216552734375 108.245361328125 966.9310302734375
      vertex 232.30662536621094 96.65750885009766 966.9310302734375
    endloop
  endfacet
  facet normal 0.3826836764834292 -0.9238794313941117 1.385871670819231E-7
    outer loop
      vertex 232.4913330078125 96.73401641845703 960.9376220703125
      vertex 260.4039611816406 108.29581451416016 962.962890625
      vertex 232.30662536621094 96.65750885009766 966.9310302734375
    endloop
  endfacet
  facet normal 0.382683554379819 -0.9238794819711216 0.0
    outer loop
      vertex 260.28216552734375 108.245361328125 966.9310302734375
      vertex 260.28216552734375 108.245361328125 1773.77001953125
      vertex 232.30662536621094 96.65750885009766 1773.77001953125
    endloop
  endfacet
  facet normal 0.382683554379819 -0.9238794819711216 0.0
    outer loop
      vertex 232.30662536621094 96.65750885009766 966.9310302734375
      vertex 260.28216552734375 108.245361328125 966.9310302734375
      vertex 232.30662536621094 96.65750885009766 1773.77001953125
    endloop
  endfacet
  facet normal 0.3826836590952503 -0.9238794385957243 1.2326928634813056E-6
    outer loop
      vertex 260.28216552734375 108.245361328125 1773.77001953125
      vertex 260.4667663574219 108.32183074951172 1777.66796875
      vertex 232.4543914794922 96.71871948242188 1779.448486328125
    endloop
  endfacet
  facet normal -0.7380148094374829 -0.36394861039953313 -0.5682213917472702
    outer loop
      vertex 233.0414276123047 134.0846405029297 913.9559936523438
      vertex 248.24313354492188 103.25862884521484 913.9559936523438
      vertex 245.97006225585938 102.31709289550781 917.5113525390625
    endloop
  endfacet
  facet normal -0.7612782656310384 -0.3762294542656892 -0.5281162750954941
    outer loop
      vertex 230.12307739257812 132.39974975585938 918.9238891601562
      vertex 245.97006225585938 102.31709289550781 917.5113525390625
      vertex 243.85736083984375 101.44197845458984 921.1802368164062
    endloop
  endfacet
  facet normal -0.7432726175378391 -0.36522395403570845 -0.5604973500534789
    outer loop
      vertex 230.12307739257812 132.39974975585938 918.9238891601562
      vertex 233.0414276123047 134.0846405029297 913.9559936523438
      vertex 245.97006225585938 102.31709289550781 917.5113525390625
    endloop
  endfacet
  facet normal -0.7868116456531657 -0.38965914210856845 -0.4786368009626626
    outer loop
      vertex 227.7469940185547 131.0279083251953 923.5774536132812
      vertex 243.85736083984375 101.44197845458984 921.1802368164062
      vertex 241.19911193847656 100.34090423583984 926.4464111328125
    endloop
  endfacet
  facet normal -0.7735633680981424 -0.38014362040188304 -0.5070409681716133
    outer loop
      vertex 227.7469940185547 131.0279083251953 923.5774536132812
      vertex 230.12307739257812 132.39974975585938 918.9238891601562
      vertex 243.85736083984375 101.44197845458984 921.1802368164062
    endloop
  endfacet
  facet normal -0.8136114858870441 -0.40289348209679865 -0.4191815741615951
    outer loop
      vertex 225.39614868164062 129.67063903808594 928.9291381835938
      vertex 241.19911193847656 100.34090423583984 926.4464111328125
      vertex 238.87118530273438 99.37664031982422 931.8916015625
    endloop
  endfacet
  facet normal -0.8008857010398824 -0.3932966045575396 -0.4515527374663632
    outer loop
      vertex 225.39614868164062 129.67063903808594 928.9291381835938
      vertex 227.7469940185547 131.0279083251953 923.5774536132812
      vertex 241.19911193847656 100.34090423583984 926.4464111328125
    endloop
  endfacet
  facet normal -0.8368033212634408 -0.4143458470049217 -0.35787947774669726
    outer loop
      vertex 223.35955810546875 128.49481201171875 934.4488525390625
      vertex 238.87118530273438 99.37664031982422 931.8916015625
      vertex 236.88380432128906 98.55343627929688 937.4916381835938
    endloop
  endfacet
  facet normal -0.8260558417242472 -0.4056934061863505 -0.3912091595683343
    outer loop
      vertex 223.35955810546875 128.49481201171875 934.4488525390625
      vertex 225.39614868164062 129.67063903808594 928.9291381835938
      vertex 238.87118530273438 99.37664031982422 931.8916015625
    endloop
  endfacet
  facet normal -0.8562901249719281 -0.4239682335016217 -0.2949884046146121
    outer loop
      vertex 221.64617919921875 127.50559997558594 940.1121826171875
      vertex 236.88380432128906 98.55343627929688 937.4916381835938
      vertex 235.24571228027344 97.87492370605469 943.2218627929688
    endloop
  endfacet
  facet normal -0.8475695346043951 -0.41628777686345747 -0.32913579392793085
    outer loop
      vertex 221.64617919921875 127.50559997558594 940.1121826171875
      vertex 223.35955810546875 128.49481201171875 934.4488525390625
      vertex 236.88380432128906 98.55343627929688 937.4916381835938
    endloop
  endfacet
  facet normal -0.8719811819133655 -0.43171727176773095 -0.23080081379058767
    outer loop
      vertex 220.2635498046875 126.70733642578125 945.8939208984375
      vertex 235.24571228027344 97.87492370605469 943.2218627929688
      vertex 233.964111328125 97.34406280517578 949.0568237304688
    endloop
  endfacet
  facet normal -0.8653290727426975 -0.42503418315547575 -0.2656153967969872
    outer loop
      vertex 220.2635498046875 126.70733642578125 945.8939208984375
      vertex 221.64617919921875 127.50559997558594 940.1121826171875
      vertex 235.24571228027344 97.87492370605469 943.2218627929688
    endloop
  endfacet
  facet normal -0.8838112287461557 -0.43755906437298836 -0.16558918179411833
    outer loop
      vertex 219.2177276611328 126.10353088378906 951.7686767578125
      vertex 233.964111328125 97.34406280517578 949.0568237304688
      vertex 233.0446319580078 96.96320343017578 954.9708251953125
    endloop
  endfacet
  facet normal -0.8792609070368397 -0.4318947989724004 -0.20091575343248663
    outer loop
      vertex 219.2177276611328 126.10353088378906 951.7686767578125
      vertex 220.2635498046875 126.70733642578125 945.8939208984375
      vertex 233.964111328125 97.34406280517578 949.0568237304688
    endloop
  endfacet
  facet normal -0.8917266035310615 -0.44146828584695175 -0.09964646078166181
    outer loop
      vertex 218.5133056640625 125.69683837890625 957.7103271484375
      vertex 233.0446319580078 96.96320343017578 954.9708251953125
      vertex 232.4913330078125 96.73401641845703 960.9376220703125
    endloop
  endfacet
  facet normal -0.8893010866224991 -0.43683922187049595 -0.13533318723662016
    outer loop
      vertex 218.5133056640625 125.69683837890625 957.7103271484375
      vertex 219.2177276611328 126.10353088378906 951.7686767578125
      vertex 233.0446319580078 96.96320343017578 954.9708251953125
    endloop
  endfacet
  facet normal -0.8958894349165835 -0.4430299509950391 -0.033265341215411956
    outer loop
      vertex 218.20555114746094 125.51914978027344 962.3145751953125
      vertex 232.4913330078125 96.73401641845703 960.9376220703125
      vertex 232.30662536621094 96.65750885009766 966.9310302734375
    endloop
  endfacet
  facet normal -0.8945656215147283 -0.44029112481346955 -0.07678589853910403
    outer loop
      vertex 218.20555114746094 125.51914978027344 962.3145751953125
      vertex 218.5133056640625 125.69683837890625 957.7103271484375
      vertex 232.4913330078125 96.73401641845703 960.9376220703125
    endloop
  endfacet
  facet normal -0.8965783965402334 -0.4421434809746982 -0.02561876439098423
    outer loop
      vertex 218.10287475585938 125.45986938476562 966.9310302734375
      vertex 218.20555114746094 125.51914978027344 962.3145751953125
      vertex 232.30662536621094 96.65750885009766 966.9310302734375
    endloop
  endfacet
  facet normal -0.7255833487236851 -0.3578179467425651 -0.587788330135822
    outer loop
      vertex 233.0414276123047 134.0846405029297 913.9559936523438
      vertex 235.10513305664062 135.27613830566406 910.6831665039062
      vertex 250.4447021484375 104.1705551147461 910.6831665039062
    endloop
  endfacet
  facet normal -0.7255838797950268 -0.35781835459505323 -0.5877874262830779
    outer loop
      vertex 233.0414276123047 134.0846405029297 913.9559936523438
      vertex 250.4447021484375 104.1705551147461 910.6831665039062
      vertex 248.24313354492188 103.25862884521484 913.9559936523438
    endloop
  endfacet
  facet normal 0.5271684004945805 0.2599705671089852 -0.809017170248579
    outer loop
      vertex 235.10513305664062 135.27613830566406 910.6831665039062
      vertex 256.41656494140625 147.58029174804688 928.5238647460938
      vertex 250.4447021484375 104.1705551147461 910.6831665039062
    endloop
  endfacet
  facet normal 0.5271686985440441 0.25997046038261395 -0.8090170103303332
    outer loop
      vertex 256.41656494140625 147.58029174804688 928.5238647460938
      vertex 273.1798095703125 113.5877456665039 928.5238647460938
      vertex 250.4447021484375 104.1705551147461 910.6831665039062
    endloop
  endfacet
  facet normal 0.7058893602514751 0.3481056111081542 0.6168814266929925
    outer loop
      vertex 273.1798095703125 113.5877456665039 928.5238647460938
      vertex 256.41656494140625 147.58029174804688 928.5238647460938
      vertex 254.4204559326172 146.42784118652344 931.4583129882812
    endloop
  endfacet
  facet normal 0.7108213422599344 0.3516109043780724 0.6091820674562073
    outer loop
      vertex 270.421142578125 112.44506072998047 932.40234375
      vertex 273.1798095703125 113.5877456665039 928.5238647460938
      vertex 254.4204559326172 146.42784118652344 931.4583129882812
    endloop
  endfacet
  facet normal 0.7509869780813426 0.3715206156109253 0.5458855108246893
    outer loop
      vertex 268.1961364746094 111.5234375 936.090576171875
      vertex 270.421142578125 112.44506072998047 932.40234375
      vertex 252.5866241455078 145.36907958984375 934.5301513671875
    endloop
  endfacet
  facet normal 0.7392431714880874 0.36381335321866015 0.5667092529931277
    outer loop
      vertex 270.421142578125 112.44506072998047 932.40234375
      vertex 254.4204559326172 146.42784118652344 931.4583129882812
      vertex 252.5866241455078 145.36907958984375 934.5301513671875
    endloop
  endfacet
  facet normal 0.7865691066173195 0.38930338388944724 0.47932443689786725
    outer loop
      vertex 266.02581787109375 110.62445831298828 940.3822021484375
      vertex 268.1961364746094 111.5234375 936.090576171875
      vertex 250.43905639648438 144.12918090820312 938.7477416992188
    endloop
  endfacet
  facet normal 0.7741366530385112 0.3803584676385135 0.5060038325131674
    outer loop
      vertex 268.1961364746094 111.5234375 936.090576171875
      vertex 252.5866241455078 145.36907958984375 934.5301513671875
      vertex 250.43905639648438 144.12918090820312 938.7477416992188
    endloop
  endfacet
  facet normal 0.8190030055371007 0.4053098315927016 0.4061502398564994
    outer loop
      vertex 264.1869201660156 109.86276245117188 944.8504638671875
      vertex 266.02581787109375 110.62445831298828 940.3822021484375
      vertex 248.59725952148438 143.06581115722656 943.1527099609375
    endloop
  endfacet
  facet normal 0.8085681686660292 0.39732615688807627 0.43399244425751876
    outer loop
      vertex 266.02581787109375 110.62445831298828 940.3822021484375
      vertex 250.43905639648438 144.12918090820312 938.7477416992188
      vertex 248.59725952148438 143.06581115722656 943.1527099609375
    endloop
  endfacet
  facet normal 0.8459708733883035 0.41861728392038083 0.3302920692080788
    outer loop
      vertex 262.69158935546875 109.24337005615234 949.4654541015625
      vertex 264.1869201660156 109.86276245117188 944.8504638671875
      vertex 247.0734405517578 142.18603515625 947.7158813476562
    endloop
  endfacet
  facet normal 0.8376219557125798 0.411645031974169 0.3590791374602793
    outer loop
      vertex 264.1869201660156 109.86276245117188 944.8504638671875
      vertex 248.59725952148438 143.06581115722656 943.1527099609375
      vertex 247.0734405517578 142.18603515625 947.7158813476562
    endloop
  endfacet
  facet normal 0.8673028447779401 0.42914447105761444 0.252231636399506
    outer loop
      vertex 261.5497131347656 108.77039337158203 954.196533203125
      vertex 262.69158935546875 109.24337005615234 949.4654541015625
      vertex 245.87765502929688 141.4956512451172 952.40673828125
    endloop
  endfacet
  facet normal 0.8610941893364893 0.42321162853773436 0.2817955190583646
    outer loop
      vertex 262.69158935546875 109.24337005615234 949.4654541015625
      vertex 247.0734405517578 142.18603515625 947.7158813476562
      vertex 245.87765502929688 141.4956512451172 952.40673828125
    endloop
  endfacet
  facet normal 0.8828554513614998 0.4368186991816985 0.17249833635861903
    outer loop
      vertex 260.7688293457031 108.44694519042969 959.01220703125
      vertex 261.5497131347656 108.77039337158203 954.196533203125
      vertex 245.01783752441406 140.99923706054688 957.1942138671875
    endloop
  endfacet
  facet normal 0.8788382666058396 0.43195577999277684 0.20262651672492119
    outer loop
      vertex 261.5497131347656 108.77039337158203 954.196533203125
      vertex 245.87765502929688 141.4956512451172 952.40673828125
      vertex 245.01783752441406 140.99923706054688 957.1942138671875
    endloop
  endfacet
  facet normal 0.892157184746005 0.4406860694703234 0.099253946424713
    outer loop
      vertex 260.4039611816406 108.29581451416016 962.962890625
      vertex 260.7688293457031 108.44694519042969 959.01220703125
      vertex 244.49966430664062 140.7000732421875 962.0463256835938
    endloop
  endfacet
  facet normal 0.8907322274986027 0.4378163788176497 0.12211845615785466
    outer loop
      vertex 260.7688293457031 108.44694519042969 959.01220703125
      vertex 245.01783752441406 140.99923706054688 957.1942138671875
      vertex 244.49966430664062 140.7000732421875 962.0463256835938
    endloop
  endfacet
  facet normal 0.896380395598186 0.44204566056039035 0.033133372405588224
    outer loop
      vertex 260.28216552734375 108.245361328125 966.9310302734375
      vertex 260.4039611816406 108.29581451416016 962.962890625
      vertex 244.32656860351562 140.60012817382812 966.9310302734375
    endloop
  endfacet
  facet normal 0.8964990115108857 0.4411635504417271 0.04079514826121378
    outer loop
      vertex 260.4039611816406 108.29581451416016 962.962890625
      vertex 244.49966430664062 140.7000732421875 962.0463256835938
      vertex 244.32656860351562 140.60012817382812 966.9310302734375
    endloop
  endfacet
  facet normal 0.8968728334189205 0.44228850389210583 -0.0
    outer loop
      vertex 244.32656860351562 140.60012817382812 966.9310302734375
      vertex 244.32656860351562 140.60012817382812 1773.77001953125
      vertex 260.28216552734375 108.245361328125 966.9310302734375
    endloop
  endfacet
  facet normal 0.8968728334189205 0.44228850389210583 0.0
    outer loop
      vertex 244.32656860351562 140.60012817382812 1773.77001953125
      vertex 260.28216552734375 108.245361328125 1773.77001953125
      vertex 260.28216552734375 108.245361328125 966.9310302734375
    endloop
  endfacet
  facet normal 0.8957942518475414 0.4417566066021496 -0.04902814375700237
    outer loop
      vertex 260.28216552734375 108.245361328125 1773.77001953125
      vertex 244.32656860351562 140.60012817382812 1773.77001953125
      vertex 244.4859619140625 140.69215393066406 1777.511474609375
    endloop
  endfacet
  facet normal 0.8956073373186286 0.4419026441828811 -0.05108375872245427
    outer loop
      vertex 260.4667663574219 108.32183074951172 1777.66796875
      vertex 260.28216552734375 108.245361328125 1773.77001953125
      vertex 244.4859619140625 140.69215393066406 1777.511474609375
    endloop
  endfacet
  facet normal 0.886169844608552 0.4374661293575649 -0.15272980118943738
    outer loop
      vertex 261.0187072753906 108.55044555664062 1781.5252685546875
      vertex 260.4667663574219 108.32183074951172 1777.66796875
      vertex 244.962646484375 140.9673614501953 1781.2169189453125
    endloop
  endfacet
  facet normal 0.8872703360912357 0.4373248922405829 -0.1466229494973701
    outer loop
      vertex 260.4667663574219 108.32183074951172 1777.66796875
      vertex 244.4859619140625 140.69215393066406 1777.511474609375
      vertex 244.962646484375 140.9673614501953 1781.2169189453125
    endloop
  endfacet
  facet normal 0.867567569323698 0.42829056156414125 -0.25277204658118896
    outer loop
      vertex 261.9322204589844 108.92882537841797 1785.3017578125
      vertex 261.0187072753906 108.55044555664062 1781.5252685546875
      vertex 245.79197692871094 141.44618225097656 1785.0015869140625
    endloop
  endfacet
  facet normal 0.8697651217031508 0.42846513278825715 -0.24479841309421146
    outer loop
      vertex 261.0187072753906 108.55044555664062 1781.5252685546875
      vertex 244.962646484375 140.9673614501953 1781.2169189453125
      vertex 245.79197692871094 141.44618225097656 1785.0015869140625
    endloop
  endfacet
  facet normal 0.8399050119632887 0.4146469686577967 -0.3501820416038607
    outer loop
      vertex 263.19781494140625 109.45306396484375 1788.9580078125
      vertex 261.9322204589844 108.92882537841797 1785.3017578125
      vertex 246.9522705078125 142.11607360839844 1788.6693115234375
    endloop
  endfacet
  facet normal 0.8428212706873222 0.41517963418904863 -0.3424590151122541
    outer loop
      vertex 261.9322204589844 108.92882537841797 1785.3017578125
      vertex 245.79197692871094 141.44618225097656 1785.0015869140625
      vertex 246.9522705078125 142.11607360839844 1788.6693115234375
    endloop
  endfacet
  facet normal 0.8052940249179062 0.3975758202261712 -0.4398124607182084
    outer loop
      vertex 264.6444396972656 110.05227661132812 1792.1484375
      vertex 263.19781494140625 109.45306396484375 1788.9580078125
      vertex 248.269775390625 142.87673950195312 1791.8387451171875
    endloop
  endfacet
  facet normal 0.8090389339879351 0.3985722873341815 -0.43196774770909024
    outer loop
      vertex 263.19781494140625 109.45306396484375 1788.9580078125
      vertex 246.9522705078125 142.11607360839844 1788.6693115234375
      vertex 248.269775390625 142.87673950195312 1791.8387451171875
    endloop
  endfacet
  facet normal 0.7653351777505226 0.3774214912753586 -0.5213588817897519
    outer loop
      vertex 266.35919189453125 110.7625503540039 1795.1798095703125
      vertex 264.6444396972656 110.05227661132812 1792.1484375
      vertex 250.02304077148438 143.8889923095703 1795.1798095703125
    endloop
  endfacet
  facet normal 0.7676886867007369 0.3780841328388938 -0.5174035840687223
    outer loop
      vertex 264.6444396972656 110.05227661132812 1792.1484375
      vertex 248.269775390625 142.87673950195312 1791.8387451171875
      vertex 250.02304077148438 143.8889923095703 1795.1798095703125
    endloop
  endfacet
  facet normal 0.7427667886887374 0.36629192189138216 -0.5604709854917899
    outer loop
      vertex 250.02304077148438 143.8889923095703 1795.1798095703125
      vertex 251.84759521484375 144.94239807128906 1798.2862548828125
      vertex 268.3056335449219 111.56878662109375 1798.2862548828125
    endloop
  endfacet
  facet normal 0.7427670852120255 0.3662921411700164 -0.5604704492145116
    outer loop
      vertex 250.02304077148438 143.8889923095703 1795.1798095703125
      vertex 268.3056335449219 111.56878662109375 1798.2862548828125
      vertex 266.35919189453125 110.7625503540039 1795.1798095703125
    endloop
  endfacet
  facet normal 0.4360199061371415 0.2150211504257249 0.8738721567379043
    outer loop
      vertex 251.84759521484375 144.94239807128906 1798.2862548828125
      vertex 225.73988342285156 129.86911010742188 1815.0216064453125
      vertex 268.3056335449219 111.56878662109375 1798.2862548828125
    endloop
  endfacet
  facet normal 0.43601993891055935 0.2150212680839678 0.873872111435074
    outer loop
      vertex 225.73988342285156 129.86911010742188 1815.0216064453125
      vertex 240.45382690429688 100.03218841552734 1815.0216064453125
      vertex 268.3056335449219 111.56878662109375 1798.2862548828125
    endloop
  endfacet
  facet normal -0.896518726515857 -0.44211405497872347 0.028095113394617965
    outer loop
      vertex 218.10287475585938 125.45986938476562 1773.77001953125
      vertex 232.30662536621094 96.65750885009766 1773.77001953125
      vertex 232.4543914794922 96.71871948242188 1779.448486328125
    endloop
  endfacet
  facet normal -0.8934588509829215 -0.44118168215735215 0.08420216700944577
    outer loop
      vertex 218.27601623535156 125.5598373413086 1780.1180419921875
      vertex 232.4543914794922 96.71871948242188 1779.448486328125
      vertex 232.8972625732422 96.90216064453125 1785.10888671875
    endloop
  endfacet
  facet normal -0.8966894781070367 -0.4415442918758879 0.031410478569278276
    outer loop
      vertex 218.27601623535156 125.5598373413086 1780.1180419921875
      vertex 218.10287475585938 125.45986938476562 1773.77001953125
      vertex 232.4543914794922 96.71871948242188 1779.448486328125
    endloop
  endfacet
  facet normal -0.8871577594876316 -0.4386483453291901 0.14331342896201033
    outer loop
      vertex 218.79478454589844 125.85934448242188 1786.44091796875
      vertex 232.8972625732422 96.90216064453125 1785.10888671875
      vertex 233.7400665283203 97.25126647949219 1791.3946533203125
    endloop
  endfacet
  facet normal -0.8933482801017946 -0.43939982790518956 0.0941097321006473
    outer loop
      vertex 218.79478454589844 125.85934448242188 1786.44091796875
      vertex 218.27601623535156 125.5598373413086 1780.1180419921875
      vertex 232.8972625732422 96.90216064453125 1785.10888671875
    endloop
  endfacet
  facet normal -0.8773365062276828 -0.43380068457106075 0.20517704770729636
    outer loop
      vertex 219.65711975097656 126.35721588134766 1792.7139892578125
      vertex 233.7400665283203 97.25126647949219 1791.3946533203125
      vertex 234.9467315673828 97.7510757446289 1797.611083984375
    endloop
  endfacet
  facet normal -0.8862854532314824 -0.4359210819059059 0.15643179261342616
    outer loop
      vertex 219.65711975097656 126.35721588134766 1792.7139892578125
      vertex 218.79478454589844 125.85934448242188 1786.44091796875
      vertex 233.7400665283203 97.25126647949219 1791.3946533203125
    endloop
  endfacet
  facet normal -0.8640515142726047 -0.42724250568400524 0.266230768357212
    outer loop
      vertex 220.8596649169922 127.05150604248047 1798.912353515625
      vertex 234.9467315673828 97.7510757446289 1797.611083984375
      vertex 236.51248168945312 98.3996353149414 1803.7335205078125
    endloop
  endfacet
  facet normal -0.8757246796063825 -0.43071918490271416 0.21814506477351311
    outer loop
      vertex 220.8596649169922 127.05150604248047 1798.912353515625
      vertex 219.65711975097656 126.35721588134766 1792.7139892578125
      vertex 234.9467315673828 97.7510757446289 1797.611083984375
    endloop
  endfacet
  facet normal -0.8483235389519432 -0.4193340084650342 0.32327412919177034
    outer loop
      vertex 222.397705078125 127.93949127197266 1805.0115966796875
      vertex 236.51248168945312 98.3996353149414 1803.7335205078125
      vertex 238.22377014160156 99.10846710205078 1809.1436767578125
    endloop
  endfacet
  facet normal -0.8617083654656489 -0.4238139496959152 0.27899897657458916
    outer loop
      vertex 222.397705078125 127.93949127197266 1805.0115966796875
      vertex 220.8596649169922 127.05150604248047 1798.912353515625
      vertex 236.51248168945312 98.3996353149414 1803.7335205078125
    endloop
  endfacet
  facet normal -0.8295535749525264 -0.40997696846093495 0.37915663203360295
    outer loop
      vertex 223.95350646972656 128.83773803710938 1810.0677490234375
      vertex 238.22377014160156 99.10846710205078 1809.1436767578125
      vertex 240.45382690429688 100.03218841552734 1815.0216064453125
    endloop
  endfacet
  facet normal -0.8456066483718946 -0.4162836720832644 0.3341516131730091
    outer loop
      vertex 223.95350646972656 128.83773803710938 1810.0677490234375
      vertex 222.397705078125 127.93949127197266 1805.0115966796875
      vertex 238.22377014160156 99.10846710205078 1809.1436767578125
    endloop
  endfacet
  facet normal -0.8282257878878857 -0.4084358151520848 0.3836954901722755
    outer loop
      vertex 225.73988342285156 129.86911010742188 1815.0216064453125
      vertex 223.95350646972656 128.83773803710938 1810.0677490234375
      vertex 240.45382690429688 100.03218841552734 1815.0216064453125
    endloop
  endfacet
endsolid v3d.csg
