solid v3d.csg
  facet normal 0.5000004017290657 0.8660251718454601 -9.024079366475684E-7
    outer loop
      vertex 246.67343139648438 -142.8788604736328 947.7158813476562
      vertex 221.24618530273438 -128.19842529296875 940.1121826171875
      vertex 245.4776611328125 -142.1884765625 952.40673828125
    endloop
  endfacet
  facet normal 0.499999752579162 0.8660255466321947 1.0886761156242856E-6
    outer loop
      vertex 219.86354064941406 -127.40015411376953 945.8939208984375
      vertex 218.81771850585938 -126.79635620117188 951.7686767578125
      vertex 244.6178436279297 -141.6920623779297 957.1942138671875
    endloop
  endfacet
  facet normal 0.5000001664368029 0.8660253076907234 -1.5353554929874452E-6
    outer loop
      vertex 218.81771850585938 -126.79635620117188 951.7686767578125
      vertex 218.11331176757812 -126.38965606689453 957.7103271484375
      vertex 244.6178436279297 -141.6920623779297 957.1942138671875
    endloop
  endfacet
  facet normal 0.5000000194635845 0.8660253925470774 3.0916462509479574E-7
    outer loop
      vertex 245.4776611328125 -142.1884765625 952.40673828125
      vertex 219.86354064941406 -127.40015411376953 945.8939208984375
      vertex 244.6178436279297 -141.6920623779297 957.1942138671875
    endloop
  endfacet
  facet normal 0.49999984797936786 0.8660254915534664 4.311091645000139E-7
    outer loop
      vertex 218.11331176757812 -126.38965606689453 957.7103271484375
      vertex 217.8055419921875 -126.21196746826172 962.3145751953125
      vertex 244.09967041015625 -141.39288330078125 962.0463256835938
    endloop
  endfacet
  facet normal 0.5000001588732434 0.8660253120564756 -2.0532168347276224E-6
    outer loop
      vertex 244.6178436279297 -141.6920623779297 957.1942138671875
      vertex 218.11331176757812 -126.38965606689453 957.7103271484375
      vertex 244.09967041015625 -141.39288330078125 962.0463256835938
    endloop
  endfacet
  facet normal 0.5000002406588329 0.8660252648399518 -2.1598544101348125E-8
    outer loop
      vertex 217.8055419921875 -126.21196746826172 962.3145751953125
      vertex 217.70286560058594 -126.1526870727539 966.9310302734375
      vertex 243.9265594482422 -141.29295349121094 966.9310302734375
    endloop
  endfacet
  facet normal 0.49999986613288677 0.8660254810680996 2.803931484724617E-6
    outer loop
      vertex 244.09967041015625 -141.39288330078125 962.0463256835938
      vertex 217.8055419921875 -126.21196746826172 962.3145751953125
      vertex 243.9265594482422 -141.29295349121094 966.9310302734375
    endloop
  endfacet
  facet normal 0.500000240658833 0.866025264839952 -0.0
    outer loop
      vertex 217.70286560058594 -126.1526870727539 966.9310302734375
      vertex 217.70286560058594 -126.1526870727539 1773.77001953125
      vertex 243.9265594482422 -141.29295349121094 1773.77001953125
    endloop
  endfacet
  facet normal 0.500000240658833 0.866025264839952 -0.0
    outer loop
      vertex 243.9265594482422 -141.29295349121094 966.9310302734375
      vertex 217.70286560058594 -126.1526870727539 966.9310302734375
      vertex 243.9265594482422 -141.29295349121094 1773.77001953125
    endloop
  endfacet
  facet normal 0.5000000822660974 0.8660253562878945 -5.66822672568721E-7
    outer loop
      vertex 217.70286560058594 -126.1526870727539 1773.77001953125
      vertex 217.8760223388672 -126.25265502929688 1780.1180419921875
      vertex 244.08596801757812 -141.38497924804688 1777.511474609375
    endloop
  endfacet
  facet normal 0.5000002406577762 0.8660252648381216 -2.056043691175583E-6
    outer loop
      vertex 243.9265594482422 -141.29295349121094 1773.77001953125
      vertex 217.70286560058594 -126.1526870727539 1773.77001953125
      vertex 244.08596801757812 -141.38497924804688 1777.511474609375
    endloop
  endfacet
  facet normal 0.5000001595591185 0.8660253116626695 6.573871058071421E-7
    outer loop
      vertex 217.8760223388672 -126.25265502929688 1780.1180419921875
      vertex 218.394775390625 -126.55216217041016 1786.44091796875
      vertex 244.56263732910156 -141.66018676757812 1781.2169189453125
    endloop
  endfacet
  facet normal 0.5000001636635748 0.8660253092930501 5.244841172699005E-7
    outer loop
      vertex 244.08596801757812 -141.38497924804688 1777.511474609375
      vertex 217.8760223388672 -126.25265502929688 1780.1180419921875
      vertex 244.56263732910156 -141.66018676757812 1781.2169189453125
    endloop
  endfacet
  facet normal 0.5000002216838472 0.8660252757951696 6.371854376510762E-8
    outer loop
      vertex 218.394775390625 -126.55216217041016 1786.44091796875
      vertex 219.2571258544922 -127.05004119873047 1792.7139892578125
      vertex 245.3919677734375 -142.13900756835938 1785.0015869140625
    endloop
  endfacet
  facet normal 0.5000002767070079 0.8660252440263173 1.4398071347762293E-6
    outer loop
      vertex 244.56263732910156 -141.66018676757812 1781.2169189453125
      vertex 218.394775390625 -126.55216217041016 1786.44091796875
      vertex 245.3919677734375 -142.13900756835938 1785.0015869140625
    endloop
  endfacet
  facet normal 0.499999977024423 0.8660254170487672 -1.0417095419218934E-6
    outer loop
      vertex 245.3919677734375 -142.13900756835938 1785.0015869140625
      vertex 219.2571258544922 -127.05004119873047 1792.7139892578125
      vertex 246.55226135253906 -142.80889892578125 1788.6693115234375
    endloop
  endfacet
  facet normal 0.5000000960277896 0.8660253483427609 2.9065802109268527E-8
    outer loop
      vertex 219.2571258544922 -127.05004119873047 1792.7139892578125
      vertex 220.4596710205078 -127.74433135986328 1798.912353515625
      vertex 246.55226135253906 -142.80889892578125 1788.6693115234375
    endloop
  endfacet
  facet normal 0.5000001308021178 0.8660253282657496 -2.557254305517038E-7
    outer loop
      vertex 220.4596710205078 -127.74433135986328 1798.912353515625
      vertex 221.99769592285156 -128.63230895996094 1805.0115966796875
      vertex 247.86976623535156 -143.56956481933594 1791.8387451171875
    endloop
  endfacet
  facet normal 0.4999991861100942 0.8660258736826394 1.2102146000238451E-6
    outer loop
      vertex 234.70513916015625 -135.9689483642578 910.6831665039062
      vertex 232.64141845703125 -134.7774658203125 913.9559936523438
      vertex 254.02044677734375 -147.1206512451172 931.4583129882812
    endloop
  endfacet
  facet normal 0.5000000156264496 0.8660253947623242 -5.573388902965718E-7
    outer loop
      vertex 221.99769592285156 -128.63230895996094 1805.0115966796875
      vertex 223.55349731445312 -129.53054809570312 1810.0677490234375
      vertex 247.86976623535156 -143.56956481933594 1791.8387451171875
    endloop
  endfacet
  facet normal 0.5000003584067724 0.8660251968576044 9.202274017817511E-7
    outer loop
      vertex 246.55226135253906 -142.80889892578125 1788.6693115234375
      vertex 220.4596710205078 -127.74433135986328 1798.912353515625
      vertex 247.86976623535156 -143.56956481933594 1791.8387451171875
    endloop
  endfacet
  facet normal 0.49999979246323745 0.8660255236052854 -9.542517004975207E-7
    outer loop
      vertex 247.86976623535156 -143.56956481933594 1791.8387451171875
      vertex 223.55349731445312 -129.53054809570312 1810.0677490234375
      vertex 249.623046875 -144.58181762695312 1795.1798095703125
    endloop
  endfacet
  facet normal 0.5000000454951334 0.8660253775177331 -3.6348958017558574E-7
    outer loop
      vertex 223.55349731445312 -129.53054809570312 1810.0677490234375
      vertex 225.3398895263672 -130.56192016601562 1815.0216064453125
      vertex 249.623046875 -144.58181762695312 1795.1798095703125
    endloop
  endfacet
  facet normal 0.49999839974439686 0.866026327687714 2.185024816594221E-6
    outer loop
      vertex 256.0165710449219 -148.27310180664062 928.5238647460938
      vertex 234.70513916015625 -135.9689483642578 910.6831665039062
      vertex 254.02044677734375 -147.1206512451172 931.4583129882812
    endloop
  endfacet
  facet normal 0.4999992939167748 0.8660258114399355 -1.5899027161134062E-6
    outer loop
      vertex 249.623046875 -144.58181762695312 1795.1798095703125
      vertex 225.3398895263672 -130.56192016601562 1815.0216064453125
      vertex 251.4475860595703 -145.6352081298828 1798.2862548828125
    endloop
  endfacet
  facet normal 0.5000003718999035 0.8660251890676794 -4.984984868121981E-7
    outer loop
      vertex 232.64141845703125 -134.7774658203125 913.9559936523438
      vertex 229.72308349609375 -133.09255981445312 918.9238891601562
      vertex 252.18661499023438 -146.0618896484375 934.5301513671875
    endloop
  endfacet
  facet normal 0.49999900817106996 0.8660259764137893 2.1187532582852913E-6
    outer loop
      vertex 229.72308349609375 -133.09255981445312 918.9238891601562
      vertex 227.34698486328125 -131.72073364257812 923.5774536132812
      vertex 252.18661499023438 -146.0618896484375 934.5301513671875
    endloop
  endfacet
  facet normal 0.49999975717637624 0.8660255439786324 2.8014129965649375E-7
    outer loop
      vertex 254.02044677734375 -147.1206512451172 931.4583129882812
      vertex 232.64141845703125 -134.7774658203125 913.9559936523438
      vertex 252.18661499023438 -146.0618896484375 934.5301513671875
    endloop
  endfacet
  facet normal 0.5000002646209551 0.8660252510046341 -1.1556192683774557E-6
    outer loop
      vertex 227.34698486328125 -131.72073364257812 923.5774536132812
      vertex 224.9961395263672 -130.36346435546875 928.9291381835938
      vertex 250.03904724121094 -144.82199096679688 938.7477416992188
    endloop
  endfacet
  facet normal 0.49999975467126245 0.8660255454249939 -1.3855966865200338E-7
    outer loop
      vertex 252.18661499023438 -146.0618896484375 934.5301513671875
      vertex 227.34698486328125 -131.72073364257812 923.5774536132812
      vertex 250.03904724121094 -144.82199096679688 938.7477416992188
    endloop
  endfacet
  facet normal 0.4999999557749168 0.8660254293177853 -1.643736414695247E-7
    outer loop
      vertex 224.9961395263672 -130.36346435546875 928.9291381835938
      vertex 222.9595489501953 -129.18763732910156 934.4488525390625
      vertex 248.197265625 -143.75863647460938 943.1527099609375
    endloop
  endfacet
  facet normal 0.5000000039551211 0.8660254015009066 -2.691607439059553E-7
    outer loop
      vertex 250.03904724121094 -144.82199096679688 938.7477416992188
      vertex 224.9961395263672 -130.36346435546875 928.9291381835938
      vertex 248.197265625 -143.75863647460938 943.1527099609375
    endloop
  endfacet
  facet normal 0.5000002165493922 0.8660252787595492 -7.673681190640101E-8
    outer loop
      vertex 222.9595489501953 -129.18763732910156 934.4488525390625
      vertex 221.24618530273438 -128.19842529296875 940.1121826171875
      vertex 246.67343139648438 -142.8788604736328 947.7158813476562
    endloop
  endfacet
  facet normal 0.4999994775709707 0.8660257054071312 1.6844242592981013E-6
    outer loop
      vertex 248.197265625 -143.75863647460938 943.1527099609375
      vertex 222.9595489501953 -129.18763732910156 934.4488525390625
      vertex 246.67343139648438 -142.8788604736328 947.7158813476562
    endloop
  endfacet
  facet normal 0.5000000986023483 0.8660253468563324 -1.0582617566348898E-7
    outer loop
      vertex 221.24618530273438 -128.19842529296875 940.1121826171875
      vertex 219.86354064941406 -127.40015411376953 945.8939208984375
      vertex 245.4776611328125 -142.1884765625 952.40673828125
    endloop
  endfacet
  facet normal -0.831469728171426 0.5555700596095285 0.0
    outer loop
      vertex 217.70286560058594 -126.1526870727539 966.9310302734375
      vertex 199.86117553710938 -152.85467529296875 966.9310302734375
      vertex 199.86117553710938 -152.85467529296875 1773.77001953125
    endloop
  endfacet
  facet normal -0.831469728171426 0.5555700596095285 0.0
    outer loop
      vertex 217.70286560058594 -126.1526870727539 1773.77001953125
      vertex 217.70286560058594 -126.1526870727539 966.9310302734375
      vertex 199.86117553710938 -152.85467529296875 1773.77001953125
    endloop
  endfacet
  facet normal -0.608761662654848 -0.7933531610058561 -1.929056767428465E-6
    outer loop
      vertex 199.86117553710938 -152.85467529296875 1773.77001953125
      vertex 223.88430786132812 -171.2882843017578 1773.77001953125
      vertex 199.98806762695312 -152.95205688476562 1779.448486328125
    endloop
  endfacet
  facet normal -0.6087617327052511 -0.7933531072525777 -2.5259519005239666E-6
    outer loop
      vertex 224.0428466796875 -171.40992736816406 1777.66796875
      vertex 224.51678466796875 -171.7736053466797 1781.5252685546875
      vertex 200.3683624267578 -153.24386596679688 1785.10888671875
    endloop
  endfacet
  facet normal -0.6087619817578797 -0.7933529161509794 9.777611261715763E-7
    outer loop
      vertex 215.4366912841797 -164.8061981201172 910.6831665039062
      vertex 234.95977783203125 -179.7867889404297 928.5238647460938
      vertex 232.59085083007812 -177.9690399169922 932.40234375
    endloop
  endfacet
  facet normal -0.608761199560456 -0.7933535163530102 1.6910154808588626E-7
    outer loop
      vertex 199.98806762695312 -152.95205688476562 1779.448486328125
      vertex 224.0428466796875 -171.40992736816406 1777.66796875
      vertex 200.3683624267578 -153.24386596679688 1785.10888671875
    endloop
  endfacet
  facet normal -0.60876082296613 -0.79335380532356 -4.763518085537005E-7
    outer loop
      vertex 215.4366912841797 -164.8061981201172 910.6831665039062
      vertex 232.59085083007812 -177.9690399169922 932.40234375
      vertex 213.54615783691406 -163.3555450439453 913.9559936523438
    endloop
  endfacet
  facet normal -0.6087614803592973 -0.7933533008885296 1.7572554472624492E-7
    outer loop
      vertex 200.3683624267578 -153.24386596679688 1785.10888671875
      vertex 224.51678466796875 -171.7736053466797 1781.5252685546875
      vertex 201.09210205078125 -153.79920959472656 1791.3946533203125
    endloop
  endfacet
  facet normal -0.6087612998613409 -0.793353439389026 8.563728433239267E-7
    outer loop
      vertex 224.51678466796875 -171.7736053466797 1781.5252685546875
      vertex 225.30123901367188 -172.3755340576172 1785.3017578125
      vertex 201.09210205078125 -153.79920959472656 1791.3946533203125
    endloop
  endfacet
  facet normal -0.6087608079899426 -0.7933538168149654 -7.474468008962941E-7
    outer loop
      vertex 232.59085083007812 -177.9690399169922 932.40234375
      vertex 230.68019104003906 -176.50294494628906 936.090576171875
      vertex 211.59422302246094 -161.85777282714844 917.5113525390625
    endloop
  endfacet
  facet normal -0.6087612189383953 -0.7933535014838019 1.731713173118749E-7
    outer loop
      vertex 213.54615783691406 -163.3555450439453 913.9559936523438
      vertex 232.59085083007812 -177.9690399169922 932.40234375
      vertex 211.59422302246094 -161.85777282714844 917.5113525390625
    endloop
  endfacet
  facet normal -0.6087615283689647 -0.7933532640493272 -4.009832747445708E-7
    outer loop
      vertex 225.30123901367188 -172.3755340576172 1785.3017578125
      vertex 226.38804626464844 -173.20947265625 1788.9580078125
      vertex 202.12828063964844 -154.59429931640625 1797.611083984375
    endloop
  endfacet
  facet normal -0.608761472626536 -0.7933533068220717 -2.342585358546153E-7
    outer loop
      vertex 201.09210205078125 -153.79920959472656 1791.3946533203125
      vertex 225.30123901367188 -172.3755340576172 1785.3017578125
      vertex 202.12828063964844 -154.59429931640625 1797.611083984375
    endloop
  endfacet
  facet normal -0.6087615262266157 -0.7933532656932145 -3.9144052571120016E-7
    outer loop
      vertex 202.12828063964844 -154.59429931640625 1797.611083984375
      vertex 226.38804626464844 -173.20947265625 1788.9580078125
      vertex 203.4728240966797 -155.62600708007812 1803.7335205078125
    endloop
  endfacet
  facet normal -0.6087607520232717 -0.7933538597592368 -1.0871047540815083E-6
    outer loop
      vertex 230.68019104003906 -176.50294494628906 936.090576171875
      vertex 228.81649780273438 -175.07289123535156 940.3822021484375
      vertex 209.78001403808594 -160.46568298339844 921.1802368164062
    endloop
  endfacet
  facet normal -0.60876155523525 -0.7933532434340617 -4.6291908412291775E-7
    outer loop
      vertex 226.38804626464844 -173.20947265625 1788.9580078125
      vertex 227.63027954101562 -174.1626739501953 1792.1484375
      vertex 203.4728240966797 -155.62600708007812 1803.7335205078125
    endloop
  endfacet
  facet normal -0.608761169413336 -0.7933535394856964 -1.5755938572006862E-7
    outer loop
      vertex 211.59422302246094 -161.85777282714844 917.5113525390625
      vertex 230.68019104003906 -176.50294494628906 936.090576171875
      vertex 209.78001403808594 -160.46568298339844 921.1802368164062
    endloop
  endfacet
  facet normal -0.6087606528543208 -0.793353935852913 1.7531093261123032E-6
    outer loop
      vertex 227.63027954101562 -174.1626739501953 1792.1484375
      vertex 229.102783203125 -175.2925567626953 1795.1798095703125
      vertex 204.9423370361328 -156.75360107421875 1809.1436767578125
    endloop
  endfacet
  facet normal -0.6087613017910023 -0.7933534379087183 3.7673653488701115E-7
    outer loop
      vertex 203.4728240966797 -155.62600708007812 1803.7335205078125
      vertex 227.63027954101562 -174.1626739501953 1792.1484375
      vertex 204.9423370361328 -156.75360107421875 1809.1436767578125
    endloop
  endfacet
  facet normal -0.6087625347559611 -0.7933524918176584 -2.0517335174738507E-6
    outer loop
      vertex 229.102783203125 -175.2925567626953 1795.1798095703125
      vertex 230.7742156982422 -176.57510375976562 1798.2862548828125
      vertex 206.85733032226562 -158.2230224609375 1815.0216064453125
    endloop
  endfacet
  facet normal -0.608761120660945 -0.7933535768945722 4.671382340410575E-7
    outer loop
      vertex 204.9423370361328 -156.75360107421875 1809.1436767578125
      vertex 229.102783203125 -175.2925567626953 1795.1798095703125
      vertex 206.85733032226562 -158.2230224609375 1815.0216064453125
    endloop
  endfacet
  facet normal -0.6087618618886208 -0.7933530081303423 6.610420493098187E-7
    outer loop
      vertex 209.78001403808594 -160.46568298339844 921.1802368164062
      vertex 228.81649780273438 -175.07289123535156 940.3822021484375
      vertex 207.49732971191406 -158.714111328125 926.4464111328125
    endloop
  endfacet
  facet normal -0.6087615597768035 -0.7933532399492168 -4.4007162632167534E-7
    outer loop
      vertex 228.81649780273438 -175.07289123535156 940.3822021484375
      vertex 227.23739624023438 -173.8612060546875 944.8504638671875
      vertex 205.498291015625 -157.18019104003906 931.8916015625
    endloop
  endfacet
  facet normal -0.6087617495575446 -0.7933530943252738 3.88014920422273E-7
    outer loop
      vertex 207.49732971191406 -158.714111328125 926.4464111328125
      vertex 228.81649780273438 -175.07289123535156 940.3822021484375
      vertex 205.498291015625 -157.18019104003906 931.8916015625
    endloop
  endfacet
  facet normal -0.6087617682343673 -0.793353079994102 1.9623946077233395E-7
    outer loop
      vertex 227.23739624023438 -173.8612060546875 944.8504638671875
      vertex 225.9533233642578 -172.8759002685547 949.4654541015625
      vertex 203.79168701171875 -155.87066650390625 937.4916381835938
    endloop
  endfacet
  facet normal -0.6087617345571893 -0.7933531058355552 2.5765656249659997E-8
    outer loop
      vertex 205.498291015625 -157.18019104003906 931.8916015625
      vertex 227.23739624023438 -173.8612060546875 944.8504638671875
      vertex 203.79168701171875 -155.87066650390625 937.4916381835938
    endloop
  endfacet
  facet normal -0.6087614155688368 -0.7933533506038591 -5.062341748880173E-7
    outer loop
      vertex 225.9533233642578 -172.8759002685547 949.4654541015625
      vertex 224.9727783203125 -172.12350463867188 954.196533203125
      vertex 202.38502502441406 -154.7913055419922 943.2218627929688
    endloop
  endfacet
  facet normal -0.6087613061145785 -0.79335343459036 -1.1626692683318612E-6
    outer loop
      vertex 203.79168701171875 -155.87066650390625 937.4916381835938
      vertex 225.9533233642578 -172.8759002685547 949.4654541015625
      vertex 202.38502502441406 -154.7913055419922 943.2218627929688
    endloop
  endfacet
  facet normal -0.608762000517388 -0.7933529017545518 1.923597365733436E-6
    outer loop
      vertex 224.9727783203125 -172.12350463867188 954.196533203125
      vertex 224.30223083496094 -171.6089630126953 959.01220703125
      vertex 201.28448486328125 -153.9468231201172 949.0568237304688
    endloop
  endfacet
  facet normal -0.6087618729332664 -0.7933529996551364 9.893504237024028E-7
    outer loop
      vertex 202.38502502441406 -154.7913055419922 943.2218627929688
      vertex 224.9727783203125 -172.12350463867188 954.196533203125
      vertex 201.28448486328125 -153.9468231201172 949.0568237304688
    endloop
  endfacet
  facet normal -0.608761297776593 -0.7933534409888984 -6.578744661652442E-7
    outer loop
      vertex 201.28448486328125 -153.9468231201172 949.0568237304688
      vertex 224.30223083496094 -171.6089630126953 959.01220703125
      vertex 200.4949188232422 -153.34097290039062 954.9708251953125
    endloop
  endfacet
  facet normal -0.6087611628152056 -0.7933535445481635 -8.623368038904467E-7
    outer loop
      vertex 224.30223083496094 -171.6089630126953 959.01220703125
      vertex 223.98890686035156 -171.36854553222656 962.962890625
      vertex 200.019775390625 -152.9763946533203 960.9376220703125
    endloop
  endfacet
  facet normal -0.6087611988289102 -0.7933535169127817 -1.583957488606401E-6
    outer loop
      vertex 200.4949188232422 -153.34097290039062 954.9708251953125
      vertex 224.30223083496094 -171.6089630126953 959.01220703125
      vertex 200.019775390625 -152.9763946533203 960.9376220703125
    endloop
  endfacet
  facet normal -0.6087616626559781 -0.793353161007329 -9.063666356401207E-8
    outer loop
      vertex 223.98890686035156 -171.36854553222656 962.962890625
      vertex 223.88430786132812 -171.2882843017578 966.9310302734375
      vertex 199.86117553710938 -152.85467529296875 966.9310302734375
    endloop
  endfacet
  facet normal -0.6087613595670952 -0.7933533935705901 2.837307966235394E-6
    outer loop
      vertex 200.019775390625 -152.9763946533203 960.9376220703125
      vertex 223.98890686035156 -171.36854553222656 962.962890625
      vertex 199.86117553710938 -152.85467529296875 966.9310302734375
    endloop
  endfacet
  facet normal -0.6087616626559808 -0.7933531610073323 0.0
    outer loop
      vertex 199.86117553710938 -152.85467529296875 966.9310302734375
      vertex 223.88430786132812 -171.2882843017578 966.9310302734375
      vertex 223.88430786132812 -171.2882843017578 1773.77001953125
    endloop
  endfacet
  facet normal -0.6087616626559808 -0.7933531610073323 0.0
    outer loop
      vertex 199.86117553710938 -152.85467529296875 966.9310302734375
      vertex 223.88430786132812 -171.2882843017578 1773.77001953125
      vertex 199.86117553710938 -152.85467529296875 1773.77001953125
    endloop
  endfacet
  facet normal -0.6087611320233471 -0.7933535681743875 1.6187376157162157E-6
    outer loop
      vertex 223.88430786132812 -171.2882843017578 1773.77001953125
      vertex 224.0428466796875 -171.40992736816406 1777.66796875
      vertex 199.98806762695312 -152.95205688476562 1779.448486328125
    endloop
  endfacet
  facet normal -0.6841956536760238 0.4571648857104092 -0.568222293441772
    outer loop
      vertex 232.64141845703125 -134.7774658203125 913.9559936523438
      vertex 213.54615783691406 -163.3555450439453 913.9559936523438
      vertex 211.59422302246094 -161.85777282714844 917.5113525390625
    endloop
  endfacet
  facet normal -0.7064645555904481 0.4711725091361271 -0.5281139065852717
    outer loop
      vertex 229.72308349609375 -133.09255981445312 918.9238891601562
      vertex 211.59422302246094 -161.85777282714844 917.5113525390625
      vertex 209.78001403808594 -160.46568298339844 921.1802368164062
    endloop
  endfacet
  facet normal -0.687929833284388 0.46108144379315047 -0.5604966071859294
    outer loop
      vertex 229.72308349609375 -133.09255981445312 918.9238891601562
      vertex 232.64141845703125 -134.7774658203125 913.9559936523438
      vertex 211.59422302246094 -161.85777282714844 917.5113525390625
    endloop
  endfacet
  facet normal -0.730860668901871 0.48656910360223826 -0.47863680392550684
    outer loop
      vertex 227.34698486328125 -131.72073364257812 923.5774536132812
      vertex 209.78001403808594 -160.46568298339844 921.1802368164062
      vertex 207.49732971191406 -158.714111328125 926.4464111328125
    endloop
  endfacet
  facet normal -0.7159954533724987 0.47985334530804197 -0.507041692315919
    outer loop
      vertex 227.34698486328125 -131.72073364257812 923.5774536132812
      vertex 229.72308349609375 -133.09255981445312 918.9238891601562
      vertex 209.78001403808594 -160.46568298339844 921.1802368164062
    endloop
  endfacet
  facet normal -0.7557216830444343 0.5031611658448052 -0.4191820355909639
    outer loop
      vertex 224.9961395263672 -130.36346435546875 928.9291381835938
      vertex 207.49732971191406 -158.714111328125 926.4464111328125
      vertex 205.498291015625 -157.18019104003906 931.8916015625
    endloop
  endfacet
  facet normal -0.7410477876290479 0.49693881187298017 -0.4515528692239309
    outer loop
      vertex 224.9961395263672 -130.36346435546875 928.9291381835938
      vertex 227.34698486328125 -131.72073364257812 923.5774536132812
      vertex 207.49732971191406 -158.714111328125 926.4464111328125
    endloop
  endfacet
  facet normal -0.777235766312866 0.51751984396661 -0.3578795532924835
    outer loop
      vertex 222.9595489501953 -129.18763732910156 934.4488525390625
      vertex 205.498291015625 -157.18019104003906 931.8916015625
      vertex 203.79168701171875 -155.87066650390625 937.4916381835938
    endloop
  endfacet
  facet normal -0.7643688120680744 0.5125384838987959 -0.391209178906074
    outer loop
      vertex 222.9595489501953 -129.18763732910156 934.4488525390625
      vertex 224.9961395263672 -130.36346435546875 928.9291381835938
      vertex 205.498291015625 -157.18019104003906 931.8916015625
    endloop
  endfacet
  facet normal -0.7953122472718178 0.5295850807083938 -0.29498825676717205
    outer loop
      vertex 221.24618530273438 -128.19842529296875 940.1121826171875
      vertex 203.79168701171875 -155.87066650390625 937.4916381835938
      vertex 202.38502502441406 -154.7913055419922 943.2218627929688
    endloop
  endfacet
  facet normal -0.784301122114838 0.5258732810216376 -0.32913377547274586
    outer loop
      vertex 221.24618530273438 -128.19842529296875 940.1121826171875
      vertex 222.9595489501953 -129.18763732910156 934.4488525390625
      vertex 203.79168701171875 -155.87066650390625 937.4916381835938
    endloop
  endfacet
  facet normal -0.8098685739319766 0.5392988760748637 -0.2308021126891503
    outer loop
      vertex 219.86354064941406 -127.40015411376953 945.8939208984375
      vertex 202.38502502441406 -154.7913055419922 943.2218627929688
      vertex 201.28448486328125 -153.9468231201172 949.0568237304688
    endloop
  endfacet
  facet normal -0.8007543731065817 0.5368793913991684 -0.2656180585757376
    outer loop
      vertex 219.86354064941406 -127.40015411376953 945.8939208984375
      vertex 221.24618530273438 -128.19842529296875 940.1121826171875
      vertex 202.38502502441406 -154.7913055419922 943.2218627929688
    endloop
  endfacet
  facet normal -0.8208432525648136 0.546623535704332 -0.16558703129445995
    outer loop
      vertex 218.81771850585938 -126.79635620117188 951.7686767578125
      vertex 201.28448486328125 -153.9468231201172 949.0568237304688
      vertex 200.4949188232422 -153.34097290039062 954.9708251953125
    endloop
  endfacet
  facet normal -0.8136624396238372 0.5455149573394231 -0.20091507077457565
    outer loop
      vertex 218.81771850585938 -126.79635620117188 951.7686767578125
      vertex 219.86354064941406 -127.40015411376953 945.8939208984375
      vertex 201.28448486328125 -153.9468231201172 949.0568237304688
    endloop
  endfacet
  facet normal -0.828185863276294 0.5515237168547392 -0.09964820929667247
    outer loop
      vertex 218.11331176757812 -126.38965606689453 957.7103271484375
      vertex 200.4949188232422 -153.34097290039062 954.9708251953125
      vertex 200.019775390625 -152.9763946533203 960.9376220703125
    endloop
  endfacet
  facet normal -0.8229646872274791 0.551737667967512 -0.135331701098999
    outer loop
      vertex 218.11331176757812 -126.38965606689453 957.7103271484375
      vertex 218.81771850585938 -126.79635620117188 951.7686767578125
      vertex 200.4949188232422 -153.34097290039062 954.9708251953125
    endloop
  endfacet
  facet normal -0.831620025290753 0.5543478915292223 -0.033264826656892066
    outer loop
      vertex 217.8055419921875 -126.21196746826172 962.3145751953125
      vertex 200.019775390625 -152.9763946533203 960.9376220703125
      vertex 199.86117553710938 -152.85467529296875 966.9310302734375
    endloop
  endfacet
  facet normal -0.8285859452123663 0.5545708372256206 -0.07678878756305271
    outer loop
      vertex 217.8055419921875 -126.21196746826172 962.3145751953125
      vertex 218.11331176757812 -126.38965606689453 957.7103271484375
      vertex 200.019775390625 -152.9763946533203 960.9376220703125
    endloop
  endfacet
  facet normal -0.8311968277386 0.5553877134523618 -0.02561876857784476
    outer loop
      vertex 217.70286560058594 -126.1526870727539 966.9310302734375
      vertex 217.8055419921875 -126.21196746826172 962.3145751953125
      vertex 199.86117553710938 -152.85467529296875 966.9310302734375
    endloop
  endfacet
  facet normal -0.6726704441982432 0.44946433871039554 -0.5877893174682277
    outer loop
      vertex 232.64141845703125 -134.7774658203125 913.9559936523438
      vertex 234.70513916015625 -135.9689483642578 910.6831665039062
      vertex 215.4366912841797 -164.8061981201172 910.6831665039062
    endloop
  endfacet
  facet normal -0.6726718244249947 0.44946490975442693 -0.587787301261429
    outer loop
      vertex 232.64141845703125 -134.7774658203125 913.9559936523438
      vertex 215.4366912841797 -164.8061981201172 910.6831665039062
      vertex 213.54615783691406 -163.3555450439453 913.9559936523438
    endloop
  endfacet
  facet normal 0.48872524328093675 -0.3265560878990997 -0.8090171555882019
    outer loop
      vertex 234.70513916015625 -135.9689483642578 910.6831665039062
      vertex 256.0165710449219 -148.27310180664062 928.5238647460938
      vertex 234.95977783203125 -179.7867889404297 928.5238647460938
    endloop
  endfacet
  facet normal 0.4887253448415113 -0.32655606593808123 -0.809017103100169
    outer loop
      vertex 234.70513916015625 -135.9689483642578 910.6831665039062
      vertex 234.95977783203125 -179.7867889404297 928.5238647460938
      vertex 215.4366912841797 -164.8061981201172 910.6831665039062
    endloop
  endfacet
  facet normal 0.6544117000074277 -0.4372643475405284 0.6168834713812199
    outer loop
      vertex 234.95977783203125 -179.7867889404297 928.5238647460938
      vertex 256.0165710449219 -148.27310180664062 928.5238647460938
      vertex 254.02044677734375 -147.1206512451172 931.4583129882812
    endloop
  endfacet
  facet normal 0.6599140992114134 -0.43978325905159354 0.609183114276773
    outer loop
      vertex 232.59085083007812 -177.9690399169922 932.40234375
      vertex 234.95977783203125 -179.7867889404297 928.5238647460938
      vertex 254.02044677734375 -147.1206512451172 931.4583129882812
    endloop
  endfacet
  facet normal 0.6972395633336641 -0.4646131799907392 0.5458860543201067
    outer loop
      vertex 230.68019104003906 -176.50294494628906 936.090576171875
      vertex 232.59085083007812 -177.9690399169922 932.40234375
      vertex 252.18661499023438 -146.0618896484375 934.5301513671875
    endloop
  endfacet
  facet normal 0.6846933105830759 -0.4582965484497182 0.5667092236075415
    outer loop
      vertex 232.59085083007812 -177.9690399169922 932.40234375
      vertex 254.02044677734375 -147.1206512451172 931.4583129882812
      vertex 252.18661499023438 -146.0618896484375 934.5301513671875
    endloop
  endfacet
  facet normal 0.7304319053510571 -0.4865373399952587 0.4793231148563174
    outer loop
      vertex 228.81649780273438 -175.07289123535156 940.3822021484375
      vertex 230.68019104003906 -176.50294494628906 936.090576171875
      vertex 250.03904724121094 -144.82199096679688 938.7477416992188
    endloop
  endfacet
  facet normal 0.7164684833876683 -0.48024268130044007 0.5060038333545888
    outer loop
      vertex 230.68019104003906 -176.50294494628906 936.090576171875
      vertex 252.18661499023438 -146.0618896484375 934.5301513671875
      vertex 250.03904724121094 -144.82199096679688 938.7477416992188
    endloop
  endfacet
  facet normal 0.7605096900511311 -0.5066225080645059 0.40615101336911885
    outer loop
      vertex 227.23739624023438 -173.8612060546875 944.8504638671875
      vertex 228.81649780273438 -175.07289123535156 940.3822021484375
      vertex 248.197265625 -143.75863647460938 943.1527099609375
    endloop
  endfacet
  facet normal 0.7483800508157562 -0.5015782836031848 0.4339890839165072
    outer loop
      vertex 228.81649780273438 -175.07289123535156 940.3822021484375
      vertex 250.03904724121094 -144.82199096679688 938.7477416992188
      vertex 248.197265625 -143.75863647460938 943.1527099609375
    endloop
  endfacet
  facet normal 0.7855185009310439 -0.5233235521036721 0.3302925135522158
    outer loop
      vertex 225.9533233642578 -172.8759002685547 949.4654541015625
      vertex 227.23739624023438 -173.8612060546875 944.8504638671875
      vertex 246.67343139648438 -142.8788604736328 947.7158813476562
    endloop
  endfacet
  facet normal 0.7753052222223664 -0.5195790465384545 0.3590813651429401
    outer loop
      vertex 227.23739624023438 -173.8612060546875 944.8504638671875
      vertex 248.197265625 -143.75863647460938 943.1527099609375
      vertex 246.67343139648438 -142.8788604736328 947.7158813476562
    endloop
  endfacet
  facet normal 0.8053016187512151 -0.5365344928421215 0.25223013465349486
    outer loop
      vertex 224.9727783203125 -172.12350463867188 954.196533203125
      vertex 225.9533233642578 -172.8759002685547 949.4654541015625
      vertex 245.4776611328125 -142.1884765625 952.40673828125
    endloop
  endfacet
  facet normal 0.7970596220928958 -0.5341241711720336 0.28179305988423176
    outer loop
      vertex 225.9533233642578 -172.8759002685547 949.4654541015625
      vertex 246.67343139648438 -142.8788604736328 947.7158813476562
      vertex 245.4776611328125 -142.1884765625 952.40673828125
    endloop
  endfacet
  facet normal 0.8197239797139284 -0.5461660916875669 0.17249694887935688
    outer loop
      vertex 224.30223083496094 -171.6089630126953 959.01220703125
      vertex 224.9727783203125 -172.12350463867188 954.196533203125
      vertex 244.6178436279297 -141.6920623779297 957.1942138671875
    endloop
  endfacet
  facet normal 0.8135037170687148 -0.5451185315903083 0.2026264761382637
    outer loop
      vertex 224.9727783203125 -172.12350463867188 954.196533203125
      vertex 245.4776611328125 -142.1884765625 952.40673828125
      vertex 244.6178436279297 -141.6920623779297 957.1942138671875
    endloop
  endfacet
  facet normal 0.8277239035400681 -0.552287581628142 0.09925505875133159
    outer loop
      vertex 223.98890686035156 -171.36854553222656 962.962890625
      vertex 224.30223083496094 -171.6089630126953 959.01220703125
      vertex 244.09967041015625 -141.39288330078125 962.0463256835938
    endloop
  endfacet
  facet normal 0.8245261010141451 -0.5524883653536147 0.12212008391457438
    outer loop
      vertex 224.30223083496094 -171.6089630126953 959.01220703125
      vertex 244.6178436279297 -141.6920623779297 957.1942138671875
      vertex 244.09967041015625 -141.39288330078125 962.0463256835938
    endloop
  endfacet
  facet normal 0.8310128471917047 -0.5552653731532643 0.033136281917299754
    outer loop
      vertex 223.88430786132812 -171.2882843017578 966.9310302734375
      vertex 223.98890686035156 -171.36854553222656 962.962890625
      vertex 243.9265594482422 -141.29295349121094 966.9310302734375
    endloop
  endfacet
  facet normal 0.8303083838017643 -0.5558090122351205 0.040796197209077796
    outer loop
      vertex 223.98890686035156 -171.36854553222656 962.962890625
      vertex 244.09967041015625 -141.39288330078125 962.0463256835938
      vertex 243.9265594482422 -141.29295349121094 966.9310302734375
    endloop
  endfacet
  facet normal 0.8314694547761822 -0.5555704687743925 0.0
    outer loop
      vertex 243.9265594482422 -141.29295349121094 966.9310302734375
      vertex 243.9265594482422 -141.29295349121094 1773.77001953125
      vertex 223.88430786132812 -171.2882843017578 966.9310302734375
    endloop
  endfacet
  facet normal 0.8314694547761822 -0.5555704687743925 0.0
    outer loop
      vertex 243.9265594482422 -141.29295349121094 1773.77001953125
      vertex 223.88430786132812 -171.2882843017578 1773.77001953125
      vertex 223.88430786132812 -171.2882843017578 966.9310302734375
    endloop
  endfacet
  facet normal 0.8304693895955672 -0.5549022461740221 -0.049031521858810836
    outer loop
      vertex 223.88430786132812 -171.2882843017578 1773.77001953125
      vertex 243.9265594482422 -141.29295349121094 1773.77001953125
      vertex 244.08596801757812 -141.38497924804688 1777.511474609375
    endloop
  endfacet
  facet normal 0.8305024114298464 -0.5546672555234131 -0.051087965895452656
    outer loop
      vertex 224.0428466796875 -171.40992736816406 1777.66796875
      vertex 223.88430786132812 -171.2882843017578 1773.77001953125
      vertex 244.08596801757812 -141.38497924804688 1777.511474609375
    endloop
  endfacet
  facet normal 0.8219423017264418 -0.5487130862238552 -0.1527245940879563
    outer loop
      vertex 224.51678466796875 -171.7736053466797 1781.5252685546875
      vertex 224.0428466796875 -171.40992736816406 1777.66796875
      vertex 244.56263732910156 -141.66018676757812 1781.2169189453125
    endloop
  endfacet
  facet normal 0.8223700908285682 -0.5497364569333533 -0.14661944492111514
    outer loop
      vertex 224.0428466796875 -171.40992736816406 1777.66796875
      vertex 244.08596801757812 -141.38497924804688 1777.511474609375
      vertex 244.56263732910156 -141.66018676757812 1781.2169189453125
    endloop
  endfacet
  facet normal 0.8046939764438369 -0.5371901307973123 -0.2527733523316338
    outer loop
      vertex 225.30123901367188 -172.3755340576172 1785.3017578125
      vertex 224.51678466796875 -171.7736053466797 1781.5252685546875
      vertex 245.3919677734375 -142.13900756835938 1785.0015869140625
    endloop
  endfacet
  facet normal 0.8059441172628384 -0.539006241872177 -0.2447985928722965
    outer loop
      vertex 224.51678466796875 -171.7736053466797 1781.5252685546875
      vertex 244.56263732910156 -141.66018676757812 1781.2169189453125
      vertex 245.3919677734375 -142.13900756835938 1785.0015869140625
    endloop
  endfacet
  facet normal 0.779046354288146 -0.5200545136652271 -0.35018578024638947
    outer loop
      vertex 226.38804626464844 -173.20947265625 1788.9580078125
      vertex 225.30123901367188 -172.3755340576172 1785.3017578125
      vertex 246.55226135253906 -142.80889892578125 1788.6693115234375
    endloop
  endfacet
  facet normal 0.7809667572452931 -0.5223148727526921 -0.3424588994012432
    outer loop
      vertex 225.30123901367188 -172.3755340576172 1785.3017578125
      vertex 245.3919677734375 -142.13900756835938 1785.0015869140625
      vertex 246.55226135253906 -142.80889892578125 1788.6693115234375
    endloop
  endfacet
  facet normal 0.7469590849086705 -0.4986179728548687 -0.4398093252973416
    outer loop
      vertex 227.63027954101562 -174.1626739501953 1792.1484375
      vertex 226.38804626464844 -173.20947265625 1788.9580078125
      vertex 247.86976623535156 -143.56956481933594 1791.8387451171875
    endloop
  endfacet
  facet normal 0.7496933587160004 -0.5013617765909528 -0.43196786555331385
    outer loop
      vertex 226.38804626464844 -173.20947265625 1788.9580078125
      vertex 246.55226135253906 -142.80889892578125 1788.6693115234375
      vertex 247.86976623535156 -143.56956481933594 1791.8387451171875
    endloop
  endfacet
  facet normal 0.7095230520700472 -0.47408823491343166 -0.5213610880166184
    outer loop
      vertex 229.102783203125 -175.2925567626953 1795.1798095703125
      vertex 227.63027954101562 -174.1626739501953 1792.1484375
      vertex 249.623046875 -144.58181762695312 1795.1798095703125
    endloop
  endfacet
  facet normal 0.7112735627897182 -0.4757950054594044 -0.5174060607069713
    outer loop
      vertex 227.63027954101562 -174.1626739501953 1792.1484375
      vertex 247.86976623535156 -143.56956481933594 1791.8387451171875
      vertex 249.623046875 -144.58181762695312 1795.1798095703125
    endloop
  endfacet
  facet normal 0.6886037167462964 -0.46011037932401233 -0.5604670910245309
    outer loop
      vertex 249.623046875 -144.58181762695312 1795.1798095703125
      vertex 251.4475860595703 -145.6352081298828 1798.2862548828125
      vertex 229.102783203125 -175.2925567626953 1795.1798095703125
    endloop
  endfacet
  facet normal 0.6886029062603641 -0.4601095971137683 -0.5604687289524599
    outer loop
      vertex 251.4475860595703 -145.6352081298828 1798.2862548828125
      vertex 230.7742156982422 -176.57510375976562 1798.2862548828125
      vertex 229.102783203125 -175.2925567626953 1795.1798095703125
    endloop
  endfacet
  facet normal 0.40422389288312705 -0.27009379280218976 0.8738720658724238
    outer loop
      vertex 251.4475860595703 -145.6352081298828 1798.2862548828125
      vertex 225.3398895263672 -130.56192016601562 1815.0216064453125
      vertex 206.85733032226562 -158.2230224609375 1815.0216064453125
    endloop
  endfacet
  facet normal 0.4042238751111166 -0.2700936673810949 0.8738721128579301
    outer loop
      vertex 251.4475860595703 -145.6352081298828 1798.2862548828125
      vertex 206.85733032226562 -158.2230224609375 1815.0216064453125
      vertex 230.7742156982422 -176.57510375976562 1798.2862548828125
    endloop
  endfacet
  facet normal -0.8311414719106471 0.5553507258873386 0.028096706686180445
    outer loop
      vertex 217.70286560058594 -126.1526870727539 1773.77001953125
      vertex 199.86117553710938 -152.85467529296875 1773.77001953125
      vertex 199.98806762695312 -152.95205688476562 1779.448486328125
    endloop
  endfacet
  facet normal -0.8288041323273154 0.5531672160388155 0.08420060176169934
    outer loop
      vertex 217.8760223388672 -126.25265502929688 1780.1180419921875
      vertex 199.98806762695312 -152.95205688476562 1779.448486328125
      vertex 200.3683624267578 -153.24386596679688 1785.10888671875
    endloop
  endfacet
  facet normal -0.8307333536431526 0.5557835427147634 0.03141255787463768
    outer loop
      vertex 217.8760223388672 -126.25265502929688 1780.1180419921875
      vertex 217.70286560058594 -126.1526870727539 1773.77001953125
      vertex 199.98806762695312 -152.95205688476562 1779.448486328125
    endloop
  endfacet
  facet normal -0.8234595351843201 0.548976658380983 0.14331441821000757
    outer loop
      vertex 218.394775390625 -126.55216217041016 1786.44091796875
      vertex 200.3683624267578 -153.24386596679688 1785.10888671875
      vertex 201.09210205078125 -153.79920959472656 1791.3946533203125
    endloop
  endfacet
  facet normal -0.8272058091902195 0.5539623569285649 0.09410768485146878
    outer loop
      vertex 218.394775390625 -126.55216217041016 1786.44091796875
      vertex 217.8760223388672 -126.25265502929688 1780.1180419921875
      vertex 200.3683624267578 -153.24386596679688 1785.10888671875
    endloop
  endfacet
  facet normal -0.8143507562435384 0.5428955528674548 0.20517617912983413
    outer loop
      vertex 219.2571258544922 -127.05004119873047 1792.7139892578125
      vertex 201.09210205078125 -153.79920959472656 1791.3946533203125
      vertex 202.12828063964844 -154.59429931640625 1797.611083984375
    endloop
  endfacet
  facet normal -0.8206611311222994 0.5495849143079421 0.15643442661447635
    outer loop
      vertex 219.2571258544922 -127.05004119873047 1792.7139892578125
      vertex 218.394775390625 -126.55216217041016 1786.44091796875
      vertex 201.09210205078125 -153.79920959472656 1791.3946533203125
    endloop
  endfacet
  facet normal -0.8020283645201995 0.5346694015125996 0.26623135350895927
    outer loop
      vertex 220.4596710205078 -127.74433135986328 1798.912353515625
      vertex 202.12828063964844 -154.59429931640625 1797.611083984375
      vertex 203.4728240966797 -155.62600708007812 1803.7335205078125
    endloop
  endfacet
  facet normal -0.8108759575637603 0.5430404319986866 0.2181450679243855
    outer loop
      vertex 220.4596710205078 -127.74433135986328 1798.912353515625
      vertex 219.2571258544922 -127.05004119873047 1792.7139892578125
      vertex 202.12828063964844 -154.59429931640625 1797.611083984375
    endloop
  endfacet
  facet normal -0.7873160145779213 0.5250025353134029 0.3232736164669764
    outer loop
      vertex 221.99769592285156 -128.63230895996094 1805.0115966796875
      vertex 203.4728240966797 -155.62600708007812 1803.7335205078125
      vertex 204.9423370361328 -156.75360107421875 1809.1436767578125
    endloop
  endfacet
  facet normal -0.7978885853454545 0.5343545355717253 0.27899647970781843
    outer loop
      vertex 221.99769592285156 -128.63230895996094 1805.0115966796875
      vertex 220.4596710205078 -127.74433135986328 1798.912353515625
      vertex 203.4728240966797 -155.62600708007812 1803.7335205078125
    endloop
  endfacet
  facet normal -0.7698276045460907 0.51342577969675 0.3791562053054285
    outer loop
      vertex 223.55349731445312 -129.53054809570312 1810.0677490234375
      vertex 204.9423370361328 -156.75360107421875 1809.1436767578125
      vertex 206.85733032226562 -158.2230224609375 1815.0216064453125
    endloop
  endfacet
  facet normal -0.7833159428569568 0.5241748197390981 0.33415100182043594
    outer loop
      vertex 223.55349731445312 -129.53054809570312 1810.0677490234375
      vertex 221.99769592285156 -128.63230895996094 1805.0115966796875
      vertex 204.9423370361328 -156.75360107421875 1809.1436767578125
    endloop
  endfacet
  facet normal -0.7678278991089705 0.5130462427901068 0.3836976284900122
    outer loop
      vertex 225.3398895263672 -130.56192016601562 1815.0216064453125
      vertex 223.55349731445312 -129.53054809570312 1810.0677490234375
      vertex 206.85733032226562 -158.2230224609375 1815.0216064453125
    endloop
  endfacet
endsolid v3d.csg
