solid v3d.csg
  facet normal -0.13052603981753036 -0.9914448814379443 2.304091654210314E-7
    outer loop
      vertex -282.57391357421875 37.605010986328125 947.7158813476562
      vertex -253.4642333984375 33.77265167236328 940.1121826171875
      vertex -281.2049560546875 37.42478561401367 952.40673828125
    endloop
  endfacet
  facet normal -0.13052636053124814 -0.9914448392151557 -3.1732124521317485E-7
    outer loop
      vertex -251.88136291503906 33.56426239013672 945.8939208984375
      vertex -250.68408203125 33.40663528442383 951.7686767578125
      vertex -280.2206115722656 37.295196533203125 957.1942138671875
    endloop
  endfacet
  facet normal -0.13052620358216005 -0.9914448598778067 5.51916079249749E-7
    outer loop
      vertex -250.68408203125 33.40663528442383 951.7686767578125
      vertex -249.8776397705078 33.30046844482422 957.7103271484375
      vertex -280.2206115722656 37.295196533203125 957.1942138671875
    endloop
  endfacet
  facet normal -0.13052605811958165 -0.9914448790283591 4.542215702735099E-7
    outer loop
      vertex -281.2049560546875 37.42478561401367 952.40673828125
      vertex -251.88136291503906 33.56426239013672 945.8939208984375
      vertex -280.2206115722656 37.295196533203125 957.1942138671875
    endloop
  endfacet
  facet normal -0.13052619830152482 -0.9914448605730569 -4.721133142164234E-7
    outer loop
      vertex -249.8776397705078 33.30046844482422 957.7103271484375
      vertex -249.5253143310547 33.25408172607422 962.3145751953125
      vertex -279.6274108886719 37.217098236083984 962.0463256835938
    endloop
  endfacet
  facet normal -0.1305261876983061 -0.9914448619690296 -3.981024870056852E-7
    outer loop
      vertex -280.2206115722656 37.295196533203125 957.1942138671875
      vertex -249.8776397705078 33.30046844482422 957.7103271484375
      vertex -279.6274108886719 37.217098236083984 962.0463256835938
    endloop
  endfacet
  facet normal -0.13052621903309053 -0.9914448578437142 -4.279769424969496E-7
    outer loop
      vertex -249.5253143310547 33.25408172607422 962.3145751953125
      vertex -249.40777587890625 33.23860549926758 966.9310302734375
      vertex -279.4292297363281 37.19100570678711 966.9310302734375
    endloop
  endfacet
  facet normal -0.13052619979845953 -0.9914448603760483 -3.012215911657571E-7
    outer loop
      vertex -279.6274108886719 37.217098236083984 962.0463256835938
      vertex -249.5253143310547 33.25408172607422 962.3145751953125
      vertex -279.4292297363281 37.19100570678711 966.9310302734375
    endloop
  endfacet
  facet normal -0.13052621903310246 -0.991444857843805 0.0
    outer loop
      vertex -249.40777587890625 33.23860549926758 966.9310302734375
      vertex -249.40777587890625 33.23860549926758 1773.77001953125
      vertex -279.4292297363281 37.19100570678711 1773.77001953125
    endloop
  endfacet
  facet normal -0.13052621903310246 -0.991444857843805 0.0
    outer loop
      vertex -279.4292297363281 37.19100570678711 966.9310302734375
      vertex -249.40777587890625 33.23860549926758 966.9310302734375
      vertex -279.4292297363281 37.19100570678711 1773.77001953125
    endloop
  endfacet
  facet normal -0.1305262126562967 -0.9914448586830085 7.95455002576197E-7
    outer loop
      vertex -249.40777587890625 33.23860549926758 1773.77001953125
      vertex -249.60598754882812 33.264705657958984 1780.1180419921875
      vertex -279.5682067871094 37.20930480957031 1777.0361328125
    endloop
  endfacet
  facet normal -0.13052621903306716 -0.9914448578435368 7.355491090115552E-7
    outer loop
      vertex -279.4292297363281 37.19100570678711 1773.77001953125
      vertex -249.40777587890625 33.23860549926758 1773.77001953125
      vertex -279.5682067871094 37.20930480957031 1777.0361328125
    endloop
  endfacet
  facet normal -0.1305260925723118 -0.9914448744926739 -1.0259307123588915E-7
    outer loop
      vertex -249.60598754882812 33.264705657958984 1780.1180419921875
      vertex -250.1998748779297 33.342891693115234 1786.44091796875
      vertex -279.984130859375 37.264060974121094 1780.2783203125
    endloop
  endfacet
  facet normal -0.13052609400114565 -0.9914448743044976 -3.781007226029184E-7
    outer loop
      vertex -279.5682067871094 37.20930480957031 1777.0361328125
      vertex -249.60598754882812 33.264705657958984 1780.1180419921875
      vertex -279.984130859375 37.264060974121094 1780.2783203125
    endloop
  endfacet
  facet normal -0.1305260469590303 -0.9914448804977035 -3.7850364364685046E-7
    outer loop
      vertex -250.1998748779297 33.342891693115234 1786.44091796875
      vertex -251.18711853027344 33.472862243652344 1792.7139892578125
      vertex -280.83929443359375 37.376644134521484 1784.0855712890625
    endloop
  endfacet
  facet normal -0.13052605316764615 -0.9914448796803527 -2.963393584214929E-7
    outer loop
      vertex -279.984130859375 37.264060974121094 1780.2783203125
      vertex -250.1998748779297 33.342891693115234 1786.44091796875
      vertex -280.83929443359375 37.376644134521484 1784.0855712890625
    endloop
  endfacet
  facet normal -0.13052618680033312 -0.9914448620873162 1.6529073239760433E-7
    outer loop
      vertex -251.18711853027344 33.472862243652344 1792.7139892578125
      vertex -252.30831909179688 33.6204719543457 1797.888671875
      vertex -281.9356689453125 37.5209846496582 1787.421630859375
    endloop
  endfacet
  facet normal -0.13052616406726486 -0.9914448650801941 3.0922577585120837E-8
    outer loop
      vertex -280.83929443359375 37.376644134521484 1784.0855712890625
      vertex -251.18711853027344 33.472862243652344 1792.7139892578125
      vertex -281.9356689453125 37.5209846496582 1787.421630859375
    endloop
  endfacet
  facet normal -0.13052644023425441 -0.9914448287216856 8.950785019489368E-7
    outer loop
      vertex -281.9356689453125 37.5209846496582 1787.421630859375
      vertex -252.30831909179688 33.6204719543457 1797.888671875
      vertex -283.5051574707031 37.72761535644531 1790.99169921875
    endloop
  endfacet
  facet normal -0.13052629210640293 -0.9914448482234945 2.1344358714805053E-7
    outer loop
      vertex -252.30831909179688 33.6204719543457 1797.888671875
      vertex -253.69725036621094 33.80332946777344 1802.997314453125
      vertex -283.5051574707031 37.72761535644531 1790.99169921875
    endloop
  endfacet
  facet normal -0.13052616889500754 -0.9914448644446013 1.34537292209743E-7
    outer loop
      vertex -268.8723449707031 35.80116653442383 910.6831665039062
      vertex -266.509765625 35.49012756347656 913.9559936523438
      vertex -290.98492431640625 38.712345123291016 931.4583129882812
    endloop
  endfacet
  facet normal -0.13052613682855366 -0.9914448686662235 1.6925964192466038E-7
    outer loop
      vertex -293.2701110839844 39.0131950378418 928.5238647460938
      vertex -268.8723449707031 35.80116653442383 910.6831665039062
      vertex -290.98492431640625 38.712345123291016 931.4583129882812
    endloop
  endfacet
  facet normal -0.13052597704070723 -0.9914448897026702 1.7027777207936254E-7
    outer loop
      vertex -266.509765625 35.49012756347656 913.9559936523438
      vertex -263.16876220703125 35.05027770996094 918.9238891601562
      vertex -288.8855285644531 38.435951232910156 934.5301513671875
    endloop
  endfacet
  facet normal -0.13052619318037872 -0.9914448612473623 -1.9206099550865125E-7
    outer loop
      vertex -263.16876220703125 35.05027770996094 918.9238891601562
      vertex -260.4485778808594 34.69215774536133 923.5774536132812
      vertex -288.8855285644531 38.435951232910156 934.5301513671875
    endloop
  endfacet
  facet normal -0.13052672715319963 -0.9914447909481592 -6.59659128401646E-7
    outer loop
      vertex -290.98492431640625 38.712345123291016 931.4583129882812
      vertex -266.509765625 35.49012756347656 913.9559936523438
      vertex -288.8855285644531 38.435951232910156 934.5301513671875
    endloop
  endfacet
  facet normal -0.13052606287682753 -0.991444878402134 2.2843671543541958E-7
    outer loop
      vertex -260.4485778808594 34.69215774536133 923.5774536132812
      vertex -257.75726318359375 34.33784103393555 928.9291381835938
      vertex -286.42694091796875 38.112274169921875 938.7477416992188
    endloop
  endfacet
  facet normal -0.13052597800098467 -0.9914448895761907 3.76301543076894E-7
    outer loop
      vertex -288.8855285644531 38.435951232910156 934.5301513671875
      vertex -260.4485778808594 34.69215774536133 923.5774536132812
      vertex -286.42694091796875 38.112274169921875 938.7477416992188
    endloop
  endfacet
  facet normal -0.13052630758318592 -0.9914448461859113 -3.0678358947921746E-7
    outer loop
      vertex -257.75726318359375 34.33784103393555 928.9291381835938
      vertex -255.4257354736328 34.030887603759766 934.4488525390625
      vertex -284.31842041015625 37.83468246459961 943.1527099609375
    endloop
  endfacet
  facet normal -0.13052612856239193 -0.9914448697544977 3.331488515727662E-8
    outer loop
      vertex -286.42694091796875 38.112274169921875 938.7477416992188
      vertex -257.75726318359375 34.33784103393555 928.9291381835938
      vertex -284.31842041015625 37.83468246459961 943.1527099609375
    endloop
  endfacet
  facet normal -0.1305260772065331 -0.9914448765156171 8.478976658290696E-8
    outer loop
      vertex -255.4257354736328 34.030887603759766 934.4488525390625
      vertex -253.4642333984375 33.77265167236328 940.1121826171875
      vertex -282.57391357421875 37.605010986328125 947.7158813476562
    endloop
  endfacet
  facet normal -0.13052637553215965 -0.9914448372401513 -5.362515171277376E-7
    outer loop
      vertex -284.31842041015625 37.83468246459961 943.1527099609375
      vertex -255.4257354736328 34.030887603759766 934.4488525390625
      vertex -282.57391357421875 37.605010986328125 947.7158813476562
    endloop
  endfacet
  facet normal -0.13052617445226883 -0.9914448637129801 -7.863810611506456E-8
    outer loop
      vertex -253.4642333984375 33.77265167236328 940.1121826171875
      vertex -251.88136291503906 33.56426239013672 945.8939208984375
      vertex -281.2049560546875 37.42478561401367 952.40673828125
    endloop
  endfacet
  facet normal 0.25881884240524616 0.9659258806016036 1.5798016614319543E-7
    outer loop
      vertex -243.29345703125 64.77617645263672 1779.381103515625
      vertex -272.5843505859375 72.62464141845703 1777.66796875
      vertex -243.7455596923828 64.8973159790039 1784.9749755859375
    endloop
  endfacet
  facet normal 0.25881913282166863 0.9659258027847867 -7.04651031443429E-8
    outer loop
      vertex -273.161376953125 72.77925872802734 1781.5252685546875
      vertex -274.116455078125 73.03517150878906 1785.3017578125
      vertex -244.61862182617188 65.1312484741211 1791.2618408203125
    endloop
  endfacet
  facet normal 0.2588189300931775 0.9659258571055555 5.665019224190967E-7
    outer loop
      vertex -243.7455596923828 64.8973159790039 1784.9749755859375
      vertex -273.161376953125 72.77925872802734 1781.5252685546875
      vertex -244.61862182617188 65.1312484741211 1791.2618408203125
    endloop
  endfacet
  facet normal 0.25881945297983894 0.9659257169984663 4.6438052444524385E-7
    outer loop
      vertex -262.1061706542969 69.81702423095703 910.6831665039062
      vertex -285.8759765625 76.18612670898438 928.5238647460938
      vertex -282.9917297363281 75.41329193115234 932.40234375
    endloop
  endfacet
  facet normal 0.25881913438414406 0.965925802366112 -1.5897597718148756E-7
    outer loop
      vertex -274.116455078125 73.03517150878906 1785.3017578125
      vertex -275.12847900390625 73.30634307861328 1788.1934814453125
      vertex -245.72984313964844 65.42900085449219 1796.8621826171875
    endloop
  endfacet
  facet normal 0.2588186780375219 0.9659259246437057 -3.343210883223719E-7
    outer loop
      vertex -262.1061706542969 69.81702423095703 910.6831665039062
      vertex -282.9917297363281 75.41329193115234 932.40234375
      vertex -259.80438232421875 69.20026397705078 913.9559936523438
    endloop
  endfacet
  facet normal 0.2588191643988612 0.965925794323673 -2.3796860130455616E-7
    outer loop
      vertex -244.61862182617188 65.1312484741211 1791.2618408203125
      vertex -274.116455078125 73.03517150878906 1785.3017578125
      vertex -245.72984313964844 65.42900085449219 1796.8621826171875
    endloop
  endfacet
  facet normal 0.2588192781502045 0.9659257638440261 -3.765618956854096E-7
    outer loop
      vertex -275.12847900390625 73.30634307861328 1788.1934814453125
      vertex -276.3623352050781 73.63695526123047 1790.99169921875
      vertex -247.32167053222656 65.85552978515625 1802.997314453125
    endloop
  endfacet
  facet normal 0.2588190900796027 0.9659258142374944 2.0640672064959675E-9
    outer loop
      vertex -245.72984313964844 65.42900085449219 1796.8621826171875
      vertex -275.12847900390625 73.30634307861328 1788.1934814453125
      vertex -247.32167053222656 65.85552978515625 1802.997314453125
    endloop
  endfacet
  facet normal 0.2588182693174776 0.965926034158991 -1.1786677906853347E-6
    outer loop
      vertex -282.9917297363281 75.41329193115234 932.40234375
      vertex -280.66546630859375 74.78997802734375 936.090576171875
      vertex -257.4278564453125 68.5634765625 917.5113525390625
    endloop
  endfacet
  facet normal 0.25881886537594445 0.9659258744466378 -8.192661193477259E-8
    outer loop
      vertex -259.80438232421875 69.20026397705078 913.9559936523438
      vertex -282.9917297363281 75.41329193115234 932.40234375
      vertex -257.4278564453125 68.5634765625 917.5113525390625
    endloop
  endfacet
  facet normal 0.258818823447281 0.9659258856812425 -5.217892008510545E-7
    outer loop
      vertex -280.66546630859375 74.78997802734375 936.090576171875
      vertex -278.3963623046875 74.18197631835938 940.3822021484375
      vertex -255.21900939941406 67.97161865234375 921.1802368164062
    endloop
  endfacet
  facet normal 0.2588189993430054 0.9659258385502716 -2.0004743800851887E-7
    outer loop
      vertex -257.4278564453125 68.5634765625 917.5113525390625
      vertex -280.66546630859375 74.78997802734375 936.090576171875
      vertex -255.21900939941406 67.97161865234375 921.1802368164062
    endloop
  endfacet
  facet normal 0.2588195779159757 0.965925683521869 4.542603276250966E-7
    outer loop
      vertex -255.21900939941406 67.97161865234375 921.1802368164062
      vertex -278.3963623046875 74.18197631835938 940.3822021484375
      vertex -252.43980407714844 67.2269287109375 926.4464111328125
    endloop
  endfacet
  facet normal 0.25881953261015195 0.9659256956608913 1.218802047767261E-6
    outer loop
      vertex -278.3963623046875 74.18197631835938 940.3822021484375
      vertex -276.4737854003906 73.66681671142578 944.8504638671875
      vertex -250.00592041015625 66.57477569580078 931.8916015625
    endloop
  endfacet
  facet normal 0.2588189940400008 0.965925839970966 -7.113370639907635E-7
    outer loop
      vertex -252.43980407714844 67.2269287109375 926.4464111328125
      vertex -278.3963623046875 74.18197631835938 940.3822021484375
      vertex -250.00592041015625 66.57477569580078 931.8916015625
    endloop
  endfacet
  facet normal 0.2588189831480263 0.9659258428897178 -1.0000928295366955E-7
    outer loop
      vertex -276.4737854003906 73.66681671142578 944.8504638671875
      vertex -274.910400390625 73.24790954589844 949.4654541015625
      vertex -247.92808532714844 66.01802062988281 937.4916381835938
    endloop
  endfacet
  facet normal 0.25881904206853057 0.9659258271020125 1.449596916285822E-7
    outer loop
      vertex -250.00592041015625 66.57477569580078 931.8916015625
      vertex -276.4737854003906 73.66681671142578 944.8504638671875
      vertex -247.92808532714844 66.01802062988281 937.4916381835938
    endloop
  endfacet
  facet normal 0.25881876674758947 0.9659259008734877 -9.989305790003455E-7
    outer loop
      vertex -274.910400390625 73.24790954589844 949.4654541015625
      vertex -273.716552734375 72.92802429199219 954.196533203125
      vertex -246.21543884277344 65.55912017822266 943.2218627929688
    endloop
  endfacet
  facet normal 0.2588189166152629 0.9659258607170809 -2.6070140082119155E-7
    outer loop
      vertex -247.92808532714844 66.01802062988281 937.4916381835938
      vertex -274.910400390625 73.24790954589844 949.4654541015625
      vertex -246.21543884277344 65.55912017822266 943.2218627929688
    endloop
  endfacet
  facet normal 0.25881923993509437 0.9659257740837283 4.126953868236234E-7
    outer loop
      vertex -273.716552734375 72.92802429199219 954.196533203125
      vertex -272.900146484375 72.70926666259766 959.01220703125
      vertex -244.87551879882812 65.20008850097656 949.0568237304688
    endloop
  endfacet
  facet normal 0.2588191976500243 0.965925785414062 1.5838038333862287E-7
    outer loop
      vertex -246.21543884277344 65.55912017822266 943.2218627929688
      vertex -273.716552734375 72.92802429199219 954.196533203125
      vertex -244.87551879882812 65.20008850097656 949.0568237304688
    endloop
  endfacet
  facet normal 0.258819047603889 0.9659258256188142 -1.6759332630346205E-7
    outer loop
      vertex -244.87551879882812 65.20008850097656 949.0568237304688
      vertex -272.900146484375 72.70926666259766 959.01220703125
      vertex -243.91419982910156 64.9425048828125 954.9708251953125
    endloop
  endfacet
  facet normal 0.25881901222568987 0.9659258350978585 1.0114003148085847E-6
    outer loop
      vertex -272.900146484375 72.70926666259766 959.01220703125
      vertex -272.5186767578125 72.60704803466797 962.962890625
      vertex -243.33570861816406 64.7874984741211 960.9376220703125
    endloop
  endfacet
  facet normal 0.25881907232038254 0.9659258189960634 2.2408094232530437E-8
    outer loop
      vertex -243.91419982910156 64.9425048828125 954.9708251953125
      vertex -272.900146484375 72.70926666259766 959.01220703125
      vertex -243.33570861816406 64.7874984741211 960.9376220703125
    endloop
  endfacet
  facet normal 0.2588187772222358 0.9659258980670531 7.373655296716347E-7
    outer loop
      vertex -272.5186767578125 72.60704803466797 962.962890625
      vertex -272.3913269042969 72.57292175292969 966.9310302734375
      vertex -243.14259338378906 64.73575592041016 966.9310302734375
    endloop
  endfacet
  facet normal 0.2588189207455385 0.9659258596103293 -4.0141914362251407E-7
    outer loop
      vertex -243.33570861816406 64.7874984741211 960.9376220703125
      vertex -272.5186767578125 72.60704803466797 962.962890625
      vertex -243.14259338378906 64.73575592041016 966.9310302734375
    endloop
  endfacet
  facet normal 0.2588187772223062 0.9659258980673157 -0.0
    outer loop
      vertex -272.3913269042969 72.57292175292969 966.9310302734375
      vertex -272.3913269042969 72.57292175292969 1773.77001953125
      vertex -243.14259338378906 64.73575592041016 1773.77001953125
    endloop
  endfacet
  facet normal 0.2588187772223062 0.9659258980673157 -0.0
    outer loop
      vertex -243.14259338378906 64.73575592041016 966.9310302734375
      vertex -272.3913269042969 72.57292175292969 966.9310302734375
      vertex -243.14259338378906 64.73575592041016 1773.77001953125
    endloop
  endfacet
  facet normal 0.25881883980089304 0.9659258812994284 2.0570594107919986E-7
    outer loop
      vertex -272.3913269042969 72.57292175292969 1773.77001953125
      vertex -272.5843505859375 72.62464141845703 1777.66796875
      vertex -243.29345703125 64.77617645263672 1779.381103515625
    endloop
  endfacet
  facet normal 0.2588187772222665 0.9659258980671677 5.535243892814763E-7
    outer loop
      vertex -243.14259338378906 64.73575592041016 1773.77001953125
      vertex -272.3913269042969 72.57292175292969 1773.77001953125
      vertex -243.29345703125 64.77617645263672 1779.381103515625
    endloop
  endfacet
  facet normal 0.2588190888674577 0.9659258145618828 -8.845784035041619E-7
    outer loop
      vertex -272.5843505859375 72.62464141845703 1777.66796875
      vertex -273.161376953125 72.77925872802734 1781.5252685546875
      vertex -243.7455596923828 64.8973159790039 1784.9749755859375
    endloop
  endfacet
  facet normal 0.9807852223758449 -0.1950906137392684 0.0
    outer loop
      vertex -249.40777587890625 33.23860549926758 966.9310302734375
      vertex -243.14259338378906 64.73575592041016 966.9310302734375
      vertex -249.40777587890625 33.23860549926758 1773.77001953125
    endloop
  endfacet
  facet normal 0.9807852223758449 -0.1950906137392684 0.0
    outer loop
      vertex -243.14259338378906 64.73575592041016 966.9310302734375
      vertex -243.14259338378906 64.73575592041016 1773.77001953125
      vertex -249.40777587890625 33.23860549926758 1773.77001953125
    endloop
  endfacet
  facet normal 0.7934700769838343 -0.1578314883868158 -0.5877877662939835
    outer loop
      vertex -266.509765625 35.49012756347656 913.9559936523438
      vertex -268.8723449707031 35.80116653442383 910.6831665039062
      vertex -259.80438232421875 69.20026397705078 913.9559936523438
    endloop
  endfacet
  facet normal 0.7934678163352579 -0.15783055090595996 -0.5877910697185509
    outer loop
      vertex -268.8723449707031 35.80116653442383 910.6831665039062
      vertex -262.1061706542969 69.81702423095703 910.6831665039062
      vertex -259.80438232421875 69.20026397705078 913.9559936523438
    endloop
  endfacet
  facet normal -0.5764912622811844 0.11467123384859147 -0.8090168926796821
    outer loop
      vertex -268.8723449707031 35.80116653442383 910.6831665039062
      vertex -293.2701110839844 39.0131950378418 928.5238647460938
      vertex -262.1061706542969 69.81702423095703 910.6831665039062
    endloop
  endfacet
  facet normal -0.5764910237318909 0.11467086367070015 -0.8090171151351324
    outer loop
      vertex -293.2701110839844 39.0131950378418 928.5238647460938
      vertex -285.8759765625 76.18612670898438 928.5238647460938
      vertex -262.1061706542969 69.81702423095703 910.6831665039062
    endloop
  endfacet
  facet normal -0.77193324921961 0.15354662733709754 0.6168812624668202
    outer loop
      vertex -285.8759765625 76.18612670898438 928.5238647460938
      vertex -293.2701110839844 39.0131950378418 928.5238647460938
      vertex -290.98492431640625 38.712345123291016 931.4583129882812
    endloop
  endfacet
  facet normal -0.7779768662252764 0.15376797535473966 0.609185854541619
    outer loop
      vertex -282.9917297363281 75.41329193115234 932.40234375
      vertex -285.8759765625 76.18612670898438 928.5238647460938
      vertex -290.98492431640625 38.712345123291016 931.4583129882812
    endloop
  endfacet
  facet normal -0.8219657947619718 0.16242485581329183 0.5458849681529536
    outer loop
      vertex -280.66546630859375 74.78997802734375 936.090576171875
      vertex -282.9917297363281 75.41329193115234 932.40234375
      vertex -288.8855285644531 38.435951232910156 934.5301513671875
    endloop
  endfacet
  facet normal -0.8079582991072786 0.16139036758657174 0.5667067461694316
    outer loop
      vertex -282.9917297363281 75.41329193115234 932.40234375
      vertex -290.98492431640625 38.712345123291016 931.4583129882812
      vertex -288.8855285644531 38.435951232910156 934.5301513671875
    endloop
  endfacet
  facet normal -0.8610191686508523 0.16997762817985687 0.4793261907450348
    outer loop
      vertex -278.3963623046875 74.18197631835938 940.3822021484375
      vertex -280.66546630859375 74.78997802734375 936.090576171875
      vertex -286.42694091796875 38.112274169921875 938.7477416992188
    endloop
  endfacet
  facet normal -0.8457110657666812 0.16950572206629244 0.506004548820037
    outer loop
      vertex -280.66546630859375 74.78997802734375 936.090576171875
      vertex -288.8855285644531 38.435951232910156 934.5301513671875
      vertex -286.42694091796875 38.112274169921875 938.7477416992188
    endloop
  endfacet
  facet normal -0.8964963648911314 0.1770239568445306 0.4061487245333823
    outer loop
      vertex -276.4737854003906 73.66681671142578 944.8504638671875
      vertex -278.3963623046875 74.18197631835938 940.3822021484375
      vertex -284.31842041015625 37.83468246459961 943.1527099609375
    endloop
  endfacet
  facet normal -0.8833580315482188 0.17700551010153018 0.4339903656683558
    outer loop
      vertex -278.3963623046875 74.18197631835938 940.3822021484375
      vertex -286.42694091796875 38.112274169921875 938.7477416992188
      vertex -284.31842041015625 37.83468246459961 943.1527099609375
    endloop
  endfacet
  facet normal -0.9259919925126452 0.18288306298414694 0.33029171209099045
    outer loop
      vertex -274.910400390625 73.24790954589844 949.4654541015625
      vertex -276.4737854003906 73.66681671142578 944.8504638671875
      vertex -282.57391357421875 37.605010986328125 947.7158813476562
    endloop
  endfacet
  facet normal -0.9151233184015728 0.18333204397967015 0.3590803165977356
    outer loop
      vertex -276.4737854003906 73.66681671142578 944.8504638671875
      vertex -284.31842041015625 37.83468246459961 943.1527099609375
      vertex -282.57391357421875 37.605010986328125 947.7158813476562
    endloop
  endfacet
  facet normal -0.9493239419714109 0.1875174277257342 0.2522325662934614
    outer loop
      vertex -273.716552734375 72.92802429199219 954.196533203125
      vertex -274.910400390625 73.24790954589844 949.4654541015625
      vertex -281.2049560546875 37.42478561401367 952.40673828125
    endloop
  endfacet
  facet normal -0.9407870147936758 0.18844463086103663 0.28179498557506616
    outer loop
      vertex -274.910400390625 73.24790954589844 949.4654541015625
      vertex -282.57391357421875 37.605010986328125 947.7158813476562
      vertex -281.2049560546875 37.42478561401367 952.40673828125
    endloop
  endfacet
  facet normal -0.9663352206611201 0.19089665563301744 0.17249553089269748
    outer loop
      vertex -272.900146484375 72.70926666259766 959.01220703125
      vertex -273.716552734375 72.92802429199219 954.196533203125
      vertex -280.2206115722656 37.295196533203125 957.1942138671875
    endloop
  endfacet
  facet normal -0.9601869911073351 0.19230936054038625 0.2026278656966762
    outer loop
      vertex -273.716552734375 72.92802429199219 954.196533203125
      vertex -281.2049560546875 37.42478561401367 952.40673828125
      vertex -280.2206115722656 37.295196533203125 957.1942138671875
    endloop
  endfacet
  facet normal -0.9760686181739467 0.19349109268897552 0.09925346173322254
    outer loop
      vertex -272.5186767578125 72.60704803466797 962.962890625
      vertex -272.900146484375 72.70926666259766 959.01220703125
      vertex -279.6274108886719 37.217098236083984 962.0463256835938
    endloop
  endfacet
  facet normal -0.9731914843210084 0.19490018172578133 0.12211574021529588
    outer loop
      vertex -272.900146484375 72.70926666259766 959.01220703125
      vertex -280.2206115722656 37.295196533203125 957.1942138671875
      vertex -279.6274108886719 37.217098236083984 962.0463256835938
    endloop
  endfacet
  facet normal -0.9802466723149199 0.19498324573992415 0.033136012075236344
    outer loop
      vertex -272.3913269042969 72.57292175292969 966.9310302734375
      vertex -272.5186767578125 72.60704803466797 962.962890625
      vertex -279.4292297363281 37.19100570678711 966.9310302734375
    endloop
  endfacet
  facet normal -0.9798037465723449 0.19575530111239062 0.04079804271277319
    outer loop
      vertex -272.5186767578125 72.60704803466797 962.962890625
      vertex -279.6274108886719 37.217098236083984 962.0463256835938
      vertex -279.4292297363281 37.19100570678711 966.9310302734375
    endloop
  endfacet
  facet normal -0.9807852690056834 0.19509037931545758 0.0
    outer loop
      vertex -279.4292297363281 37.19100570678711 966.9310302734375
      vertex -279.4292297363281 37.19100570678711 1773.77001953125
      vertex -272.3913269042969 72.57292175292969 966.9310302734375
    endloop
  endfacet
  facet normal -0.9807852690056834 0.19509037931545758 0.0
    outer loop
      vertex -279.4292297363281 37.19100570678711 1773.77001953125
      vertex -272.3913269042969 72.57292175292969 1773.77001953125
      vertex -272.3913269042969 72.57292175292969 966.9310302734375
    endloop
  endfacet
  facet normal -0.9798870653476656 0.1949117154449012 -0.04278740873978657
    outer loop
      vertex -272.3913269042969 72.57292175292969 1773.77001953125
      vertex -279.4292297363281 37.19100570678711 1773.77001953125
      vertex -279.5682067871094 37.20930480957031 1777.0361328125
    endloop
  endfacet
  facet normal -0.979651140008618 0.19409730211657003 -0.05108699629929667
    outer loop
      vertex -272.5843505859375 72.62464141845703 1777.66796875
      vertex -272.3913269042969 72.57292175292969 1773.77001953125
      vertex -279.5682067871094 37.20930480957031 1777.0361328125
    endloop
  endfacet
  facet normal -0.9695166939232631 0.1916137494750311 -0.15271395226444115
    outer loop
      vertex -273.161376953125 72.77925872802734 1781.5252685546875
      vertex -272.5843505859375 72.62464141845703 1777.66796875
      vertex -279.984130859375 37.264060974121094 1780.2783203125
    endloop
  endfacet
  facet normal -0.9725932013725803 0.19407850735854384 -0.1280468571473547
    outer loop
      vertex -272.5843505859375 72.62464141845703 1777.66796875
      vertex -279.5682067871094 37.20930480957031 1777.0361328125
      vertex -279.984130859375 37.264060974121094 1780.2783203125
    endloop
  endfacet
  facet normal -0.949173466810597 0.18757199992582882 -0.2527577392417046
    outer loop
      vertex -274.116455078125 73.03517150878906 1785.3017578125
      vertex -273.161376953125 72.77925872802734 1781.5252685546875
      vertex -280.83929443359375 37.376644134521484 1784.0855712890625
    endloop
  endfacet
  facet normal -0.9564115422585299 0.19147563719155608 -0.22048592289928198
    outer loop
      vertex -273.161376953125 72.77925872802734 1781.5252685546875
      vertex -279.984130859375 37.264060974121094 1780.2783203125
      vertex -280.83929443359375 37.376644134521484 1784.0855712890625
    endloop
  endfacet
  facet normal -0.9224896639498181 0.1828117294908885 -0.3399892519864445
    outer loop
      vertex -275.12847900390625 73.30634307861328 1788.1934814453125
      vertex -274.116455078125 73.03517150878906 1785.3017578125
      vertex -281.9356689453125 37.5209846496582 1787.421630859375
    endloop
  endfacet
  facet normal -0.9309738121799751 0.18623005638526202 -0.31401612559521
    outer loop
      vertex -274.116455078125 73.03517150878906 1785.3017578125
      vertex -280.83929443359375 37.376644134521484 1784.0855712890625
      vertex -281.9356689453125 37.5209846496582 1787.421630859375
    endloop
  endfacet
  facet normal -0.8925456525893423 0.17753862859373806 -0.414538651275029
    outer loop
      vertex -276.3623352050781 73.63695526123047 1790.99169921875
      vertex -275.12847900390625 73.30634307861328 1788.1934814453125
      vertex -283.5051574707031 37.72761535644531 1790.99169921875
    endloop
  endfacet
  facet normal -0.8967398651730251 0.17930725674955697 -0.4046066261029514
    outer loop
      vertex -275.12847900390625 73.30634307861328 1788.1934814453125
      vertex -281.9356689453125 37.5209846496582 1787.421630859375
      vertex -283.5051574707031 37.72761535644531 1790.99169921875
    endloop
  endfacet
  facet normal -0.36439361298428563 0.07248240518811964 0.9284199457973769
    outer loop
      vertex -283.5051574707031 37.72761535644531 1790.99169921875
      vertex -253.69725036621094 33.80332946777344 1802.997314453125
      vertex -247.32167053222656 65.85552978515625 1802.997314453125
    endloop
  endfacet
  facet normal -0.3643936873935302 0.07248251710193267 0.9284199078554457
    outer loop
      vertex -283.5051574707031 37.72761535644531 1790.99169921875
      vertex -247.32167053222656 65.85552978515625 1802.997314453125
      vertex -276.3623352050781 73.63695526123047 1790.99169921875
    endloop
  endfacet
  facet normal 0.80706362431942 -0.16053542123906353 -0.5682223902909832
    outer loop
      vertex -266.509765625 35.49012756347656 913.9559936523438
      vertex -259.80438232421875 69.20026397705078 913.9559936523438
      vertex -257.4278564453125 68.5634765625 917.5113525390625
    endloop
  endfacet
  facet normal 0.832997347684405 -0.16495414839704722 -0.52811508942403
    outer loop
      vertex -263.16876220703125 35.05027770996094 918.9238891601562
      vertex -257.4278564453125 68.5634765625 917.5113525390625
      vertex -255.21900939941406 67.97161865234375 921.1802368164062
    endloop
  endfacet
  facet normal 0.8120104675673823 -0.16272400404846055 -0.5604996869467794
    outer loop
      vertex -263.16876220703125 35.05027770996094 918.9238891601562
      vertex -266.509765625 35.49012756347656 913.9559936523438
      vertex -257.4278564453125 68.5634765625 917.5113525390625
    endloop
  endfacet
  facet normal 0.8614303448217573 -0.16984348327965826 -0.478634466171943
    outer loop
      vertex -260.4485778808594 34.69215774536133 923.5774536132812
      vertex -255.21900939941406 67.97161865234375 921.1802368164062
      vertex -252.43980407714844 67.2269287109375 926.4464111328125
    endloop
  endfacet
  facet normal 0.8451267802476922 -0.16932761007281005 -0.5070393335582551
    outer loop
      vertex -260.4485778808594 34.69215774536133 923.5774536132812
      vertex -263.16876220703125 35.05027770996094 918.9238891601562
      vertex -255.21900939941406 67.97161865234375 921.1802368164062
    endloop
  endfacet
  facet normal 0.8907469282014068 -0.17565786299619945 -0.4191828062640052
    outer loop
      vertex -257.75726318359375 34.33784103393555 928.9291381835938
      vertex -252.43980407714844 67.2269287109375 926.4464111328125
      vertex -250.00592041015625 66.57477569580078 931.8916015625
    endloop
  endfacet
  facet normal 0.8748084537852452 -0.17552460858024374 -0.4515542945965863
    outer loop
      vertex -257.75726318359375 34.33784103393555 928.9291381835938
      vertex -260.4485778808594 34.69215774536133 923.5774536132812
      vertex -252.43980407714844 67.2269287109375 926.4464111328125
    endloop
  endfacet
  facet normal 0.9161181707408218 -0.18069079159890974 -0.3578803362436244
    outer loop
      vertex -255.4257354736328 34.030887603759766 934.4488525390625
      vertex -250.00592041015625 66.57477569580078 931.8916015625
      vertex -247.92808532714844 66.01802062988281 937.4916381835938
    endloop
  endfacet
  facet normal 0.9023250450611727 -0.18101256853617823 -0.3912083371904134
    outer loop
      vertex -255.4257354736328 34.030887603759766 934.4488525390625
      vertex -257.75726318359375 34.33784103393555 928.9291381835938
      vertex -250.00592041015625 66.57477569580078 931.8916015625
    endloop
  endfacet
  facet normal 0.9374357448446002 -0.1849200770801949 -0.29498947333812536
    outer loop
      vertex -253.4642333984375 33.77265167236328 940.1121826171875
      vertex -247.92808532714844 66.01802062988281 937.4916381835938
      vertex -246.21543884277344 65.55912017822266 943.2218627929688
    endloop
  endfacet
  facet normal 0.92584246383192 -0.18570457824718206 -0.3291345344743939
    outer loop
      vertex -253.4642333984375 33.77265167236328 940.1121826171875
      vertex -255.4257354736328 34.030887603759766 934.4488525390625
      vertex -247.92808532714844 66.01802062988281 937.4916381835938
    endloop
  endfacet
  facet normal 0.9546023081397232 -0.18832443377609687 -0.2307993521161302
    outer loop
      vertex -251.88136291503906 33.56426239013672 945.8939208984375
      vertex -246.21543884277344 65.55912017822266 943.2218627929688
      vertex -244.87551879882812 65.20008850097656 949.0568237304688
    endloop
  endfacet
  facet normal 0.9452558314609902 -0.18957701704110125 -0.26561620375796
    outer loop
      vertex -251.88136291503906 33.56426239013672 945.8939208984375
      vertex -253.4642333984375 33.77265167236328 940.1121826171875
      vertex -246.21543884277344 65.55912017822266 943.2218627929688
    endloop
  endfacet
  facet normal 0.967543852378831 -0.19089120005587157 -0.1655881742914028
    outer loop
      vertex -250.68408203125 33.40663528442383 951.7686767578125
      vertex -244.87551879882812 65.20008850097656 949.0568237304688
      vertex -243.91419982910156 64.9425048828125 954.9708251953125
    endloop
  endfacet
  facet normal 0.9604854265587075 -0.1926149648231027 -0.20091595430560621
    outer loop
      vertex -250.68408203125 33.40663528442383 951.7686767578125
      vertex -251.88136291503906 33.56426239013672 945.8939208984375
      vertex -244.87551879882812 65.20008850097656 949.0568237304688
    endloop
  endfacet
  facet normal 0.9762030216183334 -0.1926081606101684 -0.09964816631329954
    outer loop
      vertex -249.8776397705078 33.30046844482422 957.7103271484375
      vertex -243.91419982910156 64.9425048828125 954.9708251953125
      vertex -243.33570861816406 64.7874984741211 960.9376220703125
    endloop
  endfacet
  facet normal 0.971460771638642 -0.1948040353997512 -0.13533424163613142
    outer loop
      vertex -249.8776397705078 33.30046844482422 957.7103271484375
      vertex -250.68408203125 33.40663528442383 951.7686767578125
      vertex -243.91419982910156 64.9425048828125 954.9708251953125
    endloop
  endfacet
  facet normal 0.9804564174895695 -0.19390362364525213 -0.03326556989981527
    outer loop
      vertex -249.5253143310547 33.25408172607422 962.3145751953125
      vertex -243.33570861816406 64.7874984741211 960.9376220703125
      vertex -243.14259338378906 64.73575592041016 966.9310302734375
    endloop
  endfacet
  facet normal 0.9777389029653266 -0.1952705794835024 -0.07678566543526712
    outer loop
      vertex -249.5253143310547 33.25408172607422 962.3145751953125
      vertex -249.8776397705078 33.30046844482422 957.7103271484375
      vertex -243.33570861816406 64.7874984741211 960.9376220703125
    endloop
  endfacet
  facet normal 0.9804633551190585 -0.19502659026171545 -0.02561714971592579
    outer loop
      vertex -249.40777587890625 33.23860549926758 966.9310302734375
      vertex -249.5253143310547 33.25408172607422 962.3145751953125
      vertex -243.14259338378906 64.73575592041016 966.9310302734375
    endloop
  endfacet
  facet normal 0.9804071146110559 -0.19501540331173609 0.027764763481519763
    outer loop
      vertex -249.40777587890625 33.23860549926758 1773.77001953125
      vertex -243.14259338378906 64.73575592041016 1773.77001953125
      vertex -243.29345703125 64.77617645263672 1779.381103515625
    endloop
  endfacet
  facet normal 0.977492706599927 -0.19387032114124803 0.08320040339167924
    outer loop
      vertex -249.60598754882812 33.264705657958984 1780.1180419921875
      vertex -243.29345703125 64.77617645263672 1779.381103515625
      vertex -243.7455596923828 64.8973159790039 1784.9749755859375
    endloop
  endfacet
  facet normal 0.980176804008372 -0.19561921318757428 0.03140949403934893
    outer loop
      vertex -249.60598754882812 33.264705657958984 1780.1180419921875
      vertex -249.40777587890625 33.23860549926758 1773.77001953125
      vertex -243.29345703125 64.77617645263672 1779.381103515625
    endloop
  endfacet
  facet normal 0.9710619833504823 -0.19202948662085378 0.14199753786442482
    outer loop
      vertex -250.1998748779297 33.342891693115234 1786.44091796875
      vertex -243.7455596923828 64.8973159790039 1784.9749755859375
      vertex -244.61862182617188 65.1312484741211 1791.2618408203125
    endloop
  endfacet
  facet normal 0.9762162877145829 -0.19530861103349706 0.09410794895716673
    outer loop
      vertex -250.1998748779297 33.342891693115234 1786.44091796875
      vertex -249.60598754882812 33.264705657958984 1780.1180419921875
      vertex -243.7455596923828 64.8973159790039 1784.9749755859375
    endloop
  endfacet
  facet normal 0.9609967754382855 -0.19017784908357482 0.2007923885887176
    outer loop
      vertex -251.18711853027344 33.472862243652344 1792.7139892578125
      vertex -244.61862182617188 65.1312484741211 1791.2618408203125
      vertex -245.72984313964844 65.42900085449219 1796.8621826171875
    endloop
  endfacet
  facet normal 0.9684947822907977 -0.19376820699984865 0.1564344547456352
    outer loop
      vertex -251.18711853027344 33.472862243652344 1792.7139892578125
      vertex -250.1998748779297 33.342891693115234 1786.44091796875
      vertex -244.61862182617188 65.1312484741211 1791.2618408203125
    endloop
  endfacet
  facet normal 0.947513807282894 -0.18760545250906838 0.25888564888217047
    outer loop
      vertex -252.30831909179688 33.6204719543457 1797.888671875
      vertex -245.72984313964844 65.42900085449219 1796.8621826171875
      vertex -247.32167053222656 65.85552978515625 1802.997314453125
    endloop
  endfacet
  facet normal 0.958133125477265 -0.19128066637345045 0.2130554400499933
    outer loop
      vertex -252.30831909179688 33.6204719543457 1797.888671875
      vertex -251.18711853027344 33.472862243652344 1792.7139892578125
      vertex -245.72984313964844 65.42900085449219 1796.8621826171875
    endloop
  endfacet
  facet normal 0.9460071866121452 -0.18817255233793476 0.26393463854674504
    outer loop
      vertex -253.69725036621094 33.80332946777344 1802.997314453125
      vertex -252.30831909179688 33.6204719543457 1797.888671875
      vertex -247.32167053222656 65.85552978515625 1802.997314453125
    endloop
  endfacet
endsolid v3d.csg
