solid v3d.csg
  facet normal 0.2588190792645647 -0.9659258171352899 4.0712386479526647E-7
    outer loop
      vertex -275.455078125 -73.39385223388672 947.7158813476562
      vertex -247.0946502685547 -65.7947006225586 940.1121826171875
      vertex -274.1213684082031 -73.03648376464844 952.40673828125
    endloop
  endfacet
  facet normal 0.25881873457443716 -0.9659259094943657 -8.772814324758587E-7
    outer loop
      vertex -245.55252075195312 -65.38148498535156 945.8939208984375
      vertex -244.3860626220703 -65.06893920898438 951.7686767578125
      vertex -273.162353515625 -72.7795181274414 957.1942138671875
    endloop
  endfacet
  facet normal 0.2588190187560682 -0.9659258333482965 7.381943041817686E-7
    outer loop
      vertex -244.3860626220703 -65.06893920898438 951.7686767578125
      vertex -243.6003875732422 -64.85841369628906 957.7103271484375
      vertex -273.162353515625 -72.7795181274414 957.1942138671875
    endloop
  endfacet
  facet normal 0.25881895174285263 -0.9659258513046619 -3.085817528800506E-7
    outer loop
      vertex -274.1213684082031 -73.03648376464844 952.40673828125
      vertex -245.55252075195312 -65.38148498535156 945.8939208984375
      vertex -273.162353515625 -72.7795181274414 957.1942138671875
    endloop
  endfacet
  facet normal 0.258818831325242 -0.9659258835700771 -8.953492828489602E-7
    outer loop
      vertex -243.6003875732422 -64.85841369628906 957.7103271484375
      vertex -243.2571258544922 -64.76644134521484 962.3145751953125
      vertex -272.58441162109375 -72.6246566772461 962.0463256835938
    endloop
  endfacet
  facet normal 0.25881902299662146 -0.9659258322122076 4.778674090277646E-7
    outer loop
      vertex -273.162353515625 -72.7795181274414 957.1942138671875
      vertex -243.6003875732422 -64.85841369628906 957.7103271484375
      vertex -272.58441162109375 -72.6246566772461 962.0463256835938
    endloop
  endfacet
  facet normal 0.2588187772222397 -0.9659258980670677 -7.164604727184152E-7
    outer loop
      vertex -243.2571258544922 -64.76644134521484 962.3145751953125
      vertex -243.14259338378906 -64.73575592041016 966.9310302734375
      vertex -272.3913269042969 -72.57292175292969 966.9310302734375
    endloop
  endfacet
  facet normal 0.25881882692935776 -0.9659258847482899 -3.8023929794874806E-7
    outer loop
      vertex -272.58441162109375 -72.6246566772461 962.0463256835938
      vertex -243.2571258544922 -64.76644134521484 962.3145751953125
      vertex -272.3913269042969 -72.57292175292969 966.9310302734375
    endloop
  endfacet
  facet normal 0.2588187772223062 -0.9659258980673157 0.0
    outer loop
      vertex -243.14259338378906 -64.73575592041016 966.9310302734375
      vertex -243.14259338378906 -64.73575592041016 1773.77001953125
      vertex -272.3913269042969 -72.57292175292969 1773.77001953125
    endloop
  endfacet
  facet normal 0.2588187772223062 -0.9659258980673157 0.0
    outer loop
      vertex -272.3913269042969 -72.57292175292969 966.9310302734375
      vertex -243.14259338378906 -64.73575592041016 966.9310302734375
      vertex -272.3913269042969 -72.57292175292969 1773.77001953125
    endloop
  endfacet
  facet normal 0.2588190645280171 -0.9659258210834983 1.005808407614899E-6
    outer loop
      vertex -243.14259338378906 -64.73575592041016 1773.77001953125
      vertex -243.33572387695312 -64.7874984741211 1780.1180419921875
      vertex -272.5691223144531 -72.62056732177734 1777.511474609375
    endloop
  endfacet
  facet normal 0.25881877722204666 -0.9659258980663472 -1.4160869530241873E-6
    outer loop
      vertex -272.3913269042969 -72.57292175292969 1773.77001953125
      vertex -243.14259338378906 -64.73575592041016 1773.77001953125
      vertex -272.5691223144531 -72.62056732177734 1777.511474609375
    endloop
  endfacet
  facet normal 0.2588191888192569 -0.965925787780227 -2.9959723437909074E-7
    outer loop
      vertex -243.33572387695312 -64.7874984741211 1780.1180419921875
      vertex -243.91432189941406 -64.94253540039062 1786.44091796875
      vertex -273.10076904296875 -72.76302337646484 1781.2169189453125
    endloop
  endfacet
  facet normal 0.2588191842241805 -0.9659257890114241 -4.3299897776060416E-7
    outer loop
      vertex -272.5691223144531 -72.62056732177734 1777.511474609375
      vertex -243.33572387695312 -64.7874984741211 1780.1180419921875
      vertex -273.10076904296875 -72.76302337646484 1781.2169189453125
    endloop
  endfacet
  facet normal 0.2588188654262088 -0.9659258744331427 -2.424057194503486E-7
    outer loop
      vertex -243.91432189941406 -64.94253540039062 1786.44091796875
      vertex -244.8761444091797 -65.20025634765625 1792.7139892578125
      vertex -274.0257873535156 -73.01087188720703 1785.0015869140625
    endloop
  endfacet
  facet normal 0.25881875107206664 -0.9659259050714528 2.321681941102016E-6
    outer loop
      vertex -273.10076904296875 -72.76302337646484 1781.2169189453125
      vertex -243.91432189941406 -64.94253540039062 1786.44091796875
      vertex -274.0257873535156 -73.01087188720703 1785.0015869140625
    endloop
  endfacet
  facet normal 0.25881900122914586 -0.9659258380445775 -7.925357606907936E-7
    outer loop
      vertex -274.0257873535156 -73.01087188720703 1785.0015869140625
      vertex -244.8761444091797 -65.20025634765625 1792.7139892578125
      vertex -275.3199157714844 -73.35763549804688 1788.6693115234375
    endloop
  endfacet
  facet normal 0.25881890639719063 -0.9659258634550385 -2.749950043147029E-8
    outer loop
      vertex -244.8761444091797 -65.20025634765625 1792.7139892578125
      vertex -246.2174072265625 -65.55964660644531 1798.912353515625
      vertex -275.3199157714844 -73.35763549804688 1788.6693115234375
    endloop
  endfacet
  facet normal 0.25881913002632106 -0.9659258035337861 -1.6769631905406165E-7
    outer loop
      vertex -246.2174072265625 -65.55964660644531 1798.912353515625
      vertex -247.932861328125 -66.01930236816406 1805.0115966796875
      vertex -276.7893981933594 -73.75138854980469 1791.8387451171875
    endloop
  endfacet
  facet normal 0.25881874554690393 -0.9659259065546273 -3.852094868658476E-7
    outer loop
      vertex -262.1061706542969 -69.81702423095703 910.6831665039062
      vertex -259.80438232421875 -69.20026397705078 913.9559936523438
      vertex -283.64959716796875 -75.58956909179688 931.4583129882812
    endloop
  endfacet
  facet normal 0.2588185350938356 -0.9659259629445572 1.2291363205922321E-6
    outer loop
      vertex -247.932861328125 -66.01930236816406 1805.0115966796875
      vertex -249.6681365966797 -66.48426055908203 1810.0677490234375
      vertex -276.7893981933594 -73.75138854980469 1791.8387451171875
    endloop
  endfacet
  facet normal 0.2588194707709915 -0.9659257122298666 -1.7461242592598362E-6
    outer loop
      vertex -275.3199157714844 -73.35763549804688 1788.6693115234375
      vertex -246.2174072265625 -65.55964660644531 1798.912353515625
      vertex -276.7893981933594 -73.75138854980469 1791.8387451171875
    endloop
  endfacet
  facet normal 0.25881857191804636 -0.9659259530776327 1.1704154348474653E-6
    outer loop
      vertex -276.7893981933594 -73.75138854980469 1791.8387451171875
      vertex -249.6681365966797 -66.48426055908203 1810.0677490234375
      vertex -278.74493408203125 -74.2753677368164 1795.1798095703125
    endloop
  endfacet
  facet normal 0.2588197036776744 -0.9659256498234033 -1.1986586616725299E-6
    outer loop
      vertex -249.6681365966797 -66.48426055908203 1810.0677490234375
      vertex -251.66058349609375 -67.01814270019531 1815.0216064453125
      vertex -278.74493408203125 -74.2753677368164 1795.1798095703125
    endloop
  endfacet
  facet normal 0.25881925293637487 -0.9659257706001144 1.787196924136004E-7
    outer loop
      vertex -285.8759765625 -76.18612670898438 928.5238647460938
      vertex -262.1061706542969 -69.81702423095703 910.6831665039062
      vertex -283.64959716796875 -75.58956909179688 931.4583129882812
    endloop
  endfacet
  facet normal 0.25881934847542193 -0.9659257450002545 -6.789909004381966E-7
    outer loop
      vertex -278.74493408203125 -74.2753677368164 1795.1798095703125
      vertex -251.66058349609375 -67.01814270019531 1815.0216064453125
      vertex -280.7799377441406 -74.82064819335938 1798.2862548828125
    endloop
  endfacet
  facet normal 0.2588192120363878 -0.9659257815592327 2.2149075859705063E-7
    outer loop
      vertex -259.80438232421875 -69.20026397705078 913.9559936523438
      vertex -256.5494079589844 -68.32809448242188 918.9238891601562
      vertex -281.6042175292969 -75.04151153564453 934.5301513671875
    endloop
  endfacet
  facet normal 0.25881877495573963 -0.9659258986744939 -5.305929782466665E-7
    outer loop
      vertex -256.5494079589844 -68.32809448242188 918.9238891601562
      vertex -253.8992156982422 -67.61798095703125 923.5774536132812
      vertex -281.6042175292969 -75.04151153564453 934.5301513671875
    endloop
  endfacet
  facet normal 0.2588189825750381 -0.9659258430432538 -3.909648258449793E-8
    outer loop
      vertex -283.64959716796875 -75.58956909179688 931.4583129882812
      vertex -259.80438232421875 -69.20026397705078 913.9559936523438
      vertex -281.6042175292969 -75.04151153564453 934.5301513671875
    endloop
  endfacet
  facet normal 0.25881893436630266 -0.9659258559607254 -1.7699121451581533E-7
    outer loop
      vertex -253.8992156982422 -67.61798095703125 923.5774536132812
      vertex -251.27719116210938 -66.91541290283203 928.9291381835938
      vertex -279.20892333984375 -74.39969635009766 938.7477416992188
    endloop
  endfacet
  facet normal 0.258818849227791 -0.9659258787734666 -3.292322492728061E-7
    outer loop
      vertex -281.6042175292969 -75.04151153564453 934.5301513671875
      vertex -253.8992156982422 -67.61798095703125 923.5774536132812
      vertex -279.20892333984375 -74.39969635009766 938.7477416992188
    endloop
  endfacet
  facet normal 0.25881951411187804 -0.9659257006176829 1.0628743293878534E-6
    outer loop
      vertex -251.27719116210938 -66.91541290283203 928.9291381835938
      vertex -249.00567626953125 -66.30675506591797 934.4488525390625
      vertex -277.1546630859375 -73.84925842285156 943.1527099609375
    endloop
  endfacet
  facet normal 0.25881903389181626 -0.9659258292929591 1.2646427275972417E-7
    outer loop
      vertex -279.20892333984375 -74.39969635009766 938.7477416992188
      vertex -251.27719116210938 -66.91541290283203 928.9291381835938
      vertex -277.1546630859375 -73.84925842285156 943.1527099609375
    endloop
  endfacet
  facet normal 0.2588188488255356 -0.9659258788811698 -5.140811974839459E-7
    outer loop
      vertex -249.00567626953125 -66.30675506591797 934.4488525390625
      vertex -247.0946502685547 -65.7947006225586 940.1121826171875
      vertex -275.455078125 -73.39385223388672 947.7158813476562
    endloop
  endfacet
  facet normal 0.25881939722682107 -0.9659257319373536 6.577178017524965E-7
    outer loop
      vertex -277.1546630859375 -73.84925842285156 943.1527099609375
      vertex -249.00567626953125 -66.30675506591797 934.4488525390625
      vertex -275.455078125 -73.39385223388672 947.7158813476562
    endloop
  endfacet
  facet normal 0.2588191287922941 -0.965925803864315 5.238159635581879E-7
    outer loop
      vertex -247.0946502685547 -65.7947006225586 940.1121826171875
      vertex -245.55252075195312 -65.38148498535156 945.8939208984375
      vertex -274.1213684082031 -73.03648376464844 952.40673828125
    endloop
  endfacet
  facet normal 0.9807852223758449 0.1950906137392684 0.0
    outer loop
      vertex -243.14259338378906 -64.73575592041016 966.9310302734375
      vertex -249.40777587890625 -33.23860549926758 966.9310302734375
      vertex -249.40777587890625 -33.23860549926758 1773.77001953125
    endloop
  endfacet
  facet normal 0.9807852223758449 0.1950906137392684 0.0
    outer loop
      vertex -243.14259338378906 -64.73575592041016 1773.77001953125
      vertex -243.14259338378906 -64.73575592041016 966.9310302734375
      vertex -249.40777587890625 -33.23860549926758 1773.77001953125
    endloop
  endfacet
  facet normal -0.13052621903309614 0.9914448578437568 3.115959219689194E-7
    outer loop
      vertex -249.40777587890625 -33.23860549926758 1773.77001953125
      vertex -279.4292297363281 -37.19100570678711 1773.77001953125
      vertex -249.56634521484375 -33.259483337402344 1779.448486328125
    endloop
  endfacet
  facet normal -0.13052622172270154 0.9914448574897075 9.992641537081385E-8
    outer loop
      vertex -279.6273498535156 -37.21709060668945 1777.66796875
      vertex -280.2196350097656 -37.295066833496094 1781.5252685546875
      vertex -250.04159545898438 -33.322052001953125 1785.10888671875
    endloop
  endfacet
  facet normal -0.13052636490362443 0.9914448386395605 -1.4804681400046999E-7
    outer loop
      vertex -268.8723449707031 -35.80116653442383 910.6831665039062
      vertex -293.2701110839844 -39.0131950378418 928.5238647460938
      vertex -290.3096923828125 -38.62344741821289 932.40234375
    endloop
  endfacet
  facet normal -0.13052611956242804 0.9914448709393604 9.830798612161494E-8
    outer loop
      vertex -268.8723449707031 -35.80116653442383 910.6831665039062
      vertex -290.3096923828125 -38.62344741821289 932.40234375
      vertex -266.509765625 -35.49012756347656 913.9559936523438
    endloop
  endfacet
  facet normal -0.13052623012074602 0.9914448563840795 1.338965445405905E-7
    outer loop
      vertex -249.56634521484375 -33.259483337402344 1779.448486328125
      vertex -279.6273498535156 -37.21709060668945 1777.66796875
      vertex -250.04159545898438 -33.322052001953125 1785.10888671875
    endloop
  endfacet
  facet normal -0.13052622307386358 0.9914448573118222 1.1150191256352645E-7
    outer loop
      vertex -250.04159545898438 -33.322052001953125 1785.10888671875
      vertex -280.2196350097656 -37.295066833496094 1781.5252685546875
      vertex -250.94606018066406 -33.44112777709961 1791.3946533203125
    endloop
  endfacet
  facet normal -0.13052600794844207 0.9914448856334648 -5.376408821308889E-7
    outer loop
      vertex -280.2196350097656 -37.295066833496094 1781.5252685546875
      vertex -281.199951171875 -37.42412567138672 1785.3017578125
      vertex -250.94606018066406 -33.44112777709961 1791.3946533203125
    endloop
  endfacet
  facet normal -0.13052620230950845 0.9914448600455082 -9.23916074918323E-9
    outer loop
      vertex -290.3096923828125 -38.62344741821289 932.40234375
      vertex -287.9219665527344 -38.30909729003906 936.090576171875
      vertex -264.0704345703125 -35.168983459472656 917.5113525390625
    endloop
  endfacet
  facet normal -0.13052620452926336 0.9914448597532718 -1.3218361379164125E-8
    outer loop
      vertex -266.509765625 -35.49012756347656 913.9559936523438
      vertex -290.3096923828125 -38.62344741821289 932.40234375
      vertex -264.0704345703125 -35.168983459472656 917.5113525390625
    endloop
  endfacet
  facet normal -0.13052632748880807 0.9914448435652228 4.639964958231098E-7
    outer loop
      vertex -281.199951171875 -37.42412567138672 1785.3017578125
      vertex -282.55810546875 -37.60293197631836 1788.9580078125
      vertex -252.24095153808594 -33.611602783203125 1797.611083984375
    endloop
  endfacet
  facet normal -0.1305260970547644 0.9914448739025497 -8.75203820721466E-8
    outer loop
      vertex -250.94606018066406 -33.44112777709961 1791.3946533203125
      vertex -281.199951171875 -37.42412567138672 1785.3017578125
      vertex -252.24095153808594 -33.611602783203125 1797.611083984375
    endloop
  endfacet
  facet normal -0.13052615854312638 0.9914448658074515 -1.3818568665896785E-7
    outer loop
      vertex -252.24095153808594 -33.611602783203125 1797.611083984375
      vertex -282.55810546875 -37.60293197631836 1788.9580078125
      vertex -253.9212188720703 -33.83281326293945 1803.7335205078125
    endloop
  endfacet
  facet normal -0.13052635477422012 0.9914448399731091 -2.2531765282443328E-7
    outer loop
      vertex -287.9219665527344 -38.30909729003906 936.090576171875
      vertex -285.5929260253906 -38.002471923828125 940.3822021484375
      vertex -261.8032531738281 -34.87050247192383 921.1802368164062
    endloop
  endfacet
  facet normal -0.13052631915703902 0.9914448446622177 -1.6184499356813258E-7
    outer loop
      vertex -264.0704345703125 -35.168983459472656 917.5113525390625
      vertex -287.9219665527344 -38.30909729003906 936.090576171875
      vertex -261.8032531738281 -34.87050247192383 921.1802368164062
    endloop
  endfacet
  facet normal -0.13052607694939578 0.9914448765494283 -2.9906598822594323E-7
    outer loop
      vertex -282.55810546875 -37.60293197631836 1788.9580078125
      vertex -284.11053466796875 -37.80731201171875 1792.1484375
      vertex -253.9212188720703 -33.83281326293945 1803.7335205078125
    endloop
  endfacet
  facet normal -0.1305266560520945 0.9914448003086551 8.883403240208067E-7
    outer loop
      vertex -284.11053466796875 -37.80731201171875 1792.1484375
      vertex -285.95068359375 -38.04957580566406 1795.1798095703125
      vertex -255.7576446533203 -34.0745849609375 1809.1436767578125
    endloop
  endfacet
  facet normal -0.13052629140081504 0.9914448483163734 2.694542248605346E-7
    outer loop
      vertex -253.9212188720703 -33.83281326293945 1803.7335205078125
      vertex -284.11053466796875 -37.80731201171875 1792.1484375
      vertex -255.7576446533203 -34.0745849609375 1809.1436767578125
    endloop
  endfacet
  facet normal -0.1305258597140029 0.9914449051488508 -5.536627807544775E-7
    outer loop
      vertex -285.95068359375 -38.04957580566406 1795.1798095703125
      vertex -288.0394592285156 -38.32456588745117 1798.2862548828125
      vertex -258.1507873535156 -34.3896484375 1815.0216064453125
    endloop
  endfacet
  facet normal -0.13052625967216344 0.991444852493569 1.642217382795482E-8
    outer loop
      vertex -255.7576446533203 -34.0745849609375 1809.1436767578125
      vertex -285.95068359375 -38.04957580566406 1795.1798095703125
      vertex -258.1507873535156 -34.3896484375 1815.0216064453125
    endloop
  endfacet
  facet normal -0.13052586737127098 0.9914449041408333 3.890011346356407E-7
    outer loop
      vertex -261.8032531738281 -34.87050247192383 921.1802368164062
      vertex -285.5929260253906 -38.002471923828125 940.3822021484375
      vertex -258.9505920410156 -34.49494552612305 926.4464111328125
    endloop
  endfacet
  facet normal -0.1305260481784715 0.9914448803371917 2.8810029044575954E-7
    outer loop
      vertex -285.5929260253906 -38.002471923828125 940.3822021484375
      vertex -283.6195373535156 -37.742671966552734 944.8504638671875
      vertex -256.4524230957031 -34.166053771972656 931.8916015625
    endloop
  endfacet
  facet normal -0.13052621030721231 0.9914448589925514 -2.77984518689248E-7
    outer loop
      vertex -258.9505920410156 -34.49494552612305 926.4464111328125
      vertex -285.5929260253906 -38.002471923828125 940.3822021484375
      vertex -256.4524230957031 -34.166053771972656 931.8916015625
    endloop
  endfacet
  facet normal -0.13052631655959296 0.991444845004095 -4.370523855758383E-7
    outer loop
      vertex -283.6195373535156 -37.742671966552734 944.8504638671875
      vertex -282.0148620605469 -37.531410217285156 949.4654541015625
      vertex -254.31968688964844 -33.88527297973633 937.4916381835938
    endloop
  endfacet
  facet normal -0.1305262369063764 0.9914448554907366 -1.1440871974459752E-7
    outer loop
      vertex -256.4524230957031 -34.166053771972656 931.8916015625
      vertex -283.6195373535156 -37.742671966552734 944.8504638671875
      vertex -254.31968688964844 -33.88527297973633 937.4916381835938
    endloop
  endfacet
  facet normal -0.1305259679232719 0.9914448909027425 7.363924996576764E-7
    outer loop
      vertex -282.0148620605469 -37.531410217285156 949.4654541015625
      vertex -280.7894592285156 -37.370086669921875 954.196533203125
      vertex -252.56179809570312 -33.65384292602539 943.2218627929688
    endloop
  endfacet
  facet normal -0.13052611227200547 0.9914448718991662 4.3650147359901E-8
    outer loop
      vertex -254.31968688964844 -33.88527297973633 937.4916381835938
      vertex -282.0148620605469 -37.531410217285156 949.4654541015625
      vertex -252.56179809570312 -33.65384292602539 943.2218627929688
    endloop
  endfacet
  facet normal -0.1305263418434397 0.991444841675374 -5.120932782633217E-7
    outer loop
      vertex -280.7894592285156 -37.370086669921875 954.196533203125
      vertex -279.9515075683594 -37.259765625 959.01220703125
      vertex -251.1864776611328 -33.4727783203125 949.0568237304688
    endloop
  endfacet
  facet normal -0.13052625856257888 0.9914448526396483 -2.410987004626022E-8
    outer loop
      vertex -252.56179809570312 -33.65384292602539 943.2218627929688
      vertex -280.7894592285156 -37.370086669921875 954.196533203125
      vertex -251.1864776611328 -33.4727783203125 949.0568237304688
    endloop
  endfacet
  facet normal -0.1305262180005619 0.9914448579797306 -1.480602355619047E-7
    outer loop
      vertex -251.1864776611328 -33.4727783203125 949.0568237304688
      vertex -279.9515075683594 -37.259765625 959.01220703125
      vertex -250.1997528076172 -33.342872619628906 954.9708251953125
    endloop
  endfacet
  facet normal -0.13052619321089626 0.991444861243355 -1.2859014898831224E-7
    outer loop
      vertex -279.9515075683594 -37.259765625 959.01220703125
      vertex -279.5599365234375 -37.208213806152344 962.962890625
      vertex -249.60598754882812 -33.26470184326172 960.9376220703125
    endloop
  endfacet
  facet normal -0.1305262002758405 0.9914448603132455 -1.5313141815754017E-8
    outer loop
      vertex -250.1997528076172 -33.342872619628906 954.9708251953125
      vertex -279.9515075683594 -37.259765625 959.01220703125
      vertex -249.60598754882812 -33.26470184326172 960.9376220703125
    endloop
  endfacet
  facet normal -0.13052621903310227 0.9914448578438034 -5.5165794272138385E-8
    outer loop
      vertex -279.5599365234375 -37.208213806152344 962.962890625
      vertex -279.4292297363281 -37.19100570678711 966.9310302734375
      vertex -249.40777587890625 -33.23860549926758 966.9310302734375
    endloop
  endfacet
  facet normal -0.130526198751117 0.9914448605139567 -2.1195088645291397E-7
    outer loop
      vertex -249.60598754882812 -33.26470184326172 960.9376220703125
      vertex -279.5599365234375 -37.208213806152344 962.962890625
      vertex -249.40777587890625 -33.23860549926758 966.9310302734375
    endloop
  endfacet
  facet normal -0.13052621903310246 0.991444857843805 0.0
    outer loop
      vertex -279.4292297363281 -37.19100570678711 966.9310302734375
      vertex -279.4292297363281 -37.19100570678711 1773.77001953125
      vertex -249.40777587890625 -33.23860549926758 1773.77001953125
    endloop
  endfacet
  facet normal -0.13052621903310246 0.991444857843805 0.0
    outer loop
      vertex -249.40777587890625 -33.23860549926758 966.9310302734375
      vertex -279.4292297363281 -37.19100570678711 966.9310302734375
      vertex -249.40777587890625 -33.23860549926758 1773.77001953125
    endloop
  endfacet
  facet normal -0.1305262501633121 0.9914448537453184 4.781463624952324E-7
    outer loop
      vertex -279.4292297363281 -37.19100570678711 1773.77001953125
      vertex -279.6273498535156 -37.21709060668945 1777.66796875
      vertex -249.56634521484375 -33.259483337402344 1779.448486328125
    endloop
  endfacet
  facet normal 0.8070615810550945 0.1605350148072912 -0.5682254072158988
    outer loop
      vertex -259.80438232421875 -69.20026397705078 913.9559936523438
      vertex -266.509765625 -35.49012756347656 913.9559936523438
      vertex -264.0704345703125 -35.168983459472656 917.5113525390625
    endloop
  endfacet
  facet normal 0.8327166376914567 0.16637681125109888 -0.5281115014745952
    outer loop
      vertex -256.5494079589844 -68.32809448242188 918.9238891601562
      vertex -264.0704345703125 -35.168983459472656 917.5113525390625
      vertex -261.8032531738281 -34.87050247192383 921.1802368164062
    endloop
  endfacet
  facet normal 0.8124742852065043 0.16040598864979635 -0.5604957222704391
    outer loop
      vertex -256.5494079589844 -68.32809448242188 918.9238891601562
      vertex -259.80438232421875 -69.20026397705078 913.9559936523438
      vertex -264.0704345703125 -35.168983459472656 917.5113525390625
    endloop
  endfacet
  facet normal 0.8608520036160419 0.1727402210029721 -0.47863832265928163
    outer loop
      vertex -253.8992156982422 -67.61798095703125 923.5774536132812
      vertex -261.8032531738281 -34.87050247192383 921.1802368164062
      vertex -258.9505920410156 -34.49494552612305 926.4464111328125
    endloop
  endfacet
  facet normal 0.8455922517942179 0.16697779974464105 -0.507042560440465
    outer loop
      vertex -253.8992156982422 -67.61798095703125 923.5774536132812
      vertex -256.5494079589844 -68.32809448242188 918.9238891601562
      vertex -261.8032531738281 -34.87050247192383 921.1802368164062
    endloop
  endfacet
  facet normal 0.8901652041116671 0.17858728038361452 -0.41918073986529764
    outer loop
      vertex -251.27719116210938 -66.91541290283203 928.9291381835938
      vertex -258.9505920410156 -34.49494552612305 926.4464111328125
      vertex -256.4524230957031 -34.166053771972656 931.8916015625
    endloop
  endfacet
  facet normal 0.8753892426564296 0.1726111009745423 -0.45155185932709746
    outer loop
      vertex -251.27719116210938 -66.91541290283203 928.9291381835938
      vertex -253.8992156982422 -67.61798095703125 923.5774536132812
      vertex -258.9505920410156 -34.49494552612305 926.4464111328125
    endloop
  endfacet
  facet normal 0.9155298857769156 0.183646493095081 -0.3578812565966342
    outer loop
      vertex -249.00567626953125 -66.30675506591797 934.4488525390625
      vertex -256.4524230957031 -34.166053771972656 931.8916015625
      vertex -254.31968688964844 -33.88527297973633 937.4916381835938
    endloop
  endfacet
  facet normal 0.9029101733204129 0.17807096214789242 -0.39120832219448737
    outer loop
      vertex -249.00567626953125 -66.30675506591797 934.4488525390625
      vertex -251.27719116210938 -66.91541290283203 928.9291381835938
      vertex -256.4524230957031 -34.166053771972656 931.8916015625
    endloop
  endfacet
  facet normal 0.9368437218447155 0.18789741260097773 -0.2949888187338617
    outer loop
      vertex -247.0946502685547 -65.7947006225586 940.1121826171875
      vertex -254.31968688964844 -33.88527297973633 937.4916381835938
      vertex -252.56179809570312 -33.65384292602539 943.2218627929688
    endloop
  endfacet
  facet normal 0.9264324088012783 0.1827357123564434 -0.3291362200552292
    outer loop
      vertex -247.0946502685547 -65.7947006225586 940.1121826171875
      vertex -249.00567626953125 -66.30675506591797 934.4488525390625
      vertex -254.31968688964844 -33.88527297973633 937.4916381835938
    endloop
  endfacet
  facet normal 0.9540061106521934 0.19132162143273598 -0.23079943243132936
    outer loop
      vertex -245.55252075195312 -65.38148498535156 945.8939208984375
      vertex -252.56179809570312 -33.65384292602539 943.2218627929688
      vertex -251.1864776611328 -33.4727783203125 949.0568237304688
    endloop
  endfacet
  facet normal 0.9458503940612565 0.18658761871360935 -0.26561643886806113
    outer loop
      vertex -245.55252075195312 -65.38148498535156 945.8939208984375
      vertex -247.0946502685547 -65.7947006225586 940.1121826171875
      vertex -252.56179809570312 -33.65384292602539 943.2218627929688
    endloop
  endfacet
  facet normal 0.9669446457959189 0.19390235995798633 -0.16558963364090307
    outer loop
      vertex -244.3860626220703 -65.06893920898438 951.7686767578125
      vertex -251.1864776611328 -33.4727783203125 949.0568237304688
      vertex -250.1997528076172 -33.342872619628906 954.9708251953125
    endloop
  endfacet
  facet normal 0.9610835992866095 0.18960898560705602 -0.20091477735437754
    outer loop
      vertex -244.3860626220703 -65.06893920898438 951.7686767578125
      vertex -245.55252075195312 -65.38148498535156 945.8939208984375
      vertex -251.1864776611328 -33.4727783203125 949.0568237304688
    endloop
  endfacet
  facet normal 0.9756021759538208 0.19562960800041326 -0.09964662938491496
    outer loop
      vertex -243.6003875732422 -64.85841369628906 957.7103271484375
      vertex -250.1997528076172 -33.342872619628906 954.9708251953125
      vertex -249.60598754882812 -33.26470184326172 960.9376220703125
    endloop
  endfacet
  facet normal 0.9720612756393229 0.19178610689808956 -0.13533279574193016
    outer loop
      vertex -243.6003875732422 -64.85841369628906 957.7103271484375
      vertex -244.3860626220703 -65.06893920898438 951.7686767578125
      vertex -250.1997528076172 -33.342872619628906 954.9708251953125
    endloop
  endfacet
  facet normal 0.9800273687530972 0.1960607348395375 -0.03326476738324894
    outer loop
      vertex -243.2571258544922 -64.76644134521484 962.3145751953125
      vertex -249.60598754882812 -33.26470184326172 960.9376220703125
      vertex -249.40777587890625 -33.23860549926758 966.9310302734375
    endloop
  endfacet
  facet normal 0.9780397500674034 0.1937577996640379 -0.07678647248989638
    outer loop
      vertex -243.2571258544922 -64.76644134521484 962.3145751953125
      vertex -243.6003875732422 -64.85841369628906 957.7103271484375
      vertex -249.60598754882812 -33.26470184326172 960.9376220703125
    endloop
  endfacet
  facet normal 0.9804632520459009 0.19502656975915778 -0.025621250468170573
    outer loop
      vertex -243.14259338378906 -64.73575592041016 966.9310302734375
      vertex -243.2571258544922 -64.76644134521484 962.3145751953125
      vertex -249.40777587890625 -33.23860549926758 966.9310302734375
    endloop
  endfacet
  facet normal 0.7934678163352579 0.15783055090595996 -0.5877910697185509
    outer loop
      vertex -259.80438232421875 -69.20026397705078 913.9559936523438
      vertex -262.1061706542969 -69.81702423095703 910.6831665039062
      vertex -268.8723449707031 -35.80116653442383 910.6831665039062
    endloop
  endfacet
  facet normal 0.7934700769838343 0.1578314883868158 -0.5877877662939835
    outer loop
      vertex -259.80438232421875 -69.20026397705078 913.9559936523438
      vertex -268.8723449707031 -35.80116653442383 910.6831665039062
      vertex -266.509765625 -35.49012756347656 913.9559936523438
    endloop
  endfacet
  facet normal -0.5764909486629894 -0.11467117146605817 -0.8090171250006073
    outer loop
      vertex -262.1061706542969 -69.81702423095703 910.6831665039062
      vertex -285.8759765625 -76.18612670898438 928.5238647460938
      vertex -268.8723449707031 -35.80116653442383 910.6831665039062
    endloop
  endfacet
  facet normal -0.576491310714749 -0.11467092075497527 -0.8090169025450562
    outer loop
      vertex -285.8759765625 -76.18612670898438 928.5238647460938
      vertex -293.2701110839844 -39.0131950378418 928.5238647460938
      vertex -268.8723449707031 -35.80116653442383 910.6831665039062
    endloop
  endfacet
  facet normal -0.771931698855399 -0.15354631895137122 0.6168832792665896
    outer loop
      vertex -293.2701110839844 -39.0131950378418 928.5238647460938
      vertex -285.8759765625 -76.18612670898438 928.5238647460938
      vertex -283.64959716796875 -75.58956909179688 931.4583129882812
    endloop
  endfacet
  facet normal -0.7776041339094701 -0.15565615386455806 0.6091822163285758
    outer loop
      vertex -290.3096923828125 -38.62344741821289 932.40234375
      vertex -293.2701110839844 -39.0131950378418 928.5238647460938
      vertex -283.64959716796875 -75.58956909179688 931.4583129882812
    endloop
  endfacet
  facet normal -0.8215540432629794 -0.1644919396588454 0.5458858450129672
    outer loop
      vertex -287.9219665527344 -38.30909729003906 936.090576171875
      vertex -290.3096923828125 -38.62344741821289 932.40234375
      vertex -281.6042175292969 -75.04151153564453 934.5301513671875
    endloop
  endfacet
  facet normal -0.8082149830109483 -0.16008660477412281 0.566710525937631
    outer loop
      vertex -290.3096923828125 -38.62344741821289 932.40234375
      vertex -283.64959716796875 -75.58956909179688 931.4583129882812
      vertex -281.6042175292969 -75.04151153564453 934.5301513671875
    endloop
  endfacet
  facet normal -0.8605264770122426 -0.17245931147324278 0.47932449159945206
    outer loop
      vertex -285.5929260253906 -38.002471923828125 940.3822021484375
      vertex -287.9219665527344 -38.30909729003906 936.090576171875
      vertex -279.20892333984375 -74.39969635009766 938.7477416992188
    endloop
  endfacet
  facet normal -0.8462031454278712 -0.16703716658938567 0.506002788179835
    outer loop
      vertex -287.9219665527344 -38.30909729003906 936.090576171875
      vertex -281.6042175292969 -75.04151153564453 934.5301513671875
      vertex -279.20892333984375 -74.39969635009766 938.7477416992188
    endloop
  endfacet
  facet normal -0.8959974279898162 -0.17952559130851617 0.4061516602218459
    outer loop
      vertex -283.6195373535156 -37.742671966552734 944.8504638671875
      vertex -285.5929260253906 -38.002471923828125 940.3822021484375
      vertex -277.1546630859375 -73.84925842285156 943.1527099609375
    endloop
  endfacet
  facet normal -0.8838524517380856 -0.1745149496210762 0.43399236849895
    outer loop
      vertex -285.5929260253906 -38.002471923828125 940.3822021484375
      vertex -279.20892333984375 -74.39969635009766 938.7477416992188
      vertex -277.1546630859375 -73.84925842285156 943.1527099609375
    endloop
  endfacet
  facet normal -0.9254921827213629 -0.18539992573428804 0.3302893992536967
    outer loop
      vertex -282.0148620605469 -37.531410217285156 949.4654541015625
      vertex -283.6195373535156 -37.742671966552734 944.8504638671875
      vertex -275.455078125 -73.39385223388672 947.7158813476562
    endloop
  endfacet
  facet normal -0.9156231864664787 -0.1808260863124313 0.3590767423739682
    outer loop
      vertex -283.6195373535156 -37.742671966552734 944.8504638671875
      vertex -277.1546630859375 -73.84925842285156 943.1527099609375
      vertex -275.455078125 -73.39385223388672 947.7158813476562
    endloop
  endfacet
  facet normal -0.9488201435975457 -0.1900463506370249 0.2522354449974896
    outer loop
      vertex -280.7894592285156 -37.370086669921875 954.196533203125
      vertex -282.0148620605469 -37.531410217285156 949.4654541015625
      vertex -274.1213684082031 -73.03648376464844 952.40673828125
    endloop
  endfacet
  facet normal -0.9412891560583029 -0.1859234928417653 0.28179279532409274
    outer loop
      vertex -282.0148620605469 -37.531410217285156 949.4654541015625
      vertex -275.455078125 -73.39385223388672 947.7158813476562
      vertex -274.1213684082031 -73.03648376464844 952.40673828125
    endloop
  endfacet
  facet normal -0.96583114337883 -0.19343500890509757 0.17249086877115236
    outer loop
      vertex -279.9515075683594 -37.259765625 959.01220703125
      vertex -280.7894592285156 -37.370086669921875 954.196533203125
      vertex -273.162353515625 -72.7795181274414 957.1942138671875
    endloop
  endfacet
  facet normal -0.9606905584879367 -0.1897762945020497 0.20262923993641027
    outer loop
      vertex -280.7894592285156 -37.370086669921875 954.196533203125
      vertex -274.1213684082031 -73.03648376464844 952.40673828125
      vertex -273.162353515625 -72.7795181274414 957.1942138671875
    endloop
  endfacet
  facet normal -0.9758151170578734 -0.19476264426223897 0.09925910397192529
    outer loop
      vertex -279.5599365234375 -37.208213806152344 962.962890625
      vertex -279.9515075683594 -37.259765625 959.01220703125
      vertex -272.58441162109375 -72.6246566772461 962.0463256835938
    endloop
  endfacet
  facet normal -0.973696473106227 -0.19236014263257584 0.12211778652952143
    outer loop
      vertex -279.9515075683594 -37.259765625 959.01220703125
      vertex -273.162353515625 -72.7795181274414 957.1942138671875
      vertex -272.58441162109375 -72.6246566772461 962.0463256835938
    endloop
  endfacet
  facet normal -0.9802467389362162 -0.19498325899172794 0.03313396320813805
    outer loop
      vertex -279.4292297363281 -37.19100570678711 966.9310302734375
      vertex -279.5599365234375 -37.208213806152344 962.962890625
      vertex -272.3913269042969 -72.57292175292969 966.9310302734375
    endloop
  endfacet
  facet normal -0.9801329435007862 -0.1941001415002851 0.040798874176305636
    outer loop
      vertex -279.5599365234375 -37.208213806152344 962.962890625
      vertex -272.58441162109375 -72.6246566772461 962.0463256835938
      vertex -272.3913269042969 -72.57292175292969 966.9310302734375
    endloop
  endfacet
  facet normal -0.9807852690056834 -0.19509037931545758 0.0
    outer loop
      vertex -272.3913269042969 -72.57292175292969 966.9310302734375
      vertex -272.3913269042969 -72.57292175292969 1773.77001953125
      vertex -279.4292297363281 -37.19100570678711 966.9310302734375
    endloop
  endfacet
  facet normal -0.9807852690056834 -0.19509037931545758 0.0
    outer loop
      vertex -272.3913269042969 -72.57292175292969 1773.77001953125
      vertex -279.4292297363281 -37.19100570678711 1773.77001953125
      vertex -279.4292297363281 -37.19100570678711 966.9310302734375
    endloop
  endfacet
  facet normal -0.9796055581140027 -0.19485572015752192 -0.04903263029908737
    outer loop
      vertex -279.4292297363281 -37.19100570678711 1773.77001953125
      vertex -272.3913269042969 -72.57292175292969 1773.77001953125
      vertex -272.5691223144531 -72.62056732177734 1777.511474609375
    endloop
  endfacet
  facet normal -0.9794628073337572 -0.19504514823365776 -0.051088151271948753
    outer loop
      vertex -279.6273498535156 -37.21709060668945 1777.66796875
      vertex -279.4292297363281 -37.19100570678711 1773.77001953125
      vertex -272.5691223144531 -72.62056732177734 1777.511474609375
    endloop
  endfacet
  facet normal -0.9691994785517605 -0.19320279572482757 -0.15272540881957472
    outer loop
      vertex -280.2196350097656 -37.295066833496094 1781.5252685546875
      vertex -279.6273498535156 -37.21709060668945 1777.66796875
      vertex -273.10076904296875 -72.76302337646484 1781.2169189453125
    endloop
  endfacet
  facet normal -0.9702261766718306 -0.1927814180934794 -0.14661681669791074
    outer loop
      vertex -279.6273498535156 -37.21709060668945 1777.66796875
      vertex -272.5691223144531 -72.62056732177734 1777.511474609375
      vertex -273.10076904296875 -72.76302337646484 1781.2169189453125
    endloop
  endfacet
  facet normal -0.9488557034946112 -0.18915388982137638 -0.25277195238235767
    outer loop
      vertex -281.199951171875 -37.42412567138672 1785.3017578125
      vertex -280.2196350097656 -37.295066833496094 1781.5252685546875
      vertex -274.0257873535156 -73.01087188720703 1785.0015869140625
    endloop
  endfacet
  facet normal -0.9510224806111428 -0.18875394908475965 -0.24480234491756084
    outer loop
      vertex -280.2196350097656 -37.295066833496094 1781.5252685546875
      vertex -273.10076904296875 -72.76302337646484 1781.2169189453125
      vertex -274.0257873535156 -73.01087188720703 1785.0015869140625
    endloop
  endfacet
  facet normal -0.9186045126892202 -0.1831349969795799 -0.35018184154563164
    outer loop
      vertex -282.55810546875 -37.60293197631836 1788.9580078125
      vertex -281.199951171875 -37.42412567138672 1785.3017578125
      vertex -275.3199157714844 -73.35763549804688 1788.6693115234375
    endloop
  endfacet
  facet normal -0.9215599348913011 -0.18289467275640922 -0.34245704121899256
    outer loop
      vertex -281.199951171875 -37.42412567138672 1785.3017578125
      vertex -274.0257873535156 -73.01087188720703 1785.0015869140625
      vertex -275.3199157714844 -73.35763549804688 1788.6693115234375
    endloop
  endfacet
  facet normal -0.8807534247841844 -0.175603588525933 -0.43981448865145967
    outer loop
      vertex -284.11053466796875 -37.80731201171875 1792.1484375
      vertex -282.55810546875 -37.60293197631836 1788.9580078125
      vertex -276.7893981933594 -73.75138854980469 1791.8387451171875
    endloop
  endfacet
  facet normal -0.8846300965957662 -0.17559684776656306 -0.4319668265635824
    outer loop
      vertex -282.55810546875 -37.60293197631836 1788.9580078125
      vertex -275.3199157714844 -73.35763549804688 1788.6693115234375
      vertex -276.7893981933594 -73.75138854980469 1791.8387451171875
    endloop
  endfacet
  facet normal -0.836941677290173 -0.16647785351200453 -0.5213576057800899
    outer loop
      vertex -285.95068359375 -38.04957580566406 1795.1798095703125
      vertex -284.11053466796875 -37.80731201171875 1792.1484375
      vertex -278.74493408203125 -74.2753677368164 1795.1798095703125
    endloop
  endfacet
  facet normal -0.8393833675042799 -0.16650874466760962 -0.5174073833125999
    outer loop
      vertex -284.11053466796875 -37.80731201171875 1792.1484375
      vertex -276.7893981933594 -73.75138854980469 1791.8387451171875
      vertex -278.74493408203125 -74.2753677368164 1795.1798095703125
    endloop
  endfacet
  facet normal -0.8122636391499226 -0.1615690923283362 -0.5604669561349017
    outer loop
      vertex -278.74493408203125 -74.2753677368164 1795.1798095703125
      vertex -280.7799377441406 -74.82064819335938 1798.2862548828125
      vertex -285.95068359375 -38.04957580566406 1795.1798095703125
    endloop
  endfacet
  facet normal -0.8122626639429787 -0.1615690750153515 -0.5604683744538485
    outer loop
      vertex -280.7799377441406 -74.82064819335938 1798.2862548828125
      vertex -288.0394592285156 -38.32456588745117 1798.2862548828125
      vertex -285.95068359375 -38.04957580566406 1795.1798095703125
    endloop
  endfacet
  facet normal -0.4768146177462504 -0.09484421948670752 0.8738720697753503
    outer loop
      vertex -280.7799377441406 -74.82064819335938 1798.2862548828125
      vertex -251.66058349609375 -67.01814270019531 1815.0216064453125
      vertex -258.1507873535156 -34.3896484375 1815.0216064453125
    endloop
  endfacet
  facet normal -0.47681451626693133 -0.09484429577640725 0.8738721168659689
    outer loop
      vertex -280.7799377441406 -74.82064819335938 1798.2862548828125
      vertex -258.1507873535156 -34.3896484375 1815.0216064453125
      vertex -288.0394592285156 -38.32456588745117 1798.2862548828125
    endloop
  endfacet
  facet normal 0.9803980842045941 0.1950136070494161 0.028094297527031218
    outer loop
      vertex -243.14259338378906 -64.73575592041016 1773.77001953125
      vertex -249.40777587890625 -33.23860549926758 1773.77001953125
      vertex -249.56634521484375 -33.259483337402344 1779.448486328125
    endloop
  endfacet
  facet normal 0.9772013639568236 0.1949043968755128 0.0842007741028339
    outer loop
      vertex -243.33572387695312 -64.7874984741211 1780.1180419921875
      vertex -249.56634521484375 -33.259483337402344 1779.448486328125
      vertex -250.04159545898438 -33.322052001953125 1785.10888671875
    endloop
  endfacet
  facet normal 0.9804155653844538 0.19441853841574847 0.03141259416485308
    outer loop
      vertex -243.33572387695312 -64.7874984741211 1780.1180419921875
      vertex -243.14259338378906 -64.73575592041016 1773.77001953125
      vertex -249.56634521484375 -33.259483337402344 1779.448486328125
    endloop
  endfacet
  facet normal 0.9704586333026317 0.19408837262130096 0.14331693780430585
    outer loop
      vertex -243.91432189941406 -64.94253540039062 1786.44091796875
      vertex -250.04159545898438 -33.322052001953125 1785.10888671875
      vertex -250.94606018066406 -33.44112777709961 1791.3946533203125
    endloop
  endfacet
  facet normal 0.9766334178839358 0.19321193877414017 0.09410799002996219
    outer loop
      vertex -243.91432189941406 -64.94253540039062 1786.44091796875
      vertex -243.33572387695312 -64.7874984741211 1780.1180419921875
      vertex -250.04159545898438 -33.322052001953125 1785.10888671875
    endloop
  endfacet
  facet normal 0.9597183639278386 0.19194808123846552 0.2051745501970071
    outer loop
      vertex -244.8761444091797 -65.20025634765625 1792.7139892578125
      vertex -250.94606018066406 -33.44112777709961 1791.3946533203125
      vertex -252.24095153808594 -33.611602783203125 1797.611083984375
    endloop
  endfacet
  facet normal 0.9689103361833603 0.19168009343528092 0.15643369911144367
    outer loop
      vertex -244.8761444091797 -65.20025634765625 1792.7139892578125
      vertex -243.91432189941406 -64.94253540039062 1786.44091796875
      vertex -250.94606018066406 -33.44112777709961 1791.3946533203125
    endloop
  endfacet
  facet normal 0.9451878743647273 0.18905134385852773 0.2662319881967104
    outer loop
      vertex -246.2174072265625 -65.55964660644531 1798.912353515625
      vertex -252.24095153808594 -33.611602783203125 1797.611083984375
      vertex -253.9212188720703 -33.83281326293945 1803.7335205078125
    endloop
  endfacet
  facet normal 0.9573635362079259 0.18938833293429677 0.21814472005488308
    outer loop
      vertex -246.2174072265625 -65.55964660644531 1798.912353515625
      vertex -244.8761444091797 -65.20025634765625 1792.7139892578125
      vertex -252.24095153808594 -33.611602783203125 1797.611083984375
    endloop
  endfacet
  facet normal 0.9279497223100531 0.18548347251671246 0.3232726315168623
    outer loop
      vertex -247.932861328125 -66.01930236816406 1805.0115966796875
      vertex -253.9212188720703 -33.83281326293945 1803.7335205078125
      vertex -255.7576446533203 -34.0745849609375 1809.1436767578125
    endloop
  endfacet
  facet normal 0.9420376889434955 0.18634649432229308 0.2789981660581114
    outer loop
      vertex -247.932861328125 -66.01930236816406 1805.0115966796875
      vertex -246.2174072265625 -65.55964660644531 1798.912353515625
      vertex -253.9212188720703 -33.83281326293945 1803.7335205078125
    endloop
  endfacet
  facet normal 0.907397293044851 0.18130298113834592 0.3791561440953124
    outer loop
      vertex -249.6681365966797 -66.48426055908203 1810.0677490234375
      vertex -255.7576446533203 -34.0745849609375 1809.1436767578125
      vertex -258.1507873535156 -34.3896484375 1815.0216064453125
    endloop
  endfacet
  facet normal 0.9245354069646429 0.18323991511478285 0.33415178404050033
    outer loop
      vertex -249.6681365966797 -66.48426055908203 1810.0677490234375
      vertex -247.932861328125 -66.01930236816406 1805.0115966796875
      vertex -255.7576446533203 -34.0745849609375 1809.1436767578125
    endloop
  endfacet
  facet normal 0.9057156425515949 0.1801578433160008 0.3836956167707404
    outer loop
      vertex -251.66058349609375 -67.01814270019531 1815.0216064453125
      vertex -249.6681365966797 -66.48426055908203 1810.0677490234375
      vertex -258.1507873535156 -34.3896484375 1815.0216064453125
    endloop
  endfacet
endsolid v3d.csg
