solid v3d.csg
  facet normal -0.793353182961079 0.6087616340435644 -1.460808631424558E-6
    outer loop
      vertex 173.85385131835938 225.91368103027344 947.7158813476562
      vertex 155.98008728027344 202.62013244628906 940.1121826171875
      vertex 173.01329040527344 224.81825256347656 952.40673828125
    endloop
  endfacet
  facet normal -0.7933535218391141 0.6087611924080382 1.848724574716935E-6
    outer loop
      vertex 155.0081787109375 201.35353088378906 945.8939208984375
      vertex 154.27304077148438 200.3954620361328 951.7686767578125
      vertex 172.40890502929688 224.03057861328125 957.1942138671875
    endloop
  endfacet
  facet normal -0.7933533231017015 0.6087614514105537 5.612244322660411E-8
    outer loop
      vertex 154.27304077148438 200.3954620361328 951.7686767578125
      vertex 153.7778778076172 199.75015258789062 957.7103271484375
      vertex 172.40890502929688 224.03057861328125 957.1942138671875
    endloop
  endfacet
  facet normal -0.793353764170637 0.6087608765912332 2.8556486693117874E-6
    outer loop
      vertex 173.01329040527344 224.81825256347656 952.40673828125
      vertex 155.0081787109375 201.35353088378906 945.8939208984375
      vertex 172.40890502929688 224.03057861328125 957.1942138671875
    endloop
  endfacet
  facet normal -0.7933533554170327 0.6087614092963402 -2.6285041031803123E-7
    outer loop
      vertex 153.7778778076172 199.75015258789062 957.7103271484375
      vertex 153.56153869628906 199.4682159423828 962.3145751953125
      vertex 172.04466247558594 223.55589294433594 962.0463256835938
    endloop
  endfacet
  facet normal -0.793353329411116 0.6087614431877116 -5.584809685577251E-7
    outer loop
      vertex 172.40890502929688 224.03057861328125 957.1942138671875
      vertex 153.7778778076172 199.75015258789062 957.7103271484375
      vertex 172.04466247558594 223.55589294433594 962.0463256835938
    endloop
  endfacet
  facet normal -0.7933533477532323 0.6087614192838382 -5.154503384951811E-7
    outer loop
      vertex 153.56153869628906 199.4682159423828 962.3145751953125
      vertex 153.48936462402344 199.37416076660156 966.9310302734375
      vertex 171.9229736328125 223.39730834960938 966.9310302734375
    endloop
  endfacet
  facet normal -0.7933533562831993 0.6087614081674391 -4.239022201376595E-7
    outer loop
      vertex 172.04466247558594 223.55589294433594 962.0463256835938
      vertex 153.56153869628906 199.4682159423828 962.3145751953125
      vertex 171.9229736328125 223.39730834960938 966.9310302734375
    endloop
  endfacet
  facet normal -0.7933533477533377 0.6087614192839191 0.0
    outer loop
      vertex 153.48936462402344 199.37416076660156 966.9310302734375
      vertex 153.48936462402344 199.37416076660156 1773.77001953125
      vertex 171.9229736328125 223.39730834960938 1773.77001953125
    endloop
  endfacet
  facet normal -0.7933533477533377 0.6087614192839191 0.0
    outer loop
      vertex 171.9229736328125 223.39730834960938 966.9310302734375
      vertex 153.48936462402344 199.37416076660156 966.9310302734375
      vertex 171.9229736328125 223.39730834960938 1773.77001953125
    endloop
  endfacet
  facet normal -0.7933533700547639 0.6087613902197386 -6.926806563703987E-7
    outer loop
      vertex 153.48936462402344 199.37416076660156 1773.77001953125
      vertex 153.61106872558594 199.53277587890625 1780.1180419921875
      vertex 172.00830078125 223.50851440429688 1777.0361328125
    endloop
  endfacet
  facet normal -0.7933533477529137 0.6087614192835937 -1.0338947550932375E-6
    outer loop
      vertex 171.9229736328125 223.39730834960938 1773.77001953125
      vertex 153.48936462402344 199.37416076660156 1773.77001953125
      vertex 172.00830078125 223.50851440429688 1777.0361328125
    endloop
  endfacet
  facet normal -0.7933533155548047 0.6087614612447831 1.1467314118298796E-6
    outer loop
      vertex 153.61106872558594 199.53277587890625 1780.1180419921875
      vertex 153.97573852539062 200.0080108642578 1786.44091796875
      vertex 172.26368713378906 223.84133911132812 1780.2783203125
    endloop
  endfacet
  facet normal -0.7933533126427658 0.6087614650408615 2.3210763695599345E-7
    outer loop
      vertex 172.00830078125 223.50851440429688 1777.0361328125
      vertex 153.61106872558594 199.53277587890625 1780.1180419921875
      vertex 172.26368713378906 223.84133911132812 1780.2783203125
    endloop
  endfacet
  facet normal -0.7933535874180612 0.6087611069466343 -3.74960381926411E-8
    outer loop
      vertex 153.97573852539062 200.0080108642578 1786.44091796875
      vertex 154.5819091796875 200.79798889160156 1792.7139892578125
      vertex 172.78875732421875 224.525634765625 1784.0855712890625
    endloop
  endfacet
  facet normal -0.7933536607085686 0.6087610114303463 -1.6171565405957086E-6
    outer loop
      vertex 172.26368713378906 223.84133911132812 1780.2783203125
      vertex 153.97573852539062 200.0080108642578 1786.44091796875
      vertex 172.78875732421875 224.525634765625 1784.0855712890625
    endloop
  endfacet
  facet normal -0.7933534565686967 0.6087612774726142 -6.419193486859573E-7
    outer loop
      vertex 154.5819091796875 200.79798889160156 1792.7139892578125
      vertex 155.2703399658203 201.69517517089844 1797.888671875
      vertex 173.4619598388672 225.4029541015625 1787.421630859375
    endloop
  endfacet
  facet normal -0.7933531134010606 0.608761724691821 2.661491732462316E-6
    outer loop
      vertex 172.78875732421875 224.525634765625 1784.0855712890625
      vertex 154.5819091796875 200.79798889160156 1792.7139892578125
      vertex 173.4619598388672 225.4029541015625 1787.421630859375
    endloop
  endfacet
  facet normal -0.7933529359476804 0.608761955956478 1.7996766131305702E-6
    outer loop
      vertex 173.4619598388672 225.4029541015625 1787.421630859375
      vertex 155.2703399658203 201.69517517089844 1797.888671875
      vertex 174.4256591796875 226.6588592529297 1790.99169921875
    endloop
  endfacet
  facet normal -0.7933532839637809 0.6087615024155443 -8.084839490968871E-7
    outer loop
      vertex 155.2703399658203 201.69517517089844 1797.888671875
      vertex 156.1231689453125 202.80661010742188 1802.997314453125
      vertex 174.4256591796875 226.6588592529297 1790.99169921875
    endloop
  endfacet
  facet normal -0.7933523524515511 0.6087627163824877 -1.4847710079414876E-6
    outer loop
      vertex 165.44088745117188 214.94969177246094 910.6831665039062
      vertex 163.99021911621094 213.0591583251953 913.9559936523438
      vertex 179.01834106445312 232.6441650390625 931.4583129882812
    endloop
  endfacet
  facet normal -0.7933538858749161 0.6087607179883436 1.2194465728421793E-6
    outer loop
      vertex 180.42147827148438 234.4727783203125 928.5238647460938
      vertex 165.44088745117188 214.94969177246094 910.6831665039062
      vertex 179.01834106445312 232.6441650390625 931.4583129882812
    endloop
  endfacet
  facet normal -0.7933537161351221 0.6087609391970252 1.5961984619592717E-6
    outer loop
      vertex 163.99021911621094 213.0591583251953 913.9559936523438
      vertex 161.93881225585938 210.3856964111328 918.9238891601562
      vertex 177.72927856445312 230.96421813964844 934.5301513671875
    endloop
  endfacet
  facet normal -0.7933529959183042 0.6087618778038867 -3.701725167177755E-7
    outer loop
      vertex 161.93881225585938 210.3856964111328 918.9238891601562
      vertex 160.26856994628906 208.20899963378906 923.5774536132812
      vertex 177.72927856445312 230.96421813964844 934.5301513671875
    endloop
  endfacet
  facet normal -0.7933535635140936 0.6087611380974838 1.3211838504808934E-6
    outer loop
      vertex 179.01834106445312 232.6441650390625 931.4583129882812
      vertex 163.99021911621094 213.0591583251953 913.9559936523438
      vertex 177.72927856445312 230.96421813964844 934.5301513671875
    endloop
  endfacet
  facet normal -0.7933534796064657 0.6087612474494016 4.021545048066514E-7
    outer loop
      vertex 160.26856994628906 208.20899963378906 923.5774536132812
      vertex 158.61607360839844 206.055419921875 928.9291381835938
      vertex 176.21966552734375 228.9968719482422 938.7477416992188
    endloop
  endfacet
  facet normal -0.7933525861921705 0.6087624117647593 -2.1327067707027533E-6
    outer loop
      vertex 177.72927856445312 230.96421813964844 934.5301513671875
      vertex 160.26856994628906 208.20899963378906 923.5774536132812
      vertex 176.21966552734375 228.9968719482422 938.7477416992188
    endloop
  endfacet
  facet normal -0.7933533899323045 0.608761364315202 1.2057826340369035E-7
    outer loop
      vertex 158.61607360839844 206.055419921875 928.9291381835938
      vertex 157.18447875976562 204.18972778320312 934.4488525390625
      vertex 174.9250030517578 227.30963134765625 943.1527099609375
    endloop
  endfacet
  facet normal -0.793353477242372 0.6087612505303572 3.907172226905987E-7
    outer loop
      vertex 176.21966552734375 228.9968719482422 938.7477416992188
      vertex 158.61607360839844 206.055419921875 928.9291381835938
      vertex 174.9250030517578 227.30963134765625 943.1527099609375
    endloop
  endfacet
  facet normal -0.7933534352132149 0.6087613053039522 1.3922941755053352E-7
    outer loop
      vertex 157.18447875976562 204.18972778320312 934.4488525390625
      vertex 155.98008728027344 202.62013244628906 940.1121826171875
      vertex 173.85385131835938 225.91368103027344 947.7158813476562
    endloop
  endfacet
  facet normal -0.7933533260000497 0.6087614476333119 -2.3104725583853415E-7
    outer loop
      vertex 174.9250030517578 227.30963134765625 943.1527099609375
      vertex 157.18447875976562 204.18972778320312 934.4488525390625
      vertex 173.85385131835938 225.91368103027344 947.7158813476562
    endloop
  endfacet
  facet normal -0.7933531881536566 0.6087616272765157 -1.4413966254461327E-6
    outer loop
      vertex 155.98008728027344 202.62013244628906 940.1121826171875
      vertex 155.0081787109375 201.35353088378906 945.8939208984375
      vertex 173.01329040527344 224.81825256347656 952.40673828125
    endloop
  endfacet
  facet normal 0.7071067811865475 -0.7071067811865475 0.0
    outer loop
      vertex 177.74453735351562 178.3102264404297 1779.381103515625
      vertex 199.18695068359375 199.7526397705078 1777.66796875
      vertex 178.07550048828125 178.6411895751953 1784.9749755859375
    endloop
  endfacet
  facet normal 0.7071070188703293 -0.7071065435026804 -8.800878010149762E-8
    outer loop
      vertex 199.609375 200.17506408691406 1781.5252685546875
      vertex 200.3085479736328 200.87423706054688 1785.3017578125
      vertex 178.71463012695312 179.28030395507812 1791.2618408203125
    endloop
  endfacet
  facet normal 0.707106645920633 -0.7071069164504197 -1.6887099185521727E-6
    outer loop
      vertex 178.07550048828125 178.6411895751953 1784.9749755859375
      vertex 199.609375 200.17506408691406 1781.5252685546875
      vertex 178.71463012695312 179.28030395507812 1791.2618408203125
    endloop
  endfacet
  facet normal 0.7071069801610569 -0.707106582211949 2.1663943630224812E-7
    outer loop
      vertex 191.5164031982422 192.0820770263672 910.6831665039062
      vertex 208.91709899902344 209.4827880859375 928.5238647460938
      vertex 206.80569458007812 207.3713836669922 932.40234375
    endloop
  endfacet
  facet normal 0.7071070084107465 -0.7071065539622661 -1.1642736407825597E-7
    outer loop
      vertex 200.3085479736328 200.87423706054688 1785.3017578125
      vertex 201.0493927001953 201.61508178710938 1788.1934814453125
      vertex 179.52810668945312 180.09378051757812 1796.8621826171875
    endloop
  endfacet
  facet normal 0.7071056325420914 -0.7071079298259779 2.113959150264612E-6
    outer loop
      vertex 191.5164031982422 192.0820770263672 910.6831665039062
      vertex 206.80569458007812 207.3713836669922 932.40234375
      vertex 189.8313751220703 190.39706420898438 913.9559936523438
    endloop
  endfacet
  facet normal 0.7071070213859348 -0.7071065409870751 -6.978024328560002E-8
    outer loop
      vertex 178.71463012695312 179.28030395507812 1791.2618408203125
      vertex 200.3085479736328 200.87423706054688 1785.3017578125
      vertex 179.52810668945312 180.09378051757812 1796.8621826171875
    endloop
  endfacet
  facet normal 0.7071067811865475 -0.7071067811865475 0.0
    outer loop
      vertex 201.0493927001953 201.61508178710938 1788.1934814453125
      vertex 201.95265197753906 202.51834106445312 1790.99169921875
      vertex 180.6934051513672 181.25909423828125 1802.997314453125
    endloop
  endfacet
  facet normal 0.7071073430609595 -0.7071062193100007 1.5452120076643215E-6
    outer loop
      vertex 179.52810668945312 180.09378051757812 1796.8621826171875
      vertex 201.0493927001953 201.61508178710938 1788.1934814453125
      vertex 180.6934051513672 181.25909423828125 1802.997314453125
    endloop
  endfacet
  facet normal 0.7071067811865475 -0.7071067811865475 0.0
    outer loop
      vertex 206.80569458007812 207.3713836669922 932.40234375
      vertex 205.10275268554688 205.66844177246094 936.090576171875
      vertex 188.09164428710938 188.65733337402344 917.5113525390625
    endloop
  endfacet
  facet normal 0.7071067811865476 -0.7071067811865476 0.0
    outer loop
      vertex 189.8313751220703 190.39706420898438 913.9559936523438
      vertex 206.80569458007812 207.3713836669922 932.40234375
      vertex 188.09164428710938 188.65733337402344 917.5113525390625
    endloop
  endfacet
  facet normal 0.7071075493681132 -0.7071060130015421 -1.919445671259533E-6
    outer loop
      vertex 205.10275268554688 205.66844177246094 936.090576171875
      vertex 203.44166564941406 204.00733947753906 940.3822021484375
      vertex 186.4746551513672 187.04034423828125 921.1802368164062
    endloop
  endfacet
  facet normal 0.7071067811865476 -0.7071067811865476 0.0
    outer loop
      vertex 188.09164428710938 188.65733337402344 917.5113525390625
      vertex 205.10275268554688 205.66844177246094 936.090576171875
      vertex 186.4746551513672 187.04034423828125 921.1802368164062
    endloop
  endfacet
  facet normal 0.707106559956619 -0.7071070024163861 -1.7093964210711086E-7
    outer loop
      vertex 186.4746551513672 187.04034423828125 921.1802368164062
      vertex 203.44166564941406 204.00733947753906 940.3822021484375
      vertex 184.44012451171875 185.0058135986328 926.4464111328125
    endloop
  endfacet
  facet normal 0.7071061141959258 -0.707107448173727 1.9945361291169467E-6
    outer loop
      vertex 203.44166564941406 204.00733947753906 940.3822021484375
      vertex 202.0342254638672 202.59991455078125 944.8504638671875
      vertex 182.6584014892578 183.22409057617188 931.8916015625
    endloop
  endfacet
  facet normal 0.7071065522196032 -0.7071070101534018 -1.4984070848570534E-7
    outer loop
      vertex 184.44012451171875 185.0058135986328 926.4464111328125
      vertex 203.44166564941406 204.00733947753906 940.3822021484375
      vertex 182.6584014892578 183.22409057617188 931.8916015625
    endloop
  endfacet
  facet normal 0.7071071597752627 -0.7071064025943604 -2.1501706283226005E-6
    outer loop
      vertex 202.0342254638672 202.59991455078125 944.8504638671875
      vertex 200.88975524902344 201.45542907714844 949.4654541015625
      vertex 181.1373291015625 181.70301818847656 937.4916381835938
    endloop
  endfacet
  facet normal 0.7071067811865476 -0.7071067811865476 0.0
    outer loop
      vertex 182.6584014892578 183.22409057617188 931.8916015625
      vertex 202.0342254638672 202.59991455078125 944.8504638671875
      vertex 181.1373291015625 181.70301818847656 937.4916381835938
    endloop
  endfacet
  facet normal 0.7071064599009076 -0.7071071024687368 2.1618784589856787E-6
    outer loop
      vertex 200.88975524902344 201.45542907714844 949.4654541015625
      vertex 200.0157928466797 200.58148193359375 954.196533203125
      vertex 179.8835906982422 180.4492645263672 943.2218627929688
    endloop
  endfacet
  facet normal 0.7071070439268291 -0.7071065184439583 -1.7679535873205274E-6
    outer loop
      vertex 181.1373291015625 181.70301818847656 937.4916381835938
      vertex 200.88975524902344 201.45542907714844 949.4654541015625
      vertex 179.8835906982422 180.4492645263672 943.2218627929688
    endloop
  endfacet
  facet normal 0.7071070458995687 -0.7071065164700826 -2.174811000593645E-6
    outer loop
      vertex 200.0157928466797 200.58148193359375 954.196533203125
      vertex 199.41815185546875 199.98382568359375 959.01220703125
      vertex 178.90269470214844 179.4683837890625 949.0568237304688
    endloop
  endfacet
  facet normal 0.7071065649608038 -0.7071069974099936 1.77643157347315E-6
    outer loop
      vertex 179.8835906982422 180.4492645263672 943.2218627929688
      vertex 200.0157928466797 200.58148193359375 954.196533203125
      vertex 178.90269470214844 179.4683837890625 949.0568237304688
    endloop
  endfacet
  facet normal 0.707106532579375 -0.7071070297936303 -5.916590498114484E-8
    outer loop
      vertex 178.90269470214844 179.4683837890625 949.0568237304688
      vertex 199.41815185546875 199.98382568359375 959.01220703125
      vertex 178.19895935058594 178.7646484375 954.9708251953125
    endloop
  endfacet
  facet normal 0.7071066525918743 -0.7071069097759932 2.7128905807017346E-6
    outer loop
      vertex 199.41815185546875 199.98382568359375 959.01220703125
      vertex 199.13888549804688 199.70457458496094 962.962890625
      vertex 177.7754669189453 178.34115600585938 960.9376220703125
    endloop
  endfacet
  facet normal 0.7071065303359831 -0.7071070320370219 -3.5608149108166585E-8
    outer loop
      vertex 178.19895935058594 178.7646484375 954.9708251953125
      vertex 199.41815185546875 199.98382568359375 959.01220703125
      vertex 177.7754669189453 178.34115600585938 960.9376220703125
    endloop
  endfacet
  facet normal 0.7071070331437872 -0.7071065292292179 1.1839442343040837E-8
    outer loop
      vertex 199.13888549804688 199.70457458496094 962.962890625
      vertex 199.045654296875 199.61134338378906 966.9310302734375
      vertex 177.6341094970703 178.1997833251953 966.9310302734375
    endloop
  endfacet
  facet normal 0.7071068663272494 -0.7071066960435539 -1.7962269030525266E-6
    outer loop
      vertex 177.7754669189453 178.34115600585938 960.9376220703125
      vertex 199.13888549804688 199.70457458496094 962.962890625
      vertex 177.6341094970703 178.1997833251953 966.9310302734375
    endloop
  endfacet
  facet normal 0.7071070331437872 -0.707106529229218 0.0
    outer loop
      vertex 199.045654296875 199.61134338378906 966.9310302734375
      vertex 199.045654296875 199.61134338378906 1773.77001953125
      vertex 177.6341094970703 178.1997833251953 1773.77001953125
    endloop
  endfacet
  facet normal 0.7071070331437872 -0.707106529229218 0.0
    outer loop
      vertex 177.6341094970703 178.1997833251953 966.9310302734375
      vertex 199.045654296875 199.61134338378906 966.9310302734375
      vertex 177.6341094970703 178.1997833251953 1773.77001953125
    endloop
  endfacet
  facet normal 0.7071067811865475 -0.7071067811865475 0.0
    outer loop
      vertex 199.045654296875 199.61134338378906 1773.77001953125
      vertex 199.18695068359375 199.7526397705078 1777.66796875
      vertex 177.74453735351562 178.3102264404297 1779.381103515625
    endloop
  endfacet
  facet normal 0.7071070331424935 -0.7071065292279242 1.9129892189075973E-6
    outer loop
      vertex 177.6341094970703 178.1997833251953 1773.77001953125
      vertex 199.045654296875 199.61134338378906 1773.77001953125
      vertex 177.74453735351562 178.3102264404297 1779.381103515625
    endloop
  endfacet
  facet normal 0.7071067811865476 -0.7071067811865476 0.0
    outer loop
      vertex 199.18695068359375 199.7526397705078 1777.66796875
      vertex 199.609375 200.17506408691406 1781.5252685546875
      vertex 178.07550048828125 178.6411895751953 1784.9749755859375
    endloop
  endfacet
  facet normal -0.6593458940043572 -0.7518397382817663 0.0
    outer loop
      vertex 153.48936462402344 199.37416076660156 966.9310302734375
      vertex 177.6341094970703 178.1997833251953 966.9310302734375
      vertex 153.48936462402344 199.37416076660156 1773.77001953125
    endloop
  endfacet
  facet normal -0.6593458940043572 -0.7518397382817663 0.0
    outer loop
      vertex 177.6341094970703 178.1997833251953 966.9310302734375
      vertex 177.6341094970703 178.1997833251953 1773.77001953125
      vertex 153.48936462402344 199.37416076660156 1773.77001953125
    endloop
  endfacet
  facet normal -0.533420357773837 -0.6082491146338835 -0.5877888536366853
    outer loop
      vertex 163.99021911621094 213.0591583251953 913.9559936523438
      vertex 165.44088745117188 214.94969177246094 910.6831665039062
      vertex 189.8313751220703 190.39706420898438 913.9559936523438
    endloop
  endfacet
  facet normal -0.5334198292043916 -0.6082487093934726 -0.5877897526605346
    outer loop
      vertex 165.44088745117188 214.94969177246094 910.6831665039062
      vertex 191.5164031982422 192.0820770263672 910.6831665039062
      vertex 189.8313751220703 190.39706420898438 913.9559936523438
    endloop
  endfacet
  facet normal 0.38755366512153333 0.4419202356659261 -0.8090170962098631
    outer loop
      vertex 165.44088745117188 214.94969177246094 910.6831665039062
      vertex 180.42147827148438 234.4727783203125 928.5238647460938
      vertex 191.5164031982422 192.0820770263672 910.6831665039062
    endloop
  endfacet
  facet normal 0.38755366955040077 0.4419202358824141 -0.8090170939699916
    outer loop
      vertex 180.42147827148438 234.4727783203125 928.5238647460938
      vertex 208.91709899902344 209.4827880859375 928.5238647460938
      vertex 191.5164031982422 192.0820770263672 910.6831665039062
    endloop
  endfacet
  facet normal 0.5189417029047569 0.5917395648012764 0.6168823197621303
    outer loop
      vertex 208.91709899902344 209.4827880859375 928.5238647460938
      vertex 180.42147827148438 234.4727783203125 928.5238647460938
      vertex 179.01834106445312 232.6441650390625 931.4583129882812
    endloop
  endfacet
  facet normal 0.5221564934850059 0.596864868849095 0.6091838184367635
    outer loop
      vertex 206.80569458007812 207.3713836669922 932.40234375
      vertex 208.91709899902344 209.4827880859375 928.5238647460938
      vertex 179.01834106445312 232.6441650390625 931.4583129882812
    endloop
  endfacet
  facet normal 0.5516467865099142 0.6306310252770122 0.5458849081000038
    outer loop
      vertex 205.10275268554688 205.66844177246094 936.090576171875
      vertex 206.80569458007812 207.3713836669922 932.40234375
      vertex 177.72927856445312 230.96421813964844 934.5301513671875
    endloop
  endfacet
  facet normal 0.5437463655227833 0.619016272555587 0.5667086943855292
    outer loop
      vertex 206.80569458007812 207.3713836669922 932.40234375
      vertex 179.01834106445312 232.6441650390625 931.4583129882812
      vertex 177.72927856445312 230.96421813964844 934.5301513671875
    endloop
  endfacet
  facet normal 0.5777146950427635 0.6606761376222473 0.4793253303427602
    outer loop
      vertex 203.44166564941406 204.00733947753906 940.3822021484375
      vertex 205.10275268554688 205.66844177246094 936.090576171875
      vertex 176.21966552734375 228.9968719482422 938.7477416992188
    endloop
  endfacet
  facet normal 0.5696520279138335 0.6476549799902176 0.5060035513586125
    outer loop
      vertex 205.10275268554688 205.66844177246094 936.090576171875
      vertex 177.72927856445312 230.96421813964844 934.5301513671875
      vertex 176.21966552734375 228.9968719482422 938.7477416992188
    endloop
  endfacet
  facet normal 0.6015547844591733 0.6878761940890176 0.4061504436780609
    outer loop
      vertex 202.0342254638672 202.59991455078125 944.8504638671875
      vertex 203.44166564941406 204.00733947753906 940.3822021484375
      vertex 174.9250030517578 227.30963134765625 943.1527099609375
    endloop
  endfacet
  facet normal 0.5949698825664217 0.6765077062485945 0.4339909702115514
    outer loop
      vertex 203.44166564941406 204.00733947753906 940.3822021484375
      vertex 176.21966552734375 228.9968719482422 938.7477416992188
      vertex 174.9250030517578 227.30963134765625 943.1527099609375
    endloop
  endfacet
  facet normal 0.6213773115853383 0.7104909722790135 0.33029201467337893
    outer loop
      vertex 200.88975524902344 201.45542907714844 949.4654541015625
      vertex 202.0342254638672 202.59991455078125 944.8504638671875
      vertex 173.85385131835938 225.91368103027344 947.7158813476562
    endloop
  endfacet
  facet normal 0.6163319489101289 0.7008542091529244 0.3590798048697131
    outer loop
      vertex 202.0342254638672 202.59991455078125 944.8504638671875
      vertex 174.9250030517578 227.30963134765625 943.1527099609375
      vertex 173.85385131835938 225.91368103027344 947.7158813476562
    endloop
  endfacet
  facet normal 0.6370570399231354 0.7283799510031909 0.25223198619715553
    outer loop
      vertex 200.0157928466797 200.58148193359375 954.196533203125
      vertex 200.88975524902344 201.45542907714844 949.4654541015625
      vertex 173.01329040527344 224.81825256347656 952.40673828125
    endloop
  endfacet
  facet normal 0.6335916515317179 0.7205233523608056 0.2817937504843861
    outer loop
      vertex 200.88975524902344 201.45542907714844 949.4654541015625
      vertex 173.85385131835938 225.91368103027344 947.7158813476562
      vertex 173.01329040527344 224.81825256347656 952.40673828125
    endloop
  endfacet
  facet normal 0.6484892594068138 0.7414223946182243 0.17249496570213335
    outer loop
      vertex 199.41815185546875 199.98382568359375 959.01220703125
      vertex 200.0157928466797 200.58148193359375 954.196533203125
      vertex 172.40890502929688 224.03057861328125 957.1942138671875
    endloop
  endfacet
  facet normal 0.646638673446276 0.735391770709129 0.20262618186436898
    outer loop
      vertex 200.0157928466797 200.58148193359375 954.196533203125
      vertex 173.01329040527344 224.81825256347656 952.40673828125
      vertex 172.40890502929688 224.03057861328125 957.1942138671875
    endloop
  endfacet
  facet normal 0.6556024989287522 0.7485545695912449 0.09925431850776864
    outer loop
      vertex 199.13888549804688 199.70457458496094 962.962890625
      vertex 199.41815185546875 199.98382568359375 959.01220703125
      vertex 172.04466247558594 223.55589294433594 962.0463256835938
    endloop
  endfacet
  facet normal 0.6553842035214863 0.7453581469641083 0.12211788783277308
    outer loop
      vertex 199.41815185546875 199.98382568359375 959.01220703125
      vertex 172.40890502929688 224.03057861328125 957.1942138671875
      vertex 172.04466247558594 223.55589294433594 962.0463256835938
    endloop
  endfacet
  facet normal 0.6589838979318325 0.7514267279905515 0.033137512398813206
    outer loop
      vertex 199.045654296875 199.61134338378906 966.9310302734375
      vertex 199.13888549804688 199.70457458496094 962.962890625
      vertex 171.9229736328125 223.39730834960938 966.9310302734375
    endloop
  endfacet
  facet normal 0.6594309824666954 0.7506572260581426 0.0407983863615167
    outer loop
      vertex 199.13888549804688 199.70457458496094 962.962890625
      vertex 172.04466247558594 223.55589294433594 962.0463256835938
      vertex 171.9229736328125 223.39730834960938 966.9310302734375
    endloop
  endfacet
  facet normal 0.6593460095558583 0.7518396369457825 -0.0
    outer loop
      vertex 171.9229736328125 223.39730834960938 966.9310302734375
      vertex 171.9229736328125 223.39730834960938 1773.77001953125
      vertex 199.045654296875 199.61134338378906 966.9310302734375
    endloop
  endfacet
  facet normal 0.6593460095558583 0.7518396369457825 0.0
    outer loop
      vertex 171.9229736328125 223.39730834960938 1773.77001953125
      vertex 199.045654296875 199.61134338378906 1773.77001953125
      vertex 199.045654296875 199.61134338378906 966.9310302734375
    endloop
  endfacet
  facet normal 0.6587422438388647 0.7511511744528184 -0.04278515280198401
    outer loop
      vertex 199.045654296875 199.61134338378906 1773.77001953125
      vertex 171.9229736328125 223.39730834960938 1773.77001953125
      vertex 172.00830078125 223.50851440429688 1777.0361328125
    endloop
  endfacet
  facet normal 0.6579190049931036 0.7513540750235151 -0.051084604475737073
    outer loop
      vertex 199.18695068359375 199.7526397705078 1777.66796875
      vertex 199.045654296875 199.61134338378906 1773.77001953125
      vertex 172.00830078125 223.50851440429688 1777.0361328125
    endloop
  endfacet
  facet normal 0.6507003740584926 0.743818702974646 -0.15271791088557157
    outer loop
      vertex 199.609375 200.17506408691406 1781.5252685546875
      vertex 199.18695068359375 199.7526397705078 1777.66796875
      vertex 172.26368713378906 223.84133911132812 1780.2783203125
    endloop
  endfacet
  facet normal 0.6543736180574249 0.7452508629489041 -0.12804811308390726
    outer loop
      vertex 199.18695068359375 199.7526397705078 1777.66796875
      vertex 172.00830078125 223.50851440429688 1777.0361328125
      vertex 172.26368713378906 223.84133911132812 1780.2783203125
    endloop
  endfacet
  facet normal 0.6370280003037839 0.72822223483689 -0.252760169959841
    outer loop
      vertex 200.3085479736328 200.87423706054688 1785.3017578125
      vertex 199.609375 200.17506408691406 1781.5252685546875
      vertex 172.78875732421875 224.525634765625 1784.0855712890625
    endloop
  endfacet
  facet normal 0.6440288501526187 0.7325394918851904 -0.22048295398892642
    outer loop
      vertex 199.609375 200.17506408691406 1781.5252685546875
      vertex 172.26368713378906 223.84133911132812 1780.2783203125
      vertex 172.78875732421875 224.525634765625 1784.0855712890625
    endloop
  endfacet
  facet normal 0.6195651037351281 0.7074946500040931 -0.33998588566184024
    outer loop
      vertex 201.0493927001953 201.61508178710938 1788.1934814453125
      vertex 200.3085479736328 200.87423706054688 1785.3017578125
      vertex 173.4619598388672 225.4029541015625 1787.421630859375
    endloop
  endfacet
  facet normal 0.6267659147399266 0.7131317069805533 -0.314018560947001
    outer loop
      vertex 200.3085479736328 200.87423706054688 1785.3017578125
      vertex 172.78875732421875 224.525634765625 1784.0855712890625
      vertex 173.4619598388672 225.4029541015625 1787.421630859375
    endloop
  endfacet
  facet normal 0.6000239487242299 0.684196370024676 -0.4145438314610884
    outer loop
      vertex 201.95265197753906 202.51834106445312 1790.99169921875
      vertex 201.0493927001953 201.61508178710938 1788.1934814453125
      vertex 174.4256591796875 226.6588592529297 1790.99169921875
    endloop
  endfacet
  facet normal 0.603654051016795 0.6869453580576068 -0.4046082818407439
    outer loop
      vertex 201.0493927001953 201.61508178710938 1788.1934814453125
      vertex 173.4619598388672 225.4029541015625 1787.421630859375
      vertex 174.4256591796875 226.6588592529297 1790.99169921875
    endloop
  endfacet
  facet normal 0.24496842578683878 0.2793329923115661 0.9284199210345415
    outer loop
      vertex 174.4256591796875 226.6588592529297 1790.99169921875
      vertex 156.1231689453125 202.80661010742188 1802.997314453125
      vertex 180.6934051513672 181.25909423828125 1802.997314453125
    endloop
  endfacet
  facet normal 0.24496839075634924 0.27933299009588736 0.9284199309441474
    outer loop
      vertex 174.4256591796875 226.6588592529297 1790.99169921875
      vertex 180.6934051513672 181.25909423828125 1802.997314453125
      vertex 201.95265197753906 202.51834106445312 1790.99169921875
    endloop
  endfacet
  facet normal -0.5425600066315138 -0.618670882841132 -0.5682208883247657
    outer loop
      vertex 163.99021911621094 213.0591583251953 913.9559936523438
      vertex 189.8313751220703 190.39706420898438 913.9559936523438
      vertex 188.09164428710938 188.65733337402344 917.5113525390625
    endloop
  endfacet
  facet normal -0.5593529380243939 -0.6389197926985335 -0.528115318109162
    outer loop
      vertex 161.93881225585938 210.3856964111328 918.9238891601562
      vertex 188.09164428710938 188.65733337402344 917.5113525390625
      vertex 186.4746551513672 187.04034423828125 921.1802368164062
    endloop
  endfacet
  facet normal -0.5469289461207638 -0.6218607929885708 -0.5604978876310388
    outer loop
      vertex 161.93881225585938 210.3856964111328 918.9238891601562
      vertex 163.99021911621094 213.0591583251953 913.9559936523438
      vertex 188.09164428710938 188.65733337402344 917.5113525390625
    endloop
  endfacet
  facet normal -0.5778030406233005 -0.6610982272271618 -0.47863637576303414
    outer loop
      vertex 160.26856994628906 208.20899963378906 923.5774536132812
      vertex 186.4746551513672 187.04034423828125 921.1802368164062
      vertex 184.44012451171875 185.0058135986328 926.4464111328125
    endloop
  endfacet
  facet normal -0.5692045298614785 -0.6472369142224565 -0.5070410043112545
    outer loop
      vertex 160.26856994628906 208.20899963378906 923.5774536132812
      vertex 161.93881225585938 210.3856964111328 918.9238891601562
      vertex 186.4746551513672 187.04034423828125 921.1802368164062
    endloop
  endfacet
  facet normal -0.5974979558642224 -0.68358060019389 -0.4191822464950501
    outer loop
      vertex 158.61607360839844 206.055419921875 928.9291381835938
      vertex 184.44012451171875 185.0058135986328 926.4464111328125
      vertex 182.6584014892578 183.22409057617188 931.8916015625
    endloop
  endfacet
  facet normal -0.5894136058279701 -0.6698445887967844 -0.45155268587899816
    outer loop
      vertex 158.61607360839844 206.055419921875 928.9291381835938
      vertex 160.26856994628906 208.20899963378906 923.5774536132812
      vertex 184.44012451171875 185.0058135986328 926.4464111328125
    endloop
  endfacet
  facet normal -0.6145422077996989 -0.703036842657051 -0.3578785725626454
    outer loop
      vertex 157.18447875976562 204.18972778320312 934.4488525390625
      vertex 182.6584014892578 183.22409057617188 931.8916015625
      vertex 181.1373291015625 181.70301818847656 937.4916381835938
    endloop
  endfacet
  facet normal -0.6079238070120906 -0.6909298239996191 -0.3912091808429114
    outer loop
      vertex 157.18447875976562 204.18972778320312 934.4488525390625
      vertex 158.61607360839844 206.055419921875 928.9291381835938
      vertex 182.6584014892578 183.22409057617188 931.8916015625
    endloop
  endfacet
  facet normal -0.6288629289800536 -0.7193832837216084 -0.29499001280813497
    outer loop
      vertex 155.98008728027344 202.62013244628906 940.1121826171875
      vertex 181.1373291015625 181.70301818847656 937.4916381835938
      vertex 179.8835906982422 180.4492645263672 943.2218627929688
    endloop
  endfacet
  facet normal -0.623745690728945 -0.7089509629776465 -0.3291349956934678
    outer loop
      vertex 155.98008728027344 202.62013244628906 940.1121826171875
      vertex 157.18447875976562 204.18972778320312 934.4488525390625
      vertex 181.1373291015625 181.70301818847656 937.4916381835938
    endloop
  endfacet
  facet normal -0.6403947779104906 -0.7325478689132117 -0.23079893452025618
    outer loop
      vertex 155.0081787109375 201.35353088378906 945.8939208984375
      vertex 179.8835906982422 180.4492645263672 943.2218627929688
      vertex 178.90269470214844 179.4683837890625 949.0568237304688
    endloop
  endfacet
  facet normal -0.6368063689001706 -0.7238274161083229 -0.2656153614121908
    outer loop
      vertex 155.0081787109375 201.35353088378906 945.8939208984375
      vertex 155.98008728027344 202.62013244628906 940.1121826171875
      vertex 179.8835906982422 180.4492645263672 943.2218627929688
    endloop
  endfacet
  facet normal -0.6490883802387332 -0.7424720490824336 -0.16558843851667324
    outer loop
      vertex 154.27304077148438 200.3954620361328 951.7686767578125
      vertex 178.90269470214844 179.4683837890625 949.0568237304688
      vertex 178.19895935058594 178.7646484375 954.9708251953125
    endloop
  endfacet
  facet normal -0.6470520343399419 -0.735497525012972 -0.2009155433418116
    outer loop
      vertex 154.27304077148438 200.3954620361328 951.7686767578125
      vertex 155.0081787109375 201.35353088378906 945.8939208984375
      vertex 178.90269470214844 179.4683837890625 949.0568237304688
    endloop
  endfacet
  facet normal -0.6549050789048819 -0.7491122975603365 -0.0996499035045409
    outer loop
      vertex 153.7778778076172 199.75015258789062 957.7103271484375
      vertex 178.19895935058594 178.7646484375 954.9708251953125
      vertex 177.7754669189453 178.34115600585938 960.9376220703125
    endloop
  endfacet
  facet normal -0.654435663934693 -0.7439078331130814 -0.1353332834278312
    outer loop
      vertex 153.7778778076172 199.75015258789062 957.7103271484375
      vertex 154.27304077148438 200.3954620361328 951.7686767578125
      vertex 178.19895935058594 178.7646484375 954.9708251953125
    endloop
  endfacet
  facet normal -0.6581537249951814 -0.7521483515269485 -0.03326456929318032
    outer loop
      vertex 153.56153869628906 199.4682159423828 962.3145751953125
      vertex 177.7754669189453 178.34115600585938 960.9376220703125
      vertex 177.6341094970703 178.1997833251953 966.9310302734375
    endloop
  endfacet
  facet normal -0.6579787639150771 -0.7491112296408816 -0.07678744599681363
    outer loop
      vertex 153.56153869628906 199.4682159423828 962.3145751953125
      vertex 153.7778778076172 199.75015258789062 957.7103271484375
      vertex 177.7754669189453 178.34115600585938 960.9376220703125
    endloop
  endfacet
  facet normal -0.6591295040321262 -0.7515929928609358 -0.025617767207635138
    outer loop
      vertex 153.48936462402344 199.37416076660156 966.9310302734375
      vertex 153.56153869628906 199.4682159423828 962.3145751953125
      vertex 177.6341094970703 178.1997833251953 966.9310302734375
    endloop
  endfacet
  facet normal -0.6590917217692962 -0.751549910456304 0.027763904413934008
    outer loop
      vertex 153.48936462402344 199.37416076660156 1773.77001953125
      vertex 177.6341094970703 178.1997833251953 1773.77001953125
      vertex 177.74453735351562 178.3102264404297 1779.381103515625
    endloop
  endfacet
  facet normal -0.6566430001181496 -0.7495983025398005 0.08320069245676742
    outer loop
      vertex 153.61106872558594 199.53277587890625 1780.1180419921875
      vertex 177.74453735351562 178.3102264404297 1779.381103515625
      vertex 178.07550048828125 178.6411895751953 1784.9749755859375
    endloop
  endfacet
  facet normal -0.6594996352484399 -0.7510483623293652 0.03141000715621048
    outer loop
      vertex 153.61106872558594 199.53277587890625 1780.1180419921875
      vertex 153.48936462402344 199.37416076660156 1773.77001953125
      vertex 177.74453735351562 178.3102264404297 1779.381103515625
    endloop
  endfacet
  facet normal -0.6518338608713993 -0.744949361851172 0.14199671157818086
    outer loop
      vertex 153.97573852539062 200.0080108642578 1786.44091796875
      vertex 178.07550048828125 178.6411895751953 1784.9749755859375
      vertex 178.71463012695312 179.28030395507812 1791.2618408203125
    endloop
  endfacet
  facet normal -0.6572504890595666 -0.7477733975845292 0.09411025712349351
    outer loop
      vertex 153.97573852539062 200.0080108642578 1786.44091796875
      vertex 153.61106872558594 199.53277587890625 1780.1180419921875
      vertex 178.07550048828125 178.6411895751953 1784.9749755859375
    endloop
  endfacet
  facet normal -0.6451970766862279 -0.7371584552657738 0.20079378492802957
    outer loop
      vertex 154.5819091796875 200.79798889160156 1792.7139892578125
      vertex 178.71463012695312 179.28030395507812 1791.2618408203125
      vertex 179.52810668945312 180.09378051757812 1796.8621826171875
    endloop
  endfacet
  facet normal -0.6520560232815038 -0.7418571443728255 0.15643183769715052
    outer loop
      vertex 154.5819091796875 200.79798889160156 1792.7139892578125
      vertex 153.97573852539062 200.0080108642578 1786.44091796875
      vertex 178.71463012695312 179.28030395507812 1791.2618408203125
    endloop
  endfacet
  facet normal -0.6362275470757625 -0.7267680962862362 0.2588873163413736
    outer loop
      vertex 155.2703399658203 201.69517517089844 1797.888671875
      vertex 179.52810668945312 180.09378051757812 1796.8621826171875
      vertex 180.6934051513672 181.25909423828125 1802.997314453125
    endloop
  endfacet
  facet normal -0.6447203673743981 -0.734127386951159 0.2130554566794395
    outer loop
      vertex 155.2703399658203 201.69517517089844 1797.888671875
      vertex 154.5819091796875 200.79798889160156 1792.7139892578125
      vertex 179.52810668945312 180.09378051757812 1796.8621826171875
    endloop
  endfacet
  facet normal -0.635965319594814 -0.7251795620525439 0.263936952801132
    outer loop
      vertex 156.1231689453125 202.80661010742188 1802.997314453125
      vertex 155.2703399658203 201.69517517089844 1797.888671875
      vertex 180.6934051513672 181.25909423828125 1802.997314453125
    endloop
  endfacet
endsolid v3d.csg
